<?xml version="1.0" encoding="UTF-8"?>
<!DOCTYPE svg PUBLIC "-//W3C//DTD SVG 1.1//EN" "http://www.w3.org/Graphics/SVG/1.1/DTD/svg11.dtd">
<svg xmlns="http://www.w3.org/2000/svg" style="display:none">
  <symbol id="logo" viewBox="0 0 74 75">
    <g xmlns="http://www.w3.org/2000/svg" opacity=".85">
      <path d="M57.2 9.2c-.2-.2-.3-.5-.4-.7-.3.2-.6.3-1 .3.2.3.4.7.4 1.2.3-.4.6-.7 1-.8zM64.9 16.7c-.2-.2-.3-.5-.4-.7-.3.2-.7.3-1.1.3.3.3.5.8.5 1.2.3-.3.6-.6 1-.8zM66.9 23.8c.3-.4.7-.8 1.1-1-.2-.3-.4-.6-.5-1-.4.2-.9.3-1.4.3H66c.5.5.9 1.1.9 1.7zM61.6 10.3c0-.1-.1-.2-.1-.3l-.6.3c.1.1.1.2.2.4.1-.1.3-.3.5-.4zM70.1 29.5c.3-.3.6-.5.9-.7-.1-.2-.3-.5-.3-.7-.4.2-.8.3-1.3.3.3.3.6.6.7 1.1zM68.7 17.8zM34 1.6c-.1-.2-.3-.4-.4-.6-.1.1-.2.1-.3.2.1.2.2.5.3.7.1-.1.3-.2.4-.3zM21.1 9.1c.4-.6 1-.9 1.8-.9-.5-.3-.8-.7-1.1-1.2-.3.2-.7.4-1 .5.2.4.3.9.3 1.3v.3zM39 3.3c-.2-.2-.4-.5-.6-.8-.2.1-.5.3-.8.3.2.4.3.8.3 1.2.3-.3.7-.6 1.1-.7zM9.8 14c-.2-.2-.3-.4-.5-.7-.1.1-.2.1-.3.2.1.2.2.4.3.7.2-.1.4-.1.5-.2zM16.6 11.2c-.4-.3-.7-.6-.9-1.1-.2.2-.5.3-.8.5.2.4.3.8.3 1.2.4-.4.9-.6 1.4-.6zM27.3 5.7c.3-.4.8-.7 1.3-.8-.3-.3-.6-.6-.8-1-.3.2-.5.3-.8.4.2.5.3.9.3 1.4zM71.7 39.9c.2-.2.5-.4.8-.6-.1-.2-.2-.4-.2-.6-.4.1-.8.3-1.3.3.3.2.5.5.7.9zM36.1 71.9c-.3.4-.7.6-1.1.8.2.3.4.5.6.9.2-.2.5-.3.8-.4-.2-.4-.3-.8-.3-1.3zM40 74.4c.1.2.3.4.4.6.1 0 .2-.1.3-.1-.1-.2-.2-.5-.3-.7-.1 0-.3.1-.4.2zM12.3 65.6c.1.1.1.2.2.3.2-.1.4-.2.7-.3-.1-.2-.2-.3-.2-.5-.2.3-.4.4-.7.5zM9 18.8c-.4-.3-.6-.6-.8-1-.2.2-.5.3-.8.4.2.3.3.6.3 1 .4-.2.8-.4 1.3-.4zM16.7 66.8c.2.2.3.5.5.8.3-.2.7-.3 1-.3-.3-.4-.4-.9-.4-1.4-.3.4-.6.7-1.1.9zM74 34.6c0-.1-.1-.2-.1-.2-.2.1-.4.2-.7.2.1.1.2.2.2.4.2-.1.4-.3.6-.4zM4 46.3c-.3.3-.6.6-1 .8.2.3.3.6.4.9.4-.2.8-.3 1.3-.3h.2c-.5-.3-.8-.8-.9-1.4zM9.1 59.3c.2.3.4.5.5.8.4-.2.8-.3 1.2-.3-.4-.4-.6-.9-.6-1.5-.3.4-.7.8-1.1 1zM64.2 62c.2.2.3.4.4.6.1-.1.2-.1.3-.2-.1-.2-.2-.4-.3-.7-.1.2-.2.2-.4.3zM65 57.2c.3.3.6.6.8 1 .2-.2.5-.3.7-.4-.2-.3-.3-.6-.3-1-.3.2-.7.4-1.2.4zM52.9 66.9c-.4.6-1 1-1.8 1h-.2c.5.3 1 .7 1.2 1.3.3-.2.7-.4 1.1-.5-.2-.4-.4-.9-.4-1.4.1-.3.1-.4.1-.4zM57.4 64.8c.4.3.7.6.9 1.1.2-.2.5-.3.8-.4-.2-.4-.3-.8-.3-1.2-.4.3-.9.5-1.4.5zM46.7 70.3c-.3.4-.8.6-1.2.8.3.3.6.6.8 1 .3-.2.5-.3.8-.4-.3-.4-.4-.9-.4-1.4zM7.2 52.1v-.2c-.3.5-.7 1-1.3 1.3.2.3.4.7.5 1.1.4-.2.9-.3 1.4-.3h.4c-.6-.4-1-1.1-1-1.9zM4.6 32.7c1.3 0 2.4 1.1 2.4 2.4 0 1.3-1.1 2.4-2.4 2.4.7.5 1.2 1.3 1.2 2.2 0 1.3-.8 2.3-1.9 2.6.5.5.7 1.2.8 1.9.4-.4 1-.6 1.6-.6 1.3 0 2.3 1 2.3 2.3s-1 2.3-2.3 2.3c.8.5 1.3 1.4 1.3 2.4v.4c.3-.6.9-1 1.7-1 1.2 0 2.1 1 2.1 2.1s-1 2.1-2.1 2.1h-.2c.9.5 1.5 1.4 1.5 2.5v.1c.4-.5 1.1-.9 1.8-.9 1.3 0 2.3 1 2.3 2.3 0 1.1-.8 2-1.8 2.2.5.4.9 1 1.1 1.7.5-.3 1-.5 1.6-.5 1.5 0 2.7 1.2 2.7 2.7v.1c.4-.6 1.1-1 1.9-1 1.3 0 2.4 1.1 2.4 2.4 0 1.1-.7 2-1.6 2.3.3.3.6.7.8 1.1.4-.2.9-.4 1.4-.4-.3-.4-.5-.9-.5-1.5 0-1.3 1-2.3 2.3-2.3s2.3 1 2.3 2.3c0 1.1-.7 2-1.7 2.2.4.3.7.7.9 1.2.4-.3.9-.4 1.4-.5-.3-.4-.5-.9-.5-1.5 0-1.3 1-2.3 2.3-2.3 1.3 0 2.3 1 2.3 2.3 0 1.1-.7 2-1.7 2.2.4.3.6.7.8 1.1.4-.2.8-.4 1.2-.5-.3-.4-.4-.9-.4-1.4 0-1.3 1.1-2.4 2.4-2.4 1.3 0 2.4 1 2.4 2.3.5-.7 1.3-1.1 2.2-1.1 1.2 0 2.2.8 2.6 1.9.5-.4 1.1-.7 1.8-.8-.4-.4-.6-.9-.6-1.5 0-1.3 1-2.3 2.3-2.3 1.2 0 2.2.9 2.3 2.1.5-.7 1.4-1.2 2.3-1.2h.4c-.6-.4-1-1.1-1-1.9 0-1.2 1-2.2 2.2-2.2s2.2 1 2.2 2.2v.1c.5-.9 1.4-1.4 2.5-1.4-.5-.4-.8-1.1-.8-1.8 0-1.3 1-2.3 2.3-2.3 1.1 0 2 .8 2.3 1.8.4-.5 1-.9 1.6-1-.3-.5-.5-1-.5-1.6 0-1.5 1.2-2.7 2.7-2.7-.5-.5-.9-1.1-.9-1.9 0-1.4 1.1-2.5 2.5-2.5 1.1 0 2 .7 2.3 1.6.3-.3.6-.5 1-.7-.2-.4-.3-.8-.4-1.3-.4.3-.9.5-1.4.5-1.3 0-2.3-1-2.3-2.3s1-2.3 2.3-2.3c1.1 0 2 .7 2.2 1.7.3-.3.7-.6 1.1-.8-.2-.4-.4-.8-.4-1.3-.4.3-.9.5-1.4.5-1.3 0-2.3-1-2.3-2.3 0-1.3 1-2.3 2.3-2.3 1.1 0 2 .7 2.3 1.7.3-.3.6-.5.9-.7-.2-.3-.3-.7-.4-1.1-.4.2-.8.3-1.3.3-1.4 0-2.5-1.1-2.5-2.5 0-1.3 1-2.4 2.3-2.5-.6-.5-1-1.3-1-2.2 0-1.2.8-2.2 1.9-2.6-.4-.5-.7-1.1-.7-1.7-.4.3-.9.5-1.5.5-1.3 0-2.3-1.1-2.3-2.3 0-1.2.9-2.2 2.1-2.3-.7-.5-1.1-1.4-1.1-2.3v-.1c-.4.5-1 .8-1.7.8-1.2 0-2.2-1-2.2-2.2 0-1.2.9-2.2 2.1-2.2-.8-.5-1.3-1.4-1.3-2.4-.4.5-1.1.8-1.7.8-1.3 0-2.4-1.1-2.4-2.4 0-1.1.8-2 1.8-2.3-.5-.4-.8-1-1-1.6-.4.3-1 .5-1.6.5-1.5 0-2.7-1.2-2.8-2.7-.5.5-1.1.9-1.9.9-1.4 0-2.5-1.1-2.5-2.5 0-1.1.7-2 1.6-2.3-.3-.3-.5-.6-.7-1-.6.5-1 .7-1.5.7.3.4.5.9.5 1.4 0 1.3-1.1 2.3-2.3 2.3s-2.3-1.1-2.3-2.3c0-1.1.7-2 1.7-2.3-.3-.3-.6-.7-.8-1.1-.4.2-.9.4-1.3.4.3.4.5.9.5 1.4 0 1.3-1 2.3-2.3 2.3-1.3 0-2.3-1-2.3-2.3 0-1.1.7-2 1.7-2.2-.3-.3-.6-.6-.8-1-.3.2-.7.3-1.1.4.3.4.4.9.4 1.4 0 1.4-1.1 2.5-2.5 2.5-1.3 0-2.4-1-2.5-2.3-.5.6-1.3 1.1-2.2 1.1C34 6.8 33 6.1 32.6 5c-.5.4-1.1.7-1.8.7.4.4.6.9.6 1.5 0 1.3-1 2.3-2.3 2.3-1.2 0-2.2-1-2.3-2.2-.5.7-1.4 1.2-2.3 1.2h-.2c.6.4.9 1 .9 1.8 0 1.2-1 2.2-2.2 2.2-1.2 0-2.2-1-2.2-2.2-.5.8-1.4 1.4-2.5 1.4.5.4.8 1.1.8 1.8 0 1.3-1 2.3-2.3 2.3-1.1 0-2.1-.8-2.3-1.8-.4.5-1 .9-1.7 1 .3.5.5 1 .5 1.6 0 1.5-1.2 2.7-2.7 2.7.6.4.9 1.1.9 1.9 0 1.3-1.1 2.4-2.4 2.4-1.1 0-1.9-.7-2.3-1.6-.3.3-.7.5-1.1.7.2.4.4.9.4 1.3.4-.3.9-.5 1.5-.5 1.3 0 2.3 1 2.3 2.3 0 1.3-1 2.3-2.3 2.3-1.1 0-2-.7-2.2-1.7-.3.4-.7.7-1.2.9.3.4.4.9.4 1.4.4-.3.9-.5 1.5-.5 1.3 0 2.3 1 2.3 2.3s-1 2.3-2.3 2.3c-1.1 0-2-.7-2.2-1.7-.3.4-.7.7-1.1.9.2.4.4.8.5 1.2.3-.3.8-.5 1.3-.5zM14 54.9c-.7 0-1.2-.6-1.2-1.2s.6-1.2 1.2-1.2c.7 0 1.2.6 1.2 1.2s-.6 1.2-1.2 1.2zm3.1 6.6c-1 0-1.7-.8-1.7-1.7s.8-1.7 1.7-1.7 1.7.8 1.7 1.7-.8 1.7-1.7 1.7zm4.6 1c-.7 0-1.2-.6-1.2-1.2S21 60 21.7 60s1.2.6 1.2 1.2-.5 1.3-1.2 1.3zm4.7 1.3c-.6 0-1-.4-1-1s.4-1 1-1 1 .4 1 1c0 .5-.4 1-1 1zm4.6 1.5c-.6 0-1-.5-1-1 0-.6.5-1 1-1 .6 0 1 .5 1 1 .1.6-.4 1-1 1zm4.7 1.8c-.7 0-1.3-.6-1.3-1.3s.6-1.3 1.3-1.3c.7 0 1.3.6 1.3 1.3s-.6 1.3-1.3 1.3zm4.6 2c-1 0-1.8-.8-1.8-1.8s.8-1.8 1.8-1.8 1.8.8 1.8 1.8-.8 1.8-1.8 1.8zm6.2-3.7c-.7 0-1.3-.6-1.3-1.3 0-.7.6-1.3 1.3-1.3s1.3.6 1.3 1.3c0 .7-.6 1.3-1.3 1.3zm6.1-3.1c-.7 0-1.3-.6-1.3-1.3 0-.7.6-1.3 1.3-1.3s1.3.6 1.3 1.3c0 .7-.6 1.3-1.3 1.3zm6.1-2.6c-1 0-1.8-.8-1.8-1.8s.8-1.8 1.8-1.8 1.8.8 1.8 1.8-.8 1.8-1.8 1.8zm1.6-5.1c-.7 0-1.3-.6-1.3-1.3s.6-1.3 1.3-1.3c.7 0 1.3.6 1.3 1.3s-.6 1.3-1.3 1.3zm3-9.5c-.6 0-1.1-.5-1.1-1.1s.5-1.1 1.1-1.1 1.1.5 1.1 1.1-.5 1.1-1.1 1.1zm1.5-4.4c-.8 0-1.4-.6-1.4-1.4 0-.8.6-1.4 1.4-1.4s1.4.6 1.4 1.4c0 .8-.7 1.4-1.4 1.4zm1.5-7.8c1 0 1.8.8 1.8 1.8s-.8 1.8-1.8 1.8-1.8-.8-1.8-1.8.8-1.8 1.8-1.8zm-3.1-5.7c.8 0 1.4.6 1.4 1.4 0 .8-.6 1.4-1.4 1.4-.8 0-1.4-.6-1.4-1.4 0-.8.6-1.4 1.4-1.4zm-1.4 20.3c.6 0 1.1.5 1.1 1.1s-.5 1.1-1.1 1.1c-.6 0-1.1-.5-1.1-1.1s.5-1.1 1.1-1.1zM60 21.1c.8 0 1.4.6 1.4 1.4 0 .8-.6 1.4-1.4 1.4-.8 0-1.4-.6-1.4-1.4.1-.8.7-1.4 1.4-1.4zm-3.1-6.7c1 0 1.8.8 1.8 1.8s-.8 1.8-1.8 1.8-1.8-.8-1.8-1.8.8-1.8 1.8-1.8zm-4.6-1c.7 0 1.4.6 1.4 1.4s-.6 1.4-1.4 1.4-1.4-.6-1.4-1.4.6-1.4 1.4-1.4zm-4.7-1.2c.6 0 1.1.5 1.1 1.1s-.5 1.1-1.1 1.1c-.6 0-1.1-.5-1.1-1.1s.5-1.1 1.1-1.1zM43 10.7c.6 0 1.1.5 1.1 1.1 0 .6-.5 1.1-1.1 1.1s-1.1-.5-1.1-1.1c0-.7.4-1.1 1.1-1.1zm-4.7-1.8c.7 0 1.3.6 1.3 1.3 0 .7-.6 1.3-1.3 1.3S37 11 37 10.2c0-.7.6-1.3 1.3-1.3zm-4.6-2c1 0 1.8.8 1.8 1.8s-.8 1.8-1.8 1.8-1.8-.8-1.8-1.8.8-1.8 1.8-1.8zm-6.2 3.7c.7 0 1.3.6 1.3 1.3 0 .7-.6 1.3-1.3 1.3s-1.3-.6-1.3-1.3c0-.8.6-1.3 1.3-1.3zm-6.1 3.1c.7 0 1.3.6 1.3 1.3 0 .7-.6 1.3-1.3 1.3s-1.3-.6-1.3-1.3c0-.7.6-1.3 1.3-1.3zm14.7 4.5l-1.8-1.7 7.4-1.3-1.3 7.4-1.4-1.5-1.8 1.8c3.1.1 6.1 1.3 8.5 3.6 1.4 1.4 2.4 3 2.9 4.7 3.7 1 6.8 3.7 8.2 7.2l2.1-.5-2.6 7-5.6-4.9 2.2-.6c-.8-1.6-2-2.8-3.6-3.7-.2 2.9-1.3 5.8-3.6 8-2 2-4.6 3.2-7.2 3.5 1.4 2.4 4 3.9 7 3.9 2.5 0 4.7-1.1 6.2-2.9l1.2.8 2.3 1.4c-2.2 2.9-5.8 4.8-9.7 4.8-5.4 0-10-3.5-11.6-8.3-2-.5-4-1.6-5.5-3.2-2.3-2.3-3.5-5.4-3.6-8.5L11.2 48.9c0-.1-.1-.2-.1-.2h-.3c-.7 0-1.2-.5-1.2-1.2 0-.5.3-.9.7-1.1-.2-.6-.4-1.2-.5-1.8l26.3-26.4zm-20.8-1.8c1 0 1.7.8 1.7 1.7 0 1-.8 1.7-1.7 1.7-1 0-1.7-.8-1.7-1.7-.1-1 .7-1.7 1.7-1.7zm-1.6 5.1c.7 0 1.3.6 1.3 1.3 0 .7-.6 1.3-1.3 1.3-.7 0-1.3-.6-1.3-1.3.1-.7.6-1.3 1.3-1.3zm-1.5 4.9c.6 0 1 .5 1 1s-.5 1-1 1-1-.5-1-1 .5-1 1-1zM10.7 31c.6 0 1 .5 1 1 0 .6-.5 1-1 1-.6 0-1-.5-1-1s.5-1 1-1zm-1.5 4.4c.7 0 1.3.6 1.3 1.3 0 .7-.6 1.3-1.3 1.3-.7 0-1.3-.6-1.3-1.3.1-.7.6-1.3 1.3-1.3zm.2 5.9c0 1-.8 1.7-1.7 1.7S6 42.2 6 41.3c0-1 .8-1.7 1.7-1.7s1.7.7 1.7 1.7zM37.3 43.1v.3c2.1-.1 4-.9 5.5-2.4s2.4-3.6 2.4-5.8v-.3c-4.4.2-7.9 3.8-7.9 8.2zM33.2 42.4c.3-6 4.9-10.8 10.8-11.5-.3-.5-.7-1.1-1.2-1.5-1.6-1.6-3.6-2.4-5.8-2.4-2.2 0-4.2.9-5.8 2.4-1.5 1.5-2.4 3.6-2.4 5.8 0 2.2.9 4.2 2.4 5.8.6.5 1.3 1 2 1.4zM.9 41.4c-.1-.1-.2-.3-.3-.5-.2.2-.4.3-.6.4.1.1.1.2.2.3.2-.1.5-.2.7-.2zM3.1 37.1c-.3-.3-.6-.7-.8-1.1-.3.3-.5.5-.9.6.2.3.3.5.4.8.4-.2.8-.3 1.3-.3z"/>
    </g>
    <g xmlns="http://www.w3.org/2000/svg" fill="#fff">
      <path d="M57.2 8.2c-.2-.2-.3-.5-.4-.7-.3.2-.6.3-1 .3.2.3.4.7.4 1.2.3-.4.6-.7 1-.8zM64.9 15.7c-.2-.2-.3-.5-.4-.7-.3.2-.7.3-1.1.3.3.3.5.8.5 1.2.3-.3.6-.6 1-.8zM66.9 22.8c.3-.4.7-.8 1.1-1-.2-.3-.4-.6-.5-1-.4.2-.9.3-1.4.3H66c.5.5.9 1.1.9 1.7zM61.6 9.3c0-.1-.1-.2-.1-.3l-.6.3c0 .2.1.3.1.4.2-.1.4-.3.6-.4zM70.1 28.5c.3-.3.6-.5.9-.7-.1-.2-.3-.5-.3-.7-.4.2-.8.3-1.3.3.3.3.6.6.7 1.1zM68.7 16.8zM34 .6c-.1-.2-.3-.4-.4-.6-.1.1-.2.1-.3.2.1.2.2.5.3.7.1-.1.3-.2.4-.3zM21.1 8.1c.4-.6 1-.9 1.8-.9-.5-.3-.8-.7-1.1-1.2-.3.2-.7.4-1 .5.2.4.3.9.3 1.3v.3zM39 2.3c-.2-.2-.4-.5-.6-.8-.2.1-.5.3-.8.3.2.4.3.8.3 1.2.3-.3.7-.6 1.1-.7zM9.8 13c-.2-.2-.3-.4-.5-.7-.1.1-.2.1-.3.2.1.2.2.4.3.7.2-.1.4-.1.5-.2zM16.6 10.2c-.4-.3-.7-.6-.9-1.1-.2.2-.5.3-.8.5.2.4.3.8.3 1.2.4-.4.9-.6 1.4-.6zM27.3 4.7c.3-.4.8-.7 1.3-.8-.3-.3-.6-.6-.8-1-.3.2-.5.3-.8.4.2.5.3.9.3 1.4zM71.7 38.9c.2-.2.5-.4.8-.6-.1-.2-.2-.4-.2-.6-.4.1-.8.3-1.3.3.3.2.5.5.7.9zM36.1 70.9c-.3.4-.7.6-1.1.8.2.3.4.5.6.9.2-.2.5-.3.8-.4-.2-.4-.3-.8-.3-1.3zM40 73.4c.1.2.3.4.4.6.1 0 .2-.1.3-.1-.1-.2-.2-.5-.3-.7-.1 0-.3.1-.4.2zM12.3 64.6c.1.1.1.2.2.3.2-.1.4-.2.7-.3-.1-.2-.2-.3-.2-.5-.2.3-.4.4-.7.5zM9 17.8c-.4-.3-.6-.6-.8-1-.2.2-.5.3-.8.4.2.3.3.6.3 1 .4-.2.8-.4 1.3-.4zM16.7 65.8c.2.2.3.5.5.8.3-.2.7-.3 1-.3-.3-.4-.4-.9-.4-1.4-.3.4-.6.7-1.1.9zM74 33.6c0-.1-.1-.2-.1-.2-.2.1-.4.2-.7.2.1.1.2.2.2.4.2-.1.4-.3.6-.4zM4 45.3c-.3.3-.6.6-1 .8.2.3.3.6.4.9.4-.2.8-.3 1.3-.3h.2c-.5-.3-.8-.8-.9-1.4zM9.1 58.3c.2.3.4.5.5.8.4-.2.8-.3 1.2-.3-.4-.4-.6-.9-.6-1.5-.3.4-.7.8-1.1 1zM64.2 61c.2.2.3.4.4.6.1-.1.2-.1.3-.2-.1-.2-.2-.4-.3-.7-.1.2-.2.2-.4.3zM65 56.2c.3.3.6.6.8 1 .2-.2.5-.3.7-.4-.2-.3-.3-.6-.3-1-.3.2-.7.4-1.2.4zM52.9 65.9c-.4.6-1 1-1.8 1h-.2c.5.3 1 .7 1.2 1.3.3-.2.7-.4 1.1-.5-.2-.4-.4-.9-.4-1.4.1-.3.1-.4.1-.4zM57.4 63.8c.4.3.7.6.9 1.1.2-.2.5-.3.8-.4-.2-.4-.3-.8-.3-1.2-.4.3-.9.5-1.4.5zM46.7 69.3c-.3.4-.8.6-1.2.8.3.3.6.6.8 1 .3-.2.5-.3.8-.4-.3-.4-.4-.9-.4-1.4zM7.2 51.1v-.2c-.3.5-.7 1-1.3 1.3.2.3.4.7.5 1.1.4-.2.9-.3 1.4-.3h.4c-.6-.4-1-1.1-1-1.9zM4.6 31.7c1.3 0 2.4 1.1 2.4 2.4 0 1.3-1.1 2.4-2.4 2.4.7.5 1.2 1.3 1.2 2.2 0 1.3-.8 2.3-1.9 2.6.5.5.7 1.2.8 1.9.4-.4 1-.6 1.6-.6 1.3 0 2.3 1 2.3 2.3s-1 2.3-2.3 2.3c.8.5 1.3 1.4 1.3 2.4v.4c.3-.6.9-1 1.7-1 1.2 0 2.1 1 2.1 2.1s-1 2.1-2.1 2.1h-.2c.9.5 1.5 1.4 1.5 2.5v.1c.4-.5 1.1-.9 1.8-.9 1.3 0 2.3 1 2.3 2.3 0 1.1-.8 2-1.8 2.2.5.4.9 1 1.1 1.7.5-.3 1-.5 1.6-.5 1.5 0 2.7 1.2 2.7 2.7v.1c.4-.6 1.1-1 1.9-1 1.3 0 2.4 1.1 2.4 2.4 0 1.1-.7 2-1.6 2.3.3.3.6.7.8 1.1.4-.2.9-.4 1.4-.4-.3-.4-.5-.9-.5-1.5 0-1.3 1-2.3 2.3-2.3s2.3 1 2.3 2.3c0 1.1-.7 2-1.7 2.2.4.3.7.7.9 1.2.4-.3.9-.4 1.4-.5-.3-.4-.5-.9-.5-1.5 0-1.3 1-2.3 2.3-2.3 1.3 0 2.3 1 2.3 2.3 0 1.1-.7 2-1.7 2.2.4.3.6.7.8 1.1.4-.2.8-.4 1.2-.5-.3-.4-.4-.9-.4-1.4 0-1.3 1.1-2.4 2.4-2.4 1.3 0 2.4 1 2.4 2.3.5-.7 1.3-1.1 2.2-1.1 1.2 0 2.2.8 2.6 1.9.5-.4 1.1-.7 1.8-.8-.4-.4-.6-.9-.6-1.5 0-1.3 1-2.3 2.3-2.3 1.2 0 2.2.9 2.3 2.1.5-.7 1.4-1.2 2.3-1.2h.4c-.6-.4-1-1.1-1-1.9 0-1.2 1-2.2 2.2-2.2s2.2 1 2.2 2.2v.1c.5-.9 1.4-1.4 2.5-1.4-.5-.4-.8-1.1-.8-1.8 0-1.3 1-2.3 2.3-2.3 1.1 0 2 .8 2.3 1.8.4-.5 1-.9 1.6-1-.3-.5-.5-1-.5-1.6 0-1.5 1.2-2.7 2.7-2.7-.5-.5-.9-1.1-.9-1.9 0-1.4 1.1-2.5 2.5-2.5 1.1 0 2 .7 2.3 1.6.3-.3.6-.5 1-.7-.2-.4-.3-.8-.4-1.3-.4.3-.9.5-1.4.5-1.3 0-2.3-1-2.3-2.3s1-2.3 2.3-2.3c1.1 0 2 .7 2.2 1.7.3-.3.7-.6 1.1-.8-.2-.4-.4-.8-.4-1.3-.4.3-.9.5-1.4.5-1.3 0-2.3-1-2.3-2.3 0-1.3 1-2.3 2.3-2.3 1.1 0 2 .7 2.3 1.7.3-.3.6-.5.9-.7-.2-.3-.3-.7-.4-1.1-.4.2-.8.3-1.3.3-1.4 0-2.5-1.1-2.5-2.5 0-1.3 1-2.4 2.3-2.5-.6-.5-1-1.3-1-2.2 0-1.2.8-2.2 1.9-2.6-.4-.5-.7-1.1-.7-1.7-.4.3-.9.5-1.5.5-1.3 0-2.3-1.1-2.3-2.3 0-1.2.9-2.2 2.1-2.3-.7-.5-1.1-1.4-1.1-2.3v-.1c-.4.5-1 .8-1.7.8-1.2 0-2.2-1-2.2-2.2 0-1.2.9-2.2 2.1-2.2-.8-.5-1.3-1.4-1.3-2.4-.4.5-1.1.8-1.7.8-1.3 0-2.4-1.1-2.4-2.4 0-1.1.8-2 1.8-2.3-.5-.4-.8-1-1-1.6-.4.3-1 .5-1.6.5-1.5 0-2.7-1.2-2.8-2.7-.5.5-1.1.9-1.9.9-1.4 0-2.5-1.1-2.5-2.5 0-1.1.7-2 1.6-2.3-.3-.3-.5-.6-.7-1-.6.5-1 .7-1.5.7.3.4.5.9.5 1.4 0 1.3-1.1 2.3-2.3 2.3s-2.3-1.1-2.3-2.3c0-1.1.7-2 1.7-2.3-.3-.3-.6-.7-.8-1.1-.4.2-.9.4-1.3.4.3.4.5.9.5 1.4 0 1.3-1 2.3-2.3 2.3-1.3 0-2.3-1-2.3-2.3 0-1.1.7-2 1.7-2.2-.3-.3-.6-.6-.8-1-.3.2-.7.3-1.1.4.3.4.4.9.4 1.4 0 1.4-1.1 2.5-2.5 2.5-1.3 0-2.4-1-2.5-2.3-.5.6-1.3 1.1-2.2 1.1C34 5.8 33 5.1 32.6 4c-.5.4-1.1.7-1.8.7.4.4.6.9.6 1.5 0 1.3-1 2.3-2.3 2.3-1.2 0-2.2-1-2.3-2.2-.5.7-1.4 1.2-2.3 1.2h-.2c.6.4.9 1 .9 1.8 0 1.2-1 2.2-2.2 2.2-1.2 0-2.2-1-2.2-2.2-.5.8-1.4 1.4-2.5 1.4.5.4.8 1.1.8 1.8 0 1.3-1 2.3-2.3 2.3-1.1 0-2.1-.8-2.3-1.8-.4.5-1 .9-1.7 1 .3.5.5 1 .5 1.6 0 1.5-1.2 2.7-2.7 2.7.6.4.9 1.1.9 1.9 0 1.3-1.1 2.4-2.4 2.4-1.1 0-1.9-.7-2.3-1.6-.3.3-.7.5-1.1.7.2.4.4.9.4 1.3.4-.3.9-.5 1.5-.5 1.3 0 2.3 1 2.3 2.3 0 1.3-1 2.3-2.3 2.3-1.1 0-2-.7-2.2-1.7-.3.4-.7.7-1.2.9.3.4.4.9.4 1.4.4-.3.9-.5 1.5-.5 1.3 0 2.3 1 2.3 2.3s-1 2.3-2.3 2.3c-1.1 0-2-.7-2.2-1.7-.3.4-.7.7-1.1.9.2.4.4.8.5 1.2.3-.3.8-.5 1.3-.5zM14 53.9c-.7 0-1.2-.6-1.2-1.2s.6-1.2 1.2-1.2c.7 0 1.2.6 1.2 1.2s-.6 1.2-1.2 1.2zm3.1 6.6c-1 0-1.7-.8-1.7-1.7s.8-1.7 1.7-1.7 1.7.8 1.7 1.7-.8 1.7-1.7 1.7zm4.6 1c-.7 0-1.2-.6-1.2-1.2S21 59 21.7 59s1.2.6 1.2 1.2-.5 1.3-1.2 1.3zm4.7 1.3c-.6 0-1-.4-1-1s.4-1 1-1 1 .4 1 1c0 .5-.4 1-1 1zm4.6 1.5c-.6 0-1-.5-1-1 0-.6.5-1 1-1 .6 0 1 .5 1 1 .1.6-.4 1-1 1zm4.7 1.8c-.7 0-1.3-.6-1.3-1.3s.6-1.3 1.3-1.3c.7 0 1.3.6 1.3 1.3s-.6 1.3-1.3 1.3zm4.6 2c-1 0-1.8-.8-1.8-1.8s.8-1.8 1.8-1.8 1.8.8 1.8 1.8-.8 1.8-1.8 1.8zm6.2-3.7c-.7 0-1.3-.6-1.3-1.3s.6-1.3 1.3-1.3 1.3.6 1.3 1.3-.6 1.3-1.3 1.3zm6.1-3.1c-.7 0-1.3-.6-1.3-1.3 0-.7.6-1.3 1.3-1.3s1.3.6 1.3 1.3c0 .7-.6 1.3-1.3 1.3zm6.1-2.6c-1 0-1.8-.8-1.8-1.8s.8-1.8 1.8-1.8 1.8.8 1.8 1.8-.8 1.8-1.8 1.8zm1.6-5.1c-.7 0-1.3-.6-1.3-1.3s.6-1.3 1.3-1.3c.7 0 1.3.6 1.3 1.3s-.6 1.3-1.3 1.3zm3-9.5c-.6 0-1.1-.5-1.1-1.1s.5-1.1 1.1-1.1 1.1.5 1.1 1.1-.5 1.1-1.1 1.1zm1.5-4.4c-.8 0-1.4-.6-1.4-1.4 0-.8.6-1.4 1.4-1.4s1.4.6 1.4 1.4c0 .8-.7 1.4-1.4 1.4zm1.5-7.8c1 0 1.8.8 1.8 1.8s-.8 1.8-1.8 1.8-1.8-.8-1.8-1.8.8-1.8 1.8-1.8zm-3.1-5.7c.8 0 1.4.6 1.4 1.4 0 .8-.6 1.4-1.4 1.4-.8 0-1.4-.6-1.4-1.4 0-.8.6-1.4 1.4-1.4zm-1.4 20.3c.6 0 1.1.5 1.1 1.1s-.5 1.1-1.1 1.1c-.6 0-1.1-.5-1.1-1.1s.5-1.1 1.1-1.1zM60 20.1c.8 0 1.4.6 1.4 1.4 0 .8-.6 1.4-1.4 1.4-.8 0-1.4-.6-1.4-1.4.1-.8.7-1.4 1.4-1.4zm-3.1-6.7c1 0 1.8.8 1.8 1.8s-.8 1.8-1.8 1.8-1.8-.8-1.8-1.8.8-1.8 1.8-1.8zm-4.6-1c.7 0 1.4.6 1.4 1.4s-.6 1.4-1.4 1.4-1.4-.6-1.4-1.4.6-1.4 1.4-1.4zm-4.7-1.2c.6 0 1.1.5 1.1 1.1s-.5 1.1-1.1 1.1c-.6 0-1.1-.5-1.1-1.1s.5-1.1 1.1-1.1zM43 9.7c.6 0 1.1.5 1.1 1.1 0 .6-.5 1.1-1.1 1.1s-1.1-.5-1.1-1.1c0-.7.4-1.1 1.1-1.1zm-4.7-1.8c.7 0 1.3.6 1.3 1.3 0 .7-.6 1.3-1.3 1.3S37 10 37 9.2c0-.7.6-1.3 1.3-1.3zm-4.6-2c1 0 1.8.8 1.8 1.8s-.8 1.8-1.8 1.8-1.8-.8-1.8-1.8.8-1.8 1.8-1.8zm-6.2 3.7c.7 0 1.3.6 1.3 1.3 0 .7-.6 1.3-1.3 1.3s-1.3-.6-1.3-1.3c0-.8.6-1.3 1.3-1.3zm-6.1 3.1c.7 0 1.3.6 1.3 1.3 0 .7-.6 1.3-1.3 1.3s-1.3-.6-1.3-1.3c0-.7.6-1.3 1.3-1.3zm14.7 4.5l-1.8-1.7 7.4-1.3-1.3 7.4-1.4-1.5-1.8 1.8c3.1.1 6.1 1.3 8.5 3.6 1.4 1.4 2.4 3 2.9 4.7 3.7 1 6.8 3.7 8.2 7.2l2.1-.5-2.6 7-5.6-4.9 2.2-.6c-.8-1.6-2-2.8-3.6-3.7-.2 2.9-1.3 5.8-3.6 8-2 2-4.6 3.2-7.2 3.5 1.4 2.4 4 3.9 7 3.9 2.5 0 4.7-1.1 6.2-2.9l1.2.8 2.3 1.4c-2.2 2.9-5.8 4.8-9.7 4.8-5.4 0-10-3.5-11.6-8.3-2-.5-4-1.6-5.5-3.2-2.3-2.3-3.5-5.4-3.6-8.5L11.2 47.9c0-.1-.1-.2-.1-.2h-.3c-.7 0-1.2-.5-1.2-1.2 0-.5.3-.9.7-1.1-.2-.6-.4-1.2-.5-1.8l26.3-26.4zm-20.8-1.8c1 0 1.7.8 1.7 1.7 0 1-.8 1.7-1.7 1.7-1 0-1.7-.8-1.7-1.7-.1-1 .7-1.7 1.7-1.7zm-1.6 5.1c.7 0 1.3.6 1.3 1.3 0 .7-.6 1.3-1.3 1.3-.7 0-1.3-.6-1.3-1.3.1-.7.6-1.3 1.3-1.3zm-1.5 4.9c.6 0 1 .5 1 1s-.5 1-1 1-1-.5-1-1 .5-1 1-1zM10.7 30c.6 0 1 .5 1 1 0 .6-.5 1-1 1-.6 0-1-.5-1-1s.5-1 1-1zm-1.5 4.4c.7 0 1.3.6 1.3 1.3 0 .7-.6 1.3-1.3 1.3-.7 0-1.3-.6-1.3-1.3.1-.7.6-1.3 1.3-1.3zm.2 5.9c0 1-.8 1.7-1.7 1.7S6 41.2 6 40.3c0-1 .8-1.7 1.7-1.7s1.7.7 1.7 1.7zM37.3 42.1v.3c2.1-.1 4-.9 5.5-2.4s2.4-3.6 2.4-5.8v-.3c-4.4.2-7.9 3.8-7.9 8.2zM33.2 41.4c.3-6 4.9-10.8 10.8-11.5-.3-.5-.7-1.1-1.2-1.5-1.6-1.6-3.6-2.4-5.8-2.4-2.2 0-4.2.9-5.8 2.4-1.5 1.5-2.4 3.6-2.4 5.8 0 2.2.9 4.2 2.4 5.8.6.5 1.3 1 2 1.4zM.9 40.4c-.1-.1-.2-.3-.3-.5-.2.2-.4.3-.6.4.1.1.1.2.2.3.2-.1.5-.2.7-.2zM3.1 36.1c-.3-.3-.6-.7-.8-1.1-.3.3-.5.5-.9.6.2.3.3.5.4.8.4-.2.8-.3 1.3-.3z"/>
    </g>
  </symbol>
  <symbol id="section__icon--contact" viewBox="0 0 50 50">
    <path fill="#0074BC" d="M50 25c0 13.8-11.2 25-25 25S0 38.8 0 25 11.2 0 25 0s25 11.2 25 25"/>
    <g xmlns="http://www.w3.org/2000/svg" fill="#fff">
      <path d="M25.6 25.9L38.8 15H11.6l13.1 10.9c.3.3.6.3.9 0zM40 16.2l-9.4 7.9 9.4 9.7zM19.4 24.1L10 16.2v17.6zM38.8 35l-9.4-9.7-3.4 3.1h-.6s-.6 0-.6-.3L21 25.3 11.2 35h27.6z"/>
    </g>
  </symbol>
</svg>
