<?xml version="1.0" encoding="UTF-8"?><!DOCTYPE svg PUBLIC "-//W3C//DTD SVG 1.1//EN" "http://www.w3.org/Graphics/SVG/1.1/DTD/svg11.dtd"><svg xmlns="http://www.w3.org/2000/svg" style="display:none"><symbol id="logo" viewBox="0 0 74 75"><g opacity=".85"><path d="M57.2 9.2c-.2-.2-.3-.5-.4-.7-.3.2-.6.3-1 .3.2.3.4.7.4 1.2.3-.4.6-.7 1-.8zM64.9 16.7c-.2-.2-.3-.5-.4-.7-.3.2-.7.3-1.1.3.3.3.5.8.5 1.2.3-.3.6-.6 1-.8zM66.9 23.8c.3-.4.7-.8 1.1-1-.2-.3-.4-.6-.5-1-.4.2-.9.3-1.4.3H66c.5.5.9 1.1.9 1.7zM61.6 10.3c0-.1-.1-.2-.1-.3l-.6.3c.1.1.1.2.2.4.1-.1.3-.3.5-.4zM70.1 29.5c.3-.3.6-.5.9-.7-.1-.2-.3-.5-.3-.7-.4.2-.8.3-1.3.3.3.3.6.6.7 1.1zM34 1.6c-.1-.2-.3-.4-.4-.6-.1.1-.2.1-.3.2.1.2.2.5.3.7.1-.1.3-.2.4-.3zM21.1 9.1c.4-.6 1-.9 1.8-.9-.5-.3-.8-.7-1.1-1.2-.3.2-.7.4-1 .5.2.4.3.9.3 1.3v.3zM39 3.3c-.2-.2-.4-.5-.6-.8-.2.1-.5.3-.8.3.2.4.3.8.3 1.2.3-.3.7-.6 1.1-.7zM9.8 14c-.2-.2-.3-.4-.5-.7-.1.1-.2.1-.3.2.1.2.2.4.3.7.2-.1.4-.1.5-.2zM16.6 11.2c-.4-.3-.7-.6-.9-1.1-.2.2-.5.3-.8.5.2.4.3.8.3 1.2.4-.4.9-.6 1.4-.6zM27.3 5.7c.3-.4.8-.7 1.3-.8-.3-.3-.6-.6-.8-1-.3.2-.5.3-.8.4.2.5.3.9.3 1.4zM71.7 39.9c.2-.2.5-.4.8-.6-.1-.2-.2-.4-.2-.6-.4.1-.8.3-1.3.3.3.2.5.5.7.9zM36.1 71.9c-.3.4-.7.6-1.1.8.2.3.4.5.6.9.2-.2.5-.3.8-.4-.2-.4-.3-.8-.3-1.3zM40 74.4c.1.2.3.4.4.6.1 0 .2-.1.3-.1-.1-.2-.2-.5-.3-.7-.1 0-.3.1-.4.2zM12.3 65.6c.1.1.1.2.2.3.2-.1.4-.2.7-.3-.1-.2-.2-.3-.2-.5-.2.3-.4.4-.7.5zM9 18.8c-.4-.3-.6-.6-.8-1-.2.2-.5.3-.8.4.2.3.3.6.3 1 .4-.2.8-.4 1.3-.4zM16.7 66.8c.2.2.3.5.5.8.3-.2.7-.3 1-.3-.3-.4-.4-.9-.4-1.4-.3.4-.6.7-1.1.9zM74 34.6c0-.1-.1-.2-.1-.2-.2.1-.4.2-.7.2.1.1.2.2.2.4.2-.1.4-.3.6-.4zM4 46.3c-.3.3-.6.6-1 .8.2.3.3.6.4.9.4-.2.8-.3 1.3-.3h.2c-.5-.3-.8-.8-.9-1.4zM9.1 59.3c.2.3.4.5.5.8.4-.2.8-.3 1.2-.3-.4-.4-.6-.9-.6-1.5-.3.4-.7.8-1.1 1zM64.2 62c.2.2.3.4.4.6.1-.1.2-.1.3-.2-.1-.2-.2-.4-.3-.7-.1.2-.2.2-.4.3zM65 57.2c.3.3.6.6.8 1 .2-.2.5-.3.7-.4-.2-.3-.3-.6-.3-1-.3.2-.7.4-1.2.4zM52.9 66.9c-.4.6-1 1-1.8 1h-.2c.5.3 1 .7 1.2 1.3.3-.2.7-.4 1.1-.5-.2-.4-.4-.9-.4-1.4.1-.3.1-.4.1-.4zM57.4 64.8c.4.3.7.6.9 1.1.2-.2.5-.3.8-.4-.2-.4-.3-.8-.3-1.2-.4.3-.9.5-1.4.5zM46.7 70.3c-.3.4-.8.6-1.2.8.3.3.6.6.8 1 .3-.2.5-.3.8-.4-.3-.4-.4-.9-.4-1.4zM7.2 52.1v-.2c-.3.5-.7 1-1.3 1.3.2.3.4.7.5 1.1.4-.2.9-.3 1.4-.3h.4c-.6-.4-1-1.1-1-1.9z"/><path d="M4.6 32.7c1.3 0 2.4 1.1 2.4 2.4 0 1.3-1.1 2.4-2.4 2.4.7.5 1.2 1.3 1.2 2.2 0 1.3-.8 2.3-1.9 2.6.5.5.7 1.2.8 1.9.4-.4 1-.6 1.6-.6 1.3 0 2.3 1 2.3 2.3s-1 2.3-2.3 2.3c.8.5 1.3 1.4 1.3 2.4v.4c.3-.6.9-1 1.7-1 1.2 0 2.1 1 2.1 2.1s-1 2.1-2.1 2.1h-.2c.9.5 1.5 1.4 1.5 2.5v.1c.4-.5 1.1-.9 1.8-.9 1.3 0 2.3 1 2.3 2.3 0 1.1-.8 2-1.8 2.2.5.4.9 1 1.1 1.7.5-.3 1-.5 1.6-.5 1.5 0 2.7 1.2 2.7 2.7v.1c.4-.6 1.1-1 1.9-1 1.3 0 2.4 1.1 2.4 2.4 0 1.1-.7 2-1.6 2.3.3.3.6.7.8 1.1.4-.2.9-.4 1.4-.4-.3-.4-.5-.9-.5-1.5 0-1.3 1-2.3 2.3-2.3s2.3 1 2.3 2.3c0 1.1-.7 2-1.7 2.2.4.3.7.7.9 1.2.4-.3.9-.4 1.4-.5-.3-.4-.5-.9-.5-1.5 0-1.3 1-2.3 2.3-2.3 1.3 0 2.3 1 2.3 2.3 0 1.1-.7 2-1.7 2.2.4.3.6.7.8 1.1.4-.2.8-.4 1.2-.5-.3-.4-.4-.9-.4-1.4 0-1.3 1.1-2.4 2.4-2.4 1.3 0 2.4 1 2.4 2.3.5-.7 1.3-1.1 2.2-1.1 1.2 0 2.2.8 2.6 1.9.5-.4 1.1-.7 1.8-.8-.4-.4-.6-.9-.6-1.5 0-1.3 1-2.3 2.3-2.3 1.2 0 2.2.9 2.3 2.1.5-.7 1.4-1.2 2.3-1.2h.4c-.6-.4-1-1.1-1-1.9 0-1.2 1-2.2 2.2-2.2s2.2 1 2.2 2.2v.1c.5-.9 1.4-1.4 2.5-1.4-.5-.4-.8-1.1-.8-1.8 0-1.3 1-2.3 2.3-2.3 1.1 0 2 .8 2.3 1.8.4-.5 1-.9 1.6-1-.3-.5-.5-1-.5-1.6 0-1.5 1.2-2.7 2.7-2.7-.5-.5-.9-1.1-.9-1.9 0-1.4 1.1-2.5 2.5-2.5 1.1 0 2 .7 2.3 1.6.3-.3.6-.5 1-.7-.2-.4-.3-.8-.4-1.3-.4.3-.9.5-1.4.5-1.3 0-2.3-1-2.3-2.3s1-2.3 2.3-2.3c1.1 0 2 .7 2.2 1.7.3-.3.7-.6 1.1-.8-.2-.4-.4-.8-.4-1.3-.4.3-.9.5-1.4.5-1.3 0-2.3-1-2.3-2.3 0-1.3 1-2.3 2.3-2.3 1.1 0 2 .7 2.3 1.7.3-.3.6-.5.9-.7-.2-.3-.3-.7-.4-1.1-.4.2-.8.3-1.3.3-1.4 0-2.5-1.1-2.5-2.5 0-1.3 1-2.4 2.3-2.5-.6-.5-1-1.3-1-2.2 0-1.2.8-2.2 1.9-2.6-.4-.5-.7-1.1-.7-1.7-.4.3-.9.5-1.5.5-1.3 0-2.3-1.1-2.3-2.3 0-1.2.9-2.2 2.1-2.3-.7-.5-1.1-1.4-1.1-2.3v-.1c-.4.5-1 .8-1.7.8-1.2 0-2.2-1-2.2-2.2 0-1.2.9-2.2 2.1-2.2-.8-.5-1.3-1.4-1.3-2.4-.4.5-1.1.8-1.7.8-1.3 0-2.4-1.1-2.4-2.4 0-1.1.8-2 1.8-2.3-.5-.4-.8-1-1-1.6-.4.3-1 .5-1.6.5-1.5 0-2.7-1.2-2.8-2.7-.5.5-1.1.9-1.9.9-1.4 0-2.5-1.1-2.5-2.5 0-1.1.7-2 1.6-2.3-.3-.3-.5-.6-.7-1-.6.5-1 .7-1.5.7.3.4.5.9.5 1.4 0 1.3-1.1 2.3-2.3 2.3s-2.3-1.1-2.3-2.3c0-1.1.7-2 1.7-2.3-.3-.3-.6-.7-.8-1.1-.4.2-.9.4-1.3.4.3.4.5.9.5 1.4 0 1.3-1 2.3-2.3 2.3-1.3 0-2.3-1-2.3-2.3 0-1.1.7-2 1.7-2.2-.3-.3-.6-.6-.8-1-.3.2-.7.3-1.1.4.3.4.4.9.4 1.4 0 1.4-1.1 2.5-2.5 2.5-1.3 0-2.4-1-2.5-2.3-.5.6-1.3 1.1-2.2 1.1C34 6.8 33 6.1 32.6 5c-.5.4-1.1.7-1.8.7.4.4.6.9.6 1.5 0 1.3-1 2.3-2.3 2.3-1.2 0-2.2-1-2.3-2.2-.5.7-1.4 1.2-2.3 1.2h-.2c.6.4.9 1 .9 1.8 0 1.2-1 2.2-2.2 2.2-1.2 0-2.2-1-2.2-2.2-.5.8-1.4 1.4-2.5 1.4.5.4.8 1.1.8 1.8 0 1.3-1 2.3-2.3 2.3-1.1 0-2.1-.8-2.3-1.8-.4.5-1 .9-1.7 1 .3.5.5 1 .5 1.6 0 1.5-1.2 2.7-2.7 2.7.6.4.9 1.1.9 1.9 0 1.3-1.1 2.4-2.4 2.4-1.1 0-1.9-.7-2.3-1.6-.3.3-.7.5-1.1.7.2.4.4.9.4 1.3.4-.3.9-.5 1.5-.5 1.3 0 2.3 1 2.3 2.3 0 1.3-1 2.3-2.3 2.3-1.1 0-2-.7-2.2-1.7-.3.4-.7.7-1.2.9.3.4.4.9.4 1.4.4-.3.9-.5 1.5-.5 1.3 0 2.3 1 2.3 2.3s-1 2.3-2.3 2.3c-1.1 0-2-.7-2.2-1.7-.3.4-.7.7-1.1.9.2.4.4.8.5 1.2.3-.3.8-.5 1.3-.5zM14 54.9c-.7 0-1.2-.6-1.2-1.2s.6-1.2 1.2-1.2c.7 0 1.2.6 1.2 1.2s-.6 1.2-1.2 1.2zm3.1 6.6c-1 0-1.7-.8-1.7-1.7s.8-1.7 1.7-1.7 1.7.8 1.7 1.7-.8 1.7-1.7 1.7zm4.6 1c-.7 0-1.2-.6-1.2-1.2S21 60 21.7 60s1.2.6 1.2 1.2-.5 1.3-1.2 1.3zm4.7 1.3c-.6 0-1-.4-1-1s.4-1 1-1 1 .4 1 1c0 .5-.4 1-1 1zm4.6 1.5c-.6 0-1-.5-1-1 0-.6.5-1 1-1 .6 0 1 .5 1 1 .1.6-.4 1-1 1zm4.7 1.8c-.7 0-1.3-.6-1.3-1.3s.6-1.3 1.3-1.3c.7 0 1.3.6 1.3 1.3s-.6 1.3-1.3 1.3zm4.6 2c-1 0-1.8-.8-1.8-1.8s.8-1.8 1.8-1.8 1.8.8 1.8 1.8-.8 1.8-1.8 1.8zm6.2-3.7c-.7 0-1.3-.6-1.3-1.3 0-.7.6-1.3 1.3-1.3s1.3.6 1.3 1.3c0 .7-.6 1.3-1.3 1.3zm6.1-3.1c-.7 0-1.3-.6-1.3-1.3 0-.7.6-1.3 1.3-1.3s1.3.6 1.3 1.3c0 .7-.6 1.3-1.3 1.3zm6.1-2.6c-1 0-1.8-.8-1.8-1.8s.8-1.8 1.8-1.8 1.8.8 1.8 1.8-.8 1.8-1.8 1.8zm1.6-5.1c-.7 0-1.3-.6-1.3-1.3s.6-1.3 1.3-1.3c.7 0 1.3.6 1.3 1.3s-.6 1.3-1.3 1.3zm3-9.5c-.6 0-1.1-.5-1.1-1.1s.5-1.1 1.1-1.1 1.1.5 1.1 1.1-.5 1.1-1.1 1.1zm1.5-4.4c-.8 0-1.4-.6-1.4-1.4 0-.8.6-1.4 1.4-1.4s1.4.6 1.4 1.4c0 .8-.7 1.4-1.4 1.4zm1.5-7.8c1 0 1.8.8 1.8 1.8s-.8 1.8-1.8 1.8-1.8-.8-1.8-1.8.8-1.8 1.8-1.8zm-3.1-5.7c.8 0 1.4.6 1.4 1.4 0 .8-.6 1.4-1.4 1.4-.8 0-1.4-.6-1.4-1.4 0-.8.6-1.4 1.4-1.4zm-1.4 20.3c.6 0 1.1.5 1.1 1.1s-.5 1.1-1.1 1.1c-.6 0-1.1-.5-1.1-1.1s.5-1.1 1.1-1.1zM60 21.1c.8 0 1.4.6 1.4 1.4 0 .8-.6 1.4-1.4 1.4-.8 0-1.4-.6-1.4-1.4.1-.8.7-1.4 1.4-1.4zm-3.1-6.7c1 0 1.8.8 1.8 1.8s-.8 1.8-1.8 1.8-1.8-.8-1.8-1.8.8-1.8 1.8-1.8zm-4.6-1c.7 0 1.4.6 1.4 1.4s-.6 1.4-1.4 1.4-1.4-.6-1.4-1.4.6-1.4 1.4-1.4zm-4.7-1.2c.6 0 1.1.5 1.1 1.1s-.5 1.1-1.1 1.1c-.6 0-1.1-.5-1.1-1.1s.5-1.1 1.1-1.1zM43 10.7c.6 0 1.1.5 1.1 1.1 0 .6-.5 1.1-1.1 1.1s-1.1-.5-1.1-1.1c0-.7.4-1.1 1.1-1.1zm-4.7-1.8c.7 0 1.3.6 1.3 1.3 0 .7-.6 1.3-1.3 1.3S37 11 37 10.2c0-.7.6-1.3 1.3-1.3zm-4.6-2c1 0 1.8.8 1.8 1.8s-.8 1.8-1.8 1.8-1.8-.8-1.8-1.8.8-1.8 1.8-1.8zm-6.2 3.7c.7 0 1.3.6 1.3 1.3 0 .7-.6 1.3-1.3 1.3s-1.3-.6-1.3-1.3c0-.8.6-1.3 1.3-1.3zm-6.1 3.1c.7 0 1.3.6 1.3 1.3 0 .7-.6 1.3-1.3 1.3s-1.3-.6-1.3-1.3c0-.7.6-1.3 1.3-1.3zm14.7 4.5l-1.8-1.7 7.4-1.3-1.3 7.4-1.4-1.5-1.8 1.8c3.1.1 6.1 1.3 8.5 3.6 1.4 1.4 2.4 3 2.9 4.7 3.7 1 6.8 3.7 8.2 7.2l2.1-.5-2.6 7-5.6-4.9 2.2-.6c-.8-1.6-2-2.8-3.6-3.7-.2 2.9-1.3 5.8-3.6 8-2 2-4.6 3.2-7.2 3.5 1.4 2.4 4 3.9 7 3.9 2.5 0 4.7-1.1 6.2-2.9l1.2.8 2.3 1.4c-2.2 2.9-5.8 4.8-9.7 4.8-5.4 0-10-3.5-11.6-8.3-2-.5-4-1.6-5.5-3.2-2.3-2.3-3.5-5.4-3.6-8.5L11.2 48.9c0-.1-.1-.2-.1-.2h-.3c-.7 0-1.2-.5-1.2-1.2 0-.5.3-.9.7-1.1-.2-.6-.4-1.2-.5-1.8l26.3-26.4zm-20.8-1.8c1 0 1.7.8 1.7 1.7 0 1-.8 1.7-1.7 1.7-1 0-1.7-.8-1.7-1.7-.1-1 .7-1.7 1.7-1.7zm-1.6 5.1c.7 0 1.3.6 1.3 1.3 0 .7-.6 1.3-1.3 1.3-.7 0-1.3-.6-1.3-1.3.1-.7.6-1.3 1.3-1.3zm-1.5 4.9c.6 0 1 .5 1 1s-.5 1-1 1-1-.5-1-1 .5-1 1-1zM10.7 31c.6 0 1 .5 1 1 0 .6-.5 1-1 1-.6 0-1-.5-1-1s.5-1 1-1zm-1.5 4.4c.7 0 1.3.6 1.3 1.3 0 .7-.6 1.3-1.3 1.3-.7 0-1.3-.6-1.3-1.3.1-.7.6-1.3 1.3-1.3zm.2 5.9c0 1-.8 1.7-1.7 1.7S6 42.2 6 41.3c0-1 .8-1.7 1.7-1.7s1.7.7 1.7 1.7z"/><path d="M37.3 43.1v.3c2.1-.1 4-.9 5.5-2.4s2.4-3.6 2.4-5.8v-.3c-4.4.2-7.9 3.8-7.9 8.2zM33.2 42.4c.3-6 4.9-10.8 10.8-11.5-.3-.5-.7-1.1-1.2-1.5-1.6-1.6-3.6-2.4-5.8-2.4-2.2 0-4.2.9-5.8 2.4-1.5 1.5-2.4 3.6-2.4 5.8 0 2.2.9 4.2 2.4 5.8.6.5 1.3 1 2 1.4zM.9 41.4c-.1-.1-.2-.3-.3-.5-.2.2-.4.3-.6.4.1.1.1.2.2.3.2-.1.5-.2.7-.2zM3.1 37.1c-.3-.3-.6-.7-.8-1.1-.3.3-.5.5-.9.6.2.3.3.5.4.8.4-.2.8-.3 1.3-.3z"/></g><g fill="#FFF"><path d="M57.2 8.2c-.2-.2-.3-.5-.4-.7-.3.2-.6.3-1 .3.2.3.4.7.4 1.2.3-.4.6-.7 1-.8zM64.9 15.7c-.2-.2-.3-.5-.4-.7-.3.2-.7.3-1.1.3.3.3.5.8.5 1.2.3-.3.6-.6 1-.8zM66.9 22.8c.3-.4.7-.8 1.1-1-.2-.3-.4-.6-.5-1-.4.2-.9.3-1.4.3H66c.5.5.9 1.1.9 1.7zM61.6 9.3c0-.1-.1-.2-.1-.3l-.6.3c0 .2.1.3.1.4.2-.1.4-.3.6-.4zM70.1 28.5c.3-.3.6-.5.9-.7-.1-.2-.3-.5-.3-.7-.4.2-.8.3-1.3.3.3.3.6.6.7 1.1zM34 .6c-.1-.2-.3-.4-.4-.6-.1.1-.2.1-.3.2.1.2.2.5.3.7.1-.1.3-.2.4-.3zM21.1 8.1c.4-.6 1-.9 1.8-.9-.5-.3-.8-.7-1.1-1.2-.3.2-.7.4-1 .5.2.4.3.9.3 1.3v.3zM39 2.3c-.2-.2-.4-.5-.6-.8-.2.1-.5.3-.8.3.2.4.3.8.3 1.2.3-.3.7-.6 1.1-.7zM9.8 13c-.2-.2-.3-.4-.5-.7-.1.1-.2.1-.3.2.1.2.2.4.3.7.2-.1.4-.1.5-.2zM16.6 10.2c-.4-.3-.7-.6-.9-1.1-.2.2-.5.3-.8.5.2.4.3.8.3 1.2.4-.4.9-.6 1.4-.6zM27.3 4.7c.3-.4.8-.7 1.3-.8-.3-.3-.6-.6-.8-1-.3.2-.5.3-.8.4.2.5.3.9.3 1.4zM71.7 38.9c.2-.2.5-.4.8-.6-.1-.2-.2-.4-.2-.6-.4.1-.8.3-1.3.3.3.2.5.5.7.9zM36.1 70.9c-.3.4-.7.6-1.1.8.2.3.4.5.6.9.2-.2.5-.3.8-.4-.2-.4-.3-.8-.3-1.3zM40 73.4c.1.2.3.4.4.6.1 0 .2-.1.3-.1-.1-.2-.2-.5-.3-.7-.1 0-.3.1-.4.2zM12.3 64.6c.1.1.1.2.2.3.2-.1.4-.2.7-.3-.1-.2-.2-.3-.2-.5-.2.3-.4.4-.7.5zM9 17.8c-.4-.3-.6-.6-.8-1-.2.2-.5.3-.8.4.2.3.3.6.3 1 .4-.2.8-.4 1.3-.4zM16.7 65.8c.2.2.3.5.5.8.3-.2.7-.3 1-.3-.3-.4-.4-.9-.4-1.4-.3.4-.6.7-1.1.9zM74 33.6c0-.1-.1-.2-.1-.2-.2.1-.4.2-.7.2.1.1.2.2.2.4.2-.1.4-.3.6-.4zM4 45.3c-.3.3-.6.6-1 .8.2.3.3.6.4.9.4-.2.8-.3 1.3-.3h.2c-.5-.3-.8-.8-.9-1.4zM9.1 58.3c.2.3.4.5.5.8.4-.2.8-.3 1.2-.3-.4-.4-.6-.9-.6-1.5-.3.4-.7.8-1.1 1zM64.2 61c.2.2.3.4.4.6.1-.1.2-.1.3-.2-.1-.2-.2-.4-.3-.7-.1.2-.2.2-.4.3zM65 56.2c.3.3.6.6.8 1 .2-.2.5-.3.7-.4-.2-.3-.3-.6-.3-1-.3.2-.7.4-1.2.4zM52.9 65.9c-.4.6-1 1-1.8 1h-.2c.5.3 1 .7 1.2 1.3.3-.2.7-.4 1.1-.5-.2-.4-.4-.9-.4-1.4.1-.3.1-.4.1-.4zM57.4 63.8c.4.3.7.6.9 1.1.2-.2.5-.3.8-.4-.2-.4-.3-.8-.3-1.2-.4.3-.9.5-1.4.5zM46.7 69.3c-.3.4-.8.6-1.2.8.3.3.6.6.8 1 .3-.2.5-.3.8-.4-.3-.4-.4-.9-.4-1.4zM7.2 51.1v-.2c-.3.5-.7 1-1.3 1.3.2.3.4.7.5 1.1.4-.2.9-.3 1.4-.3h.4c-.6-.4-1-1.1-1-1.9z"/><path d="M4.6 31.7c1.3 0 2.4 1.1 2.4 2.4 0 1.3-1.1 2.4-2.4 2.4.7.5 1.2 1.3 1.2 2.2 0 1.3-.8 2.3-1.9 2.6.5.5.7 1.2.8 1.9.4-.4 1-.6 1.6-.6 1.3 0 2.3 1 2.3 2.3s-1 2.3-2.3 2.3c.8.5 1.3 1.4 1.3 2.4v.4c.3-.6.9-1 1.7-1 1.2 0 2.1 1 2.1 2.1s-1 2.1-2.1 2.1h-.2c.9.5 1.5 1.4 1.5 2.5v.1c.4-.5 1.1-.9 1.8-.9 1.3 0 2.3 1 2.3 2.3 0 1.1-.8 2-1.8 2.2.5.4.9 1 1.1 1.7.5-.3 1-.5 1.6-.5 1.5 0 2.7 1.2 2.7 2.7v.1c.4-.6 1.1-1 1.9-1 1.3 0 2.4 1.1 2.4 2.4 0 1.1-.7 2-1.6 2.3.3.3.6.7.8 1.1.4-.2.9-.4 1.4-.4-.3-.4-.5-.9-.5-1.5 0-1.3 1-2.3 2.3-2.3s2.3 1 2.3 2.3c0 1.1-.7 2-1.7 2.2.4.3.7.7.9 1.2.4-.3.9-.4 1.4-.5-.3-.4-.5-.9-.5-1.5 0-1.3 1-2.3 2.3-2.3 1.3 0 2.3 1 2.3 2.3 0 1.1-.7 2-1.7 2.2.4.3.6.7.8 1.1.4-.2.8-.4 1.2-.5-.3-.4-.4-.9-.4-1.4 0-1.3 1.1-2.4 2.4-2.4 1.3 0 2.4 1 2.4 2.3.5-.7 1.3-1.1 2.2-1.1 1.2 0 2.2.8 2.6 1.9.5-.4 1.1-.7 1.8-.8-.4-.4-.6-.9-.6-1.5 0-1.3 1-2.3 2.3-2.3 1.2 0 2.2.9 2.3 2.1.5-.7 1.4-1.2 2.3-1.2h.4c-.6-.4-1-1.1-1-1.9 0-1.2 1-2.2 2.2-2.2s2.2 1 2.2 2.2v.1c.5-.9 1.4-1.4 2.5-1.4-.5-.4-.8-1.1-.8-1.8 0-1.3 1-2.3 2.3-2.3 1.1 0 2 .8 2.3 1.8.4-.5 1-.9 1.6-1-.3-.5-.5-1-.5-1.6 0-1.5 1.2-2.7 2.7-2.7-.5-.5-.9-1.1-.9-1.9 0-1.4 1.1-2.5 2.5-2.5 1.1 0 2 .7 2.3 1.6.3-.3.6-.5 1-.7-.2-.4-.3-.8-.4-1.3-.4.3-.9.5-1.4.5-1.3 0-2.3-1-2.3-2.3s1-2.3 2.3-2.3c1.1 0 2 .7 2.2 1.7.3-.3.7-.6 1.1-.8-.2-.4-.4-.8-.4-1.3-.4.3-.9.5-1.4.5-1.3 0-2.3-1-2.3-2.3 0-1.3 1-2.3 2.3-2.3 1.1 0 2 .7 2.3 1.7.3-.3.6-.5.9-.7-.2-.3-.3-.7-.4-1.1-.4.2-.8.3-1.3.3-1.4 0-2.5-1.1-2.5-2.5 0-1.3 1-2.4 2.3-2.5-.6-.5-1-1.3-1-2.2 0-1.2.8-2.2 1.9-2.6-.4-.5-.7-1.1-.7-1.7-.4.3-.9.5-1.5.5-1.3 0-2.3-1.1-2.3-2.3 0-1.2.9-2.2 2.1-2.3-.7-.5-1.1-1.4-1.1-2.3v-.1c-.4.5-1 .8-1.7.8-1.2 0-2.2-1-2.2-2.2 0-1.2.9-2.2 2.1-2.2-.8-.5-1.3-1.4-1.3-2.4-.4.5-1.1.8-1.7.8-1.3 0-2.4-1.1-2.4-2.4 0-1.1.8-2 1.8-2.3-.5-.4-.8-1-1-1.6-.4.3-1 .5-1.6.5-1.5 0-2.7-1.2-2.8-2.7-.5.5-1.1.9-1.9.9-1.4 0-2.5-1.1-2.5-2.5 0-1.1.7-2 1.6-2.3-.3-.3-.5-.6-.7-1-.6.5-1 .7-1.5.7.3.4.5.9.5 1.4 0 1.3-1.1 2.3-2.3 2.3s-2.3-1.1-2.3-2.3c0-1.1.7-2 1.7-2.3-.3-.3-.6-.7-.8-1.1-.4.2-.9.4-1.3.4.3.4.5.9.5 1.4 0 1.3-1 2.3-2.3 2.3-1.3 0-2.3-1-2.3-2.3 0-1.1.7-2 1.7-2.2-.3-.3-.6-.6-.8-1-.3.2-.7.3-1.1.4.3.4.4.9.4 1.4 0 1.4-1.1 2.5-2.5 2.5-1.3 0-2.4-1-2.5-2.3-.5.6-1.3 1.1-2.2 1.1C34 5.8 33 5.1 32.6 4c-.5.4-1.1.7-1.8.7.4.4.6.9.6 1.5 0 1.3-1 2.3-2.3 2.3-1.2 0-2.2-1-2.3-2.2-.5.7-1.4 1.2-2.3 1.2h-.2c.6.4.9 1 .9 1.8 0 1.2-1 2.2-2.2 2.2-1.2 0-2.2-1-2.2-2.2-.5.8-1.4 1.4-2.5 1.4.5.4.8 1.1.8 1.8 0 1.3-1 2.3-2.3 2.3-1.1 0-2.1-.8-2.3-1.8-.4.5-1 .9-1.7 1 .3.5.5 1 .5 1.6 0 1.5-1.2 2.7-2.7 2.7.6.4.9 1.1.9 1.9 0 1.3-1.1 2.4-2.4 2.4-1.1 0-1.9-.7-2.3-1.6-.3.3-.7.5-1.1.7.2.4.4.9.4 1.3.4-.3.9-.5 1.5-.5 1.3 0 2.3 1 2.3 2.3 0 1.3-1 2.3-2.3 2.3-1.1 0-2-.7-2.2-1.7-.3.4-.7.7-1.2.9.3.4.4.9.4 1.4.4-.3.9-.5 1.5-.5 1.3 0 2.3 1 2.3 2.3s-1 2.3-2.3 2.3c-1.1 0-2-.7-2.2-1.7-.3.4-.7.7-1.1.9.2.4.4.8.5 1.2.3-.3.8-.5 1.3-.5zM14 53.9c-.7 0-1.2-.6-1.2-1.2s.6-1.2 1.2-1.2c.7 0 1.2.6 1.2 1.2s-.6 1.2-1.2 1.2zm3.1 6.6c-1 0-1.7-.8-1.7-1.7s.8-1.7 1.7-1.7 1.7.8 1.7 1.7-.8 1.7-1.7 1.7zm4.6 1c-.7 0-1.2-.6-1.2-1.2S21 59 21.7 59s1.2.6 1.2 1.2-.5 1.3-1.2 1.3zm4.7 1.3c-.6 0-1-.4-1-1s.4-1 1-1 1 .4 1 1c0 .5-.4 1-1 1zm4.6 1.5c-.6 0-1-.5-1-1 0-.6.5-1 1-1 .6 0 1 .5 1 1 .1.6-.4 1-1 1zm4.7 1.8c-.7 0-1.3-.6-1.3-1.3s.6-1.3 1.3-1.3c.7 0 1.3.6 1.3 1.3s-.6 1.3-1.3 1.3zm4.6 2c-1 0-1.8-.8-1.8-1.8s.8-1.8 1.8-1.8 1.8.8 1.8 1.8-.8 1.8-1.8 1.8zm6.2-3.7c-.7 0-1.3-.6-1.3-1.3s.6-1.3 1.3-1.3 1.3.6 1.3 1.3-.6 1.3-1.3 1.3zm6.1-3.1c-.7 0-1.3-.6-1.3-1.3 0-.7.6-1.3 1.3-1.3s1.3.6 1.3 1.3c0 .7-.6 1.3-1.3 1.3zm6.1-2.6c-1 0-1.8-.8-1.8-1.8s.8-1.8 1.8-1.8 1.8.8 1.8 1.8-.8 1.8-1.8 1.8zm1.6-5.1c-.7 0-1.3-.6-1.3-1.3s.6-1.3 1.3-1.3c.7 0 1.3.6 1.3 1.3s-.6 1.3-1.3 1.3zm3-9.5c-.6 0-1.1-.5-1.1-1.1s.5-1.1 1.1-1.1 1.1.5 1.1 1.1-.5 1.1-1.1 1.1zm1.5-4.4c-.8 0-1.4-.6-1.4-1.4 0-.8.6-1.4 1.4-1.4s1.4.6 1.4 1.4c0 .8-.7 1.4-1.4 1.4zm1.5-7.8c1 0 1.8.8 1.8 1.8s-.8 1.8-1.8 1.8-1.8-.8-1.8-1.8.8-1.8 1.8-1.8zm-3.1-5.7c.8 0 1.4.6 1.4 1.4 0 .8-.6 1.4-1.4 1.4-.8 0-1.4-.6-1.4-1.4 0-.8.6-1.4 1.4-1.4zm-1.4 20.3c.6 0 1.1.5 1.1 1.1s-.5 1.1-1.1 1.1c-.6 0-1.1-.5-1.1-1.1s.5-1.1 1.1-1.1zM60 20.1c.8 0 1.4.6 1.4 1.4 0 .8-.6 1.4-1.4 1.4-.8 0-1.4-.6-1.4-1.4.1-.8.7-1.4 1.4-1.4zm-3.1-6.7c1 0 1.8.8 1.8 1.8s-.8 1.8-1.8 1.8-1.8-.8-1.8-1.8.8-1.8 1.8-1.8zm-4.6-1c.7 0 1.4.6 1.4 1.4s-.6 1.4-1.4 1.4-1.4-.6-1.4-1.4.6-1.4 1.4-1.4zm-4.7-1.2c.6 0 1.1.5 1.1 1.1s-.5 1.1-1.1 1.1c-.6 0-1.1-.5-1.1-1.1s.5-1.1 1.1-1.1zM43 9.7c.6 0 1.1.5 1.1 1.1 0 .6-.5 1.1-1.1 1.1s-1.1-.5-1.1-1.1c0-.7.4-1.1 1.1-1.1zm-4.7-1.8c.7 0 1.3.6 1.3 1.3 0 .7-.6 1.3-1.3 1.3S37 10 37 9.2c0-.7.6-1.3 1.3-1.3zm-4.6-2c1 0 1.8.8 1.8 1.8s-.8 1.8-1.8 1.8-1.8-.8-1.8-1.8.8-1.8 1.8-1.8zm-6.2 3.7c.7 0 1.3.6 1.3 1.3 0 .7-.6 1.3-1.3 1.3s-1.3-.6-1.3-1.3c0-.8.6-1.3 1.3-1.3zm-6.1 3.1c.7 0 1.3.6 1.3 1.3 0 .7-.6 1.3-1.3 1.3s-1.3-.6-1.3-1.3c0-.7.6-1.3 1.3-1.3zm14.7 4.5l-1.8-1.7 7.4-1.3-1.3 7.4-1.4-1.5-1.8 1.8c3.1.1 6.1 1.3 8.5 3.6 1.4 1.4 2.4 3 2.9 4.7 3.7 1 6.8 3.7 8.2 7.2l2.1-.5-2.6 7-5.6-4.9 2.2-.6c-.8-1.6-2-2.8-3.6-3.7-.2 2.9-1.3 5.8-3.6 8-2 2-4.6 3.2-7.2 3.5 1.4 2.4 4 3.9 7 3.9 2.5 0 4.7-1.1 6.2-2.9l1.2.8 2.3 1.4c-2.2 2.9-5.8 4.8-9.7 4.8-5.4 0-10-3.5-11.6-8.3-2-.5-4-1.6-5.5-3.2-2.3-2.3-3.5-5.4-3.6-8.5L11.2 47.9c0-.1-.1-.2-.1-.2h-.3c-.7 0-1.2-.5-1.2-1.2 0-.5.3-.9.7-1.1-.2-.6-.4-1.2-.5-1.8l26.3-26.4zm-20.8-1.8c1 0 1.7.8 1.7 1.7 0 1-.8 1.7-1.7 1.7-1 0-1.7-.8-1.7-1.7-.1-1 .7-1.7 1.7-1.7zm-1.6 5.1c.7 0 1.3.6 1.3 1.3 0 .7-.6 1.3-1.3 1.3-.7 0-1.3-.6-1.3-1.3.1-.7.6-1.3 1.3-1.3zm-1.5 4.9c.6 0 1 .5 1 1s-.5 1-1 1-1-.5-1-1 .5-1 1-1zM10.7 30c.6 0 1 .5 1 1 0 .6-.5 1-1 1-.6 0-1-.5-1-1s.5-1 1-1zm-1.5 4.4c.7 0 1.3.6 1.3 1.3 0 .7-.6 1.3-1.3 1.3-.7 0-1.3-.6-1.3-1.3.1-.7.6-1.3 1.3-1.3zm.2 5.9c0 1-.8 1.7-1.7 1.7S6 41.2 6 40.3c0-1 .8-1.7 1.7-1.7s1.7.7 1.7 1.7z"/><path d="M37.3 42.1v.3c2.1-.1 4-.9 5.5-2.4s2.4-3.6 2.4-5.8v-.3c-4.4.2-7.9 3.8-7.9 8.2zM33.2 41.4c.3-6 4.9-10.8 10.8-11.5-.3-.5-.7-1.1-1.2-1.5-1.6-1.6-3.6-2.4-5.8-2.4-2.2 0-4.2.9-5.8 2.4-1.5 1.5-2.4 3.6-2.4 5.8 0 2.2.9 4.2 2.4 5.8.6.5 1.3 1 2 1.4zM.9 40.4c-.1-.1-.2-.3-.3-.5-.2.2-.4.3-.6.4.1.1.1.2.2.3.2-.1.5-.2.7-.2zM3.1 36.1c-.3-.3-.6-.7-.8-1.1-.3.3-.5.5-.9.6.2.3.3.5.4.8.4-.2.8-.3 1.3-.3z"/></g></symbol><symbol id="badge--amazon" viewBox="0 0 128.2 40"><style>.st0{fill:#FF9900;} .st1{fill:#FFFFFF;}</style><path d="M124 40H4c-2.2 0-4-1.8-4-4V4c0-2.2 1.8-4 4-4h120c2.2 0 4 1.8 4 4v32c0 2.2-1.8 4-4 4z"/><path class="st0" d="M29.4 28.5c-9.7 4.6-15.7.8-19.5-1.6-.2-.1-.6 0-.3.4 1.3 1.6 5.5 5.3 11 5.3s8.7-3 9.2-3.5c.3-.5.1-.8-.4-.6z"/><path class="st0" d="M32.2 27c-.3-.3-1.6-.4-2.4-.3-.8.1-2.1.6-2 .9.1.1.2.1.7 0 .6-.1 2.2-.3 2.5.2.3.4-.5 2.5-.7 2.9-.1.3.1.4.3.2.3-.2.8-.8 1.1-1.6.5-.9.7-2.1.5-2.3z"/><path class="st1" d="M27 21.1v-7.7c0-1.3-1.3-4.3-5.9-4.3S14 12 14 14.6l3.9.3s.9-2.6 2.8-2.6c2 0 1.9 1.6 1.9 2V16c-2.6.1-8.9.8-8.9 6.2 0 5.7 7.2 6 9.6 2.3.1.2.2.3.3.4l2 2 3-2.9c.1-.1-1.6-1.4-1.6-2.9zm-4.4-.6c0 4.2-4.4 3.6-4.4.9 0-2.5 2.6-3 4.4-3v2.1zM42.9 8.1h1.2l2.5 6.4h-1.2l-.6-1.7h-2.6l-.6 1.7h-1.2l2.5-6.4zm-.4 3.8h2l-1-2.8-1 2.8zM46.4 9.8h1.1l1.2 3.6 1.1-3.6h1.1l-1.7 4.7H48l-1.6-4.7zM55.4 13.5v.3c0 .1.1.1.2.1h.2v.7h-.7c-.2 0-.4 0-.5-.1s-.2-.2-.3-.4c-.2.2-.5.3-.8.4s-.6.1-.9.1c-.2 0-.4 0-.6-.1-.2-.1-.4-.1-.5-.3l-.4-.4c-.1-.2-.1-.4-.1-.6 0-.3.1-.5.2-.7.1-.2.2-.3.4-.4s.4-.2.6-.2.4-.1.6-.1c.2 0 .4-.1.5-.1.2 0 .3 0 .4-.1s.2-.1.3-.2.1-.2.1-.3c0-.1 0-.2-.1-.3l-.2-.2s-.2-.1-.3-.1h-.3c-.3 0-.5.1-.7.2s-.3.3-.3.6h-1c0-.3.1-.5.2-.7.1-.2.3-.4.5-.5s.4-.2.7-.3c.2 0 .5-.1.8-.1.2 0 .5 0 .7.1.2 0 .4.1.6.2s.3.2.4.4c.1.2.2.4.2.6l.1 2.5zm-1-1.3c-.2.1-.3.2-.6.2-.2 0-.5.1-.7.1-.1 0-.2 0-.3.1-.1 0-.2.1-.3.1l-.2.2c0 .1-.1.2-.1.3 0 .1 0 .2.1.3l.2.2s.2.1.3.1h.7c.1 0 .3-.1.4-.2l.3-.3c.1-.1.1-.2.1-.4l.1-.7zM56.6 8.1h1v1h-1v-1zm0 1.7h1v4.7h-1V9.8zM58.8 8.1h1v6.4h-1V8.1zM64.8 13.5v.3c0 .1.1.1.2.1h.2v.7h-.7c-.2 0-.4 0-.5-.1s-.2-.2-.3-.4c-.2.2-.5.3-.8.4s-.6.1-.9.1c-.2 0-.4 0-.6-.1-.2-.1-.4-.1-.5-.3l-.4-.4c-.1-.2-.1-.4-.1-.6 0-.3.1-.5.2-.7.1-.2.2-.3.4-.4s.4-.2.6-.2.4-.1.6-.1c.2 0 .4-.1.5-.1.2 0 .3 0 .4-.1s.2-.1.3-.2.1-.2.1-.3c0-.1 0-.2-.1-.3l-.2-.2s-.2-.1-.3-.1h-.3c-.3 0-.5.1-.7.2s-.3.3-.3.6h-1c0-.3.1-.5.2-.7.1-.2.3-.4.5-.5s.4-.2.7-.3c.2 0 .5-.1.8-.1.2 0 .5 0 .7.1.2 0 .4.1.6.2s.3.2.4.4c.1.2.2.4.2.6l.1 2.5zm-1-1.3c-.2.1-.3.2-.6.2-.2 0-.5.1-.7.1-.1 0-.2 0-.3.1-.1 0-.2.1-.3.1l-.2.2c0 .1-.1.2-.1.3 0 .1 0 .2.1.3l.2.2s.2.1.3.1h.7c.1 0 .3-.1.4-.2l.3-.3c.1-.1.1-.2.1-.4l.1-.7zM65.9 8.1h1v2.4l.3-.3c.1-.1.2-.2.3-.2.1-.1.3-.1.4-.1h.4c.4 0 .7.1 1 .2s.5.3.7.5.3.5.4.8c.1.3.1.6.1 1 0 .3 0 .6-.1.9s-.2.6-.4.8c-.2.2-.4.4-.6.5-.3.1-.5.2-.9.2H68s-.3-.1-.5-.1c-.1-.1-.3-.1-.4-.2-.1-.1-.2-.2-.3-.4v.6h-1l.1-6.6zm3.6 4.1c0-.2 0-.4-.1-.6s-.1-.4-.2-.5c-.1-.2-.2-.3-.4-.4s-.3-.1-.6-.1c-.4 0-.8.2-1 .5s-.3.7-.3 1.2c0 .2 0 .5.1.7s.1.4.3.5c.1.1.2.3.4.3s.3.1.6.1c.2 0 .4 0 .6-.1.2-.1.3-.2.4-.4.1-.2.2-.3.2-.5v-.7zM71.4 8.1h1v6.4h-1V8.1zM74.4 12.4c0 .2 0 .4.1.5.1.2.1.3.2.4.1.1.2.2.4.3s.3.1.6.1.5-.1.7-.2.3-.3.4-.6h1c-.1.3-.1.5-.3.7-.1.2-.3.4-.5.5l-.6.3c-.2.1-.5.1-.7.1-.4 0-.7-.1-1-.2s-.5-.3-.7-.5-.3-.5-.4-.8c-.1-.3-.1-.6-.1-1 0-.3.1-.6.2-.9.1-.3.3-.6.5-.8.2-.2.4-.4.7-.5s.6-.2.9-.2c.4 0 .7.1 1 .2.3.2.5.4.7.6.2.3.3.5.4.9.1.3.1.7.1 1h-3.6v.1zm2.4-.6c0-.2 0-.3-.1-.5-.1-.1-.1-.3-.2-.4-.1-.1-.2-.2-.4-.3-.1-.1-.3-.1-.5-.1s-.3 0-.5.1c-.1.1-.3.1-.4.3-.1.1-.2.2-.3.4-.1.2-.1.3-.1.5h2.5zM83.2 14.6c-.4 0-.7-.1-1-.2s-.5-.3-.7-.5-.4-.5-.5-.8-.2-.6-.2-1 .1-.7.2-1c.1-.3.3-.6.5-.8s.4-.4.7-.5.6-.2 1-.2.7.1 1 .2.5.3.7.5.4.5.5.8.2.6.2 1-.1.7-.2 1c-.1.3-.3.6-.5.8-.2.2-.4.4-.7.5-.3.2-.6.2-1 .2zm0-.8c.2 0 .4 0 .6-.1.2-.1.3-.2.4-.4.1-.2.2-.3.2-.5.1-.2.1-.4.1-.6s0-.4-.1-.6-.1-.4-.2-.5c-.1-.2-.2-.3-.4-.4s-.4-.1-.6-.1c-.2 0-.4 0-.6.1-.2.1-.3.2-.4.4-.1.2-.2.3-.2.5-.1.2-.1.4-.1.6s0 .4.1.6.1.4.2.5c.1.2.2.3.4.4.2.1.4.1.6.1zM86.4 9.8h1v.7c.2-.3.4-.5.6-.6s.5-.2.8-.2c.5 0 .9.1 1.2.4s.4.7.4 1.2v3.2h-1v-2.9c0-.4-.1-.6-.2-.8-.1-.2-.4-.2-.7-.2-.2 0-.3 0-.5.1-.1.1-.3.1-.4.3-.1.1-.2.2-.2.4-.1.2-.1.3-.1.5v2.7h-1V9.8h.1zM67.3 23v-1.1c0-.2.1-.3.3-.3h4.7c.2 0 .3.1.3.3v.9c0 .2-.1.3-.4.7L69.8 27c.9 0 1.9.1 2.7.6.2.1.2.3.3.4v1.1c0 .2-.2.3-.3.2-1.5-.8-3.4-.8-5 0-.2.1-.3-.1-.3-.2V28c0-.2 0-.5.2-.7l2.8-4.1h-2.5c-.3 0-.4-.1-.4-.2zM50 29.6h-1.4c-.1 0-.2-.1-.3-.2V22c0-.1.1-.3.3-.3h1.3c.1 0 .3.1.3.2v1c.3-.9 1-1.4 1.9-1.4s1.5.4 1.9 1.4c.3-.9 1.1-1.4 2-1.4.6 0 1.3.2 1.7.8.5.6.4 1.5.4 2.3v4.7c0 .1-.1.3-.3.3h-1.4c-.1 0-.3-.1-.3-.3v-3.9V24c-.1-.5-.4-.6-.8-.6-.3 0-.7.2-.9.6s-.1 1-.1 1.4v3.9c0 .1-.1.3-.3.3h-1.4c-.1 0-.3-.1-.3-.3v-3.9c0-.8.1-2-.9-2s-1 1.2-1 2v3.9c-.1.2-.2.3-.4.3zM76.6 21.5c2.1 0 3.3 1.8 3.3 4.2 0 2.3-1.3 4-3.3 4-2.1 0-3.2-1.8-3.2-4.1s1.1-4.1 3.2-4.1zm0 1.5c-1.1 0-1.1 1.4-1.1 2.3 0 .9 0 2.8 1.1 2.8s1.2-1.6 1.2-2.5c0-.6 0-1.4-.2-2-.2-.4-.5-.6-1-.6zM82.7 29.6h-1.4c-.1 0-.3-.1-.3-.3v-7.4c0-.1.1-.2.3-.2h1.3c.1 0 .2.1.3.2V23c.4-1 1-1.5 2-1.5.6 0 1.3.2 1.7.9.4.6.4 1.6.4 2.3v4.6c0 .1-.1.2-.3.2h-1.4c-.1 0-.2-.1-.3-.2v-4c0-.8.1-2-.9-2-.3 0-.7.2-.8.6-.2.5-.2.9-.2 1.4v4c-.1.2-.3.3-.4.3z"/><ellipse class="st1" cx="88.5" cy="29" rx=".7" ry=".7"/><path class="st1" d="M103 29.6c-.1 0-.3-.1-.3-.3v-7.4c0-.1.1-.2.3-.2h.5c.1 0 .3.1.3.2V23c.4-.9 1.1-1.5 2-1.5h.2c.9 0 1.6.7 1.9 1.7.4-1 1.1-1.7 2.1-1.7h.2c.7 0 1.4.5 1.7 1.1.3.7.3 1.5.3 2.3v4.4c0 .1-.1.3-.3.3h-.6c-.1 0-.2-.1-.3-.2v-4.5c0-.5 0-1.1-.2-1.6s-.6-.8-1.1-.8-1 .4-1.3.9c-.4.6-.4 1.2-.4 2v4c0 .1-.1.2-.3.2h-.6c-.1 0-.3-.1-.3-.3v-4.7c0-.4 0-.9-.2-1.3s-.6-.7-1.1-.8c-.5 0-.9.4-1.2.8-.3.5-.4 1.1-.4 1.8v4.3c0 .1-.1.3-.3.3h-.6v-.1zM98.7 29.7c-2 0-3-2.1-3-4.2 0-2.2 1.1-4.1 3.1-4.1h.2c2 0 3 2 3 4.1 0 2.2-1.1 4.1-3.2 4.1h-.1v.1zm.1-1c.7 0 1.2-.4 1.5-1.1.3-.6.3-1.3.3-2s-.1-1.5-.4-2.2c-.3-.6-.9-.9-1.4-.9-.6 0-1.2.5-1.5 1.1s-.3 1.3-.3 2 .1 1.5.4 2.2c.3.5.8.9 1.4.9zM92.3 28.7c.9 0 1.4-.8 1.6-1.7 0-.1.1-.2.3-.2h.6c.1 0 .3.1.3.2-.3 1.6-1.3 2.7-2.6 2.7h-.2c-2 0-2.9-2-2.9-4.1 0-2 .9-4.1 2.9-4.1h.2c1.4 0 2.4 1.1 2.6 2.7 0 .1-.1.2-.2.2h-.6c-.1 0-.2-.1-.2-.3-.2-.9-.7-1.6-1.5-1.7-1.4 0-1.8 1.7-1.8 3-.2 1.4.1 3.2 1.5 3.3zM66 28.1c-.2-.3-.5-.6-.5-1.3v-2.2c0-1 .1-1.8-.6-2.5-.6-.5-1.5-.7-2.2-.7-1.4 0-2.9.5-3.2 2.2 0 .2.1.3.2.3l1.4.2c.1 0 .2-.2.2-.3.2-.6.7-.9 1.2-.9.3 0 .6.1.8.4s.2.7.2 1v.2c-.8.1-1.9.2-2.7.5-.9.4-1.5 1.2-1.5 2.4 0 1.5 1 2.2 2.2 2.2 1.1 0 1.6-.2 2.4-1 .2.4.3.6.8 1 .1.1.2.1.3 0 .3-.3.8-.8 1-1.1.1-.1.1-.3 0-.4zm-2.8-.6c-.2.4-.6.7-1 .7-.6 0-.9-.4-.9-1 0-1.2 1.1-1.4 2.1-1.4v.2h.1c0 .6 0 1-.3 1.5zM47.1 28.1c-.2-.3-.5-.6-.5-1.3v-2.2c0-1 .1-1.8-.6-2.5-.6-.5-1.5-.7-2.2-.7-1.4 0-2.9.5-3.2 2.2 0 .2.1.3.2.3l1.4.2c.1 0 .2-.2.2-.3.2-.6.7-.9 1.2-.9.3 0 .6.1.8.4s.2.7.2 1v.2c-.8.1-1.9.2-2.7.5-.9.4-1.5 1.2-1.5 2.4 0 1.5 1 2.2 2.2 2.2 1.1 0 1.6-.2 2.4-1 .2.4.3.6.8 1 .1.1.2.1.3 0 .3-.3.8-.8 1-1.1.1-.1.1-.3 0-.4zm-2.7-.6c-.2.4-.6.7-1 .7-.6 0-.9-.4-.9-1 0-1.2 1.1-1.4 2.1-1.4v.2h.1c0 .6 0 1-.3 1.5z"/></symbol><symbol id="badge--ibooks" viewBox="0 0 111.594 40"><path fill="#A6A6A6" d="M104.965 0H6.625c-.253 0-.506 0-.76.002-.213 0-.422.004-.635.01-.465.014-.934.038-1.394.124-.467.082-.9.22-1.32.436-.418.212-.796.486-1.13.815-.33.335-.603.712-.816 1.13-.215.42-.354.854-.435 1.32-.087.46-.11.93-.126 1.395-.006.213-.008.42-.01.635V34.136c.002.21.004.426.01.64.015.47.04.933.125 1.388.082.473.22.906.435 1.33.212.408.485.8.815 1.12.335.335.712.614 1.13.825.42.216.854.343 1.32.437.46.08.93.105 1.395.115.213.004.422.006.636.008.253.002.506.002.76.002h98.34c.25 0 .505 0 .76-.002.21-.002.425-.004.64-.008.463-.01.932-.035 1.393-.115.46-.094.894-.22 1.32-.438.42-.212.796-.49 1.126-.825.328-.322.607-.713.818-1.12.217-.425.354-.858.436-1.33.082-.456.11-.92.123-1.39.008-.213.01-.428.01-.64.002-.25.002-.507.002-.755V6.626c0-.254 0-.506-.002-.76 0-.213-.002-.42-.01-.635-.012-.464-.04-.933-.123-1.393-.082-.467-.22-.9-.436-1.32-.21-.42-.49-.796-.818-1.13-.33-.33-.707-.604-1.127-.816-.427-.214-.86-.353-1.32-.435-.462-.086-.93-.11-1.394-.125-.215-.005-.43-.007-.64-.008h-.76z"/><path d="M104.965.986h.752c.207.002.416.004.62.014.378.01.817.027 1.245.108.395.07.727.18 1.05.342.32.166.616.38.876.638.258.258.473.552.64.876.16.322.27.654.34 1.05.077.423.097.865.106 1.24.006.207.008.415.008.625.002.25.002.495.002.747V33.38c0 .246 0 .502-.002.75 0 .207-.002.416-.008.62-.01.378-.03.82-.105 1.245-.07.387-.18.725-.343 1.053-.166.318-.38.613-.64.875-.26.254-.554.467-.876.627-.32.174-.653.277-1.046.35-.434.074-.893.104-1.244.11-.205.005-.412.007-.623.01H5.87c-.203-.003-.412-.005-.617-.01-.35-.007-.81-.036-1.24-.11-.396-.072-.728-.176-1.052-.35-.322-.16-.616-.373-.874-.627-.257-.262-.47-.557-.638-.875-.16-.328-.27-.666-.34-1.055-.083-.426-.1-.865-.11-1.242-.01-.206-.01-.415-.012-.62V5.878c0-.208.003-.416.013-.624.008-.374.025-.815.107-1.24.07-.395.18-.728.34-1.05.168-.324.383-.618.64-.876.257-.256.55-.47.874-.638.324-.16.656-.27 1.05-.34.428-.083.868-.1 1.243-.11.208-.01.416-.012.623-.013h99.09"/><g fill="#FFF"><path d="M30.128 19.785c-.03-3.223 2.64-4.79 2.76-4.864-1.51-2.202-3.852-2.503-4.675-2.527-1.967-.207-3.875 1.177-4.877 1.177-1.022 0-2.565-1.157-4.228-1.123-2.14.033-4.142 1.272-5.24 3.196-2.266 3.923-.576 9.688 1.595 12.858 1.086 1.554 2.355 3.288 4.016 3.228 1.624-.068 2.23-1.037 4.192-1.037 1.943 0 2.513 1.038 4.207 1 1.743-.03 2.84-1.562 3.89-3.128 1.254-1.78 1.758-3.533 1.778-3.623-.04-.015-3.387-1.293-3.42-5.155zM26.928 10.307c.874-1.093 1.472-2.58 1.306-4.09-1.265.057-2.847.876-3.758 1.945-.806.942-1.526 2.486-1.34 3.938 1.42.106 2.88-.717 3.792-1.793z"/></g><g fill="#FFF"><path d="M49.48 13.093c-.61.23-1.253.345-1.93.345-1.006 0-1.792-.273-2.358-.82-.584-.565-.876-1.342-.876-2.33 0-.98.312-1.77.937-2.367.625-.596 1.446-.894 2.465-.894.652 0 1.177.096 1.575.29l-.224.82c-.387-.175-.843-.262-1.37-.262-.703 0-1.263.202-1.68.606-.428.423-.642 1.007-.642 1.752s.205 1.333.615 1.76c.39.41.926.616 1.603.616.422 0 .727-.043.913-.13v-1.706h-1.147V9.98h2.115v3.113zM54.727 10.894c0 .18-.013.333-.037.457h-3.02c.013.448.16.79.438 1.026.255.21.584.317.988.317.447 0 .854-.072 1.22-.214l.16.698c-.43.187-.936.28-1.52.28-.702 0-1.253-.207-1.654-.62-.4-.413-.6-.967-.6-1.664 0-.683.186-1.252.558-1.706.392-.484.92-.727 1.584-.727.652 0 1.146.243 1.482.728.267.386.4.86.4 1.426zm-.96-.26c.006-.3-.06-.557-.196-.774-.173-.28-.44-.42-.8-.42-.33 0-.597.137-.802.41-.168.218-.267.48-.298.783h2.097zM58.324 9.6h-1.11v2.198c0 .56.197.84.59.84.18 0 .328-.017.446-.047l.027.765c-.198.075-.46.112-.782.112-.397 0-.708-.12-.933-.364-.223-.242-.335-.65-.335-1.22V9.598h-.662v-.756h.662v-.83l.987-.298v1.128h1.11V9.6zM63.264 7.492c0 .18-.06.326-.178.438-.117.112-.27.168-.457.168-.168 0-.31-.058-.425-.173-.115-.115-.172-.26-.172-.433s.06-.317.178-.43c.118-.11.265-.167.44-.167s.32.056.437.168c.117.112.177.255.177.43zm-.113 5.88h-1.006V8.845h1.007v4.53zM67.074 9.6h-1.108v2.198c0 .56.196.84.587.84.18 0 .33-.017.447-.047l.027.765c-.197.075-.46.112-.78.112-.4 0-.71-.12-.934-.364-.224-.242-.335-.65-.335-1.22V9.598h-.662v-.756h.662v-.83l.987-.298v1.128h1.108V9.6zM75.033 11.07c0 .697-.198 1.27-.596 1.716-.417.46-.97.69-1.66.69-.664 0-1.193-.22-1.588-.662-.397-.44-.593-.998-.593-1.668 0-.702.203-1.277.61-1.724.406-.447.955-.67 1.645-.67.665 0 1.2.22 1.604.66.385.43.577.982.577 1.66zm-1.044.034c0-.417-.09-.775-.27-1.075-.213-.362-.514-.543-.905-.543-.404 0-.712.18-.923.542-.18.298-.27.663-.27 1.092 0 .418.09.776.27 1.075.218.36.522.542.913.542.386 0 .687-.185.904-.552.186-.305.28-.667.28-1.084zM80.3 13.373h-1.007V10.78c0-.8-.305-1.2-.914-1.2-.3 0-.54.11-.728.33-.187.22-.28.48-.28.776v2.687h-1.006V10.14c0-.4-.013-.83-.037-1.296h.884l.047.708h.03c.117-.22.29-.402.52-.547.273-.17.578-.254.914-.254.422 0 .773.138 1.053.41.348.336.52.836.52 1.5v2.713z"/></g><g fill="#FFF"><path d="M47.046 19.04c0 .383-.125.692-.375.93-.25.236-.572.354-.967.354-.355 0-.655-.122-.9-.365s-.364-.55-.364-.92c0-.367.124-.67.374-.907s.56-.355.928-.355.678.118.928.355c.25.236.376.54.376.908zm-.237 12.463h-2.134v-9.6h2.133v9.6zM58.62 27.69c0 1.08-.402 1.976-1.206 2.687-.92.83-2.5 1.244-4.74 1.244-1.026 0-1.96-.052-2.804-.157V18.37c.893-.185 1.997-.277 3.31-.277 1.63 0 2.86.296 3.695.89.834.59 1.25 1.408 1.25 2.448 0 .633-.19 1.21-.576 1.73-.387.52-.925.905-1.616 1.155v.06c.75.184 1.37.54 1.856 1.065.553.62.83 1.37.83 2.25zm-2.627-6.043c0-1.303-.865-1.955-2.594-1.955-.604 0-1.07.04-1.397.12v3.91h1.316c.824 0 1.476-.19 1.955-.573.478-.382.718-.883.718-1.503zm.395 5.985c0-.79-.308-1.39-.924-1.798-.55-.367-1.284-.553-2.202-.553h-1.258v4.643c.262.053.694.08 1.297.08.905 0 1.62-.18 2.144-.534.63-.41.944-1.022.944-1.838zM69.877 26.625c0 1.475-.422 2.686-1.265 3.634-.882.974-2.054 1.46-3.516 1.46-1.41 0-2.53-.467-3.366-1.4-.837-.937-1.255-2.114-1.255-3.536 0-1.488.43-2.706 1.294-3.654.86-.947 2.022-1.422 3.484-1.422 1.41 0 2.54.467 3.397 1.402.82.908 1.227 2.08 1.227 3.515zm-2.212.068c0-.885-.19-1.644-.573-2.277-.447-.766-1.086-1.148-1.916-1.148-.855 0-1.508.383-1.955 1.148-.38.634-.57 1.406-.57 2.317 0 .885.19 1.644.57 2.278.462.767 1.106 1.15 1.937 1.15.816 0 1.455-.39 1.916-1.17.394-.646.592-1.412.592-2.297zM80.977 26.625c0 1.475-.422 2.686-1.265 3.634-.882.974-2.054 1.46-3.516 1.46-1.408 0-2.53-.467-3.367-1.4-.837-.937-1.255-2.114-1.255-3.536 0-1.488.432-2.706 1.294-3.654.86-.947 2.023-1.422 3.484-1.422 1.41 0 2.54.467 3.397 1.402.818.908 1.227 2.08 1.227 3.515zm-2.212.068c0-.885-.19-1.644-.573-2.277-.447-.766-1.086-1.148-1.916-1.148-.855 0-1.508.383-1.955 1.148-.38.634-.57 1.406-.57 2.317 0 .885.19 1.644.57 2.278.462.767 1.107 1.15 1.937 1.15.816 0 1.455-.39 1.916-1.17.393-.646.592-1.412.592-2.297zM91.76 31.503h-2.607L86.25 27.12l-.81.985v3.397h-2.134V17.5h2.133v8.69h.04c.262-.42.52-.79.77-1.106l2.47-3.18h2.547l-3.536 3.95 4.03 5.65zM99.165 28.744c0 .895-.33 1.61-.987 2.148-.66.54-1.567.808-2.726.808-1.094 0-2.02-.217-2.785-.65l.454-1.58c.738.446 1.522.67 2.352.67 1.093 0 1.64-.4 1.64-1.204 0-.355-.12-.648-.356-.88-.236-.23-.658-.456-1.264-.68-1.712-.633-2.567-1.554-2.567-2.766 0-.83.316-1.52.948-2.073.632-.554 1.468-.83 2.508-.83.95 0 1.76.193 2.43.58l-.453 1.533c-.62-.37-1.27-.553-1.956-.553-.446 0-.796.105-1.045.314-.25.212-.376.48-.376.81s.13.598.395.808c.224.196.658.413 1.304.65 1.655.63 2.485 1.596 2.485 2.896z"/></g></symbol><symbol id="badge--kindle" viewBox="0 0 116.3 40"><style>.st0{fill:#FF9900;} .st1{fill:#FFFFFF;}</style><path d="M112.3 40H4c-2.2 0-4-1.8-4-4V4c0-2.2 1.8-4 4-4h108.3c2.2 0 4 1.8 4 4v32c0 2.2-1.8 4-4 4z"/><path class="st0" d="M45.1 32.5c-2.7 2-6.7 3.1-10.1 3.1-4.8 0-9.1-1.8-12.3-4.7-.3-.2 0-.5.3-.4 3.5 2 7.8 3.3 12.3 3.3 3 0 6.3-.6 9.4-1.9.5-.2.8.3.4.6z"/><path class="st0" d="M46.2 31.2c-.3-.4-2.3-.2-3.2-.1-.3 0-.3-.2-.1-.4 1.6-1.1 4.1-.8 4.4-.4.3.4-.1 2.9-1.5 4.2-.2.2-.4.1-.3-.2.3-.8 1.1-2.6.7-3.1z"/><path class="st1" d="M43.1 23v-1.1c0-.2.1-.3.3-.3h4.8c.2 0 .3.1.3.3v.9c0 .2-.1.4-.4.7L45.6 27c.9 0 1.9.1 2.7.6.2.1.2.3.3.4v1.1c0 .2-.2.3-.4.2-1.5-.8-3.4-.9-5 0-.2.1-.3-.1-.3-.2V28c0-.2 0-.5.2-.7l2.9-4.1h-2.5c-.3.1-.4 0-.4-.2zM25.7 29.7h-1.5c-.1 0-.2-.1-.3-.2v-7.4c0-.1.1-.3.3-.3h1.4c.1 0 .3.1.3.3v1c.4-.9 1-1.4 1.9-1.4.9 0 1.5.4 1.9 1.4.4-.9 1.2-1.4 2-1.4.6 0 1.3.3 1.7.8.5.6.4 1.5.4 2.3v4.7c0 .1-.1.3-.3.3H32c-.1 0-.3-.1-.3-.3v-3.9-1.4c-.1-.5-.4-.6-.9-.6-.4 0-.7.2-.9.6-.1.4-.1 1-.1 1.4v3.9c0 .1-.1.3-.3.3h-1.4c-.1 0-.3-.1-.3-.3v-3.9c0-.8.1-2.1-.9-2.1s-1 1.2-1 2.1v3.9c.1 0 0 .2-.2.2zM52.5 21.5c2.2 0 3.3 1.9 3.3 4.2 0 2.3-1.3 4.1-3.3 4.1-2.1 0-3.3-1.9-3.3-4.2.1-2.3 1.2-4.1 3.3-4.1zm0 1.6c-1.1 0-1.1 1.5-1.1 2.4 0 .9 0 2.9 1.1 2.9s1.2-1.6 1.2-2.5c0-.6 0-1.4-.2-2-.2-.6-.5-.8-1-.8zM58.6 29.7h-1.4c-.1 0-.3-.1-.3-.3v-7.5c0-.1.1-.2.3-.2h1.3c.1 0 .2.1.3.2V23c.4-1 1-1.5 2-1.5.7 0 1.3.2 1.7.9.4.6.4 1.6.4 2.3v4.7c0 .1-.1.2-.3.2h-1.5c-.1 0-.2-.1-.3-.2v-4c0-.8.1-2-.9-2-.4 0-.7.2-.8.6-.2.5-.2.9-.2 1.4v4c0 .1-.1.3-.3.3zM41.9 28.3c-.3-.4-.5-.7-.5-1.3v-2.3c0-1 .1-1.8-.6-2.5-.6-.5-1.5-.7-2.2-.7-1.4 0-2.9.5-3.2 2.2 0 .2.1.3.2.3l1.4.2c.1 0 .2-.1.3-.3.1-.6.6-.9 1.2-.9.3 0 .6.1.8.4.2.3.2.7.2 1.1v.2c-.8.1-1.9.2-2.7.5-.9.4-1.5 1.2-1.5 2.4 0 1.5 1 2.3 2.2 2.3 1 0 1.6-.2 2.4-1.1.3.4.4.6.8 1 .1.1.2.1.3 0 .3-.3.8-.7 1.1-1-.1-.2-.1-.4-.2-.5zm-2.6-2.2c0 .6 0 1-.3 1.5-.2.4-.6.7-1 .7-.6 0-.9-.4-.9-1.1 0-1.2 1.1-1.5 2.2-1.5v.4zM22.9 28.3c-.3-.4-.5-.7-.5-1.3v-2.3c0-1 .1-1.8-.6-2.5-.6-.5-1.5-.7-2.2-.7-1.4 0-2.9.5-3.2 2.2 0 .2.1.3.2.3l1.4.2c.1 0 .2-.1.3-.3.1-.6.6-.9 1.2-.9.3 0 .6.1.8.4.2.3.2.7.2 1.1v.2c-.8.1-1.9.2-2.7.5-.9.4-1.5 1.2-1.5 2.4 0 1.5 1 2.3 2.2 2.3 1 0 1.6-.2 2.4-1.1.3.4.3.6.8 1 .1.1.2.1.3 0 .3-.3.8-.7 1.1-1-.1-.2-.1-.4-.2-.5zm-2.9-.7c-.2.4-.6.7-1 .7-.6 0-.9-.4-.9-1.1 0-1.2 1.1-1.5 2.2-1.5v.3c0 .7 0 1.1-.3 1.6z"/><path class="st0" d="M69.6 29.7l-3.4-4.1v4.1H65V17.9h1.2v6.7l2.9-2.8h1.6L67.3 25l3.9 4.7h-1.6zM72.6 20.1c-.5 0-.8-.4-.8-.8 0-.5.4-.8.8-.8.5 0 .8.4.8.8s-.3.8-.8.8zm-.6 9.6v-7.9h1.2v7.9H72zM80 29.7v-4.8c0-1-.2-2.1-1.4-2.1-1 0-1.8.7-2.4 1.2v5.7H75v-7.9h1l.2.9c.9-.7 1.7-1.1 2.8-1.1 1.1 0 2.3.8 2.3 2.8v5.3H80zM86.6 29.8c-2.2 0-4-1.3-4-4 0-2.4 1.8-4.2 4.1-4.2.6 0 1 0 1.3.1v-3.8h1.2v11.4c-.5.2-1.5.5-2.6.5zm1.3-7c-.3-.1-.6-.2-1.2-.2-1.5 0-2.9 1.2-2.9 3.1 0 1.8 1 3 3 3 .4 0 .8-.1 1.1-.2v-5.7zM92.3 29.8c-1 0-1.4-.6-1.4-1.5V17.9h1.2v10c0 .7.2.9.6.9h.4l.2.9c-.3 0-.6.1-1 .1zM95.3 25.9c0 1.5.9 2.8 2.6 2.8.7 0 1.4-.3 1.9-.6l.4.9c-.6.4-1.6.8-2.4.8-2.5 0-3.7-2-3.7-4.3s1.3-4 3.2-4c2 0 3.1 1.6 3.1 4.1v.3h-5.1zm1.9-3.3c-1.2 0-1.9 1-1.9 2.3H99c0-1.1-.6-2.3-1.8-2.3z"/><g><path class="st1" d="M18.6 8.1h1.2l2.5 6.4h-1.2l-.6-1.7h-2.6l-.6 1.7h-1.2l2.5-6.4zm-.4 3.8h2l-1-2.8-1 2.8zM22.1 9.8h1.1l1.2 3.6 1.1-3.6h1.1l-1.7 4.7h-1.2l-1.6-4.7zM31.1 13.5v.3c0 .1.1.1.2.1h.2v.7h-.7c-.2 0-.4 0-.5-.1s-.2-.2-.3-.4c-.2.2-.5.3-.8.4s-.6.1-.9.1c-.2 0-.4 0-.6-.1-.2-.1-.4-.1-.5-.3l-.4-.4c-.1-.2-.1-.4-.1-.6 0-.3.1-.5.2-.7.1-.2.2-.3.4-.4s.4-.2.6-.2.4-.1.6-.1c.2 0 .4-.1.5-.1.2 0 .3 0 .4-.1s.2-.1.3-.2.1-.2.1-.3c0-.1 0-.2-.1-.3l-.2-.2s-.2-.1-.3-.1h-.3c-.3 0-.5.1-.7.2s-.3.3-.3.6h-1c0-.3.1-.5.2-.7.1-.2.3-.4.5-.5s.4-.2.7-.3c.2 0 .5-.1.8-.1.2 0 .5 0 .7.1.2 0 .4.1.6.2s.3.2.4.4c.1.2.2.4.2.6l.1 2.5zm-1-1.3c-.2.1-.3.2-.6.2-.2 0-.5.1-.7.1-.1 0-.2 0-.3.1-.1 0-.2.1-.3.1l-.2.2c0 .1-.1.2-.1.3 0 .1 0 .2.1.3l.2.2s.2.1.3.1h.7c.1 0 .3-.1.4-.2l.3-.3c.1-.1.1-.2.1-.4l.1-.7zM32.3 8.1h1v1h-1v-1zm0 1.7h1v4.7h-1V9.8zM34.5 8.1h1v6.4h-1V8.1zM40.5 13.5v.3c0 .1.1.1.2.1h.2v.7h-.7c-.2 0-.4 0-.5-.1s-.2-.2-.3-.4c-.2.2-.5.3-.8.4s-.6.1-.9.1c-.2 0-.4 0-.6-.1-.2-.1-.4-.1-.5-.3l-.4-.4c-.1-.2-.1-.4-.1-.6 0-.3.1-.5.2-.7.1-.2.2-.3.4-.4s.4-.2.6-.2.4-.1.6-.1c.2 0 .4-.1.5-.1.2 0 .3 0 .4-.1s.2-.1.3-.2.1-.2.1-.3c0-.1 0-.2-.1-.3l-.2-.2s-.2-.1-.3-.1h-.3c-.3 0-.5.1-.7.2s-.3.3-.3.6h-1c0-.3.1-.5.2-.7.1-.2.3-.4.5-.5s.4-.2.7-.3c.2 0 .5-.1.8-.1.2 0 .5 0 .7.1.2 0 .4.1.6.2s.3.2.4.4c.1.2.2.4.2.6l.1 2.5zm-1-1.3c-.2.1-.3.2-.6.2-.2 0-.5.1-.7.1-.1 0-.2 0-.3.1-.1 0-.2.1-.3.1l-.2.2c0 .1-.1.2-.1.3 0 .1 0 .2.1.3l.2.2s.2.1.3.1h.7c.1 0 .3-.1.4-.2l.3-.3c.1-.1.1-.2.1-.4l.1-.7zM41.6 8.1h1v2.4l.3-.3c.1-.1.2-.2.3-.2.1-.1.3-.1.4-.1h.4c.4 0 .7.1 1 .2s.5.3.7.5.3.5.4.8c.1.3.1.6.1 1 0 .3 0 .6-.1.9s-.2.6-.4.8c-.2.2-.4.4-.6.5-.3.1-.5.2-.9.2h-.5s-.3-.1-.5-.1c-.1-.1-.3-.1-.4-.2-.1-.1-.2-.2-.3-.4v.6h-1l.1-6.6zm3.6 4.1c0-.2 0-.4-.1-.6s-.1-.4-.2-.5c-.1-.2-.2-.3-.4-.4s-.3-.1-.6-.1c-.4 0-.8.2-1 .5s-.3.7-.3 1.2c0 .2 0 .5.1.7s.1.4.3.5c.1.1.2.3.4.3s.3.1.6.1c.2 0 .4 0 .6-.1.2-.1.3-.2.4-.4.1-.2.2-.3.2-.5v-.7zM47.1 8.1h1v6.4h-1V8.1zM50.1 12.4c0 .2 0 .4.1.5.1.2.1.3.2.4.1.1.2.2.4.3s.3.1.6.1.5-.1.7-.2.3-.3.4-.6h1c-.1.3-.1.5-.3.7-.1.2-.3.4-.5.5l-.6.3c-.2.1-.5.1-.7.1-.4 0-.7-.1-1-.2s-.5-.3-.7-.5-.3-.5-.4-.8c-.1-.3-.1-.6-.1-1 0-.3.1-.6.2-.9.1-.3.3-.6.5-.8.2-.2.4-.4.7-.5s.6-.2.9-.2c.4 0 .7.1 1 .2.3.2.5.4.7.6.2.3.3.5.4.9.1.3.1.7.1 1h-3.6v.1zm2.4-.6c0-.2 0-.3-.1-.5-.1-.1-.1-.3-.2-.4-.1-.1-.2-.2-.4-.3-.1-.1-.3-.1-.5-.1s-.3 0-.5.1c-.1.1-.3.1-.4.3-.1.1-.2.2-.3.4-.1.2-.1.3-.1.5h2.5zM58.9 14.6c-.4 0-.7-.1-1-.2s-.5-.3-.7-.5-.4-.5-.5-.8-.2-.6-.2-1 .1-.7.2-1c.1-.3.3-.6.5-.8s.4-.4.7-.5.6-.2 1-.2.7.1 1 .2.5.3.7.5.4.5.5.8.2.6.2 1-.1.7-.2 1c-.1.3-.3.6-.5.8-.2.2-.4.4-.7.5-.3.2-.6.2-1 .2zm0-.8c.2 0 .4 0 .6-.1.2-.1.3-.2.4-.4.1-.2.2-.3.2-.5.1-.2.1-.4.1-.6s0-.4-.1-.6-.1-.4-.2-.5c-.1-.2-.2-.3-.4-.4s-.4-.1-.6-.1c-.2 0-.4 0-.6.1-.2.1-.3.2-.4.4-.1.2-.2.3-.2.5-.1.2-.1.4-.1.6s0 .4.1.6.1.4.2.5c.1.2.2.3.4.4.2.1.4.1.6.1zM62.1 9.8h1v.7c.2-.3.4-.5.6-.6s.5-.2.8-.2c.5 0 .9.1 1.2.4s.4.7.4 1.2v3.2h-1v-2.9c0-.4-.1-.6-.2-.8-.1-.2-.4-.2-.7-.2-.2 0-.3 0-.5.1-.1.1-.3.1-.4.3-.1.1-.2.2-.2.4-.1.2-.1.3-.1.5v2.7h-1V9.8h.1z"/></g></symbol><symbol id="icon--zoom" viewBox="0 0 50 50"><g><path d="M48.6 40.5l-9.7-9.7c-1.4-1.4-3.5-1.7-5.2-.9 5.5-7.3 4.9-17.7-1.7-24.4C28.3 1.8 23.5 0 18.7 0 14 0 9.2 1.8 5.5 5.5c-7.3 7.3-7.3 19.2 0 26.5 3.7 3.7 8.5 5.5 13.3 5.5 3.9 0 7.8-1.3 11.1-3.7-.8 1.7-.5 3.8.9 5.2l9.7 9.7c1.8 1.8 4.8 1.8 6.6 0l1.5-1.5c1.8-1.9 1.8-4.9 0-6.7zm-29.9-9.2c-3.3 0-6.5-1.3-8.8-3.7C5 22.7 5 14.8 9.9 9.9c2.4-2.4 5.5-3.7 8.8-3.7s6.5 1.3 8.8 3.7c2.4 2.4 3.7 5.5 3.7 8.8s-1.3 6.5-3.7 8.8c-2.3 2.4-5.4 3.8-8.8 3.8z"/><path d="M21.1 28.1v-7h7v-4.7h-7v-7h-4.7v7h-7v4.7h7v7"/></g></symbol><symbol id="section__icon--work" viewBox="0 0 50 50"><path fill="#0074BC" d="M50 25c0 13.8-11.2 25-25 25S0 38.8 0 25 11.2 0 25 0s25 11.2 25 25"/><path fill="#FFF" d="M25.6 10.3c0 .3-.3.6-.6.6s-.6 0-.6-.6c0-.3.3-.6.6-.6s.6.3.6.6zm-11.2 6.9L11 13.8V36l3.4-3.4V17.2zm-3.2-4.1h9.1L23.1 9c.6-.3 1.2-.9 1.9-.9.6 0 1.2.3 1.6.9l2.8 4.1h9.1L35 16.6H14.7l-3.5-3.5zm10 0h7.2l-2.5-3.7c-.3-.3-.6-.6-.9-.6-.3 0-.6.3-.9.6l-2.9 3.7zm14.4 4.1v15.3l3.4 3.4V13.8l-3.4 3.4zM14.7 32.8l-3.4 3.4h27.2L35 32.8H14.7zm12.5-10.9l-3.8 5.6-2.2-3.1-4.4 5.9H33.1l-5.9-8.4zm-8.4-2.5c-.9 0-1.2.6-1.2 1.2 0 .9.6 1.2 1.2 1.2.9 0 1.2-.6 1.2-1.2.3-.6-.6-1.2-1.2-1.2z"/></symbol></svg>