<?xml version="1.0" encoding="UTF-8"?>
<!DOCTYPE svg PUBLIC "-//W3C//DTD SVG 1.1//EN" "http://www.w3.org/Graphics/SVG/1.1/DTD/svg11.dtd">
<svg xmlns="http://www.w3.org/2000/svg" style="display:none">
  <symbol id="logo" viewBox="0 0 74 75">
    <g xmlns="http://www.w3.org/2000/svg" opacity=".85">
      <path d="M57.2 9.2c-.2-.2-.3-.5-.4-.7-.3.2-.6.3-1 .3.2.3.4.7.4 1.2.3-.4.6-.7 1-.8zM64.9 16.7c-.2-.2-.3-.5-.4-.7-.3.2-.7.3-1.1.3.3.3.5.8.5 1.2.3-.3.6-.6 1-.8zM66.9 23.8c.3-.4.7-.8 1.1-1-.2-.3-.4-.6-.5-1-.4.2-.9.3-1.4.3H66c.5.5.9 1.1.9 1.7zM61.6 10.3c0-.1-.1-.2-.1-.3l-.6.3c.1.1.1.2.2.4.1-.1.3-.3.5-.4zM70.1 29.5c.3-.3.6-.5.9-.7-.1-.2-.3-.5-.3-.7-.4.2-.8.3-1.3.3.3.3.6.6.7 1.1zM68.7 17.8zM34 1.6c-.1-.2-.3-.4-.4-.6-.1.1-.2.1-.3.2.1.2.2.5.3.7.1-.1.3-.2.4-.3zM21.1 9.1c.4-.6 1-.9 1.8-.9-.5-.3-.8-.7-1.1-1.2-.3.2-.7.4-1 .5.2.4.3.9.3 1.3v.3zM39 3.3c-.2-.2-.4-.5-.6-.8-.2.1-.5.3-.8.3.2.4.3.8.3 1.2.3-.3.7-.6 1.1-.7zM9.8 14c-.2-.2-.3-.4-.5-.7-.1.1-.2.1-.3.2.1.2.2.4.3.7.2-.1.4-.1.5-.2zM16.6 11.2c-.4-.3-.7-.6-.9-1.1-.2.2-.5.3-.8.5.2.4.3.8.3 1.2.4-.4.9-.6 1.4-.6zM27.3 5.7c.3-.4.8-.7 1.3-.8-.3-.3-.6-.6-.8-1-.3.2-.5.3-.8.4.2.5.3.9.3 1.4zM71.7 39.9c.2-.2.5-.4.8-.6-.1-.2-.2-.4-.2-.6-.4.1-.8.3-1.3.3.3.2.5.5.7.9zM36.1 71.9c-.3.4-.7.6-1.1.8.2.3.4.5.6.9.2-.2.5-.3.8-.4-.2-.4-.3-.8-.3-1.3zM40 74.4c.1.2.3.4.4.6.1 0 .2-.1.3-.1-.1-.2-.2-.5-.3-.7-.1 0-.3.1-.4.2zM12.3 65.6c.1.1.1.2.2.3.2-.1.4-.2.7-.3-.1-.2-.2-.3-.2-.5-.2.3-.4.4-.7.5zM9 18.8c-.4-.3-.6-.6-.8-1-.2.2-.5.3-.8.4.2.3.3.6.3 1 .4-.2.8-.4 1.3-.4zM16.7 66.8c.2.2.3.5.5.8.3-.2.7-.3 1-.3-.3-.4-.4-.9-.4-1.4-.3.4-.6.7-1.1.9zM74 34.6c0-.1-.1-.2-.1-.2-.2.1-.4.2-.7.2.1.1.2.2.2.4.2-.1.4-.3.6-.4zM4 46.3c-.3.3-.6.6-1 .8.2.3.3.6.4.9.4-.2.8-.3 1.3-.3h.2c-.5-.3-.8-.8-.9-1.4zM9.1 59.3c.2.3.4.5.5.8.4-.2.8-.3 1.2-.3-.4-.4-.6-.9-.6-1.5-.3.4-.7.8-1.1 1zM64.2 62c.2.2.3.4.4.6.1-.1.2-.1.3-.2-.1-.2-.2-.4-.3-.7-.1.2-.2.2-.4.3zM65 57.2c.3.3.6.6.8 1 .2-.2.5-.3.7-.4-.2-.3-.3-.6-.3-1-.3.2-.7.4-1.2.4zM52.9 66.9c-.4.6-1 1-1.8 1h-.2c.5.3 1 .7 1.2 1.3.3-.2.7-.4 1.1-.5-.2-.4-.4-.9-.4-1.4.1-.3.1-.4.1-.4zM57.4 64.8c.4.3.7.6.9 1.1.2-.2.5-.3.8-.4-.2-.4-.3-.8-.3-1.2-.4.3-.9.5-1.4.5zM46.7 70.3c-.3.4-.8.6-1.2.8.3.3.6.6.8 1 .3-.2.5-.3.8-.4-.3-.4-.4-.9-.4-1.4zM7.2 52.1v-.2c-.3.5-.7 1-1.3 1.3.2.3.4.7.5 1.1.4-.2.9-.3 1.4-.3h.4c-.6-.4-1-1.1-1-1.9zM4.6 32.7c1.3 0 2.4 1.1 2.4 2.4 0 1.3-1.1 2.4-2.4 2.4.7.5 1.2 1.3 1.2 2.2 0 1.3-.8 2.3-1.9 2.6.5.5.7 1.2.8 1.9.4-.4 1-.6 1.6-.6 1.3 0 2.3 1 2.3 2.3s-1 2.3-2.3 2.3c.8.5 1.3 1.4 1.3 2.4v.4c.3-.6.9-1 1.7-1 1.2 0 2.1 1 2.1 2.1s-1 2.1-2.1 2.1h-.2c.9.5 1.5 1.4 1.5 2.5v.1c.4-.5 1.1-.9 1.8-.9 1.3 0 2.3 1 2.3 2.3 0 1.1-.8 2-1.8 2.2.5.4.9 1 1.1 1.7.5-.3 1-.5 1.6-.5 1.5 0 2.7 1.2 2.7 2.7v.1c.4-.6 1.1-1 1.9-1 1.3 0 2.4 1.1 2.4 2.4 0 1.1-.7 2-1.6 2.3.3.3.6.7.8 1.1.4-.2.9-.4 1.4-.4-.3-.4-.5-.9-.5-1.5 0-1.3 1-2.3 2.3-2.3s2.3 1 2.3 2.3c0 1.1-.7 2-1.7 2.2.4.3.7.7.9 1.2.4-.3.9-.4 1.4-.5-.3-.4-.5-.9-.5-1.5 0-1.3 1-2.3 2.3-2.3 1.3 0 2.3 1 2.3 2.3 0 1.1-.7 2-1.7 2.2.4.3.6.7.8 1.1.4-.2.8-.4 1.2-.5-.3-.4-.4-.9-.4-1.4 0-1.3 1.1-2.4 2.4-2.4 1.3 0 2.4 1 2.4 2.3.5-.7 1.3-1.1 2.2-1.1 1.2 0 2.2.8 2.6 1.9.5-.4 1.1-.7 1.8-.8-.4-.4-.6-.9-.6-1.5 0-1.3 1-2.3 2.3-2.3 1.2 0 2.2.9 2.3 2.1.5-.7 1.4-1.2 2.3-1.2h.4c-.6-.4-1-1.1-1-1.9 0-1.2 1-2.2 2.2-2.2s2.2 1 2.2 2.2v.1c.5-.9 1.4-1.4 2.5-1.4-.5-.4-.8-1.1-.8-1.8 0-1.3 1-2.3 2.3-2.3 1.1 0 2 .8 2.3 1.8.4-.5 1-.9 1.6-1-.3-.5-.5-1-.5-1.6 0-1.5 1.2-2.7 2.7-2.7-.5-.5-.9-1.1-.9-1.9 0-1.4 1.1-2.5 2.5-2.5 1.1 0 2 .7 2.3 1.6.3-.3.6-.5 1-.7-.2-.4-.3-.8-.4-1.3-.4.3-.9.5-1.4.5-1.3 0-2.3-1-2.3-2.3s1-2.3 2.3-2.3c1.1 0 2 .7 2.2 1.7.3-.3.7-.6 1.1-.8-.2-.4-.4-.8-.4-1.3-.4.3-.9.5-1.4.5-1.3 0-2.3-1-2.3-2.3 0-1.3 1-2.3 2.3-2.3 1.1 0 2 .7 2.3 1.7.3-.3.6-.5.9-.7-.2-.3-.3-.7-.4-1.1-.4.2-.8.3-1.3.3-1.4 0-2.5-1.1-2.5-2.5 0-1.3 1-2.4 2.3-2.5-.6-.5-1-1.3-1-2.2 0-1.2.8-2.2 1.9-2.6-.4-.5-.7-1.1-.7-1.7-.4.3-.9.5-1.5.5-1.3 0-2.3-1.1-2.3-2.3 0-1.2.9-2.2 2.1-2.3-.7-.5-1.1-1.4-1.1-2.3v-.1c-.4.5-1 .8-1.7.8-1.2 0-2.2-1-2.2-2.2 0-1.2.9-2.2 2.1-2.2-.8-.5-1.3-1.4-1.3-2.4-.4.5-1.1.8-1.7.8-1.3 0-2.4-1.1-2.4-2.4 0-1.1.8-2 1.8-2.3-.5-.4-.8-1-1-1.6-.4.3-1 .5-1.6.5-1.5 0-2.7-1.2-2.8-2.7-.5.5-1.1.9-1.9.9-1.4 0-2.5-1.1-2.5-2.5 0-1.1.7-2 1.6-2.3-.3-.3-.5-.6-.7-1-.6.5-1 .7-1.5.7.3.4.5.9.5 1.4 0 1.3-1.1 2.3-2.3 2.3s-2.3-1.1-2.3-2.3c0-1.1.7-2 1.7-2.3-.3-.3-.6-.7-.8-1.1-.4.2-.9.4-1.3.4.3.4.5.9.5 1.4 0 1.3-1 2.3-2.3 2.3-1.3 0-2.3-1-2.3-2.3 0-1.1.7-2 1.7-2.2-.3-.3-.6-.6-.8-1-.3.2-.7.3-1.1.4.3.4.4.9.4 1.4 0 1.4-1.1 2.5-2.5 2.5-1.3 0-2.4-1-2.5-2.3-.5.6-1.3 1.1-2.2 1.1C34 6.8 33 6.1 32.6 5c-.5.4-1.1.7-1.8.7.4.4.6.9.6 1.5 0 1.3-1 2.3-2.3 2.3-1.2 0-2.2-1-2.3-2.2-.5.7-1.4 1.2-2.3 1.2h-.2c.6.4.9 1 .9 1.8 0 1.2-1 2.2-2.2 2.2-1.2 0-2.2-1-2.2-2.2-.5.8-1.4 1.4-2.5 1.4.5.4.8 1.1.8 1.8 0 1.3-1 2.3-2.3 2.3-1.1 0-2.1-.8-2.3-1.8-.4.5-1 .9-1.7 1 .3.5.5 1 .5 1.6 0 1.5-1.2 2.7-2.7 2.7.6.4.9 1.1.9 1.9 0 1.3-1.1 2.4-2.4 2.4-1.1 0-1.9-.7-2.3-1.6-.3.3-.7.5-1.1.7.2.4.4.9.4 1.3.4-.3.9-.5 1.5-.5 1.3 0 2.3 1 2.3 2.3 0 1.3-1 2.3-2.3 2.3-1.1 0-2-.7-2.2-1.7-.3.4-.7.7-1.2.9.3.4.4.9.4 1.4.4-.3.9-.5 1.5-.5 1.3 0 2.3 1 2.3 2.3s-1 2.3-2.3 2.3c-1.1 0-2-.7-2.2-1.7-.3.4-.7.7-1.1.9.2.4.4.8.5 1.2.3-.3.8-.5 1.3-.5zM14 54.9c-.7 0-1.2-.6-1.2-1.2s.6-1.2 1.2-1.2c.7 0 1.2.6 1.2 1.2s-.6 1.2-1.2 1.2zm3.1 6.6c-1 0-1.7-.8-1.7-1.7s.8-1.7 1.7-1.7 1.7.8 1.7 1.7-.8 1.7-1.7 1.7zm4.6 1c-.7 0-1.2-.6-1.2-1.2S21 60 21.7 60s1.2.6 1.2 1.2-.5 1.3-1.2 1.3zm4.7 1.3c-.6 0-1-.4-1-1s.4-1 1-1 1 .4 1 1c0 .5-.4 1-1 1zm4.6 1.5c-.6 0-1-.5-1-1 0-.6.5-1 1-1 .6 0 1 .5 1 1 .1.6-.4 1-1 1zm4.7 1.8c-.7 0-1.3-.6-1.3-1.3s.6-1.3 1.3-1.3c.7 0 1.3.6 1.3 1.3s-.6 1.3-1.3 1.3zm4.6 2c-1 0-1.8-.8-1.8-1.8s.8-1.8 1.8-1.8 1.8.8 1.8 1.8-.8 1.8-1.8 1.8zm6.2-3.7c-.7 0-1.3-.6-1.3-1.3 0-.7.6-1.3 1.3-1.3s1.3.6 1.3 1.3c0 .7-.6 1.3-1.3 1.3zm6.1-3.1c-.7 0-1.3-.6-1.3-1.3 0-.7.6-1.3 1.3-1.3s1.3.6 1.3 1.3c0 .7-.6 1.3-1.3 1.3zm6.1-2.6c-1 0-1.8-.8-1.8-1.8s.8-1.8 1.8-1.8 1.8.8 1.8 1.8-.8 1.8-1.8 1.8zm1.6-5.1c-.7 0-1.3-.6-1.3-1.3s.6-1.3 1.3-1.3c.7 0 1.3.6 1.3 1.3s-.6 1.3-1.3 1.3zm3-9.5c-.6 0-1.1-.5-1.1-1.1s.5-1.1 1.1-1.1 1.1.5 1.1 1.1-.5 1.1-1.1 1.1zm1.5-4.4c-.8 0-1.4-.6-1.4-1.4 0-.8.6-1.4 1.4-1.4s1.4.6 1.4 1.4c0 .8-.7 1.4-1.4 1.4zm1.5-7.8c1 0 1.8.8 1.8 1.8s-.8 1.8-1.8 1.8-1.8-.8-1.8-1.8.8-1.8 1.8-1.8zm-3.1-5.7c.8 0 1.4.6 1.4 1.4 0 .8-.6 1.4-1.4 1.4-.8 0-1.4-.6-1.4-1.4 0-.8.6-1.4 1.4-1.4zm-1.4 20.3c.6 0 1.1.5 1.1 1.1s-.5 1.1-1.1 1.1c-.6 0-1.1-.5-1.1-1.1s.5-1.1 1.1-1.1zM60 21.1c.8 0 1.4.6 1.4 1.4 0 .8-.6 1.4-1.4 1.4-.8 0-1.4-.6-1.4-1.4.1-.8.7-1.4 1.4-1.4zm-3.1-6.7c1 0 1.8.8 1.8 1.8s-.8 1.8-1.8 1.8-1.8-.8-1.8-1.8.8-1.8 1.8-1.8zm-4.6-1c.7 0 1.4.6 1.4 1.4s-.6 1.4-1.4 1.4-1.4-.6-1.4-1.4.6-1.4 1.4-1.4zm-4.7-1.2c.6 0 1.1.5 1.1 1.1s-.5 1.1-1.1 1.1c-.6 0-1.1-.5-1.1-1.1s.5-1.1 1.1-1.1zM43 10.7c.6 0 1.1.5 1.1 1.1 0 .6-.5 1.1-1.1 1.1s-1.1-.5-1.1-1.1c0-.7.4-1.1 1.1-1.1zm-4.7-1.8c.7 0 1.3.6 1.3 1.3 0 .7-.6 1.3-1.3 1.3S37 11 37 10.2c0-.7.6-1.3 1.3-1.3zm-4.6-2c1 0 1.8.8 1.8 1.8s-.8 1.8-1.8 1.8-1.8-.8-1.8-1.8.8-1.8 1.8-1.8zm-6.2 3.7c.7 0 1.3.6 1.3 1.3 0 .7-.6 1.3-1.3 1.3s-1.3-.6-1.3-1.3c0-.8.6-1.3 1.3-1.3zm-6.1 3.1c.7 0 1.3.6 1.3 1.3 0 .7-.6 1.3-1.3 1.3s-1.3-.6-1.3-1.3c0-.7.6-1.3 1.3-1.3zm14.7 4.5l-1.8-1.7 7.4-1.3-1.3 7.4-1.4-1.5-1.8 1.8c3.1.1 6.1 1.3 8.5 3.6 1.4 1.4 2.4 3 2.9 4.7 3.7 1 6.8 3.7 8.2 7.2l2.1-.5-2.6 7-5.6-4.9 2.2-.6c-.8-1.6-2-2.8-3.6-3.7-.2 2.9-1.3 5.8-3.6 8-2 2-4.6 3.2-7.2 3.5 1.4 2.4 4 3.9 7 3.9 2.5 0 4.7-1.1 6.2-2.9l1.2.8 2.3 1.4c-2.2 2.9-5.8 4.8-9.7 4.8-5.4 0-10-3.5-11.6-8.3-2-.5-4-1.6-5.5-3.2-2.3-2.3-3.5-5.4-3.6-8.5L11.2 48.9c0-.1-.1-.2-.1-.2h-.3c-.7 0-1.2-.5-1.2-1.2 0-.5.3-.9.7-1.1-.2-.6-.4-1.2-.5-1.8l26.3-26.4zm-20.8-1.8c1 0 1.7.8 1.7 1.7 0 1-.8 1.7-1.7 1.7-1 0-1.7-.8-1.7-1.7-.1-1 .7-1.7 1.7-1.7zm-1.6 5.1c.7 0 1.3.6 1.3 1.3 0 .7-.6 1.3-1.3 1.3-.7 0-1.3-.6-1.3-1.3.1-.7.6-1.3 1.3-1.3zm-1.5 4.9c.6 0 1 .5 1 1s-.5 1-1 1-1-.5-1-1 .5-1 1-1zM10.7 31c.6 0 1 .5 1 1 0 .6-.5 1-1 1-.6 0-1-.5-1-1s.5-1 1-1zm-1.5 4.4c.7 0 1.3.6 1.3 1.3 0 .7-.6 1.3-1.3 1.3-.7 0-1.3-.6-1.3-1.3.1-.7.6-1.3 1.3-1.3zm.2 5.9c0 1-.8 1.7-1.7 1.7S6 42.2 6 41.3c0-1 .8-1.7 1.7-1.7s1.7.7 1.7 1.7zM37.3 43.1v.3c2.1-.1 4-.9 5.5-2.4s2.4-3.6 2.4-5.8v-.3c-4.4.2-7.9 3.8-7.9 8.2zM33.2 42.4c.3-6 4.9-10.8 10.8-11.5-.3-.5-.7-1.1-1.2-1.5-1.6-1.6-3.6-2.4-5.8-2.4-2.2 0-4.2.9-5.8 2.4-1.5 1.5-2.4 3.6-2.4 5.8 0 2.2.9 4.2 2.4 5.8.6.5 1.3 1 2 1.4zM.9 41.4c-.1-.1-.2-.3-.3-.5-.2.2-.4.3-.6.4.1.1.1.2.2.3.2-.1.5-.2.7-.2zM3.1 37.1c-.3-.3-.6-.7-.8-1.1-.3.3-.5.5-.9.6.2.3.3.5.4.8.4-.2.8-.3 1.3-.3z"/>
    </g>
    <g xmlns="http://www.w3.org/2000/svg" fill="#fff">
      <path d="M57.2 8.2c-.2-.2-.3-.5-.4-.7-.3.2-.6.3-1 .3.2.3.4.7.4 1.2.3-.4.6-.7 1-.8zM64.9 15.7c-.2-.2-.3-.5-.4-.7-.3.2-.7.3-1.1.3.3.3.5.8.5 1.2.3-.3.6-.6 1-.8zM66.9 22.8c.3-.4.7-.8 1.1-1-.2-.3-.4-.6-.5-1-.4.2-.9.3-1.4.3H66c.5.5.9 1.1.9 1.7zM61.6 9.3c0-.1-.1-.2-.1-.3l-.6.3c0 .2.1.3.1.4.2-.1.4-.3.6-.4zM70.1 28.5c.3-.3.6-.5.9-.7-.1-.2-.3-.5-.3-.7-.4.2-.8.3-1.3.3.3.3.6.6.7 1.1zM68.7 16.8zM34 .6c-.1-.2-.3-.4-.4-.6-.1.1-.2.1-.3.2.1.2.2.5.3.7.1-.1.3-.2.4-.3zM21.1 8.1c.4-.6 1-.9 1.8-.9-.5-.3-.8-.7-1.1-1.2-.3.2-.7.4-1 .5.2.4.3.9.3 1.3v.3zM39 2.3c-.2-.2-.4-.5-.6-.8-.2.1-.5.3-.8.3.2.4.3.8.3 1.2.3-.3.7-.6 1.1-.7zM9.8 13c-.2-.2-.3-.4-.5-.7-.1.1-.2.1-.3.2.1.2.2.4.3.7.2-.1.4-.1.5-.2zM16.6 10.2c-.4-.3-.7-.6-.9-1.1-.2.2-.5.3-.8.5.2.4.3.8.3 1.2.4-.4.9-.6 1.4-.6zM27.3 4.7c.3-.4.8-.7 1.3-.8-.3-.3-.6-.6-.8-1-.3.2-.5.3-.8.4.2.5.3.9.3 1.4zM71.7 38.9c.2-.2.5-.4.8-.6-.1-.2-.2-.4-.2-.6-.4.1-.8.3-1.3.3.3.2.5.5.7.9zM36.1 70.9c-.3.4-.7.6-1.1.8.2.3.4.5.6.9.2-.2.5-.3.8-.4-.2-.4-.3-.8-.3-1.3zM40 73.4c.1.2.3.4.4.6.1 0 .2-.1.3-.1-.1-.2-.2-.5-.3-.7-.1 0-.3.1-.4.2zM12.3 64.6c.1.1.1.2.2.3.2-.1.4-.2.7-.3-.1-.2-.2-.3-.2-.5-.2.3-.4.4-.7.5zM9 17.8c-.4-.3-.6-.6-.8-1-.2.2-.5.3-.8.4.2.3.3.6.3 1 .4-.2.8-.4 1.3-.4zM16.7 65.8c.2.2.3.5.5.8.3-.2.7-.3 1-.3-.3-.4-.4-.9-.4-1.4-.3.4-.6.7-1.1.9zM74 33.6c0-.1-.1-.2-.1-.2-.2.1-.4.2-.7.2.1.1.2.2.2.4.2-.1.4-.3.6-.4zM4 45.3c-.3.3-.6.6-1 .8.2.3.3.6.4.9.4-.2.8-.3 1.3-.3h.2c-.5-.3-.8-.8-.9-1.4zM9.1 58.3c.2.3.4.5.5.8.4-.2.8-.3 1.2-.3-.4-.4-.6-.9-.6-1.5-.3.4-.7.8-1.1 1zM64.2 61c.2.2.3.4.4.6.1-.1.2-.1.3-.2-.1-.2-.2-.4-.3-.7-.1.2-.2.2-.4.3zM65 56.2c.3.3.6.6.8 1 .2-.2.5-.3.7-.4-.2-.3-.3-.6-.3-1-.3.2-.7.4-1.2.4zM52.9 65.9c-.4.6-1 1-1.8 1h-.2c.5.3 1 .7 1.2 1.3.3-.2.7-.4 1.1-.5-.2-.4-.4-.9-.4-1.4.1-.3.1-.4.1-.4zM57.4 63.8c.4.3.7.6.9 1.1.2-.2.5-.3.8-.4-.2-.4-.3-.8-.3-1.2-.4.3-.9.5-1.4.5zM46.7 69.3c-.3.4-.8.6-1.2.8.3.3.6.6.8 1 .3-.2.5-.3.8-.4-.3-.4-.4-.9-.4-1.4zM7.2 51.1v-.2c-.3.5-.7 1-1.3 1.3.2.3.4.7.5 1.1.4-.2.9-.3 1.4-.3h.4c-.6-.4-1-1.1-1-1.9zM4.6 31.7c1.3 0 2.4 1.1 2.4 2.4 0 1.3-1.1 2.4-2.4 2.4.7.5 1.2 1.3 1.2 2.2 0 1.3-.8 2.3-1.9 2.6.5.5.7 1.2.8 1.9.4-.4 1-.6 1.6-.6 1.3 0 2.3 1 2.3 2.3s-1 2.3-2.3 2.3c.8.5 1.3 1.4 1.3 2.4v.4c.3-.6.9-1 1.7-1 1.2 0 2.1 1 2.1 2.1s-1 2.1-2.1 2.1h-.2c.9.5 1.5 1.4 1.5 2.5v.1c.4-.5 1.1-.9 1.8-.9 1.3 0 2.3 1 2.3 2.3 0 1.1-.8 2-1.8 2.2.5.4.9 1 1.1 1.7.5-.3 1-.5 1.6-.5 1.5 0 2.7 1.2 2.7 2.7v.1c.4-.6 1.1-1 1.9-1 1.3 0 2.4 1.1 2.4 2.4 0 1.1-.7 2-1.6 2.3.3.3.6.7.8 1.1.4-.2.9-.4 1.4-.4-.3-.4-.5-.9-.5-1.5 0-1.3 1-2.3 2.3-2.3s2.3 1 2.3 2.3c0 1.1-.7 2-1.7 2.2.4.3.7.7.9 1.2.4-.3.9-.4 1.4-.5-.3-.4-.5-.9-.5-1.5 0-1.3 1-2.3 2.3-2.3 1.3 0 2.3 1 2.3 2.3 0 1.1-.7 2-1.7 2.2.4.3.6.7.8 1.1.4-.2.8-.4 1.2-.5-.3-.4-.4-.9-.4-1.4 0-1.3 1.1-2.4 2.4-2.4 1.3 0 2.4 1 2.4 2.3.5-.7 1.3-1.1 2.2-1.1 1.2 0 2.2.8 2.6 1.9.5-.4 1.1-.7 1.8-.8-.4-.4-.6-.9-.6-1.5 0-1.3 1-2.3 2.3-2.3 1.2 0 2.2.9 2.3 2.1.5-.7 1.4-1.2 2.3-1.2h.4c-.6-.4-1-1.1-1-1.9 0-1.2 1-2.2 2.2-2.2s2.2 1 2.2 2.2v.1c.5-.9 1.4-1.4 2.5-1.4-.5-.4-.8-1.1-.8-1.8 0-1.3 1-2.3 2.3-2.3 1.1 0 2 .8 2.3 1.8.4-.5 1-.9 1.6-1-.3-.5-.5-1-.5-1.6 0-1.5 1.2-2.7 2.7-2.7-.5-.5-.9-1.1-.9-1.9 0-1.4 1.1-2.5 2.5-2.5 1.1 0 2 .7 2.3 1.6.3-.3.6-.5 1-.7-.2-.4-.3-.8-.4-1.3-.4.3-.9.5-1.4.5-1.3 0-2.3-1-2.3-2.3s1-2.3 2.3-2.3c1.1 0 2 .7 2.2 1.7.3-.3.7-.6 1.1-.8-.2-.4-.4-.8-.4-1.3-.4.3-.9.5-1.4.5-1.3 0-2.3-1-2.3-2.3 0-1.3 1-2.3 2.3-2.3 1.1 0 2 .7 2.3 1.7.3-.3.6-.5.9-.7-.2-.3-.3-.7-.4-1.1-.4.2-.8.3-1.3.3-1.4 0-2.5-1.1-2.5-2.5 0-1.3 1-2.4 2.3-2.5-.6-.5-1-1.3-1-2.2 0-1.2.8-2.2 1.9-2.6-.4-.5-.7-1.1-.7-1.7-.4.3-.9.5-1.5.5-1.3 0-2.3-1.1-2.3-2.3 0-1.2.9-2.2 2.1-2.3-.7-.5-1.1-1.4-1.1-2.3v-.1c-.4.5-1 .8-1.7.8-1.2 0-2.2-1-2.2-2.2 0-1.2.9-2.2 2.1-2.2-.8-.5-1.3-1.4-1.3-2.4-.4.5-1.1.8-1.7.8-1.3 0-2.4-1.1-2.4-2.4 0-1.1.8-2 1.8-2.3-.5-.4-.8-1-1-1.6-.4.3-1 .5-1.6.5-1.5 0-2.7-1.2-2.8-2.7-.5.5-1.1.9-1.9.9-1.4 0-2.5-1.1-2.5-2.5 0-1.1.7-2 1.6-2.3-.3-.3-.5-.6-.7-1-.6.5-1 .7-1.5.7.3.4.5.9.5 1.4 0 1.3-1.1 2.3-2.3 2.3s-2.3-1.1-2.3-2.3c0-1.1.7-2 1.7-2.3-.3-.3-.6-.7-.8-1.1-.4.2-.9.4-1.3.4.3.4.5.9.5 1.4 0 1.3-1 2.3-2.3 2.3-1.3 0-2.3-1-2.3-2.3 0-1.1.7-2 1.7-2.2-.3-.3-.6-.6-.8-1-.3.2-.7.3-1.1.4.3.4.4.9.4 1.4 0 1.4-1.1 2.5-2.5 2.5-1.3 0-2.4-1-2.5-2.3-.5.6-1.3 1.1-2.2 1.1C34 5.8 33 5.1 32.6 4c-.5.4-1.1.7-1.8.7.4.4.6.9.6 1.5 0 1.3-1 2.3-2.3 2.3-1.2 0-2.2-1-2.3-2.2-.5.7-1.4 1.2-2.3 1.2h-.2c.6.4.9 1 .9 1.8 0 1.2-1 2.2-2.2 2.2-1.2 0-2.2-1-2.2-2.2-.5.8-1.4 1.4-2.5 1.4.5.4.8 1.1.8 1.8 0 1.3-1 2.3-2.3 2.3-1.1 0-2.1-.8-2.3-1.8-.4.5-1 .9-1.7 1 .3.5.5 1 .5 1.6 0 1.5-1.2 2.7-2.7 2.7.6.4.9 1.1.9 1.9 0 1.3-1.1 2.4-2.4 2.4-1.1 0-1.9-.7-2.3-1.6-.3.3-.7.5-1.1.7.2.4.4.9.4 1.3.4-.3.9-.5 1.5-.5 1.3 0 2.3 1 2.3 2.3 0 1.3-1 2.3-2.3 2.3-1.1 0-2-.7-2.2-1.7-.3.4-.7.7-1.2.9.3.4.4.9.4 1.4.4-.3.9-.5 1.5-.5 1.3 0 2.3 1 2.3 2.3s-1 2.3-2.3 2.3c-1.1 0-2-.7-2.2-1.7-.3.4-.7.7-1.1.9.2.4.4.8.5 1.2.3-.3.8-.5 1.3-.5zM14 53.9c-.7 0-1.2-.6-1.2-1.2s.6-1.2 1.2-1.2c.7 0 1.2.6 1.2 1.2s-.6 1.2-1.2 1.2zm3.1 6.6c-1 0-1.7-.8-1.7-1.7s.8-1.7 1.7-1.7 1.7.8 1.7 1.7-.8 1.7-1.7 1.7zm4.6 1c-.7 0-1.2-.6-1.2-1.2S21 59 21.7 59s1.2.6 1.2 1.2-.5 1.3-1.2 1.3zm4.7 1.3c-.6 0-1-.4-1-1s.4-1 1-1 1 .4 1 1c0 .5-.4 1-1 1zm4.6 1.5c-.6 0-1-.5-1-1 0-.6.5-1 1-1 .6 0 1 .5 1 1 .1.6-.4 1-1 1zm4.7 1.8c-.7 0-1.3-.6-1.3-1.3s.6-1.3 1.3-1.3c.7 0 1.3.6 1.3 1.3s-.6 1.3-1.3 1.3zm4.6 2c-1 0-1.8-.8-1.8-1.8s.8-1.8 1.8-1.8 1.8.8 1.8 1.8-.8 1.8-1.8 1.8zm6.2-3.7c-.7 0-1.3-.6-1.3-1.3s.6-1.3 1.3-1.3 1.3.6 1.3 1.3-.6 1.3-1.3 1.3zm6.1-3.1c-.7 0-1.3-.6-1.3-1.3 0-.7.6-1.3 1.3-1.3s1.3.6 1.3 1.3c0 .7-.6 1.3-1.3 1.3zm6.1-2.6c-1 0-1.8-.8-1.8-1.8s.8-1.8 1.8-1.8 1.8.8 1.8 1.8-.8 1.8-1.8 1.8zm1.6-5.1c-.7 0-1.3-.6-1.3-1.3s.6-1.3 1.3-1.3c.7 0 1.3.6 1.3 1.3s-.6 1.3-1.3 1.3zm3-9.5c-.6 0-1.1-.5-1.1-1.1s.5-1.1 1.1-1.1 1.1.5 1.1 1.1-.5 1.1-1.1 1.1zm1.5-4.4c-.8 0-1.4-.6-1.4-1.4 0-.8.6-1.4 1.4-1.4s1.4.6 1.4 1.4c0 .8-.7 1.4-1.4 1.4zm1.5-7.8c1 0 1.8.8 1.8 1.8s-.8 1.8-1.8 1.8-1.8-.8-1.8-1.8.8-1.8 1.8-1.8zm-3.1-5.7c.8 0 1.4.6 1.4 1.4 0 .8-.6 1.4-1.4 1.4-.8 0-1.4-.6-1.4-1.4 0-.8.6-1.4 1.4-1.4zm-1.4 20.3c.6 0 1.1.5 1.1 1.1s-.5 1.1-1.1 1.1c-.6 0-1.1-.5-1.1-1.1s.5-1.1 1.1-1.1zM60 20.1c.8 0 1.4.6 1.4 1.4 0 .8-.6 1.4-1.4 1.4-.8 0-1.4-.6-1.4-1.4.1-.8.7-1.4 1.4-1.4zm-3.1-6.7c1 0 1.8.8 1.8 1.8s-.8 1.8-1.8 1.8-1.8-.8-1.8-1.8.8-1.8 1.8-1.8zm-4.6-1c.7 0 1.4.6 1.4 1.4s-.6 1.4-1.4 1.4-1.4-.6-1.4-1.4.6-1.4 1.4-1.4zm-4.7-1.2c.6 0 1.1.5 1.1 1.1s-.5 1.1-1.1 1.1c-.6 0-1.1-.5-1.1-1.1s.5-1.1 1.1-1.1zM43 9.7c.6 0 1.1.5 1.1 1.1 0 .6-.5 1.1-1.1 1.1s-1.1-.5-1.1-1.1c0-.7.4-1.1 1.1-1.1zm-4.7-1.8c.7 0 1.3.6 1.3 1.3 0 .7-.6 1.3-1.3 1.3S37 10 37 9.2c0-.7.6-1.3 1.3-1.3zm-4.6-2c1 0 1.8.8 1.8 1.8s-.8 1.8-1.8 1.8-1.8-.8-1.8-1.8.8-1.8 1.8-1.8zm-6.2 3.7c.7 0 1.3.6 1.3 1.3 0 .7-.6 1.3-1.3 1.3s-1.3-.6-1.3-1.3c0-.8.6-1.3 1.3-1.3zm-6.1 3.1c.7 0 1.3.6 1.3 1.3 0 .7-.6 1.3-1.3 1.3s-1.3-.6-1.3-1.3c0-.7.6-1.3 1.3-1.3zm14.7 4.5l-1.8-1.7 7.4-1.3-1.3 7.4-1.4-1.5-1.8 1.8c3.1.1 6.1 1.3 8.5 3.6 1.4 1.4 2.4 3 2.9 4.7 3.7 1 6.8 3.7 8.2 7.2l2.1-.5-2.6 7-5.6-4.9 2.2-.6c-.8-1.6-2-2.8-3.6-3.7-.2 2.9-1.3 5.8-3.6 8-2 2-4.6 3.2-7.2 3.5 1.4 2.4 4 3.9 7 3.9 2.5 0 4.7-1.1 6.2-2.9l1.2.8 2.3 1.4c-2.2 2.9-5.8 4.8-9.7 4.8-5.4 0-10-3.5-11.6-8.3-2-.5-4-1.6-5.5-3.2-2.3-2.3-3.5-5.4-3.6-8.5L11.2 47.9c0-.1-.1-.2-.1-.2h-.3c-.7 0-1.2-.5-1.2-1.2 0-.5.3-.9.7-1.1-.2-.6-.4-1.2-.5-1.8l26.3-26.4zm-20.8-1.8c1 0 1.7.8 1.7 1.7 0 1-.8 1.7-1.7 1.7-1 0-1.7-.8-1.7-1.7-.1-1 .7-1.7 1.7-1.7zm-1.6 5.1c.7 0 1.3.6 1.3 1.3 0 .7-.6 1.3-1.3 1.3-.7 0-1.3-.6-1.3-1.3.1-.7.6-1.3 1.3-1.3zm-1.5 4.9c.6 0 1 .5 1 1s-.5 1-1 1-1-.5-1-1 .5-1 1-1zM10.7 30c.6 0 1 .5 1 1 0 .6-.5 1-1 1-.6 0-1-.5-1-1s.5-1 1-1zm-1.5 4.4c.7 0 1.3.6 1.3 1.3 0 .7-.6 1.3-1.3 1.3-.7 0-1.3-.6-1.3-1.3.1-.7.6-1.3 1.3-1.3zm.2 5.9c0 1-.8 1.7-1.7 1.7S6 41.2 6 40.3c0-1 .8-1.7 1.7-1.7s1.7.7 1.7 1.7zM37.3 42.1v.3c2.1-.1 4-.9 5.5-2.4s2.4-3.6 2.4-5.8v-.3c-4.4.2-7.9 3.8-7.9 8.2zM33.2 41.4c.3-6 4.9-10.8 10.8-11.5-.3-.5-.7-1.1-1.2-1.5-1.6-1.6-3.6-2.4-5.8-2.4-2.2 0-4.2.9-5.8 2.4-1.5 1.5-2.4 3.6-2.4 5.8 0 2.2.9 4.2 2.4 5.8.6.5 1.3 1 2 1.4zM.9 40.4c-.1-.1-.2-.3-.3-.5-.2.2-.4.3-.6.4.1.1.1.2.2.3.2-.1.5-.2.7-.2zM3.1 36.1c-.3-.3-.6-.7-.8-1.1-.3.3-.5.5-.9.6.2.3.3.5.4.8.4-.2.8-.3 1.3-.3z"/>
    </g>
  </symbol>
  <symbol id="section__icon--about" viewBox="0 0 50 50">
    <path fill="#0074BC" d="M50 25c0 13.8-11.2 25-25 25S0 38.8 0 25 11.2 0 25 0s25 11.2 25 25"/>
    <path fill="#fff" d="M29.7 34.7s.3.3 0 .6-3.1 4.7-8.8 4.7c-1.2 0-1.9-.6-1.9-1.2 0-.9.9-2.8 2.8-8.4l1.2-3.7c.3-1.2.6-1.9.6-2.5 0-.3-.3-.6-.6-.6-.6 0-2.8 2.2-3.4 3.1-.3.3-.3.3-.6 0v-.3s-.3-.3 0-.3c.3-.3 3.8-5.6 8.7-5.6 1.2 0 1.9.6 1.9 1.6 0 .9-.6 2.5-1.6 5L25.5 34c-.5 1.3-.5 1.9-.5 2.6 0 .3 0 .6.6.6.9 0 3.1-2.5 3.4-2.8h.3l.4.3z"/>
    <circle fill="#fff" cx="28.1" cy="13.1" r="3.1"/>
  </symbol>
  <symbol id="section__icon--skills" viewBox="0 0 50 50">
    <path fill="#0074BC" d="M50 25c0 13.8-11.2 25-25 25S0 38.8 0 25 11.2 0 25 0s25 11.2 25 25"/>
    <g xmlns="http://www.w3.org/2000/svg" fill="#fff">
      <path d="M25.6 31.9l-9.4-1.6V25s5.3-1.6 9.4-1.6c4.7 0 9.4 1.6 9.4 1.6v5.6l-9.4 1.3zM37.5 26.2l7.5-3.7-19.1-9.4-19 9.4 2.5 1.6v3.4c-.3 0-.6.3-.6.9 0 .3 0 .6.3.9L7.8 33s.9.3 2.2.3 2.2-.3 2.2-.3L11 28.9c.3-.3.3-.6.3-.9 0-.6-.3-.9-.6-1.2v-2.5l3.8 1.9v-2.8l.9-.3c.3 0 6.2-1.9 10.9-1.9 5.6 0 10.6 1.6 10.6 1.9l.6.3v2.8z"/>
    </g>
  </symbol>
  <symbol id="section__icon--tools" viewBox="0 0 50 50">
    <path fill="#fff" d="M29.7 34.7s.3.3 0 .6-3.1 4.7-8.8 4.7c-1.2 0-1.9-.6-1.9-1.2 0-.9.9-2.8 2.8-8.4l1.2-3.7c.3-1.2.6-1.9.6-2.5 0-.3-.3-.6-.6-.6-.6 0-2.8 2.2-3.4 3.1-.3.3-.3.3-.6 0v-.3s-.3-.3 0-.3c.3-.3 3.8-5.6 8.7-5.6 1.2 0 1.9.6 1.9 1.6 0 .9-.6 2.5-1.6 5L25.5 34c-.5 1.3-.5 1.9-.5 2.6 0 .3 0 .6.6.6.9 0 3.1-2.5 3.4-2.8h.3l.4.3z"/>
    <circle fill="#fff" cx="28.1" cy="13.1" r="3.1"/>
    <path fill="#0074BC" d="M50 25c0 13.8-11.2 25-25 25S0 38.8 0 25 11.2 0 25 0s25 11.2 25 25"/>
    <g xmlns="http://www.w3.org/2000/svg" fill="#fff">
      <path d="M26.8 20.2c-.7.6-1.2 1.2-1.7 1.8l1.7-1.8zM39 32.3L37.3 34l-.5-.5 1.6-1.6-1.8-1.9-3.4 3.3-.5-.5 3.3-3.4-1.7-1.7-1.7 1.6-.5-.5 1.7-1.6-1.8-1.8-3.3 3.4-.6-.5 3.3-3.4-.3-.4c-2.5 2.7-4.9 4.9-6.8 6.5l10 10 6.7-6.7-2-2zM25.3 18.8l.1-.1-.3-.3-1.7 1.6-.5-.5 1.7-1.6-1.8-1.8-3.4 3.4-.5-.5 3.3-3.4-1.8-1.8-1.6 1.6-.5-.5 1.7-1.7-1.8-1.8-3.4 3.4-.5-.6 3.3-3.3-1.9-2L9 15.6l10.2 10.2c1.5-1.9 3.6-4.3 6.1-7zM38.4 10.4c-1.4 0-6.4 4.1-11.7 9.8-3.1 3.2-5.3 6-6.6 8l2 1.9c1.9-1.4 4.6-3.8 7.6-7.1 5.8-6.1 9.8-11.8 8.9-12.5-.1-.1-.1-.1-.2-.1.1 0 .1 0 0 0zM21.3 31l-2-1.9-.1-.1c-2 .9-4.7 1.6-5.9 5.2-1.4 4-3.9 4.7-3.9 4.7s.3.2 1.2.4c.6.1 1.6.2 3-.2 3.8-.8 6.2-3.4 7.7-8.1z"/>
    </g>
  </symbol>
  <symbol id="skills__icon--app" viewBox="0 0 75 75">
    <circle cx="37.5" cy="37.5" r="37.5" fill="#466068"/>
    <g xmlns="http://www.w3.org/2000/svg" fill="#fff">
      <path d="M46.9 39.2c-1.6.8-3.6.6-5-.7-1.8-1.7-1.9-4.5-.2-6.3 1.7-1.8 4.5-1.9 6.3-.2 1.4 1.3 1.8 3.2 1.1 4.9l-.2-.2c.6-1.5.2-3.3-1.1-4.4-1.7-1.5-4.3-1.4-5.8.2-1.5 1.7-1.4 4.3.2 5.8 1.3 1.2 3 1.4 4.5.7l.2.2zm-.8-.7c-1.2.4-2.6.2-3.6-.7-1.4-1.3-1.5-3.5-.2-4.9 1.3-1.4 3.5-1.5 4.9-.2 1 .9 1.3 2.3 1 3.5l-.2-.3c.2-1.1-.1-2.2-.9-3-1.3-1.2-3.3-1.1-4.5.2-1.2 1.3-1.1 3.3.2 4.5.9.8 2 1 3.1.7l.2.2zm-.8-.8c-.7.1-1.5-.1-2.1-.6-1-1-1.1-2.6-.1-3.6s2.6-1.1 3.6-.1c.6.5.9 1.3.8 2l-.3-.3c0-.6-.3-1.1-.7-1.5-.9-.8-2.3-.8-3.1.1-.8.9-.8 2.3.1 3.1.4.4 1 .6 1.6.6l.2.3zm2.6 7.6c0-.4.3-.7.5-1 .2-.2.7-.1.7-.1s-1-1.5-.4-2.3c.5-.8 1.1-.6 1.1-.6l-4.9-4.5s-1-.9-.2-1.8 1.8 0 1.8 0l6.9 6.4c1 1 2.9 2 2.9 2s-2.1-6.4 1.1-7.2c.5-.1.2 1.6.6 3.1.5 1.8 1.8 3.9 2 4.2.1.3 1.8 4.9 1.8 5.2.1.3-.1.7-.1.9 0 .2.8.9.8.9s.2 1.1-1.6 3-2.9 1.8-2.9 1.8-1.7-2.2-1.9-2.4c-.2-.2-5.9-1.3-6.3-1.8s-1.7-2.7-2-3.6c-.3-.9.5-1.4.5-1.4s-.4-.3-.4-.8z"/>
      <path d="M25.4 32H13.7c-.7 0-1.3.6-1.3 1.3V53c0 .6.4 1.1.9 1.3v.1H25.7c.6-.1 1.1-.6 1.1-1.3V33.3c-.1-.7-.7-1.3-1.4-1.3zm-7.7 1.2h3.6v.5h-3.6v-.5zm1.9 20.7c-.6 0-1-.5-1-1s.5-1 1-1 1 .5 1 1-.5 1-1 1zm5.8-2.7H13.7V34.7h11.7v16.5zM55.6 54.1c-.3-.1-1.1-.3-1.7-.4-3.5-.9-4.4-1.1-4.8-1.5-.4-.3-.9-1.3-1.4-2.2H32.5V22.2h24.3v13.2c.2-.1.3-.1.5-.2h.2c.4 0 .6.1.8.3V21.1c0-.9-.7-1.6-1.6-1.6H32.5c-.9 0-1.6.7-1.6 1.6v32c0 .9.7 1.6 1.6 1.6h23.7c-.3-.2-.5-.5-.6-.6zm-11-33.7c.3 0 .5.2.5.5s-.2.5-.5.5-.5-.2-.5-.5.2-.5.5-.5zm0 33.5c-.9 0-1.5-.7-1.5-1.5s.7-1.5 1.5-1.5c.9 0 1.5.7 1.5 1.5s-.6 1.5-1.5 1.5z"/>
    </g>
  </symbol>
  <symbol id="skills__icon--drupal" viewBox="0 0 75 75">
    <circle fill="#0077C0" cx="37.5" cy="37.5" r="37.5"/>
    <path fill="#fff" d="M37.5 16.9c2.3 3.5 4.9 6.3 7.7 9.1 2 2.1 4 4.2 6 6.8 5.7 7 5.1 17.1-1.3 23.5-3.3 3.3-7.8 5.2-12.5 5.2s-9.1-1.8-12.5-5.2c-6.4-6.4-6.9-16.5-1.3-23.5 2-2.6 4.1-4.7 6-6.8 3-2.9 5.6-5.6 7.9-9.1m0-8.9c-3.9 10.2-10.4 14-16.8 22.2-6.9 8.5-6.3 21 1.5 28.9 4.2 4.2 9.8 6.3 15.3 6.3s11.1-2.1 15.3-6.3c7.9-7.9 8.4-20.4 1.5-28.9C47.9 22 41.4 18.2 37.5 8z"/>
  </symbol>
  <symbol id="skills__icon--email" viewBox="0 0 75 75">
    <circle cx="37.5" cy="37.5" r="37.5" fill="#D46611"/>
    <g xmlns="http://www.w3.org/2000/svg" fill="#fff">
      <path d="M58.4 29.1L44.5 40.7l13.9 13.9zM30.8 40.7l-14-11.6v25.5zM58.1 55.8L43.9 41.6 38.7 46c-.3.2-.6.3-1 .3-.3 0-.7-.1-1-.3l-5.2-4.3-14 14.1h40.6zM44.5 18.8l-6-5c-.4-.3-1-.3-1.4 0l-6 5h13.4zM39 27.8c-.2-.2-.5-.4-.8-.4-.7 0-1.3.4-1.7 1.3-.5.9-.7 1.7-.7 2.5 0 .5.1.9.3 1.2.2.3.5.5.9.5.7 0 1.2-.5 1.7-1.6.4-1.1.7-1.9.7-2.6-.1-.4-.2-.7-.4-.9zM19 20.1v9.2L37.8 45 56 29.3v-9.2H19zm19.3 13.4c-.5.5-1.2.8-2 .8s-1.4-.3-1.9-.9c-.5-.6-.8-1.4-.8-2.4 0-1.2.4-2.3 1.2-3.4.8-1.1 1.8-1.6 2.9-1.6.7 0 1.2.2 1.6.6.3.3.5.6.6 1l.4-1.2H42l-1.2 4.3c-.1.3-.2.6-.2.8 0 .2-.1.3-.1.4 0 .2.1.4.2.6.1.2.3.3.6.3.5 0 1.1-.4 1.7-1.1.5-.8.8-1.8.8-3 0-1.8-.8-3.1-2.3-3.9-.9-.5-2-.8-3.2-.8-2.2 0-4 .7-5.3 2.1-1.2 1.2-1.8 2.7-1.8 4.5 0 1.9.7 3.5 2.1 4.6 1.2 1 2.8 1.5 4.6 1.5 1.2 0 2.4-.2 3.4-.7.6-.3 1.2-.6 1.8-1.1l.2-.2.7 1.1c-.9.7-1.9 1.3-3 1.7-1.1.4-2.2.6-3.3.6-2.7 0-4.7-.9-6.2-2.6-1.2-1.4-1.8-3.1-1.8-5.1 0-2.2.8-4 2.3-5.6 1.6-1.6 3.6-2.4 6.1-2.4 2 0 3.7.5 5.1 1.7 1.4 1.1 2.1 2.7 2.1 4.6 0 1.5-.4 2.8-1.3 3.9s-1.9 1.6-3 1.6c-.6 0-1-.2-1.4-.5-.3-.4-.5-.7-.5-1.1v-.4c-.3.7-.5 1.1-.8 1.3z"/>
    </g>
  </symbol>
  <symbol id="skills__icon--identity" viewBox="0 0 75 75">
    <circle cx="37.5" cy="37.5" r="37.5" fill="#5028A3"/>
    <path d="M43 37.5c4.5-10 7.4-19.4 14.7-19.4 1.3 0 1.9.7 1.9 1.6 0 4.7-7.4 14.2-16.6 17.8zM25.9 55.1c-2 1.1-4.1 1.6-6.7 1.6-2.3 0-4.3-.9-4.3-1.9 0-1 1.7-2.3 3.9-2.3 2.4.1 4.7 1.4 7.1 2.6zM37.3 40c-3.2 6.4-5.9 10.9-9.1 13.6-2.4-1.3-4.9-2.5-7.9-2.5-4 0-6.4 1.7-6.4 3.8 0 1.8 2.4 3 5.4 3 2.8 0 5.5-.7 8-2 2.5 1.2 5.2 2.3 8.5 2.3 5.3 0 9.6-3.6 11.9-6.3l-.6-.6c-2.2 2.6-5.7 5.5-10.4 5.5-2.5 0-4.7-1.1-6.9-2.3 5.3-3.6 9.7-9.3 12.6-15.5 10.4-3.4 18.8-13.8 18.8-18.9 0-1.9-1.2-3.1-3.4-3.1-8.3 0-15.5 12.7-19.8 21.8-.7.1-1.4.1-2 .1-4.4 0-7.7-2.5-7.7-6.3 0-8.6 5.7-14 13.2-14.9l-.2-1c-6.6.5-15.3 6.7-15.3 14.5C26 37 30.6 40 36 40c.3.1.8.1 1.3 0z" fill="#fff"/>
  </symbol>
  <symbol id="skills__icon--print" viewBox="0 0 75 75">
    <circle cx="37.5" cy="37.5" r="37.5" fill="#2BA52B"/>
    <path d="M10.8 52.1c7-5.2 18.7-5.1 25.7 0V27.5c0-5.6-8.9-7.1-13-7.1-3.9 0-12.8 1.5-12.8 6.9.1 2.4.1 18.9.1 24.8 1.6-1.1 0 0 0 0zM10.8 53.3v1.1s.1 0 .1-.1c-.1 0-.1.1-.1.1 7-5.2 18.7-5.1 25.7 0v-1.1c-7-5.1-18.7-5.1-25.7 0zM54.4 20.7v13.7l-3.1-2.9-3.1 2.9V20.7c-4.3.6-9.8 2.4-9.8 6.7v24.7s.1 0 .1-.1c-.1 0-.1.1-.1.1 7-5.2 18.7-5.1 25.7 0V27.5c.1-4.3-5.3-6.2-9.7-6.8zM38.5 53.3v1.1s.1 0 .1-.1c-.1 0-.1.1-.1.1 7-5.2 18.7-5.1 25.7 0v-1.1c-7-5.1-18.7-5.1-25.7 0z" fill="#fff"/>
  </symbol>
  <symbol id="skills__icon--web" viewBox="0 0 75 75">
    <circle cx="37.5" cy="37.5" r="37.5" fill="#B51414"/>
    <g xmlns="http://www.w3.org/2000/svg" fill="#fff">
      <g>
        <path d="M60.4 30.6c-2 2.9-3.4 5.2-4.2 6.9l1.8 1.3c1.3-1.3 3.1-3.4 5.1-6.3 3.8-5.4 6.3-10.2 5.5-10.7h-.2c-1 0-4.4 3.8-8 8.8zM51.6 42.9c-.6 3.2-2.5 4-2.5 4s.3.2 1.1.2c.5 0 1.3-.1 2.2-.4 2.9-1.1 4.5-3.4 5.2-7.2l-1.8-1.4c-1.5 1-3.6 1.8-4.2 4.8z"/>
      </g>
      <path d="M23.6 38.4l8.7 3.5v-1.8l-6.6-2.4 6.5-2.5h.1v-1.8l-8.7 3.5zM32.5 44.3l-.1.2h1.8l7-13.8h-1.8zM41.9 33.4v1.8l6.6 2.5-6.6 2.4v1.8l8.7-3.5v-1.5zM59.7 30.1c.2-.2.4-.6.7-1v-4.6c0-1-.8-1.8-1.8-1.8h-43c-1 0-1.8.8-1.8 1.8v26.1c0 1 .8 1.8 1.8 1.8h15c0 .4-.1.8-.2 1.2-.4 1.9-1.3 3.5-2.4 4.6h18.3c-1.1-1.1-1.9-2.7-2.4-4.6-.1-.4-.1-.8-.2-1.2h15c1 0 1.8-.8 1.8-1.8V37.5c-.6.8-1.2 1.4-1.8 2v11.2H15.6V24.5h43.1v7.1c.3-.4.6-1 1-1.5z"/>
    </g>
  </symbol>
</svg>
