<svg enable-background="new 0 0 500 407.87" height="407.87" viewBox="0 0 500 407.87" width="500" xmlns="http://www.w3.org/2000/svg" xmlns:xlink="http://www.w3.org/1999/xlink"><clipPath id="a"><circle cx="155.17" cy="252.7" r="146.55"/></clipPath><mask id="b" height="315.73" maskUnits="userSpaceOnUse" width="315.73" x="-1.41" y="97.34"><circle cx="155.17" cy="252.7" fill="#c4c4c4" r="155.17"/></mask><clipPath id="c"><circle cx="344.83" cy="252.7" r="146.55"/></clipPath><path d="m218.31 29.98v-3.42h4.28v-23.14h-4.28v-3.42h13.26l7.11 20.59h.18l7.01-20.59h13.03v3.42h-4.51v23.14h4.51v3.42h-14.26v-3.42h3.87v-22.55h-.41l-9.25 25.97h-2.69l-9.48-25.97h-.41v22.55h4.05v3.42zm63.52-10.03h-14.44c.18 5.15 2.32 7.24 6.1 7.24 2.51 0 4.33-1.09 5.47-3.78h2.73c-1.05 4.46-4.19 7.02-9.39 7.02-6.65 0-10.57-4.56-10.57-10.75 0-6.38 4.51-11.16 10.66-11.16 6.66 0 9.66 5.33 9.44 11.43zm-9.71-8.74c-2.6 0-4.33 1.69-4.69 6.33h9.11c-.27-4.1-1.55-6.33-4.42-6.33z" fill="#2d2e2e"/><path clip-rule="evenodd" d="m221.61 79.26 25.96 25.96 2.52 2.52 2.52-2.52 25.96-25.96-5.03-5.03-19.88 19.88v-43.33h-7.12v43.32l-19.88-19.88z" fill="#2d2e2e" fill-rule="evenodd"/><g clip-path="url(#a)" opacity=".4"><g fill="#b3b8bc" mask="url(#b)"><path d="m98.12 353.32h-99.53v-99.53h99.53zm-96.69-2.85h93.84v-93.84h-93.84z"/><path d="m157.87 196.88h-99.53v-99.54h99.53zm-96.68-2.85h93.84v-93.84h-93.84z"/><path d="m314.31 256.63h-99.53v-99.53h99.53zm-96.68-2.85h93.84v-93.84h-93.84z"/><path d="m254.56 413.07h-99.53v-99.53h99.53zm-96.69-2.85h93.84v-93.84h-93.84z"/><path d="m96.69 353.32c-54.1 0-98.11-44.01-98.11-98.11h2.85c0 52.53 42.73 95.26 95.26 95.26z"/><path d="m61.19 195.45h-2.85c0-54.1 44.01-98.11 98.11-98.11v2.85c-52.53 0-95.26 42.73-95.26 95.26z"/><path d="m314.31 255.21h-2.85c0-52.53-42.73-95.26-95.26-95.26v-2.85c54.1 0 98.11 44.01 98.11 98.11z"/><path d="m156.45 413.07v-2.85c52.53 0 95.26-42.73 95.26-95.26h2.85c0 54.1-44.01 98.11-98.11 98.11z"/><path d="m157.87 353.32h-62.6v-62.6h62.6zm-59.75-2.85h56.91v-56.91h-56.91z"/><path d="m120.94 256.63h-62.6v-62.6h62.6zm-59.75-2.85h56.91v-56.91h-56.91z"/><path d="m217.63 219.7h-62.6v-62.6h62.6zm-59.76-2.85h56.91v-56.91h-56.91z"/><path d="m254.56 316.39h-62.6v-62.6h62.6zm-59.76-2.85h56.91v-56.91h-56.91z"/><path d="m96.69 353.32v-2.85c32.16 0 58.33-26.17 58.33-58.33h2.85c0 33.73-27.44 61.18-61.18 61.18z"/><path d="m119.52 256.63c-33.73 0-61.18-27.44-61.18-61.18h2.85c0 32.16 26.17 58.33 58.33 58.33z"/><path d="m157.87 218.28h-2.85c0-33.73 27.44-61.18 61.18-61.18v2.85c-32.16 0-58.33 26.16-58.33 58.33z"/><path d="m254.56 314.96h-2.85c0-32.16-26.17-58.33-58.33-58.33v-2.85c33.73 0 61.18 27.45 61.18 61.18z"/><path d="m157.87 293.56h-39.77v-39.78h39.78v39.78zm-36.93-2.85h34.08v-34.08h-34.08z"/><path d="m157.87 256.63h-39.77v-39.78h39.78v39.78zm-36.93-2.85h34.08v-34.08h-34.08z"/><path d="m194.8 256.63h-39.78v-39.78h39.78zm-36.93-2.85h34.08v-34.08h-34.08z"/><path d="m194.8 293.56h-39.78v-39.78h39.78zm-36.93-2.85h34.08v-34.08h-34.08z"/><path d="m157.87 292.14h-2.85c0-19.58-15.93-35.51-35.5-35.51v-2.85c21.15 0 38.35 17.21 38.35 38.36z"/><path d="m119.52 256.63v-2.85c19.58 0 35.5-15.93 35.5-35.51h2.85c0 21.16-17.2 38.36-38.35 38.36z"/><path d="m193.38 256.63c-21.15 0-38.35-17.21-38.35-38.35h2.85c0 19.58 15.93 35.51 35.51 35.51v2.84z"/><path d="m157.87 292.14h-2.85c0-21.15 17.21-38.35 38.35-38.35v2.85c-19.57-.01-35.5 15.92-35.5 35.5z"/><path d="m120.94 279.46h-25.67v-25.67h25.67zm-22.82-2.85h19.98v-19.98h-19.98z"/><path d="m157.87 219.7h-25.67v-25.67h25.67zm-22.82-2.85h19.98v-19.98h-19.98z"/><path d="m217.63 256.63h-25.67v-25.67h25.67zm-22.83-2.85h19.98v-19.98h-19.98z"/><path d="m180.7 316.39h-25.67v-25.67h25.67zm-22.83-2.85h19.98v-19.98h-19.98z"/><path d="m98.12 278.03h-2.85c0-13.37 10.88-24.25 24.25-24.25v2.85c-11.8 0-21.4 9.6-21.4 21.4z"/><path d="m157.87 218.28h-2.85c0-11.8-9.6-21.4-21.4-21.4v-2.85c13.37 0 24.25 10.88 24.25 24.25z"/><path d="m193.38 256.63v-2.85c11.8 0 21.4-9.6 21.4-21.4h2.85c0 13.37-10.88 24.25-24.25 24.25z"/><path d="m179.28 316.39c-13.37 0-24.25-10.88-24.25-24.25h2.85c0 11.8 9.6 21.4 21.4 21.4z"/><path d="m112.23 293.57h-16.96v-16.96h16.96zm-14.11-2.85h11.26v-11.26h-11.26z"/><path d="m135.05 210.98h-16.96v-16.96h16.96zm-14.11-2.84h11.26v-11.26h-11.26z"/><path d="m217.63 233.8h-16.96v-16.96h16.96zm-14.11-2.84h11.26v-11.26h-11.26z"/><path d="m194.81 316.39h-16.96v-16.96h16.96zm-14.11-2.85h11.26v-11.26h-11.26z"/><path d="m110.8 293.57c-8.56 0-15.53-6.97-15.53-15.53h2.85c0 6.99 5.69 12.68 12.68 12.68z"/><path d="m120.94 209.56h-2.85c0-8.56 6.97-15.53 15.53-15.53v2.85c-6.99 0-12.68 5.69-12.68 12.68z"/><path d="m217.63 232.38h-2.85c0-6.99-5.69-12.69-12.68-12.69v-2.85c8.56.01 15.53 6.98 15.53 15.54z"/><path d="m179.28 316.39v-2.85c6.99 0 12.68-5.69 12.68-12.69h2.85c0 8.57-6.97 15.54-15.53 15.54z"/><path d="m120.94 293.56h-11.57v-11.57h11.57zm-8.71-2.85h5.87v-5.87h-5.87z"/><path d="m129.66 219.7h-11.56v-11.56h11.57v11.56zm-8.72-2.85h5.87v-5.87h-5.87z"/><path d="m203.52 228.42h-11.57v-11.57h11.57zm-8.72-2.85h5.87v-5.87h-5.87z"/><path d="m194.8 302.28h-11.57v-11.57h11.57zm-8.72-2.85h5.87v-5.87h-5.87z"/><path d="m110.8 293.56v-2.85c4.02 0 7.3-3.27 7.3-7.29h2.85c-.01 5.59-4.56 10.14-10.15 10.14z"/><path d="m128.24 219.7c-5.59 0-10.14-4.55-10.14-10.14h2.85c0 4.02 3.27 7.29 7.29 7.29z"/><path d="m194.8 227h-2.85c0-5.59 4.55-10.14 10.14-10.14v2.85c-4.02-.01-7.29 3.26-7.29 7.29z"/><path d="m194.8 300.86h-2.85c0-4.02-3.27-7.3-7.3-7.3v-2.85c5.6 0 10.15 4.55 10.15 10.15z"/><path d="m120.94 284.84h-8.24v-8.24h8.24zm-5.39-2.85h2.54v-2.54h-2.54z"/><path d="m135.05 219.7h-8.24v-8.24h8.24zm-5.39-2.85h2.54v-2.54h-2.54z"/><path d="m200.19 233.81h-8.24v-8.24h8.24zm-5.39-2.85h2.54v-2.54h-2.54z"/><path d="m186.08 298.95h-8.24v-8.24h8.24zm-5.39-2.85h2.54v-2.54h-2.54z"/><path d="m120.94 283.42h-2.85c0-2.19-1.78-3.97-3.97-3.97v-2.85c3.77 0 6.82 3.06 6.82 6.82z"/><path d="m128.24 219.7v-2.85c2.19 0 3.97-1.78 3.97-3.97h2.85c-.01 3.77-3.06 6.82-6.82 6.82z"/><path d="m198.77 233.81c-3.76 0-6.81-3.06-6.81-6.81h2.85c0 2.19 1.78 3.97 3.97 3.97v2.84z"/><path d="m180.69 297.53h-2.85c0-3.76 3.06-6.81 6.81-6.81v2.85c-2.18-.01-3.96 1.77-3.96 3.96z"/><path d="m112.23 281.36h-2.85c0-2.62 2.13-4.75 4.75-4.75v2.85c-1.05 0-1.9.85-1.9 1.9z"/><path d="m135.05 212.89h-2.85c0-1.05-.85-1.9-1.9-1.9v-2.85c2.61 0 4.75 2.13 4.75 4.75z"/><path d="m198.77 233.8v-2.85c1.05 0 1.9-.85 1.9-1.9h2.85c0 2.62-2.13 4.75-4.75 4.75z"/><path d="m182.6 302.28c-2.62 0-4.75-2.13-4.75-4.75h2.85c0 1.05.85 1.91 1.9 1.91z"/><path d="m156.45 413.07c-87.05 0-157.86-70.82-157.86-157.86 0-87.05 70.82-157.86 157.86-157.86 87.05 0 157.86 70.82 157.86 157.86s-70.81 157.86-157.86 157.86zm0-312.88c-85.48 0-155.02 69.54-155.02 155.02s69.54 155.02 155.02 155.02 155.02-69.54 155.02-155.02-69.54-155.02-155.02-155.02z"/></g></g><path clip-path="url(#c)" d="m293.36 149.03c-.32.19-.66.32-1.02.41s-.76.14-1.18.14c-1.11 0-1.98-.33-2.61-1s-.94-1.6-.94-2.78c0-1.19.32-2.12.95-2.79s1.5-1.01 2.61-1.01c.39 0 .76.05 1.11.14.36.09.72.23 1.07.42v1.72c-.27-.24-.58-.42-.91-.54-.33-.13-.66-.19-1.02-.19-.61 0-1.09.19-1.42.59-.33.39-.5.95-.5 1.67s.17 1.27.5 1.66.8.58 1.42.58c.36 0 .71-.06 1.02-.18.32-.12.62-.31.9-.56v1.72zm5.07-5.48c-.45 0-.8.2-1.06.6-.26.39-.39.95-.39 1.65s.13 1.26.39 1.66c.26.39.61.59 1.06.59s.81-.2 1.07-.59c.26-.4.39-.95.39-1.66s-.13-1.26-.39-1.65c-.26-.4-.61-.6-1.07-.6zm-3.33 2.25c0-1.16.3-2.08.9-2.76s1.42-1.02 2.43-1.02c1.02 0 1.83.34 2.43 1.02s.91 1.6.91 2.76-.3 2.08-.91 2.77c-.6.68-1.41 1.02-2.43 1.02s-1.83-.34-2.43-1.02c-.6-.69-.9-1.61-.9-2.77zm14.2-1.08v4.68h-1.87v-4.39c0-.52-.08-.9-.22-1.12-.15-.23-.39-.34-.72-.34-.34 0-.61.15-.8.46-.19.3-.29.73-.29 1.27v4.12h-1.87v-7.2h1.87v1.08c.13-.4.36-.71.68-.93s.71-.33 1.16-.33c.68 0 1.2.23 1.54.68s.52 1.12.52 2.02zm7.42-2.3v1.65c-.35-.22-.71-.39-1.09-.5-.37-.12-.75-.17-1.13-.17-.42 0-.74.06-.95.19-.21.12-.32.3-.32.54 0 .34.46.62 1.38.84l.07.02.54.13c.69.16 1.19.43 1.51.79s.48.85.48 1.47c0 .74-.24 1.3-.73 1.67-.48.37-1.22.55-2.19.55-.43 0-.88-.04-1.33-.12-.45-.07-.92-.18-1.38-.33v-1.65c.42.24.84.42 1.27.54s.85.19 1.25.19c.44 0 .78-.06 1-.19.23-.13.34-.32.34-.56s-.08-.43-.24-.55c-.16-.13-.54-.27-1.14-.41l-.52-.12c-.72-.16-1.25-.42-1.58-.77s-.49-.81-.49-1.4c0-.69.25-1.24.75-1.62.5-.39 1.21-.58 2.12-.58.41 0 .81.03 1.22.1.38.05.78.15 1.16.29zm6-2.28v2.05h2.46v1.45h-2.46v3.41c0 .32.08.55.23.69.16.14.42.21.78.21h1.45v1.45h-1.58c-1.08 0-1.81-.17-2.19-.52s-.57-.99-.57-1.92v-3.32h-1.84v-1.45h1.84v-2.05zm16.91 5.67c0-.69-.12-1.24-.35-1.63s-.55-.59-.96-.59-.73.2-.97.59-.35.94-.35 1.63.12 1.24.35 1.63c.24.39.56.59.97.59s.73-.2.96-.59.35-.93.35-1.63zm-2.63-2.6c.23-.4.5-.7.8-.89.31-.2.66-.3 1.04-.3.85 0 1.51.33 1.97.98s.69 1.59.69 2.8c0 1.2-.23 2.13-.68 2.79s-1.09.99-1.92.99c-.43 0-.81-.1-1.13-.32-.32-.21-.58-.52-.78-.94v1.07h-1.88v-10.01h1.89zm9.54-3.07v2.05h2.46v1.45h-2.46v3.41c0 .32.08.55.23.69.16.14.42.21.78.21h1.45v1.45h-1.58c-1.08 0-1.81-.17-2.19-.52s-.57-.99-.57-1.92v-3.32h-1.84v-1.45h1.84v-2.05zm10.39 4.58v4.68h-1.87v-4.39c0-.52-.07-.9-.22-1.12-.15-.23-.39-.34-.72-.34-.34 0-.61.15-.8.46-.19.3-.29.73-.29 1.27v4.12h-1.87v-7.2h1.87v1.08c.13-.4.36-.71.68-.93s.71-.33 1.16-.33c.68 0 1.2.23 1.54.68s.52 1.12.52 2.02zm9.55 1.25h6.8v1.52h-6.8zm0-2.92h6.8v1.51h-6.8zm20.4.16v-3.83h1.88v10.01h-1.88v-1.07c-.2.42-.46.73-.78.94s-.69.32-1.13.32c-.82 0-1.46-.33-1.92-.99-.45-.66-.68-1.59-.68-2.79 0-1.22.23-2.15.69-2.8s1.12-.98 1.98-.98c.39 0 .73.1 1.04.3.3.2.57.49.8.89zm-2.63 2.6c0 .69.12 1.24.35 1.63s.55.59.96.59.73-.2.96-.59c.24-.39.35-.94.35-1.63s-.12-1.24-.35-1.63c-.24-.39-.56-.59-.96-.59-.41 0-.73.2-.96.59s-.35.94-.35 1.63zm9.44-2.26c-.45 0-.8.2-1.06.6-.26.39-.39.95-.39 1.65s.13 1.26.39 1.66c.26.39.61.59 1.06.59s.81-.2 1.07-.59c.26-.4.39-.95.39-1.66s-.13-1.26-.39-1.65c-.26-.4-.62-.6-1.07-.6zm-3.33 2.25c0-1.16.3-2.08.9-2.76.61-.68 1.42-1.02 2.43-1.02 1.02 0 1.83.34 2.43 1.02s.91 1.6.91 2.76-.3 2.08-.91 2.77c-.6.68-1.41 1.02-2.43 1.02s-1.83-.34-2.43-1.02c-.6-.69-.9-1.61-.9-2.77zm14.13 3.23c-.32.19-.66.32-1.02.41s-.76.14-1.18.14c-1.11 0-1.98-.33-2.61-1s-.94-1.6-.94-2.78c0-1.19.32-2.12.95-2.79s1.5-1.01 2.61-1.01c.39 0 .76.05 1.11.14.36.09.72.23 1.07.42v1.72c-.27-.24-.58-.42-.91-.54-.33-.13-.66-.19-1.02-.19-.61 0-1.08.19-1.42.59-.33.39-.49.95-.49 1.67s.16 1.27.49 1.66.8.58 1.42.58c.37 0 .71-.06 1.02-.18.32-.12.62-.31.9-.56v1.72zm2.14-2.15v-4.69h1.89v4.4c0 .52.07.89.22 1.11s.39.34.73.34.6-.15.79-.45.29-.72.29-1.26v-4.14h1.88v7.2h-1.88v-1.07c-.13.4-.36.71-.68.93s-.7.33-1.15.33c-.69 0-1.21-.23-1.56-.68s-.53-1.13-.53-2.02zm11.35-3.97c.14-.3.32-.53.54-.68s.49-.22.8-.22c.62 0 1.05.21 1.29.64s.36 1.32.36 2.68v4.06h-1.54v-4.63c0-.54-.04-.9-.12-1.07-.08-.18-.23-.27-.44-.27s-.36.09-.45.28-.13.54-.13 1.07v4.63h-1.52v-4.63c0-.53-.04-.88-.13-1.07-.09-.18-.24-.28-.45-.28s-.36.09-.44.27-.12.54-.12 1.07v4.63h-1.54v-7.2h1.37v.75c.11-.28.28-.51.52-.67.24-.17.5-.25.79-.25s.56.09.8.26c.21.17.36.38.41.63zm10.59 6.13c-.44.18-.88.32-1.34.41-.45.09-.93.13-1.44.13-1.21 0-2.13-.32-2.77-.96-.63-.65-.95-1.58-.95-2.79 0-1.18.31-2.1.92-2.79.61-.68 1.45-1.02 2.51-1.02 1.07 0 1.9.32 2.48.95.59.63.89 1.52.89 2.67v.77h-4.88c0 .57.17.99.5 1.27s.82.42 1.48.42c.43 0 .86-.06 1.28-.19.42-.12.86-.32 1.32-.59zm-1.6-4.05c-.01-.5-.14-.87-.39-1.13-.24-.26-.61-.39-1.09-.39-.43 0-.78.13-1.04.4-.26.26-.41.63-.46 1.12zm9.34-.27v4.68h-1.87v-4.39c0-.52-.08-.9-.22-1.12-.15-.23-.39-.34-.72-.34-.34 0-.61.15-.8.46-.19.3-.29.73-.29 1.27v4.12h-1.87v-7.2h1.87v1.08c.13-.4.36-.71.68-.93s.71-.33 1.16-.33c.68 0 1.2.23 1.54.68s.52 1.12.52 2.02zm5.48-4.58v2.05h2.46v1.45h-2.46v3.41c0 .32.08.55.23.69.16.14.42.21.78.21h1.45v1.45h-1.58c-1.08 0-1.81-.17-2.19-.52s-.57-.99-.57-1.92v-3.32h-1.84v-1.45h1.84v-2.05zm6.39 6.89h2.14v2.36h-2.14zm10.22-1.35c0-.64-.12-1.16-.37-1.54-.24-.39-.57-.59-.97-.59-.39 0-.71.19-.96.58-.24.39-.36.9-.36 1.55s.12 1.17.36 1.56.56.58.96.58.72-.19.97-.58c.25-.4.37-.92.37-1.56zm1.88 3.18c0 1.15-.26 1.99-.78 2.5s-1.36.77-2.53.77c-.39 0-.78-.03-1.17-.09s-.78-.14-1.18-.26v-1.73c.36.2.72.34 1.09.44.37.09.75.14 1.14.14.53 0 .92-.13 1.18-.38.25-.25.38-.64.38-1.17v-.78c-.18.34-.43.6-.73.77s-.68.25-1.11.25c-.82 0-1.48-.32-1.96-.97-.49-.64-.73-1.52-.73-2.62 0-1.14.24-2.05.73-2.72s1.13-1 1.95-1c.41 0 .78.1 1.1.29s.57.47.76.82v-.92h1.88v6.66zm7.98.18c-.44.18-.88.32-1.34.41-.45.09-.93.13-1.44.13-1.2 0-2.13-.32-2.77-.96-.63-.65-.95-1.58-.95-2.79 0-1.18.31-2.1.92-2.79.61-.68 1.45-1.02 2.51-1.02 1.07 0 1.9.32 2.48.95.59.63.89 1.52.89 2.67v.77h-4.88c0 .57.17.99.5 1.27s.82.42 1.48.42c.43 0 .86-.06 1.28-.19.42-.12.86-.32 1.32-.59zm-1.6-4.05c-.01-.5-.14-.87-.39-1.13-.24-.26-.61-.39-1.09-.39-.43 0-.78.13-1.04.4-.26.26-.41.63-.46 1.12zm6.89-4.85v2.05h2.46v1.45h-2.46v3.41c0 .32.08.55.23.69.16.14.42.21.78.21h1.45v1.45h-1.58c-1.08 0-1.81-.17-2.19-.52s-.57-.99-.57-1.92v-3.32h-1.84v-1.45h1.84v-2.05zm10.56 9.26h-5.98v-9.6h5.98v1.67h-4.08v2.07h3.7v1.67h-3.7v2.52h4.08zm3.36-3.01v-5.56h-1.91v-1.45h3.8v7.01c0 .57.09.97.26 1.2.18.24.47.35.89.35h1.51v1.45h-2.03c-.9 0-1.54-.23-1.93-.69s-.59-1.23-.59-2.31zm12.54 2.65c-.44.18-.88.32-1.34.41-.45.09-.93.13-1.44.13-1.21 0-2.13-.32-2.77-.96-.63-.65-.95-1.58-.95-2.79 0-1.18.31-2.1.92-2.79.61-.68 1.45-1.02 2.51-1.02 1.07 0 1.9.32 2.48.95.59.63.89 1.52.89 2.67v.77h-4.88c0 .57.17.99.5 1.27s.82.42 1.48.42c.43 0 .86-.06 1.28-.19.42-.12.86-.32 1.32-.59zm-1.59-4.05c-.01-.5-.14-.87-.39-1.13-.24-.26-.61-.39-1.09-.39-.43 0-.78.13-1.04.4-.26.26-.41.63-.46 1.12zm6.88-2.08c.14-.3.32-.53.54-.68s.49-.22.8-.22c.62 0 1.05.21 1.29.64s.36 1.32.36 2.68v4.06h-1.54v-4.63c0-.54-.04-.9-.12-1.07-.08-.18-.23-.27-.44-.27s-.36.09-.45.28-.13.54-.13 1.07v4.63h-1.52v-4.63c0-.53-.04-.88-.13-1.07-.09-.18-.24-.28-.45-.28s-.36.09-.44.27-.12.54-.12 1.07v4.63h-1.54v-7.2h1.37v.75c.11-.28.28-.51.51-.67.24-.17.5-.25.79-.25s.56.09.8.26c.22.17.37.38.42.63zm10.59 6.13c-.44.18-.88.32-1.34.41-.45.09-.93.13-1.44.13-1.21 0-2.13-.32-2.77-.96-.63-.65-.95-1.58-.95-2.79 0-1.18.31-2.1.92-2.79.61-.68 1.45-1.02 2.51-1.02 1.07 0 1.9.32 2.48.95.59.63.89 1.52.89 2.67v.77h-4.88c0 .57.17.99.5 1.27s.82.42 1.48.42c.43 0 .86-.06 1.28-.19.42-.12.86-.32 1.32-.59zm-1.6-4.05c-.01-.5-.14-.87-.39-1.13-.24-.26-.61-.39-1.09-.39-.43 0-.78.13-1.04.4-.26.26-.41.63-.46 1.12zm9.34-.27v4.68h-1.87v-4.39c0-.52-.07-.9-.22-1.12-.15-.23-.39-.34-.72-.34-.34 0-.61.15-.8.46-.19.3-.29.73-.29 1.27v4.12h-1.87v-7.2h1.87v1.08c.13-.4.36-.71.68-.93s.71-.33 1.16-.33c.68 0 1.2.23 1.54.68s.52 1.12.52 2.02zm5.48-4.58v2.05h2.46v1.45h-2.46v3.41c0 .32.08.55.23.69.16.14.42.21.78.21h1.45v1.45h-1.57c-1.08 0-1.81-.17-2.19-.52s-.57-.99-.57-1.92v-3.32h-1.84v-1.45h1.84v-2.05zm6.14 4.89v2.84h1.26c.6 0 1.03-.1 1.27-.31s.37-.56.37-1.07c0-.52-.13-.89-.38-1.12s-.67-.34-1.25-.34zm0-3.74v2.23h1.26c.48 0 .82-.09 1.02-.26.21-.17.31-.45.31-.85s-.11-.68-.32-.86-.54-.27-1.02-.27h-1.25zm-1.83-1.51h3.09c1.07 0 1.87.2 2.41.61.54.4.81 1.01.81 1.81 0 .62-.16 1.1-.48 1.45s-.78.55-1.4.6c.73.07 1.28.32 1.65.74s.56 1.01.56 1.76c0 .93-.28 1.6-.84 2.01-.56.42-1.46.62-2.72.62h-3.09v-9.6zm11.71 10.39c-.25.68-.56 1.17-.91 1.48s-.78.47-1.29.47h-1.56v-1.43h.76c.39 0 .67-.07.85-.2s.36-.43.55-.91l.14-.39-2.74-7.01h1.98l1.65 4.68 1.58-4.68h1.98zm4.47-8.71v-1.67h5.72v1.67h-1.91v6.26h1.91v1.67h-5.72v-1.67h1.91v-6.26zm11.92 1.75v-3.83h1.88v10.01h-1.88v-1.07c-.2.42-.46.73-.78.94s-.69.32-1.13.32c-.82 0-1.46-.33-1.92-.99-.45-.66-.68-1.59-.68-2.79 0-1.22.23-2.15.69-2.8s1.12-.98 1.98-.98c.39 0 .73.1 1.04.3.3.2.57.49.8.89zm-2.63 2.6c0 .69.12 1.24.35 1.63s.55.59.96.59.73-.2.96-.59c.24-.39.35-.94.35-1.63s-.12-1.24-.35-1.63c-.24-.39-.56-.59-.96-.59-.41 0-.73.2-.96.59s-.35.94-.35 1.63zm11.42-6.41c-.57 1.03-.99 2.02-1.26 2.98s-.41 1.92-.41 2.88c0 .95.14 1.91.41 2.88s.69 1.96 1.26 2.99h-1.47c-.68-.99-1.19-1.97-1.52-2.93-.33-.97-.49-1.95-.49-2.95s.16-1.98.49-2.94c.34-.97.84-1.94 1.52-2.92h1.47zm6.77.39v3.57h-1.65v-3.57zm8.63 6.02c0-.69-.12-1.24-.35-1.63s-.55-.59-.96-.59-.73.2-.97.59-.35.94-.35 1.63.12 1.24.35 1.63c.24.39.56.59.97.59s.73-.2.96-.59c.24-.39.35-.93.35-1.63zm-2.62-2.6c.23-.4.5-.7.8-.89.31-.2.66-.3 1.04-.3.85 0 1.51.33 1.97.98s.69 1.59.69 2.8c0 1.2-.23 2.13-.68 2.79s-1.09.99-1.92.99c-.43 0-.81-.1-1.13-.32-.32-.21-.58-.52-.78-.94v1.07h-1.88v-10.01h1.88v3.83zm9.53-3.07v2.05h2.46v1.45h-2.46v3.41c0 .32.08.55.23.69.16.14.42.21.78.21h1.45v1.45h-1.58c-1.08 0-1.81-.17-2.19-.52s-.57-.99-.57-1.92v-3.32h-1.84v-1.45h1.84v-2.05zm10.39 4.58v4.68h-1.87v-4.39c0-.52-.07-.9-.22-1.12-.15-.23-.39-.34-.72-.34-.34 0-.61.15-.8.46-.19.3-.29.73-.29 1.27v4.12h-1.87v-7.2h1.87v1.08c.13-.4.36-.71.68-.93s.71-.33 1.16-.33c.68 0 1.2.23 1.54.68.35.45.52 1.12.52 2.02zm5.83-4.93v3.57h-1.65v-3.57zm5.14-.39h1.47c.68.98 1.18 1.95 1.51 2.92.34.97.5 1.94.5 2.94s-.17 1.98-.5 2.95c-.33.96-.84 1.94-1.52 2.93h-1.47c.57-1.03.99-2.03 1.26-2.99.27-.97.41-1.93.41-2.88 0-.96-.14-1.92-.41-2.88-.26-.97-.68-1.97-1.25-2.99zm-324.96 37.36v-5.56h-1.91v-1.45h3.8v7.01c0 .57.09.97.26 1.2.18.24.47.35.89.35h1.51v1.45h-2.03c-.9 0-1.54-.23-1.93-.69s-.59-1.23-.59-2.31zm12.54 2.65c-.44.18-.88.32-1.34.41-.45.09-.93.13-1.44.13-1.21 0-2.13-.32-2.77-.96-.63-.65-.95-1.58-.95-2.79 0-1.18.31-2.1.92-2.79.61-.68 1.45-1.02 2.51-1.02 1.07 0 1.9.32 2.48.95.59.63.89 1.52.89 2.67v.77h-4.88c0 .57.17.99.5 1.27s.82.42 1.48.42c.43 0 .86-.06 1.28-.19.42-.12.86-.32 1.32-.59zm-1.6-4.05c-.01-.5-.14-.87-.39-1.13-.24-.26-.61-.39-1.09-.39-.43 0-.78.13-1.04.4-.26.26-.41.63-.46 1.12zm6.89-4.84v2.05h2.46v1.45h-2.46v3.41c0 .32.08.55.23.69.16.14.42.21.78.21h1.45v1.45h-1.58c-1.08 0-1.81-.17-2.19-.52s-.57-.99-.57-1.92v-3.32h-1.84v-1.45h1.84v-2.05zm18.26 8.88c-.32.19-.66.32-1.02.41s-.76.14-1.18.14c-1.11 0-1.98-.33-2.6-1-.63-.67-.94-1.6-.94-2.78 0-1.19.32-2.12.95-2.79s1.5-1.01 2.61-1.01c.39 0 .76.05 1.11.14.36.09.72.23 1.07.42v1.72c-.27-.24-.58-.42-.91-.54-.33-.13-.67-.19-1.02-.19-.61 0-1.08.19-1.42.59-.33.39-.5.95-.5 1.67s.17 1.27.5 1.66.8.58 1.42.58c.36 0 .71-.06 1.02-.18.32-.12.62-.31.9-.56v1.72zm5.07-5.48c-.45 0-.8.2-1.06.6-.26.39-.39.95-.39 1.65 0 .71.13 1.26.39 1.66.26.39.61.59 1.06.59s.81-.2 1.07-.59c.26-.4.39-.95.39-1.66s-.13-1.26-.39-1.65c-.26-.4-.61-.6-1.07-.6zm-3.33 2.25c0-1.16.3-2.08.9-2.76s1.42-1.02 2.43-1.02c1.02 0 1.83.34 2.43 1.02s.91 1.6.91 2.76-.3 2.08-.91 2.77c-.6.68-1.41 1.02-2.43 1.02s-1.83-.34-2.43-1.02-.9-1.61-.9-2.77zm8.34 1.08v-4.69h1.88v4.4c0 .52.07.89.22 1.11s.39.34.73.34.6-.15.79-.45.29-.72.29-1.26v-4.14h1.88v7.2h-1.88v-1.07c-.13.4-.36.71-.68.93s-.7.33-1.15.33c-.69 0-1.21-.23-1.56-.68s-.52-1.13-.52-2.02zm13.8-2.16v4.68h-1.87v-4.39c0-.52-.08-.9-.23-1.12-.15-.23-.39-.34-.72-.34-.34 0-.61.15-.8.46-.19.3-.29.73-.29 1.27v4.12h-1.87v-7.2h1.87v1.08c.13-.4.36-.71.68-.93s.71-.33 1.16-.33c.68 0 1.2.23 1.54.68.35.45.53 1.13.53 2.02zm5.48-4.57v2.05h2.46v1.45h-2.46v3.41c0 .32.08.55.23.69.16.14.42.21.78.21h1.45v1.45h-1.58c-1.08 0-1.81-.17-2.19-.52s-.57-.99-.57-1.92v-3.32h-1.84v-1.45h1.84v-2.05zm12.01 5.83h6.8v1.52h-6.8zm0-2.93h6.8v1.51h-6.8zm16.1 1.56c0-1.66.26-2.91.79-3.74s1.32-1.25 2.38-1.25 1.86.41 2.39 1.24.79 2.08.79 3.74-.26 2.91-.79 3.74-1.32 1.24-2.39 1.24c-1.06 0-1.85-.41-2.38-1.24s-.79-2.07-.79-3.73zm2.21 2.56c.2.54.52.8.96.8s.76-.27.96-.8c.2-.54.3-1.39.3-2.57 0-.45-.02-.84-.04-1.2l-2.25 3.58c.03.07.05.14.07.19zm.96-5.94c-.44 0-.76.27-.96.8s-.3 1.39-.3 2.57c0 .36.01.7.03 1l2.21-3.53c0-.01-.01-.03-.01-.04-.21-.53-.53-.8-.97-.8zm-94.47 30.71v.63h2.21v1.45h-2.21v5.76h-1.88v-5.76h-1.75v-1.45h1.75v-.5c0-.87.18-1.47.54-1.8s1.03-.5 2.01-.5h1.55v1.45h-1.47c-.28 0-.48.05-.58.15s-.16.29-.17.57zm4.22 5.32v-4.69h1.88v4.4c0 .52.07.89.22 1.11s.39.34.73.34.6-.15.79-.45.29-.72.29-1.26v-4.14h1.88v7.2h-1.88v-1.07c-.13.4-.36.71-.68.93s-.7.33-1.15.33c-.69 0-1.2-.23-1.56-.68-.35-.46-.52-1.13-.52-2.02zm13.8-2.17v4.68h-1.87v-4.39c0-.52-.08-.9-.22-1.12-.15-.23-.39-.34-.72-.34-.34 0-.61.15-.8.46-.19.3-.29.73-.29 1.27v4.12h-1.87v-7.2h1.87v1.08c.13-.4.36-.71.68-.93s.71-.33 1.16-.33c.68 0 1.2.23 1.54.68s.52 1.13.52 2.02zm7.87 4.31c-.32.19-.66.32-1.02.41s-.76.14-1.18.14c-1.11 0-1.98-.33-2.61-1s-.94-1.6-.94-2.78c0-1.19.32-2.12.95-2.79s1.5-1.01 2.61-1.01c.39 0 .76.05 1.11.14.36.09.72.23 1.07.42v1.72c-.27-.24-.58-.42-.91-.54-.33-.13-.66-.19-1.02-.19-.61 0-1.08.19-1.42.59-.33.39-.5.95-.5 1.67s.17 1.27.5 1.66.8.58 1.42.58c.36 0 .71-.06 1.02-.18.32-.12.62-.31.9-.56v1.72zm5.55-8.88v2.05h2.46v1.45h-2.46v3.41c0 .32.08.55.23.69.16.14.42.21.78.21h1.45v1.45h-1.58c-1.08 0-1.81-.17-2.19-.52s-.57-.99-.57-1.92v-3.32h-1.84v-1.45h1.84v-2.05zm4.92 2.05h3.73v5.76h2.34v1.45h-6.57v-1.45h2.35v-4.31h-1.85zm1.85-3.51h1.89v2.2h-1.89zm8.63 4.86c-.45 0-.8.2-1.06.6-.26.39-.39.95-.39 1.65 0 .71.13 1.26.39 1.66.26.39.61.59 1.06.59s.81-.2 1.07-.59c.26-.4.39-.95.39-1.66s-.13-1.26-.39-1.65c-.26-.4-.61-.6-1.07-.6zm-3.33 2.25c0-1.16.3-2.08.9-2.76s1.42-1.02 2.43-1.02c1.02 0 1.83.34 2.43 1.02s.91 1.6.91 2.76-.3 2.08-.91 2.77c-.6.68-1.41 1.02-2.43 1.02s-1.83-.34-2.43-1.02-.9-1.6-.9-2.77zm14.2-1.08v4.68h-1.87v-4.39c0-.52-.08-.9-.23-1.12-.15-.23-.39-.34-.72-.34-.34 0-.61.15-.8.46-.19.3-.29.73-.29 1.27v4.12h-1.87v-7.2h1.87v1.08c.13-.4.36-.71.68-.93s.71-.33 1.16-.33c.68 0 1.2.23 1.54.68.35.45.53 1.13.53 2.02zm16.39-.54c-.21-.19-.45-.33-.73-.42-.27-.09-.58-.14-.91-.14-.4 0-.75.07-1.05.21s-.53.34-.69.6c-.1.16-.18.36-.22.59s-.06.58-.06 1.05v3.32h-1.89v-7.2h1.89v1.12c.19-.41.47-.73.85-.95.38-.23.83-.34 1.34-.34.26 0 .51.03.75.1.25.06.48.15.71.27v1.79zm7.62 4.87c-.44.18-.88.32-1.34.41s-.93.13-1.44.13c-1.21 0-2.13-.32-2.77-.96-.63-.65-.95-1.58-.95-2.79 0-1.18.31-2.1.92-2.79.61-.68 1.45-1.02 2.51-1.02 1.07 0 1.9.32 2.48.95.59.63.89 1.52.89 2.67v.76h-4.88c0 .57.17.99.5 1.27s.82.42 1.48.42c.43 0 .86-.06 1.28-.19.42-.12.86-.32 1.32-.59zm-1.59-4.06c-.01-.5-.14-.87-.39-1.13-.24-.26-.61-.39-1.09-.39-.43 0-.78.13-1.04.4-.26.26-.41.63-.46 1.12zm9.33-.27v4.68h-1.87v-4.39c0-.52-.08-.9-.22-1.12-.15-.23-.39-.34-.72-.34-.34 0-.61.15-.8.46-.19.3-.29.73-.29 1.27v4.12h-1.87v-7.2h1.87v1.08c.13-.4.36-.71.68-.93s.71-.33 1.16-.33c.68 0 1.2.23 1.54.68.35.45.52 1.13.52 2.02zm6.14-1.5v-3.83h1.88v10.01h-1.88v-1.07c-.2.42-.46.73-.78.94s-.69.32-1.13.32c-.82 0-1.46-.33-1.92-.99-.45-.66-.68-1.59-.68-2.79 0-1.22.23-2.15.69-2.8s1.12-.98 1.98-.98c.39 0 .73.1 1.04.3.3.19.57.49.8.89zm-2.63 2.6c0 .69.12 1.24.35 1.63s.55.59.96.59.73-.2.96-.59c.24-.39.35-.94.35-1.63s-.12-1.24-.35-1.63c-.24-.39-.56-.59-.96-.59-.41 0-.73.2-.96.59s-.35.93-.35 1.63zm12.57 3.23c-.44.18-.88.32-1.34.41s-.93.13-1.44.13c-1.2 0-2.13-.32-2.77-.96-.63-.65-.95-1.58-.95-2.79 0-1.18.31-2.1.92-2.79.61-.68 1.45-1.02 2.51-1.02 1.07 0 1.9.32 2.48.95.59.63.89 1.52.89 2.67v.76h-4.88c0 .57.17.99.5 1.27s.82.42 1.48.42c.43 0 .86-.06 1.28-.19s.86-.32 1.32-.59zm-1.6-4.06c-.01-.5-.14-.87-.39-1.13-.24-.26-.61-.39-1.09-.39-.43 0-.78.13-1.04.4-.26.26-.41.63-.46 1.12zm9.85-.81c-.21-.19-.45-.33-.73-.42-.27-.09-.58-.14-.91-.14-.4 0-.75.07-1.05.21s-.53.34-.69.6c-.1.16-.18.36-.22.59s-.06.58-.06 1.05v3.32h-1.88v-7.2h1.88v1.12c.18-.41.47-.73.85-.95.38-.23.83-.34 1.34-.34.26 0 .51.03.75.1.25.06.49.15.71.27v1.79zm6.48-4.78c-.57 1.03-.99 2.02-1.26 2.98-.28.96-.41 1.92-.41 2.88 0 .95.14 1.91.41 2.88s.69 1.96 1.26 2.99h-1.47c-.68-.99-1.19-1.97-1.52-2.93-.33-.97-.5-1.95-.5-2.95s.17-1.98.5-2.94c.34-.97.84-1.94 1.52-2.92h1.47zm3.98 0h1.47c.68.98 1.18 1.95 1.51 2.92.34.97.5 1.94.5 2.94s-.17 1.98-.5 2.95c-.33.96-.84 1.94-1.52 2.93h-1.47c.57-1.03.99-2.03 1.26-2.99.27-.97.41-1.93.41-2.88 0-.96-.14-1.92-.41-2.88-.26-.97-.68-1.96-1.25-2.99zm20.66 10.92v1.23h-.97c-1.07 0-1.78-.16-2.15-.48-.36-.32-.54-.95-.54-1.9v-1.38c0-.65-.12-1.09-.35-1.34s-.64-.37-1.24-.37h-.4v-1.23h.4c.6 0 1.01-.12 1.24-.37.23-.24.35-.69.35-1.34v-1.38c0-.95.18-1.58.54-1.89.36-.32 1.08-.48 2.15-.48h.97v1.22h-.79c-.45 0-.74.09-.89.27s-.22.58-.22 1.19v1.34c0 .71-.11 1.21-.32 1.49-.21.29-.59.47-1.13.55.54.09.92.28 1.13.57s.32.79.32 1.49v1.32c0 .62.08 1.02.22 1.2.15.19.45.28.89.28h.79zm-128.32 10.68c0-.69-.12-1.24-.35-1.63s-.55-.59-.96-.59-.73.2-.96.59c-.24.39-.35.94-.35 1.63s.12 1.24.35 1.63c.24.39.56.59.96.59.41 0 .73-.2.96-.59.24-.39.35-.93.35-1.63zm-2.62-2.6c.23-.4.5-.7.8-.89.31-.2.66-.3 1.04-.3.85 0 1.51.33 1.97.98s.69 1.59.69 2.8c0 1.2-.23 2.13-.68 2.79s-1.09.99-1.92.99c-.43 0-.81-.1-1.13-.32-.32-.21-.58-.52-.78-.94v1.07h-1.88v-10.01h1.88v3.83zm9.53-3.06v2.05h2.46v1.45h-2.46v3.41c0 .32.08.55.23.69.16.14.42.21.78.21h1.45v1.45h-1.58c-1.08 0-1.81-.17-2.19-.52s-.57-.99-.57-1.92v-3.32h-1.84v-1.45h1.84v-2.05zm10.39 4.57v4.68h-1.87v-4.39c0-.52-.08-.9-.22-1.12-.15-.23-.39-.34-.72-.34-.34 0-.61.15-.8.46-.19.3-.29.73-.29 1.27v4.12h-1.87v-7.2h1.87v1.08c.13-.4.36-.71.68-.93s.71-.33 1.16-.33c.68 0 1.2.23 1.54.68.35.45.52 1.12.52 2.02zm3.94 2.32h2.14v2.36h-2.14zm6.47-4.85h3.73v5.76h2.34v1.45h-6.57v-1.45h2.35v-4.31h-1.85zm1.85-3.5h1.88v2.2h-1.88zm11.56 6.03v4.68h-1.87v-4.39c0-.52-.08-.9-.23-1.12-.15-.23-.39-.34-.72-.34-.34 0-.61.15-.8.46-.19.3-.29.73-.29 1.27v4.12h-1.87v-7.2h1.87v1.08c.13-.4.36-.71.68-.93s.71-.33 1.16-.33c.68 0 1.2.23 1.54.68.35.45.53 1.12.53 2.02zm7.94 0v4.68h-1.87v-4.39c0-.52-.07-.9-.22-1.12-.15-.23-.39-.34-.72-.34-.34 0-.61.15-.8.46-.19.3-.29.73-.29 1.27v4.12h-1.87v-7.2h1.87v1.08c.13-.4.36-.71.68-.93s.71-.33 1.16-.33c.68 0 1.2.23 1.54.68s.52 1.12.52 2.02zm8.13 4.32c-.44.18-.88.32-1.34.41-.45.09-.93.13-1.44.13-1.21 0-2.13-.32-2.77-.96-.63-.65-.95-1.58-.95-2.79 0-1.18.31-2.1.92-2.79.61-.68 1.45-1.02 2.51-1.02 1.07 0 1.9.32 2.48.95.59.63.89 1.52.89 2.67v.76h-4.88c0 .57.17.99.5 1.27s.82.42 1.48.42c.43 0 .86-.06 1.28-.19.42-.12.86-.32 1.32-.59zm-1.59-4.05c-.01-.5-.14-.87-.39-1.13-.24-.26-.61-.39-1.09-.39-.43 0-.78.13-1.04.4-.26.26-.41.63-.46 1.12zm9.85-.81c-.21-.19-.45-.33-.73-.42-.27-.09-.58-.14-.91-.14-.4 0-.75.07-1.05.21s-.52.34-.69.6c-.1.16-.18.36-.22.59s-.06.58-.06 1.05v3.32h-1.88v-7.2h1.88v1.12c.18-.41.47-.73.85-.95.38-.23.83-.34 1.34-.34.26 0 .51.03.75.1.25.06.48.15.71.27v1.79zm5.44 5.22h-1.9v-7.95h-2.44v-1.66h6.77v1.66h-2.44v7.95zm10.12-.36c-.44.18-.88.32-1.34.41-.45.09-.93.13-1.44.13-1.21 0-2.13-.32-2.77-.96-.63-.65-.95-1.58-.95-2.79 0-1.18.31-2.1.92-2.79.61-.68 1.45-1.02 2.51-1.02 1.07 0 1.9.32 2.48.95.59.63.89 1.52.89 2.67v.76h-4.88c0 .57.17.99.5 1.27s.82.42 1.48.42c.43 0 .86-.06 1.28-.19.42-.12.86-.32 1.32-.59zm-1.6-4.05c-.01-.5-.14-.87-.39-1.13-.24-.26-.61-.39-1.09-.39-.43 0-.78.13-1.04.4-.26.26-.41.63-.46 1.12zm9.81-2.8-2.43 3.45 2.64 3.76h-2.2l-1.42-2.43-1.41 2.43h-2.2l2.66-3.76-2.45-3.45h2.2l1.2 2.15 1.2-2.15zm5.01-2.04v2.05h2.46v1.45h-2.46v3.41c0 .32.08.55.23.69.16.14.42.21.78.21h1.45v1.45h-1.58c-1.08 0-1.81-.17-2.19-.52s-.57-.99-.57-1.92v-3.32h-1.84v-1.45h1.84v-2.05zm12.01 5.82h6.8v1.52h-6.8zm0-2.92h6.8v1.51h-6.8zm18.4-4.19 1.82 2.42h-1.27l-2.37-2.42zm11.8 10.26c-.3.15-.62.27-.95.35s-.68.12-1.04.12c-1.3 0-2.28-.43-2.97-1.28-.68-.85-1.02-2.09-1.02-3.7 0-1.62.34-2.85 1.02-3.71.68-.85 1.67-1.28 2.97-1.28.36 0 .71.04 1.05.12.33.08.65.19.94.35v2.11c-.33-.3-.64-.52-.95-.66-.3-.14-.62-.21-.95-.21-.69 0-1.22.28-1.58.83-.35.55-.53 1.37-.53 2.45s.18 1.9.53 2.45c.36.55.88.82 1.58.82.33 0 .64-.07.95-.21s.63-.36.95-.66zm4.95-5.57c-.45 0-.8.2-1.06.6-.26.39-.39.95-.39 1.65 0 .71.13 1.26.39 1.66.26.39.61.59 1.06.59s.81-.2 1.07-.59c.26-.4.39-.95.39-1.66s-.13-1.26-.39-1.65c-.26-.4-.62-.6-1.07-.6zm-3.33 2.25c0-1.16.3-2.08.9-2.76s1.42-1.02 2.43-1.02c1.02 0 1.83.34 2.43 1.02s.91 1.6.91 2.76-.3 2.08-.91 2.77c-.6.68-1.41 1.02-2.43 1.02s-1.83-.34-2.43-1.02c-.61-.68-.9-1.61-.9-2.77zm8.33 1.08v-4.69h1.88v4.4c0 .52.07.89.22 1.11s.39.34.73.34.6-.15.79-.45.29-.72.29-1.26v-4.14h1.88v7.2h-1.88v-1.07c-.13.4-.36.71-.68.93s-.7.33-1.15.33c-.69 0-1.2-.23-1.56-.68-.34-.45-.52-1.13-.52-2.02zm13.8-2.16v4.68h-1.87v-4.39c0-.52-.07-.9-.22-1.12-.15-.23-.39-.34-.72-.34-.34 0-.61.15-.8.46-.19.3-.29.73-.29 1.27v4.12h-1.87v-7.2h1.87v1.08c.13-.4.36-.71.68-.93s.71-.33 1.16-.33c.68 0 1.2.23 1.54.68.35.45.52 1.12.52 2.02zm5.49-4.57v2.05h2.46v1.45h-2.46v3.41c0 .32.08.55.23.69.16.14.42.21.78.21h1.45v1.45h-1.58c-1.08 0-1.81-.17-2.19-.52s-.57-.99-.57-1.92v-3.32h-1.84v-1.45h1.84v-2.05zm6.39 2.41h2.14v2.35h-2.14zm0 4.48h2.14v2.36h-2.14zm17.45-1.04v1.94c.27-.04.48-.14.63-.31s.22-.39.22-.65c0-.27-.08-.48-.22-.65-.15-.17-.36-.28-.63-.33zm-.91-1.86v-1.82c-.27.03-.47.12-.6.27-.13.14-.2.34-.2.59 0 .24.07.45.2.61s.34.28.6.35zm.91 7.19h-.91l-.01-1.94c-.37-.01-.76-.07-1.17-.17s-.83-.24-1.27-.42v-1.69c.44.26.87.46 1.28.6.42.14.81.21 1.17.22v-2.12c-.84-.17-1.47-.45-1.89-.86-.41-.41-.62-.95-.62-1.63 0-.72.22-1.29.66-1.71s1.05-.66 1.85-.71v-1.52h.91l.01 1.52c.3.02.62.06.95.12s.67.14 1.01.25v1.65c-.27-.17-.56-.31-.89-.41s-.68-.17-1.07-.19v1.98c.84.13 1.48.42 1.91.87.43.44.65 1.03.65 1.77 0 .7-.23 1.28-.7 1.73-.46.45-1.08.69-1.85.73zm10.25-1.01v1.23h-.97c-1.07 0-1.78-.16-2.15-.48-.36-.32-.54-.95-.54-1.9v-1.38c0-.65-.12-1.09-.35-1.34s-.64-.37-1.24-.37h-.4v-1.23h.4c.6 0 1.01-.12 1.24-.37.23-.24.35-.69.35-1.34v-1.38c0-.95.18-1.58.54-1.89.36-.32 1.08-.48 2.15-.48h.97v1.22h-.79c-.45 0-.74.09-.89.27s-.22.58-.22 1.19v1.34c0 .71-.11 1.21-.32 1.49-.21.29-.59.47-1.13.55.54.09.92.28 1.13.57s.32.79.32 1.49v1.32c0 .62.08 1.02.22 1.2.15.19.45.28.89.28h.79zm7.99-1.29c-.32.19-.66.32-1.02.41s-.76.14-1.18.14c-1.11 0-1.98-.33-2.61-1s-.94-1.6-.94-2.78c0-1.19.32-2.12.95-2.79s1.5-1.01 2.61-1.01c.39 0 .76.05 1.11.14.36.09.72.23 1.07.42v1.72c-.27-.24-.58-.42-.91-.54-.33-.13-.66-.19-1.02-.19-.61 0-1.08.19-1.42.59-.33.39-.5.95-.5 1.67s.17 1.27.5 1.66.8.58 1.42.58c.36 0 .71-.06 1.02-.18.32-.12.62-.31.9-.56v1.72zm5.07-5.48c-.45 0-.8.2-1.06.6-.26.39-.39.95-.39 1.65 0 .71.13 1.26.39 1.66.26.39.61.59 1.06.59s.81-.2 1.07-.59c.26-.4.39-.95.39-1.66s-.13-1.26-.39-1.65c-.26-.4-.62-.6-1.07-.6zm-3.33 2.25c0-1.16.3-2.08.9-2.76.61-.68 1.42-1.02 2.43-1.02 1.02 0 1.83.34 2.43 1.02s.91 1.6.91 2.76-.3 2.08-.91 2.77c-.6.68-1.41 1.02-2.43 1.02s-1.83-.34-2.43-1.02-.9-1.61-.9-2.77zm8.33 1.08v-4.69h1.89v4.4c0 .52.07.89.22 1.11s.39.34.73.34.6-.15.79-.45.29-.72.29-1.26v-4.14h1.89v7.2h-1.89v-1.07c-.13.4-.36.71-.68.93s-.7.33-1.15.33c-.69 0-1.2-.23-1.56-.68-.35-.45-.53-1.13-.53-2.02zm13.8-2.16v4.68h-1.87v-4.39c0-.52-.08-.9-.22-1.12-.15-.23-.39-.34-.72-.34-.34 0-.61.15-.8.46-.19.3-.29.73-.29 1.27v4.12h-1.87v-7.2h1.87v1.08c.13-.4.36-.71.68-.93s.71-.33 1.16-.33c.68 0 1.2.23 1.54.68.35.45.52 1.12.52 2.02zm5.49-4.57v2.05h2.46v1.45h-2.46v3.41c0 .32.08.55.23.69.16.14.42.21.78.21h1.45v1.45h-1.58c-1.08 0-1.81-.17-2.19-.52s-.57-.99-.57-1.92v-3.32h-1.84v-1.45h1.84v-2.05zm4.66 10.17h.78c.45 0 .75-.09.9-.28.15-.18.23-.58.23-1.2v-1.32c0-.7.1-1.2.32-1.49.21-.29.58-.48 1.12-.57-.54-.08-.92-.27-1.13-.55-.21-.29-.31-.78-.31-1.49v-1.35c0-.6-.08-1-.23-1.18s-.45-.28-.9-.28h-.78v-1.22h.96c1.06 0 1.77.16 2.13.48.36.31.54.94.54 1.89v1.38c0 .65.12 1.1.35 1.34.24.24.66.37 1.26.37h.4v1.23h-.4c-.6 0-1.03.12-1.26.37s-.35.69-.35 1.34v1.38c0 .95-.18 1.58-.54 1.9s-1.07.48-2.13.48h-.96zm9.87-11.46 1.82 2.42h-1.27l-2.37-2.42zm-271.83 26.64h.78c.45 0 .75-.09.9-.28.15-.18.23-.58.23-1.2v-1.32c0-.7.11-1.2.32-1.49s.58-.48 1.12-.57c-.54-.08-.91-.27-1.13-.55-.21-.29-.31-.78-.31-1.49v-1.34c0-.6-.08-1-.23-1.18s-.45-.28-.9-.28h-.78v-1.22h.97c1.06 0 1.77.16 2.13.48.36.31.54.94.54 1.89v1.38c0 .65.12 1.1.35 1.34.24.24.66.37 1.26.37h.4v1.23h-.4c-.6 0-1.03.12-1.26.37s-.35.69-.35 1.34v1.38c0 .95-.18 1.58-.54 1.9s-1.07.48-2.13.48h-.97zm4.31 25.87c0-.69-.12-1.24-.35-1.63s-.55-.59-.96-.59-.73.2-.96.59c-.24.39-.35.94-.35 1.63s.12 1.24.35 1.63c.24.39.56.59.96.59.41 0 .73-.2.96-.59s.35-.93.35-1.63zm-2.63-2.6c.23-.4.5-.7.8-.89.31-.2.66-.3 1.04-.3.85 0 1.51.33 1.97.98s.69 1.59.69 2.8c0 1.2-.23 2.13-.68 2.79s-1.09.99-1.92.99c-.43 0-.81-.1-1.13-.32-.32-.21-.58-.52-.78-.94v1.07h-1.88v-10.01h1.88v3.83zm9.54-3.07v2.05h2.46v1.45h-2.46v3.41c0 .32.08.55.23.69.16.14.42.21.78.21h1.45v1.45h-1.58c-1.08 0-1.81-.17-2.19-.52s-.57-.99-.57-1.92v-3.32h-1.84v-1.45h1.84v-2.05zm10.39 4.58v4.68h-1.87v-4.39c0-.52-.08-.9-.22-1.12-.15-.23-.39-.34-.72-.34-.34 0-.61.15-.8.46-.19.3-.29.73-.29 1.27v4.12h-1.87v-7.2h1.87v1.08c.13-.4.36-.71.68-.93s.71-.33 1.16-.33c.68 0 1.2.23 1.54.68s.52 1.12.52 2.02zm3.93 2.31h2.14v2.36h-2.14zm9.56-1.02c-.7 0-1.19.09-1.47.27s-.42.49-.42.93c0 .33.1.59.29.78s.45.29.78.29c.5 0 .88-.19 1.16-.56.27-.38.41-.9.41-1.58v-.13zm2.62-.72v4.11h-1.87v-.8c-.23.32-.52.56-.88.73s-.75.26-1.18.26c-.82 0-1.46-.22-1.92-.65-.45-.43-.68-1.04-.68-1.81 0-.84.27-1.46.82-1.86.54-.4 1.39-.6 2.53-.6h1.31v-.32c0-.3-.11-.53-.34-.69-.22-.16-.54-.24-.97-.24-.45 0-.89.06-1.31.17s-.86.29-1.32.54v-1.61c.42-.17.84-.3 1.27-.38s.88-.12 1.36-.12c1.17 0 1.99.24 2.46.71.48.48.72 1.33.72 2.56zm5.9-2.08v-3.83h1.88v10.01h-1.88v-1.07c-.2.42-.46.73-.78.94s-.69.32-1.13.32c-.82 0-1.46-.33-1.92-.99-.45-.66-.68-1.59-.68-2.79 0-1.22.23-2.15.69-2.8s1.12-.98 1.98-.98c.39 0 .73.1 1.04.3.3.2.57.49.8.89zm-2.62 2.6c0 .69.12 1.24.35 1.63s.55.59.96.59.73-.2.96-.59c.24-.39.35-.94.35-1.63s-.12-1.24-.35-1.63c-.24-.39-.56-.59-.96-.59-.41 0-.73.2-.96.59-.24.39-.35.94-.35 1.63zm10.56-2.6v-3.83h1.88v10.01h-1.88v-1.07c-.2.42-.46.73-.78.94s-.69.32-1.13.32c-.82 0-1.46-.33-1.92-.99-.45-.66-.68-1.59-.68-2.79 0-1.22.23-2.15.69-2.8s1.12-.98 1.97-.98c.39 0 .73.1 1.04.3s.58.49.81.89zm-2.63 2.6c0 .69.12 1.24.35 1.63s.55.59.96.59.73-.2.97-.59.35-.94.35-1.63-.12-1.24-.35-1.63c-.24-.39-.56-.59-.97-.59s-.73.2-.96.59-.35.94-.35 1.63zm12.54 3.59h-5.98v-9.6h5.98v1.67h-4.09v2.07h3.7v1.67h-3.7v2.52h4.09zm8.29-7.21-2.29 7.2h-2.32l-2.29-7.2h1.91l1.54 5.62 1.54-5.62zm7.61 6.85c-.44.18-.88.32-1.34.41-.45.09-.93.13-1.44.13-1.21 0-2.13-.32-2.77-.96-.63-.65-.95-1.58-.95-2.79 0-1.18.31-2.1.92-2.79.61-.68 1.45-1.02 2.51-1.02 1.07 0 1.9.32 2.48.95.59.63.89 1.52.89 2.67v.77h-4.88c0 .57.17.99.5 1.27s.82.42 1.48.42c.43 0 .86-.06 1.28-.19.42-.12.86-.32 1.32-.59zm-1.59-4.05c-.01-.5-.14-.87-.39-1.13-.24-.26-.61-.39-1.09-.39-.43 0-.78.13-1.04.4-.26.26-.41.63-.46 1.12zm9.33-.27v4.68h-1.87v-4.39c0-.52-.07-.9-.22-1.12-.15-.23-.39-.34-.72-.34-.34 0-.61.15-.8.46-.19.3-.29.73-.29 1.27v4.12h-1.87v-7.2h1.87v1.08c.13-.4.36-.71.68-.93s.71-.33 1.16-.33c.68 0 1.2.23 1.54.68.35.45.52 1.12.52 2.02zm5.49-4.58v2.05h2.46v1.45h-2.46v3.41c0 .32.08.55.23.69.16.14.42.21.78.21h1.45v1.45h-1.58c-1.08 0-1.81-.17-2.19-.52s-.57-.99-.57-1.92v-3.32h-1.84v-1.45h1.84v-2.05zm4.95 9.26v-9.6h1.9v7.93h4.06v1.67zm7.91-7.21h3.73v5.76h2.34v1.45h-6.57v-1.45h2.35v-4.31h-1.85zm1.84-3.51h1.88v2.2h-1.88zm11.05 3.74v1.65c-.35-.22-.71-.39-1.09-.5-.37-.12-.75-.17-1.13-.17-.42 0-.74.06-.95.19-.21.12-.32.3-.32.54 0 .34.46.62 1.38.84l.07.02.54.13c.69.16 1.19.43 1.51.79s.48.85.48 1.47c0 .74-.24 1.3-.73 1.67s-1.22.55-2.19.55c-.43 0-.88-.04-1.33-.12-.45-.07-.92-.18-1.38-.33v-1.65c.42.24.84.42 1.27.54s.85.19 1.25.19c.44 0 .78-.06 1-.19.23-.13.34-.32.34-.56s-.08-.43-.24-.55c-.16-.13-.54-.27-1.14-.41l-.52-.12c-.72-.16-1.25-.42-1.58-.77s-.5-.81-.5-1.4c0-.69.25-1.24.75-1.62.5-.39 1.21-.58 2.12-.58.41 0 .81.03 1.21.1.4.05.8.15 1.18.29zm6-2.28v2.05h2.46v1.45h-2.46v3.41c0 .32.08.55.23.69.16.14.42.21.78.21h1.45v1.45h-1.58c-1.08 0-1.81-.17-2.19-.52s-.57-.99-.57-1.92v-3.32h-1.84v-1.45h1.84v-2.05zm10.59 8.9c-.44.18-.88.32-1.34.41-.45.09-.93.13-1.44.13-1.21 0-2.13-.32-2.77-.96-.63-.65-.95-1.58-.95-2.79 0-1.18.31-2.1.92-2.79.61-.68 1.45-1.02 2.51-1.02 1.07 0 1.9.32 2.48.95.59.63.89 1.52.89 2.67v.77h-4.88c0 .57.17.99.5 1.27s.82.42 1.48.42c.43 0 .86-.06 1.28-.19.42-.12.86-.32 1.32-.59zm-1.6-4.05c-.01-.5-.14-.87-.39-1.13-.24-.26-.61-.39-1.09-.39-.43 0-.78.13-1.04.4-.26.26-.41.63-.46 1.12zm9.34-.27v4.68h-1.87v-4.39c0-.52-.07-.9-.22-1.12-.15-.23-.39-.34-.72-.34-.34 0-.61.15-.8.46-.19.3-.29.73-.29 1.27v4.12h-1.87v-7.2h1.87v1.08c.13-.4.36-.71.68-.93s.71-.33 1.16-.33c.68 0 1.2.23 1.54.68.35.45.52 1.12.52 2.02zm8.14 4.32c-.44.18-.88.32-1.34.41-.45.09-.93.13-1.44.13-1.2 0-2.13-.32-2.77-.96-.63-.65-.95-1.58-.95-2.79 0-1.18.31-2.1.92-2.79.61-.68 1.45-1.02 2.51-1.02 1.07 0 1.9.32 2.48.95.59.63.89 1.52.89 2.67v.77h-4.88c0 .57.17.99.5 1.27s.82.42 1.48.42c.43 0 .86-.06 1.28-.19.42-.12.86-.32 1.32-.59zm-1.6-4.05c-.01-.5-.14-.87-.39-1.13-.24-.26-.61-.39-1.09-.39-.43 0-.78.13-1.04.4-.26.26-.41.63-.46 1.12zm9.85-.81c-.21-.19-.45-.33-.73-.42-.27-.09-.58-.14-.91-.14-.4 0-.75.07-1.05.21s-.53.34-.69.6c-.1.16-.18.36-.22.59s-.06.58-.06 1.05v3.32h-1.88v-7.2h1.88v1.12c.18-.41.47-.73.85-.95.38-.23.83-.34 1.34-.34.26 0 .51.03.75.1.25.06.49.15.71.27v1.79zm6.48-4.78c-.57 1.03-.99 2.02-1.26 2.98s-.41 1.92-.41 2.88c0 .95.14 1.91.41 2.88.28.97.69 1.96 1.26 2.99h-1.47c-.68-.99-1.19-1.97-1.52-2.93-.33-.97-.5-1.95-.5-2.95s.17-1.98.5-2.94c.33-.97.84-1.94 1.52-2.92h1.47zm6.77.39v3.57h-1.65v-3.57zm9.99 9.24c-.32.19-.66.32-1.02.41s-.76.14-1.18.14c-1.11 0-1.98-.33-2.61-1s-.94-1.6-.94-2.78c0-1.19.32-2.12.95-2.79s1.5-1.01 2.61-1.01c.39 0 .76.05 1.11.14.36.09.72.23 1.07.42v1.72c-.27-.24-.58-.42-.91-.54-.33-.13-.67-.19-1.02-.19-.61 0-1.08.19-1.42.59-.33.39-.5.95-.5 1.67s.17 1.27.5 1.66.8.58 1.42.58c.36 0 .71-.06 1.02-.18.32-.12.62-.31.9-.56v1.72zm3.6-2.64v-5.56h-1.91v-1.45h3.8v7.01c0 .57.09.97.26 1.2.18.24.47.35.89.35h1.51v1.45h-2.03c-.9 0-1.54-.23-1.93-.69-.4-.46-.59-1.23-.59-2.31zm6.87-4.2h3.73v5.76h2.34v1.45h-6.57v-1.45h2.35v-4.31h-1.85zm1.85-3.51h1.88v2.2h-1.88zm11.49 10.35c-.32.19-.66.32-1.02.41-.37.09-.76.14-1.18.14-1.11 0-1.98-.33-2.61-1s-.94-1.6-.94-2.78c0-1.19.32-2.12.95-2.79s1.5-1.01 2.61-1.01c.39 0 .76.05 1.11.14.36.09.72.23 1.07.42v1.72c-.27-.24-.58-.42-.91-.54-.33-.13-.67-.19-1.02-.19-.61 0-1.09.19-1.42.59-.33.39-.5.95-.5 1.67s.17 1.27.5 1.66.8.58 1.42.58c.36 0 .71-.06 1.02-.18.32-.12.62-.31.9-.56v1.72zm2.23-9.64h1.89v5.26l2.26-2.45h2.28l-2.73 2.69 2.88 4.52h-2.08l-1.97-3.37-.64.62v2.75h-1.89zm11.6.4v3.57h-1.65v-3.57zm6.12 7.24h2.01v1.74l-1.26 2.46h-1.39l.64-2.46zm18.86-7.63c-.57 1.03-.99 2.02-1.26 2.98s-.41 1.92-.41 2.88c0 .95.14 1.91.41 2.88s.69 1.96 1.26 2.99h-1.47c-.68-.99-1.19-1.97-1.52-2.93-.33-.97-.5-1.95-.5-2.95s.17-1.98.5-2.94c.33-.97.84-1.94 1.52-2.92h1.47zm3.98 0h1.47c.68.98 1.18 1.95 1.51 2.92s.5 1.94.5 2.94-.17 1.98-.49 2.95c-.33.96-.84 1.94-1.52 2.93h-1.47c.57-1.03.99-2.03 1.26-2.99.27-.97.41-1.93.41-2.88 0-.96-.14-1.92-.41-2.88-.27-.97-.69-1.97-1.26-2.99zm14.46 6.57h6.8v1.52h-6.8zm0-2.92h6.8v1.51h-6.8zm7.94.39v-1.61l6.8 2.68v1.52l-6.8 2.67v-1.6l5.11-1.82zm22.08 6.88v1.23h-.97c-1.07 0-1.78-.16-2.15-.48-.36-.32-.54-.95-.54-1.9v-1.38c0-.65-.12-1.09-.35-1.34s-.64-.37-1.24-.37h-.4v-1.23h.4c.6 0 1.01-.12 1.24-.37.23-.24.35-.69.35-1.34v-1.38c0-.95.18-1.58.54-1.89.36-.32 1.08-.48 2.15-.48h.97v1.22h-.79c-.45 0-.74.09-.89.27s-.22.58-.22 1.19v1.34c0 .71-.11 1.21-.32 1.49-.21.29-.59.47-1.13.55.54.09.92.28 1.13.57s.32.79.32 1.49v1.32c0 .62.07 1.02.22 1.2.15.19.45.28.89.28h.79zm-270.89 19.84h1.42l-5.06 10.83h-1.42zm7.94 0h1.42l-5.06 10.83h-1.42zm17.04 9.33c-.3.15-.62.27-.95.35s-.68.12-1.04.12c-1.29 0-2.28-.43-2.97-1.28-.68-.85-1.02-2.09-1.02-3.7 0-1.62.34-2.85 1.02-3.71.68-.85 1.67-1.28 2.97-1.28.36 0 .71.04 1.05.12.33.08.65.19.94.35v2.11c-.33-.3-.64-.52-.95-.66-.3-.14-.62-.21-.95-.21-.69 0-1.22.28-1.58.83-.35.55-.53 1.37-.53 2.45s.18 1.9.53 2.45c.36.55.88.82 1.58.82.33 0 .64-.07.95-.21s.63-.36.95-.66zm4.95-5.57c-.45 0-.8.2-1.06.6-.26.39-.39.95-.39 1.65 0 .71.13 1.26.39 1.66.26.39.61.59 1.06.59s.81-.2 1.07-.59c.26-.4.39-.95.39-1.66s-.13-1.26-.39-1.65c-.26-.4-.61-.6-1.07-.6zm-3.33 2.25c0-1.16.3-2.08.9-2.76s1.42-1.02 2.43-1.02c1.02 0 1.83.34 2.43 1.02s.91 1.6.91 2.76-.3 2.08-.91 2.77c-.6.68-1.41 1.02-2.43 1.02s-1.83-.34-2.43-1.02-.9-1.61-.9-2.77zm8.34 1.08v-4.69h1.88v4.4c0 .52.07.89.22 1.11s.39.34.73.34.6-.15.79-.45.29-.72.29-1.26v-4.14h1.88v7.2h-1.88v-1.07c-.13.4-.36.71-.68.93s-.7.33-1.15.33c-.69 0-1.21-.23-1.56-.68s-.52-1.13-.52-2.02zm13.8-2.16v4.68h-1.87v-4.39c0-.52-.07-.9-.22-1.12-.15-.23-.39-.34-.72-.34-.34 0-.61.15-.8.46-.19.3-.29.73-.29 1.27v4.12h-1.87v-7.2h1.87v1.08c.13-.4.36-.71.68-.93s.71-.33 1.16-.33c.68 0 1.2.23 1.54.68s.52 1.13.52 2.02zm5.48-4.57v2.05h2.46v1.45h-2.46v3.41c0 .32.08.55.23.69.16.14.42.21.78.21h1.45v1.45h-1.58c-1.08 0-1.81-.17-2.19-.52s-.57-.99-.57-1.92v-3.32h-1.84v-1.45h1.84v-2.05zm16.19 1.41v.63h2.21v1.45h-2.21v5.76h-1.88v-5.76h-1.75v-1.45h1.75v-.5c0-.87.18-1.47.54-1.8s1.03-.5 2.01-.5h1.55v1.45h-1.47c-.28 0-.48.05-.58.15s-.16.29-.17.57zm10.59 2.62c-.21-.19-.45-.33-.73-.42-.27-.09-.58-.14-.91-.14-.4 0-.75.07-1.05.21s-.53.34-.69.6c-.1.16-.18.36-.22.59s-.06.58-.06 1.05v3.32h-1.88v-7.2h1.88v1.12c.18-.41.47-.73.85-.95.38-.23.83-.34 1.34-.34.26 0 .51.03.75.1.25.06.48.15.71.27v1.79zm4.5-.63c-.45 0-.8.2-1.06.6-.26.39-.39.95-.39 1.65 0 .71.13 1.26.39 1.66.26.39.61.59 1.06.59s.81-.2 1.07-.59c.26-.4.39-.95.39-1.66s-.13-1.26-.39-1.65c-.26-.4-.62-.6-1.07-.6zm-3.33 2.25c0-1.16.3-2.08.9-2.76.61-.68 1.42-1.02 2.43-1.02 1.02 0 1.83.34 2.43 1.02s.91 1.6.91 2.76-.3 2.08-.91 2.77c-.6.68-1.41 1.02-2.43 1.02s-1.83-.34-2.43-1.02-.9-1.61-.9-2.77zm11.74-2.89c.14-.3.32-.53.54-.68s.49-.22.8-.22c.62 0 1.05.21 1.29.64s.36 1.32.36 2.68v4.06h-1.54v-4.63c0-.54-.04-.9-.12-1.07-.08-.18-.23-.27-.44-.27s-.36.09-.45.28-.13.54-.13 1.07v4.63h-1.52v-4.63c0-.53-.04-.88-.13-1.07-.09-.18-.24-.28-.45-.28s-.36.09-.44.27-.12.54-.12 1.07v4.63h-1.54v-7.2h1.37v.75c.11-.28.28-.51.52-.67.24-.17.5-.25.79-.25s.56.09.8.26c.22.17.36.39.41.63zm12.65 4.82h2.12v-6.23l-1.98.49v-1.71l1.99-.48h1.83v7.93h2.12v1.67h-6.09v-1.67zm19.11-7.58v2.05h2.46v1.45h-2.46v3.41c0 .32.08.55.23.69.16.14.42.21.78.21h1.45v1.45h-1.58c-1.08 0-1.81-.17-2.19-.52s-.57-.99-.57-1.92v-3.32h-1.84v-1.45h1.84v-2.05zm7.46 3.4c-.45 0-.8.2-1.06.6-.26.39-.39.95-.39 1.65 0 .71.13 1.26.39 1.66.26.39.61.59 1.06.59s.81-.2 1.07-.59c.26-.4.39-.95.39-1.66s-.13-1.26-.39-1.65c-.26-.4-.62-.6-1.07-.6zm-3.33 2.25c0-1.16.3-2.08.9-2.76s1.42-1.02 2.43-1.02c1.02 0 1.83.34 2.43 1.02s.91 1.6.91 2.76-.3 2.08-.91 2.77c-.6.68-1.41 1.02-2.43 1.02s-1.83-.34-2.43-1.02-.9-1.61-.9-2.77zm16.45 1.93h2.12v-6.23l-1.98.49v-1.71l1.99-.48h1.83v7.93h2.12v1.67h-6.09v-1.67zm7.52-3.12c0-1.66.26-2.91.79-3.74s1.32-1.25 2.38-1.25 1.86.41 2.39 1.24.79 2.08.79 3.74-.26 2.91-.79 3.74-1.32 1.24-2.39 1.24c-1.06 0-1.85-.41-2.38-1.24-.52-.83-.79-2.07-.79-3.73zm2.22 2.56c.2.54.52.8.96.8s.76-.27.97-.8c.2-.54.3-1.39.3-2.57 0-.45-.02-.84-.05-1.2l-2.24 3.58c.01.07.03.14.06.19zm.95-5.94c-.44 0-.76.27-.96.8-.2.54-.3 1.39-.3 2.57 0 .36.01.7.03 1l2.21-3.53c0-.01-.01-.03-.01-.04-.2-.53-.52-.8-.97-.8zm6.87 5.81h2.14v2.36h-2.14zm-168.17 10.34h3.73v5.76h2.34v1.45h-6.57v-1.45h2.35v-4.31h-1.85zm1.84-3.51h1.89v2.2h-1.89zm9.43 2.88v.63h2.21v1.45h-2.21v5.76h-1.88v-5.76h-1.75v-1.45h1.75v-.5c0-.87.18-1.47.54-1.8s1.03-.5 2.01-.5h1.55v1.45h-1.47c-.28 0-.48.05-.58.15-.11.1-.16.29-.17.57zm17.06-2.16c-.57 1.03-.99 2.02-1.26 2.98s-.41 1.92-.41 2.88c0 .95.14 1.91.41 2.88s.69 1.96 1.26 2.99h-1.47c-.68-.99-1.19-1.97-1.52-2.93-.33-.97-.5-1.95-.5-2.95s.17-1.98.5-2.94c.33-.97.84-1.94 1.52-2.92h1.47zm8.82 9.63c-.32.19-.66.32-1.02.41s-.76.14-1.18.14c-1.11 0-1.98-.33-2.61-1s-.94-1.6-.94-2.78c0-1.19.32-2.12.95-2.79s1.5-1.01 2.61-1.01c.39 0 .76.05 1.11.14.36.09.72.23 1.07.42v1.72c-.27-.24-.58-.42-.91-.54-.33-.13-.66-.19-1.02-.19-.61 0-1.08.19-1.42.59-.33.39-.5.95-.5 1.67s.17 1.27.5 1.66.8.58 1.42.58c.36 0 .71-.06 1.02-.18.32-.12.62-.31.9-.56v1.72zm5.08-5.48c-.45 0-.8.2-1.06.6-.26.39-.39.95-.39 1.65s.13 1.26.39 1.66c.26.39.61.59 1.06.59s.81-.2 1.07-.59c.26-.4.39-.95.39-1.66s-.13-1.26-.39-1.65c-.26-.4-.61-.6-1.07-.6zm-3.33 2.25c0-1.16.3-2.08.9-2.76s1.42-1.02 2.43-1.02c1.02 0 1.83.34 2.43 1.02s.91 1.6.91 2.76-.3 2.08-.91 2.77c-.6.68-1.41 1.02-2.43 1.02s-1.83-.34-2.43-1.02c-.6-.69-.9-1.61-.9-2.77zm8.34 1.08v-4.69h1.88v4.4c0 .52.07.89.22 1.11s.39.34.73.34.6-.15.79-.45.29-.72.29-1.26v-4.14h1.89v7.2h-1.89v-1.07c-.13.4-.36.71-.68.93s-.7.33-1.15.33c-.69 0-1.21-.23-1.56-.68-.35-.46-.52-1.13-.52-2.02zm13.79-2.16v4.68h-1.87v-4.39c0-.52-.07-.9-.23-1.12-.15-.23-.39-.34-.72-.34-.34 0-.61.15-.8.46-.19.3-.29.73-.29 1.27v4.12h-1.87v-7.2h1.87v1.08c.13-.4.36-.71.68-.93s.71-.33 1.16-.33c.68 0 1.2.23 1.54.68.36.45.53 1.12.53 2.02zm5.49-4.58v2.05h2.46v1.45h-2.46v3.41c0 .32.08.55.23.69.16.14.42.21.78.21h1.45v1.45h-1.58c-1.08 0-1.81-.17-2.19-.52s-.57-.99-.57-1.92v-3.32h-1.84v-1.45h1.84v-2.05zm18.8 3.3-5.11 1.83 5.11 1.82v1.6l-6.8-2.67v-1.52l6.8-2.68zm9.72 4.28h2.13v-6.23l-1.98.49v-1.71l1.99-.48h1.83v7.93h2.12v1.67h-6.09zm7.52-3.12c0-1.66.26-2.91.79-3.74s1.32-1.25 2.38-1.25 1.86.41 2.39 1.24.79 2.08.79 3.74-.26 2.91-.79 3.74-1.32 1.24-2.39 1.24c-1.06 0-1.85-.41-2.38-1.24-.52-.82-.79-2.07-.79-3.73zm2.22 2.57c.2.54.52.8.96.8s.76-.27.96-.8c.2-.54.3-1.39.3-2.57 0-.45-.02-.84-.05-1.2l-2.24 3.58c.02.07.05.13.07.19zm.96-5.95c-.44 0-.76.27-.96.8-.2.54-.3 1.39-.3 2.57 0 .36.01.7.03 1l2.21-3.53c0-.01-.01-.03-.01-.04-.21-.53-.53-.8-.97-.8zm5.96-1.82h1.47c.68.98 1.18 1.95 1.51 2.92.34.97.5 1.94.5 2.94s-.17 1.98-.5 2.95c-.33.96-.84 1.94-1.52 2.93h-1.47c.57-1.03.99-2.03 1.26-2.99.27-.97.41-1.93.41-2.88 0-.96-.14-1.92-.41-2.88-.26-.97-.68-1.97-1.25-2.99zm20.66 10.91v1.23h-.97c-1.07 0-1.78-.16-2.15-.48-.36-.32-.54-.95-.54-1.9v-1.38c0-.65-.12-1.09-.35-1.34s-.64-.37-1.24-.37h-.4v-1.23h.4c.6 0 1.01-.12 1.24-.37.23-.24.35-.69.35-1.34v-1.38c0-.95.18-1.58.54-1.89.36-.32 1.08-.48 2.15-.48h.97v1.22h-.79c-.45 0-.74.09-.89.27s-.22.58-.22 1.19v1.34c0 .71-.11 1.21-.32 1.49-.21.29-.59.47-1.13.55.54.09.92.28 1.13.57s.32.79.32 1.49v1.32c0 .62.08 1.02.22 1.2.15.19.45.28.89.28h.79zm-111.08 13.9c-.32.19-.66.32-1.02.41s-.76.14-1.18.14c-1.11 0-1.98-.33-2.6-1-.63-.67-.94-1.6-.94-2.78 0-1.19.32-2.12.95-2.79s1.5-1.01 2.61-1.01c.39 0 .76.05 1.11.14.36.09.72.23 1.07.42v1.72c-.27-.24-.58-.42-.91-.54-.33-.13-.67-.19-1.02-.19-.61 0-1.08.19-1.42.59-.33.39-.5.95-.5 1.67s.17 1.27.5 1.66.8.58 1.42.58c.36 0 .71-.06 1.02-.18.32-.12.62-.31.9-.56v1.72zm5.07-5.48c-.45 0-.8.2-1.06.6-.26.39-.39.95-.39 1.65 0 .71.13 1.26.39 1.66.26.39.61.59 1.06.59s.81-.2 1.07-.59c.26-.4.39-.95.39-1.66s-.13-1.26-.39-1.65c-.26-.4-.61-.6-1.07-.6zm-3.33 2.25c0-1.16.3-2.08.9-2.76s1.42-1.02 2.43-1.02c1.02 0 1.83.34 2.43 1.02s.91 1.6.91 2.76-.3 2.08-.91 2.77c-.6.68-1.41 1.02-2.43 1.02s-1.83-.34-2.43-1.02-.9-1.6-.9-2.77zm8.34 1.09v-4.69h1.88v4.4c0 .52.07.89.22 1.11s.39.34.73.34.6-.15.79-.45.29-.72.29-1.26v-4.14h1.88v7.2h-1.88v-1.07c-.13.4-.36.71-.68.93s-.7.33-1.15.33c-.69 0-1.21-.23-1.56-.68-.35-.46-.52-1.13-.52-2.02zm13.8-2.17v4.68h-1.87v-4.39c0-.52-.08-.9-.23-1.12-.15-.23-.39-.34-.72-.34-.34 0-.61.15-.8.46-.19.3-.29.73-.29 1.27v4.12h-1.87v-7.2h1.87v1.08c.13-.4.36-.71.68-.93s.71-.33 1.16-.33c.68 0 1.2.23 1.54.68.35.45.53 1.13.53 2.02zm5.48-4.57v2.05h2.46v1.45h-2.46v3.41c0 .32.08.55.23.69.16.14.42.21.78.21h1.45v1.45h-1.58c-1.08 0-1.81-.17-2.19-.52s-.57-.99-.57-1.92v-3.32h-1.84v-1.45h1.84v-2.05zm16.17 1.58v2.77h2.77v1.53h-2.77v2.78h-1.52v-2.78h-2.78v-1.53h2.78v-2.77zm3.78 4.25h6.8v1.52h-6.8zm0-2.93h6.8v1.51h-6.8zm16.52 4.68h2.12v-6.23l-1.98.49v-1.71l1.99-.48h1.83v7.93h2.12v1.67h-6.09v-1.67zm-65.25 11.64c-.21-.19-.45-.33-.73-.42-.27-.09-.58-.14-.91-.14-.4 0-.75.07-1.05.21s-.52.34-.69.6c-.1.16-.18.36-.22.59s-.06.58-.06 1.05v3.32h-1.88v-7.2h1.88v1.12c.19-.41.47-.73.85-.95.38-.23.83-.34 1.34-.34.26 0 .51.03.75.1.25.06.48.15.71.27v1.79zm7.62 4.86c-.44.18-.88.32-1.34.41s-.93.13-1.44.13c-1.21 0-2.13-.32-2.77-.96-.63-.65-.95-1.58-.95-2.79 0-1.18.31-2.1.92-2.79.61-.68 1.45-1.02 2.51-1.02 1.07 0 1.9.32 2.48.95.59.63.89 1.52.89 2.67v.77h-4.88c0 .57.17.99.5 1.27s.82.42 1.48.42c.43 0 .86-.06 1.28-.19.42-.12.86-.32 1.32-.59zm-1.59-4.05c-.01-.5-.14-.87-.39-1.13-.24-.26-.61-.39-1.09-.39-.43 0-.78.13-1.04.4-.26.26-.41.63-.46 1.12zm9.33-.27v4.68h-1.87v-4.39c0-.52-.07-.9-.22-1.12-.15-.23-.39-.34-.72-.34-.34 0-.61.15-.8.46-.19.3-.29.73-.29 1.27v4.12h-1.87v-7.2h1.87v1.08c.13-.4.36-.71.68-.93s.71-.33 1.16-.33c.68 0 1.2.23 1.54.68.35.45.52 1.12.52 2.02zm6.14-1.51v-3.83h1.88v10.01h-1.88v-1.07c-.2.42-.46.73-.78.94s-.69.32-1.13.32c-.82 0-1.46-.33-1.92-.99-.45-.66-.68-1.59-.68-2.79 0-1.22.23-2.15.69-2.8s1.12-.98 1.98-.98c.39 0 .73.1 1.04.3.29.2.56.5.8.89zm-2.63 2.6c0 .69.12 1.24.35 1.63s.55.59.96.59.73-.2.96-.59c.24-.39.35-.94.35-1.63s-.12-1.24-.35-1.63c-.24-.39-.56-.59-.96-.59-.41 0-.73.2-.96.59s-.35.94-.35 1.63zm12.56 3.23c-.44.18-.88.32-1.34.41s-.93.13-1.44.13c-1.21 0-2.13-.32-2.77-.96-.63-.65-.95-1.58-.95-2.79 0-1.18.31-2.1.92-2.79.61-.68 1.45-1.02 2.51-1.02 1.07 0 1.9.32 2.48.95.59.63.89 1.52.89 2.67v.77h-4.88c0 .57.17.99.5 1.27s.82.42 1.48.42c.43 0 .86-.06 1.28-.19.42-.12.86-.32 1.32-.59zm-1.59-4.05c-.01-.5-.14-.87-.39-1.13-.24-.26-.61-.39-1.09-.39-.43 0-.78.13-1.04.4-.26.26-.41.63-.46 1.12zm9.85-.81c-.21-.19-.45-.33-.73-.42-.27-.09-.58-.14-.91-.14-.4 0-.75.07-1.05.21s-.53.34-.69.6c-.1.16-.18.36-.22.59s-.06.58-.06 1.05v3.32h-1.89v-7.2h1.89v1.12c.19-.41.47-.73.85-.95.38-.23.83-.34 1.34-.34.26 0 .51.03.75.1.25.06.48.15.71.27v1.79zm6.48-4.78c-.57 1.03-.99 2.02-1.26 2.98s-.41 1.92-.41 2.88c0 .95.14 1.91.41 2.88s.69 1.96 1.26 2.99h-1.47c-.68-.99-1.19-1.97-1.52-2.93-.33-.97-.49-1.95-.49-2.95s.16-1.98.49-2.94c.34-.97.84-1.94 1.52-2.92h1.47zm3.98 0h1.47c.68.98 1.18 1.95 1.51 2.92s.5 1.94.5 2.94-.17 1.98-.5 2.95c-.33.96-.84 1.94-1.52 2.93h-1.47c.57-1.03.99-2.03 1.26-2.99.27-.97.41-1.93.41-2.88 0-.96-.14-1.92-.41-2.88-.27-.97-.69-1.97-1.25-2.99zm-72.28 26.1h.78c.45 0 .75-.09.9-.28.15-.18.23-.58.23-1.2v-1.32c0-.7.11-1.2.32-1.49s.58-.48 1.12-.57c-.54-.08-.92-.27-1.13-.55-.21-.29-.31-.78-.31-1.49v-1.34c0-.6-.08-1-.23-1.18s-.45-.28-.9-.28h-.78v-1.22h.97c1.06 0 1.77.16 2.13.48.36.31.54.94.54 1.89v1.38c0 .65.12 1.1.35 1.34.24.24.66.37 1.26.37h.4v1.23h-.4c-.6 0-1.03.12-1.26.37s-.35.69-.35 1.34v1.38c0 .95-.18 1.58-.54 1.9s-1.07.48-2.13.48h-.97zm-15.87 15.19h.78c.45 0 .75-.09.9-.28.15-.18.23-.58.23-1.2v-1.32c0-.7.11-1.2.32-1.49s.58-.48 1.12-.57c-.54-.08-.91-.27-1.13-.55-.21-.29-.31-.78-.31-1.49v-1.34c0-.6-.08-1-.23-1.18s-.45-.28-.9-.28h-.78v-1.22h.97c1.06 0 1.77.16 2.13.48.36.31.54.94.54 1.89v1.38c0 .65.12 1.1.35 1.34.24.24.66.37 1.26.37h.4v1.23h-.4c-.6 0-1.03.12-1.26.37s-.35.69-.35 1.34v1.38c0 .95-.18 1.58-.54 1.9s-1.07.48-2.13.48h-.97zm8.77-10.92h1.47c.68.98 1.18 1.95 1.51 2.92s.5 1.94.5 2.94-.17 1.98-.5 2.95c-.33.96-.84 1.94-1.52 2.93h-1.47c.57-1.03.99-2.03 1.26-2.99.28-.97.41-1.93.41-2.88 0-.96-.14-1.92-.41-2.88-.27-.97-.69-1.96-1.25-2.99z" fill="#b3b8bc" opacity=".55"/><path clip-rule="evenodd" d="m250 375.54c36.71-28.38 60.35-72.85 60.35-122.84s-23.64-94.46-60.35-122.84c-36.71 28.38-60.35 72.85-60.35 122.84s23.64 94.46 60.35 122.84z" fill="#f0f9fe" fill-rule="evenodd"/><path d="m344.83 97.53c-35.68 0-68.59 12.11-94.83 32.44-26.24-20.32-59.14-32.44-94.83-32.44-85.56 0-155.17 69.61-155.17 155.17s69.61 155.17 155.17 155.17c35.68 0 68.59-12.11 94.83-32.44 26.24 20.32 59.14 32.44 94.83 32.44 85.56 0 155.17-69.61 155.17-155.17s-69.61-155.17-155.17-155.17zm-189.66 293.1c-76.06 0-137.93-61.88-137.93-137.93 0-76.06 61.88-137.93 137.93-137.93 30.48 0 58.68 9.94 81.53 26.75-29 28.21-47.05 67.63-47.05 111.18 0 .83.02 1.65.03 2.47l-.03.03.03.03c.69 42.55 18.58 80.98 47.01 108.64-22.84 16.82-51.04 26.76-81.52 26.76zm135.84-161.9-57.45-57.45c4.92-6.7 10.42-12.95 16.44-18.65 21.02 19.93 35.79 46.39 41.01 76.1zm-41.01 124.04c-21.62-20.5-36.63-47.91-41.44-78.66l58.77 58.78c-5.14 7.17-10.94 13.83-17.33 19.88zm-25.95-166.62 69.02 69.02c-.16 8.77-1.13 17.34-2.85 25.64l-75.08-75.08c2.46-6.79 5.45-13.33 8.91-19.58zm52.66 131.73-69.73-69.73c.26-7.99 1.2-15.82 2.77-23.42l75.07 75.07c-2.28 6.25-5 12.28-8.11 18.08zm68.12 72.75c-30.48 0-58.67-9.94-81.53-26.75 29-28.21 47.05-67.63 47.05-111.18 0-43.56-18.05-82.97-47.05-111.18 22.85-16.8 51.05-26.75 81.53-26.75 76.06 0 137.93 61.88 137.93 137.93 0 76.06-61.88 137.93-137.93 137.93z" fill="#0074bc"/><g fill="#2d2e2e"><path d="m350.05 244.97c-.63-.85-1.44-1.46-2.45-1.84-1.01-.4-1.99-.6-2.95-.6-1.23 0-2.35.22-3.35.67-1.01.45-1.88 1.06-2.62 1.85-.72.78-1.27 1.7-1.68 2.75-.38 1.05-.57 2.19-.57 3.42 0 1.3.19 2.48.57 3.55s.92 2 1.61 2.78c.72.76 1.57 1.35 2.55 1.78s2.09.64 3.32.64c1.27 0 2.4-.25 3.39-.74.98-.51 1.78-1.18 2.38-2.01l3.39 2.38c-1.05 1.32-2.34 2.35-3.86 3.08-1.52.72-3.3 1.07-5.33 1.07-1.86 0-3.57-.3-5.13-.91-1.54-.63-2.87-1.49-3.99-2.58-1.12-1.12-1.99-2.44-2.62-3.96-.63-1.54-.94-3.24-.94-5.1 0-1.9.32-3.61.97-5.13.67-1.54 1.58-2.85 2.72-3.92 1.16-1.07 2.53-1.9 4.09-2.48s3.26-.87 5.1-.87c.76 0 1.55.08 2.38.24.83.13 1.62.36 2.38.67.76.29 1.47.66 2.15 1.11.67.45 1.24.98 1.71 1.61zm4.68 6.23c0-1.9.31-3.61.94-5.13.65-1.54 1.53-2.85 2.65-3.92 1.14-1.07 2.48-1.9 4.02-2.48 1.57-.58 3.26-.87 5.1-.87 1.86 0 3.57.29 5.13.87s2.92 1.41 4.06 2.48 2.02 2.38 2.65 3.92c.65 1.52.97 3.23.97 5.13 0 1.86-.32 3.55-.97 5.1-.63 1.52-1.51 2.84-2.65 3.96-1.14 1.1-2.49 1.96-4.06 2.58-1.57.6-3.28.91-5.13.91-1.83 0-3.53-.3-5.1-.91-1.54-.63-2.88-1.49-4.02-2.58-1.12-1.12-2-2.44-2.65-3.96-.63-1.54-.94-3.24-.94-5.1zm4.59 0c0 1.27.19 2.45.57 3.52.4 1.05.96 1.97 1.68 2.75.74.78 1.6 1.4 2.58 1.84 1.01.43 2.11.64 3.32.64s2.31-.21 3.32-.64c1.01-.45 1.87-1.06 2.58-1.84.74-.78 1.3-1.7 1.68-2.75.4-1.07.6-2.25.6-3.52 0-1.23-.2-2.37-.6-3.42-.38-1.05-.93-1.97-1.64-2.75-.72-.78-1.58-1.4-2.58-1.85-1.01-.45-2.12-.67-3.35-.67s-2.35.22-3.35.67c-.98.45-1.83 1.06-2.55 1.85-.71.78-1.27 1.7-1.68 2.75-.39 1.05-.58 2.19-.58 3.42zm25.01-11.8h8.42c1.54 0 3.1.2 4.66.6 1.57.4 2.97 1.07 4.23 2.01 1.25.92 2.27 2.13 3.05 3.66.78 1.5 1.17 3.36 1.17 5.6 0 2.08-.39 3.87-1.17 5.37s-1.8 2.73-3.05 3.69-2.66 1.68-4.23 2.15c-1.57.45-3.12.67-4.66.67h-8.42zm7.74 20.05c1.1 0 2.19-.12 3.29-.37 1.1-.27 2.08-.7 2.95-1.31.89-.63 1.62-1.46 2.18-2.52.56-1.05.84-2.38.84-3.99 0-1.7-.28-3.08-.84-4.16-.56-1.07-1.29-1.91-2.18-2.52-.87-.6-1.86-1.02-2.95-1.24-1.1-.22-2.19-.34-3.29-.34h-3.52v16.43h3.52zm17.87-20.05h15.73v3.69h-11.5v6.04h10.9v3.55h-10.9v6.71h12.11v3.76h-16.33v-23.75z"/><path d="m45.14 239.78h8.42c1.54 0 3.1.2 4.66.6s2.97 1.07 4.22 2.01c1.25.92 2.27 2.13 3.05 3.65.78 1.5 1.17 3.36 1.17 5.6 0 2.08-.39 3.87-1.17 5.36-.78 1.5-1.8 2.73-3.05 3.69s-2.66 1.68-4.22 2.15c-1.56.45-3.12.67-4.66.67h-8.42zm7.75 20.05c1.1 0 2.19-.12 3.29-.37 1.1-.27 2.08-.7 2.95-1.31.89-.63 1.62-1.46 2.18-2.52.56-1.05.84-2.38.84-3.99 0-1.7-.28-3.08-.84-4.16-.56-1.07-1.29-1.91-2.18-2.51-.87-.6-1.86-1.02-2.95-1.24-1.1-.22-2.19-.34-3.29-.34h-3.52v16.43h3.52zm17.85-20.05h15.72v3.69h-11.5v6.04h10.9v3.55h-10.9v6.71h12.1v3.76h-16.32zm32.57 4.96c-.45-.58-1.08-1.06-1.91-1.44-.8-.4-1.62-.6-2.45-.6-.49 0-.98.07-1.47.2-.49.11-.94.3-1.34.57-.4.25-.74.58-1.01 1.01-.25.4-.37.89-.37 1.47 0 .54.11.99.34 1.38.22.38.52.7.91.97.4.27.88.5 1.44.7s1.17.4 1.84.6c.76.25 1.54.52 2.35.84.83.31 1.58.73 2.25 1.24.69.51 1.25 1.16 1.68 1.94.45.78.67 1.75.67 2.92 0 1.27-.23 2.39-.7 3.35-.47.94-1.1 1.72-1.88 2.35s-1.7 1.1-2.75 1.41-2.16.47-3.32.47c-1.54 0-3.05-.28-4.53-.84-1.48-.58-2.68-1.43-3.62-2.55l3.02-2.82c.58.8 1.35 1.44 2.31 1.91.98.47 1.94.7 2.88.7.49 0 .99-.06 1.51-.17.51-.13.97-.35 1.38-.64.42-.29.76-.65 1.01-1.07.27-.45.4-.99.4-1.64 0-.63-.15-1.14-.44-1.54-.29-.43-.68-.78-1.17-1.07-.49-.31-1.07-.58-1.74-.8s-1.38-.46-2.11-.7c-.71-.22-1.43-.49-2.15-.8s-1.36-.73-1.94-1.24c-.56-.51-1.02-1.14-1.37-1.88-.36-.76-.54-1.7-.54-2.82 0-1.21.25-2.25.74-3.12.51-.87 1.17-1.59 1.98-2.15.83-.58 1.75-1.01 2.78-1.27 1.05-.29 2.11-.44 3.19-.44 1.21 0 2.43.21 3.66.64 1.25.42 2.34 1.06 3.25 1.91zm7.15-4.96h4.22v23.74h-4.22zm30.25 22.49c-1.21.58-2.54 1.03-3.99 1.34-1.43.34-3.08.5-4.96.5-1.92 0-3.68-.3-5.26-.9-1.59-.63-2.95-1.49-4.09-2.58-1.14-1.12-2.03-2.44-2.68-3.96-.63-1.54-.94-3.24-.94-5.1 0-1.9.32-3.61.97-5.13.67-1.54 1.58-2.85 2.72-3.92 1.16-1.07 2.53-1.9 4.09-2.48s3.26-.87 5.1-.87c1.9 0 3.63.28 5.2.84 1.59.54 2.86 1.25 3.82 2.15l-2.92 3.15c-.6-.67-1.45-1.24-2.55-1.71-1.07-.47-2.25-.7-3.52-.7-1.25 0-2.39.22-3.42.67-1.01.45-1.87 1.06-2.58 1.84s-1.27 1.7-1.68 2.75c-.38 1.05-.57 2.19-.57 3.42 0 1.27.19 2.45.57 3.52.4 1.05.96 1.97 1.68 2.75.74.78 1.62 1.4 2.65 1.84 1.05.43 2.24.64 3.55.64 1.81 0 3.39-.28 4.73-.84v-6.04h-5v-3.49h9.09v12.31zm5.15-22.49h5.6l11.03 17.77h.07v-17.77h4.22v23.74h-5.36l-11.27-18.34h-.07v18.34h-4.22z"/></g></svg>