<svg fill="none" height="24" viewBox="0 0 24 24" width="24" xmlns="http://www.w3.org/2000/svg"><g fill="#0063a1"><path clip-rule="evenodd" d="m12 20.5c4.6944 0 8.5-3.8056 8.5-8.5 0-4.69442-3.8056-8.5-8.5-8.5-4.69442 0-8.5 3.80558-8.5 8.5 0 4.6944 3.80558 8.5 8.5 8.5zm0 1.5c5.5228 0 10-4.4772 10-10 0-5.52285-4.4772-10-10-10-5.52285 0-10 4.47715-10 10 0 5.5228 4.47715 10 10 10z" fill-rule="evenodd"/><path d="m6.36245 9.3473c.03062-.35008.33925-.60905.68933-.57842l3.60712.31558h2.6821l3.6069-.31557c.3501-.03062.6587.22834.6894.57843.0306.35008-.2284.65868-.5785.68938l-3.5318.309v2.5144l1.9732 4.2316c.1788.3834.0129.8391-.3705 1.0178-.3833.1788-.839.0129-1.0178-.3704l-1.7011-3.6482h-.8218l-1.70122 3.6482c-.17876.3834-.63445.5492-1.01781.3704-.38336-.1787-.54922-.6344-.37045-1.0178l1.97318-4.2315v-2.5146l-3.53183-.309c-.35009-.0306-.60905-.33922-.57842-.6893z"/><path d="m13.5269 7.05523c0 .8434-.6838 1.5271-1.5271 1.5271-.8434 0-1.5271-.6837-1.5271-1.5271 0-.84339.6837-1.52709 1.5271-1.52709.8433 0 1.5271.6837 1.5271 1.52709z"/><path clip-rule="evenodd" d="m11.9998 8.58233c.8433 0 1.5271-.6837 1.5271-1.5271 0-.84339-.6838-1.52709-1.5271-1.52709-.8434 0-1.5271.6837-1.5271 1.52709 0 .8434.6837 1.5271 1.5271 1.5271z" fill-rule="evenodd"/></g></svg>