<svg fill="none" height="25" viewBox="0 0 24 25" width="24" xmlns="http://www.w3.org/2000/svg"><path clip-rule="evenodd" d="m16.9379 15.7741c-.2703.2124-.5547.4077-.8514.5844l1.2681 3.4843-1.9231-.8965-.8969 1.9229-1.2699-3.4891c-.3366.0534-.6801.0859-1.0293.096l2.1851 6.0034 1.4946-3.2045 3.2048 1.494zm-5.173 1.702c-.3492-.0101-.6927-.0425-1.0293-.096l-1.2699 3.4891-.89692-1.9229-1.92313.8965 1.26813-3.4842c-.29677-.1766-.58114-.372-.85149-.5843l-2.18192 5.9948 3.20477-1.4941 1.49466 3.2045z" fill="#fff" fill-rule="evenodd"/><circle cx="12" cy="9.479" r="6.5" stroke="#fff"/><circle cx="12" cy="9.479" r="4.5" stroke="#fff"/><path d="m12 6.47949.8817 1.78648 1.9715.28647-1.4266 1.39058.3368 1.96348-1.7634-.927-1.7634.927.3368-1.96348-1.42657-1.39058 1.97147-.28647z" fill="#fff"/></svg>