<svg fill="none" height="24" viewBox="0 0 24 24" width="24" xmlns="http://www.w3.org/2000/svg"><circle cx="4.48016" cy="5.9946" fill="#e8f5fc" r="1.17279"/><circle cx="7.49384" cy="5.9946" fill="#e8f5fc" r="1.17279"/><circle cx="10.5074" cy="5.9946" fill="#e8f5fc" r="1.17279"/><g fill="#0063a1"><path clip-rule="evenodd" d="m22 4h-20v16h20zm-18.5 4h17v10.5h-17zm2-2c0 .55228-.44772 1-1 1s-1-.44772-1-1 .44772-1 1-1 1 .44772 1 1zm3 0c0 .55228-.44772 1-1 1s-1-.44772-1-1 .44772-1 1-1 1 .44772 1 1zm2 1c.5523 0 1-.44772 1-1s-.4477-1-1-1c-.55228 0-1 .44772-1 1s.44772 1 1 1z" fill-rule="evenodd"/><path d="m12.6927 9.1767h.9252l-2.3106 8h-.9252z"/><path clip-rule="evenodd" d="m7.53226 13.1767 2.26336-2.2634-.7071-.7071-2.97048 2.9705 2.97048 2.9705.7071-.7071z" fill-rule="evenodd"/><path clip-rule="evenodd" d="m16.4678 13.1767-2.2633-2.2634.7071-.7071 2.9704 2.9705-2.9704 2.9705-.7071-.7071z" fill-rule="evenodd"/></g></svg>