<svg fill="none" height="24" viewBox="0 0 24 24" width="24" xmlns="http://www.w3.org/2000/svg"><circle cx="4.48901" cy="7.99817" fill="#e8f5fc" r="1.39954"/><circle cx="9.53113" cy="5.00858" fill="#e8f5fc" r="1.39954"/><circle cx="14.4695" cy="7.99817" fill="#e8f5fc" r="1.39954"/><circle cx="19.515" cy="3.98389" fill="#e8f5fc" r="1.39954"/><g fill="#0063a1"><path d="m3 13.0044h3v6.9956h-3z"/><path d="m18 9h3v11h-3z"/><path d="m13 13.0044h3v7h-3z"/><path d="m8 10h3v10h-3z"/><path clip-rule="evenodd" d="m21.5 4c0-1.10457-.8954-2-2-2s-2 .89543-2 2c0 .29323.0631.57173.1765.82265l-1.9709 1.58146c-.3352-.25365-.7528-.40411-1.2056-.40411-.5507 0-1.0495.2226-1.4112.58274l-1.6743-1.00255c.0556-.18363.0855-.37842.0855-.58019 0-1.10457-.8954-2-2-2-1.10457 0-2 .89543-2 2 0 .2019.02992.39682.08556.58055l-1.67414 1.00244c-.36171-.36028-.86056-.58299-1.41142-.58299-1.10457 0-2 .89543-2 2s.89543 2 2 2 2-.89543 2-2c0-.19324-.02741-.38008-.07854-.55685l1.68476-1.0088c.3602.35008.85181.56565 1.39378.56565.5421 0 1.0338-.21568 1.3941-.56591l1.6845 1.00871c-.0512.17687-.0786.36383-.0786.5572 0 1.10457.8954 2 2 2s2-.89543 2-2c0-.28949-.0615-.56461-.1722-.81301l1.975-1.58476c.3338.24981.7482.39777 1.1972.39777 1.1046 0 2-.89543 2-2zm-1 0c0-.55228-.4477-1-1-1s-1 .44772-1 1 .4477 1 1 1 1-.44772 1-1zm-10 1c0-.55228-.4477-1-1-1-.55228 0-1 .44772-1 1s.44772 1 1 1c.5523 0 1-.44772 1-1zm-6 2c.55228 0 1 .44772 1 1s-.44772 1-1 1-1-.44772-1-1 .44772-1 1-1zm10 0c.5523 0 1 .44772 1 1s-.4477 1-1 1-1-.44772-1-1 .4477-1 1-1z" fill-rule="evenodd"/></g></svg>