<svg fill="none" height="24" viewBox="0 0 24 24" width="24" xmlns="http://www.w3.org/2000/svg"><g fill="#e8f5fc"><circle cx="11.9647" cy="3.75575" r="1.0271"/><circle cx="18.9979" cy="7.95949" r="1.0271"/><circle cx="19.0573" cy="16.1269" r="1.0271"/><circle cx="12" cy="20.2629" r="1.0271"/><circle cx="4.95923" cy="16.1058" r="1.0271"/><circle cx="4.93616" cy="7.95949" r="1.0271"/></g><path clip-rule="evenodd" d="m8.03377 11.4776.9916.1293c-.01673.1282-.02541.2594-.02541.3931s.00868.2649.02541.3931l-.9916.1293c-.02231-.1709-.03381-.3453-.03381-.5224s.01151-.3514.03381-.5224zm.26971 2.0536.92373-.3831c.10091.2434.23319.471.39207.6777l-.79292.6093c-.21151-.2752-.38803-.5787-.52288-.9039zm1.26134 1.6424.60938-.7929c.2067.1589.4343.2911.6777.3921l-.3831.9237c-.3252-.1349-.62873-.3114-.90398-.5229zm1.91268.7926.1294-.9916c.1282.0167.2594.0254.3931.0254s.2648-.0087.3931-.0254l.1293.9916c-.171.0223-.3454.0338-.5224.0338-.1771 0-.3515-.0115-.5225-.0338zm2.0536-.2697-.383-.9237c.2433-.101.4709-.2332.6777-.3921l.6093.7929c-.2753.2115-.5788.388-.904.5229zm1.6425-1.2614-.793-.6093c.1589-.2067.2912-.4343.3921-.6777l.9237.3831c-.1348.3251-.3113.6287-.5228.9039zm.7926-1.9127c.0223-.1709.0338-.3453.0338-.5224s-.0115-.3514-.0338-.5224l-.9916.1293c.0167.1282.0254.2594.0254.3931s-.0087.2649-.0254.3931zm-.2698-2.0535-.9237.383c-.1009-.2433-.2332-.471-.3921-.6777l.793-.60933c.2115.27525.388.57883.5228.90403zm-1.2613-1.64249-.6093.79292c-.2068-.15888-.4344-.29116-.6777-.39207l.383-.92373c.3252.13485.6287.31136.904.52288zm-1.9127-.79259-.1293.9916c-.1283-.01673-.2594-.02541-.3931-.02541s-.2649.00868-.3931.02541l-.1294-.9916c.171-.02231.3454-.03381.5225-.03381.177 0 .3514.0115.5224.03381zm-2.0536.26971.3831.92373c-.2434.10091-.471.23319-.6778.39207l-.60928-.79292c.27525-.21152.57878-.38803.90398-.52288zm-1.64244 1.26134.79292.60933c-.15888.2067-.29116.4344-.39207.6777l-.92373-.383c.13485-.3252.31137-.62878.52288-.90403z" fill="#0063a1" fill-rule="evenodd"/><path d="m9.74996 12c0-1.2426 1.00734-2.24999 2.25004-2.24999 1.2426 0 2.25 1.00739 2.25 2.24999s-1.0074 2.25-2.25 2.25c-1.2427 0-2.25004-1.0074-2.25004-2.25z" fill="#0063a1"/><path clip-rule="evenodd" d="m13.7272 3.73201c0-.96601-.7831-1.74912-1.7491-1.74912-.9661 0-1.7492.78311-1.7492 1.74912 0 .16748.0236.32945.0675.48281l-4.13463 2.45844c-.31391-.29972-.73921-.48377-1.20749-.48377-.96584 0-1.74882.78298-1.74882 1.74882 0 .79208.52658 1.46117 1.24876 1.67628v4.83151c-.72219.2151-1.24878.8842-1.24878 1.6762 0 .9659.78298 1.7489 1.74883 1.7489.44805 0 .85674-.1685 1.16617-.4456l4.16086 2.4178c-.0339.1359-.0519.2782-.0519.4246 0 .9657.7829 1.7486 1.7487 1.7486.9657 0 1.7486-.7829 1.7486-1.7486 0-.1358-.0155-.2679-.0448-.3948l4.2014-2.4414c.3092.2747.7164.4416 1.1625.4416.9671 0 1.751-.784 1.751-1.7511 0-.788-.5206-1.4545-1.2366-1.6742v-4.83774c.7149-.21964 1.2345-.88515 1.2345-1.67204 0-.96589-.783-1.7489-1.7489-1.7489-.4655 0-.8886.18192-1.202.47856l-4.1759-2.48296c.0387-.14448.0593-.29634.0593-.45301zm-1 0c0-.41373-.3354-.74912-.7491-.74912-.4138 0-.7492.33539-.7492.74912 0 .41372.3354.74911.7492.74911.4137 0 .7491-.33539.7491-.74911zm.4161 1.30448c-.3094.27652-.7177.44463-1.1652.44463-.4363 0-.8353-.15974-1.1417-.42394l-4.17847 2.48448c.02955.12744.04517.26022.04517.39665 0 .79212-.52663 1.46124-1.24888 1.67632v4.83137c.72225.2151 1.24888.8842 1.24888 1.6763 0 .156-.02042.3073-.05874.4512l4.14724 2.4099c.3118-.2881.7286-.4641 1.1865-.4641.4689 0 .8946.1846 1.2087.485l4.1689-2.4225c-.0397-.1464-.0609-.3004-.0609-.4595 0-.7985.5346-1.4722 1.2654-1.6828v-4.82058c-.7296-.21047-1.2633-.88322-1.2633-1.6806 0-.13912.0163-.27444.047-.40417zm6.6514 2.90183c0-.41361-.3353-.7489-.7489-.7489s-.7489.33529-.7489.7489.3353.7489.7489.7489.7489-.33529.7489-.7489zm-14.84043 7.43518c.41357 0 .74883.3353.74883.7488 0 .4136-.33526.7489-.74883.7489-.41356 0-.74883-.3353-.74883-.7489 0-.4135.33527-.7488.74883-.7488zm7.02383 4.1458c.4134 0 .7486.3352.7486.7487s-.3352.7486-.7486.7486c-.4135 0-.7487-.3351-.7487-.7486s.3352-.7487.7487-.7487zm-7.02382-12.32981c.41357 0 .74882.33526.74882.74882 0 .41357-.33525.74882-.74882.74882-.41356 0-.74882-.33525-.74882-.74882 0-.41356.33526-.74882.74882-.74882zm14.09152 8.18181c.4148 0 .751.3363.751.751 0 .4148-.3362.7511-.751.7511s-.751-.3363-.751-.7511c0-.4147.3362-.751.751-.751z" fill="#0063a1" fill-rule="evenodd"/></svg>