<svg fill="none" viewBox="0 0 528 439" xmlns="http://www.w3.org/2000/svg" xmlns:xlink="http://www.w3.org/1999/xlink"><mask id="a" height="328" maskUnits="userSpaceOnUse" width="328" x="200" y="111"><circle cx="363.818" cy="274.735" fill="#c4c4c4" r="163.488"/></mask><mask id="b" height="328" maskUnits="userSpaceOnUse" width="328" x="0" y="111"><circle cx="164" cy="274.735" fill="#c4c4c4" r="163.488"/></mask><path d="m230.52 40.0773v-3.6h4.512v-24.384h-4.512v-3.59997h13.968l7.488 21.69597h.192l7.392-21.69597h13.728v3.59997h-4.752v24.384h4.752v3.6h-15.024v-3.6h4.08v-23.76h-.432l-9.744 27.36h-2.832l-9.984-27.36h-.432v23.76h4.272v3.6zm66.92-10.56h-15.216c.192 5.424 2.448 7.632 6.432 7.632 2.64 0 4.56-1.152 5.76-3.984h2.88c-1.104 4.704-4.416 7.392-9.888 7.392-7.008 0-11.137-4.8-11.137-11.328 0-6.72 4.752-11.76 11.233-11.76 7.008 0 10.176 5.616 9.936 12.048zm-10.224-9.216c-2.736 0-4.56 1.776-4.944 6.672h9.6c-.288-4.32-1.632-6.672-4.656-6.672z" fill="#000"/><path clip-rule="evenodd" d="m233.999 91.9985 27.349 27.3495 2.652 2.652 2.652-2.652 27.349-27.3495-5.303-5.3033-20.948 20.9478v-45.6459h-7.5v45.6459l-20.948-20.9478z" fill="#000" fill-rule="evenodd"/><g mask="url(#a)" opacity=".55"><path d="m309.588 165.508c-.334.195-.693.339-1.078.434-.384.1-.797.149-1.24.149-1.17 0-2.085-.352-2.745-1.057-.659-.705-.989-1.681-.989-2.928 0-1.252.332-2.23.996-2.935.664-.709 1.581-1.064 2.752-1.064.406 0 .797.048 1.172.143.38.094.757.241 1.132.44v1.816c-.289-.248-.608-.438-.956-.569-.343-.135-.7-.203-1.07-.203-.647 0-1.144.205-1.491.617-.348.411-.522.996-.522 1.755s.174 1.342.522 1.749c.347.406.844.61 1.491.61.384 0 .743-.064 1.077-.19.335-.131.651-.328.949-.59zm5.348-5.774c-.475 0-.848.21-1.119.63-.271.416-.406.996-.406 1.742s.135 1.328.406 1.749c.271.415.644.623 1.119.623.479 0 .854-.208 1.125-.623.271-.421.406-1.003.406-1.749s-.135-1.326-.406-1.742c-.271-.42-.646-.63-1.125-.63zm-3.511 2.372c0-1.225.316-2.194.949-2.908.637-.718 1.491-1.077 2.562-1.077 1.075 0 1.929.359 2.562 1.077.637.714.955 1.683.955 2.908 0 1.224-.318 2.196-.955 2.914-.633.714-1.487 1.071-2.562 1.071-1.071 0-1.925-.357-2.562-1.071-.633-.718-.949-1.69-.949-2.914zm14.958-1.139v4.928h-1.972v-4.623c0-.551-.079-.944-.237-1.179-.154-.239-.407-.359-.76-.359-.357 0-.639.16-.847.481-.203.321-.305.766-.305 1.335v4.345h-1.972v-7.591h1.972v1.138c.14-.42.38-.745.719-.976.339-.23.747-.345 1.226-.345.719 0 1.261.239 1.627.718.366.475.549 1.184.549 2.128zm7.821-2.426v1.735c-.366-.235-.747-.411-1.145-.529-.393-.122-.788-.183-1.186-.183-.443 0-.777.066-1.003.197-.226.126-.339.316-.339.569 0 .362.483.655 1.45.881l.075.021.569.135c.723.172 1.252.45 1.586.834.339.379.508.895.508 1.545 0 .782-.257 1.369-.772 1.762-.511.389-1.281.583-2.311.583-.457 0-.924-.04-1.403-.122-.479-.077-.965-.194-1.457-.352v-1.735c.438.248.883.438 1.335.569.456.131.897.197 1.321.197.466 0 .818-.068 1.058-.204.239-.135.359-.332.359-.589 0-.253-.086-.448-.258-.583-.167-.136-.569-.28-1.206-.434l-.549-.122c-.759-.172-1.313-.441-1.661-.807s-.521-.856-.521-1.47c0-.732.264-1.302.793-1.708.528-.407 1.271-.61 2.229-.61.43 0 .857.036 1.281.108.43.068.845.172 1.247.312zm6.324-2.393v2.156h2.596v1.525h-2.596v3.592c0 .339.081.583.244.732.167.144.443.217.827.217h1.525v1.525h-1.668c-1.138 0-1.909-.181-2.311-.543-.402-.366-.603-1.041-.603-2.026v-3.497h-1.938v-1.525h1.938v-2.156zm17.811 5.972c0-.732-.122-1.306-.366-1.722s-.58-.624-1.009-.624c-.43 0-.769.208-1.017.624-.249.416-.373.99-.373 1.722s.124 1.305.373 1.721c.248.416.587.624 1.017.624.429 0 .765-.208 1.009-.624s.366-.989.366-1.721zm-2.765-2.739c.244-.42.527-.734.847-.942.326-.212.692-.318 1.098-.318.899 0 1.591.343 2.074 1.03.488.687.732 1.672.732 2.955 0 1.265-.239 2.246-.718 2.941-.479.696-1.152 1.044-2.02 1.044-.456 0-.854-.11-1.193-.332-.339-.221-.612-.551-.82-.989v1.125h-1.979v-10.546h1.979zm10.045-3.233v2.156h2.595v1.525h-2.595v3.592c0 .339.081.583.244.732.167.144.442.217.826.217h1.525v1.525h-1.667c-1.139 0-1.909-.181-2.311-.543-.402-.366-.603-1.041-.603-2.026v-3.497h-1.939v-1.525h1.939v-2.156zm10.945 4.819v4.928h-1.972v-4.623c0-.551-.079-.944-.237-1.179-.154-.239-.407-.359-.759-.359-.357 0-.64.16-.847.481-.204.321-.305.766-.305 1.335v4.345h-1.973v-7.591h1.973v1.138c.14-.42.379-.745.718-.976.339-.23.748-.345 1.227-.345.718 0 1.26.239 1.626.718.366.475.549 1.184.549 2.128zm10.065 1.322h7.164v1.606h-7.164zm0-3.084h7.164v1.593h-7.164zm21.492.176v-4.032h1.979v10.546h-1.979v-1.125c-.212.438-.488.768-.827.989-.334.222-.73.332-1.186.332-.868 0-1.541-.348-2.02-1.044-.479-.695-.718-1.676-.718-2.941 0-1.283.242-2.268.725-2.955.488-.687 1.182-1.03 2.081-1.03.406 0 .77.106 1.091.318.325.208.61.522.854.942zm-2.765 2.739c0 .732.122 1.305.366 1.721s.58.624 1.01.624c.429 0 .768-.208 1.016-.624.249-.416.373-.989.373-1.721s-.124-1.306-.373-1.722c-.248-.416-.587-.624-1.016-.624-.43 0-.766.208-1.01.624s-.366.99-.366 1.722zm9.942-2.386c-.474 0-.847.21-1.118.63-.271.416-.407.996-.407 1.742s.136 1.328.407 1.749c.271.415.644.623 1.118.623.479 0 .854-.208 1.125-.623.272-.421.407-1.003.407-1.749s-.135-1.326-.407-1.742c-.271-.42-.646-.63-1.125-.63zm-3.51 2.372c0-1.225.316-2.194.948-2.908.638-.718 1.492-1.077 2.562-1.077 1.076 0 1.93.359 2.562 1.077.637.714.956 1.683.956 2.908 0 1.224-.319 2.196-.956 2.914-.632.714-1.486 1.071-2.562 1.071-1.07 0-1.924-.357-2.562-1.071-.632-.718-.948-1.69-.948-2.914zm14.89 3.402c-.334.195-.694.339-1.078.434-.384.1-.797.149-1.24.149-1.17 0-2.085-.352-2.745-1.057s-.989-1.681-.989-2.928c0-1.252.332-2.23.996-2.935.664-.709 1.581-1.064 2.752-1.064.406 0 .797.048 1.172.143.38.094.757.241 1.132.44v1.816c-.289-.248-.608-.438-.956-.569-.343-.135-.7-.203-1.071-.203-.646 0-1.143.205-1.491.617-.348.411-.521.996-.521 1.755s.173 1.342.521 1.749c.348.406.845.61 1.491.61.385 0 .744-.064 1.078-.19.334-.131.651-.328.949-.59zm2.257-2.263v-4.941h1.986v4.636c0 .546.077.937.23 1.172.154.235.409.353.766.353s.635-.159.834-.475c.203-.316.305-.759.305-1.328v-4.358h1.986v7.591h-1.986v-1.125c-.14.42-.38.745-.719.976-.334.23-.738.345-1.213.345-.723 0-1.27-.239-1.64-.718-.366-.479-.549-1.189-.549-2.128zm11.956-4.182c.149-.321.338-.558.569-.712.23-.153.513-.23.847-.23.655 0 1.107.226 1.356.678.253.451.379 1.391.379 2.819v4.277h-1.626v-4.873c0-.565-.043-.943-.129-1.132-.086-.19-.242-.285-.468-.285s-.384.097-.474.291c-.091.195-.136.57-.136 1.126v4.873h-1.606v-4.873c0-.556-.045-.931-.136-1.126-.09-.194-.248-.291-.474-.291s-.382.095-.468.285c-.086.189-.129.567-.129 1.132v4.873h-1.626v-7.591h1.443v.786c.113-.298.294-.533.543-.705.248-.176.526-.264.833-.264.308 0 .588.092.841.278.253.18.406.402.461.664zm11.156 6.459c-.461.19-.931.332-1.41.427s-.985.142-1.518.142c-1.27 0-2.242-.339-2.915-1.016-.668-.683-1.003-1.663-1.003-2.942 0-1.238.323-2.216.969-2.935.646-.718 1.528-1.077 2.644-1.077 1.125 0 1.997.334 2.616 1.003.623.664.935 1.602.935 2.813v.806h-5.144c.004.596.181 1.042.529 1.335.347.294.867.441 1.558.441.457 0 .906-.066 1.349-.197s.906-.339 1.39-.623zm-1.681-4.27c-.009-.524-.145-.919-.407-1.186-.258-.271-.639-.407-1.145-.407-.457 0-.82.14-1.092.42-.271.276-.431.669-.481 1.18zm9.834-.285v4.928h-1.972v-4.623c0-.551-.079-.944-.237-1.179-.154-.239-.407-.359-.76-.359-.357 0-.639.16-.847.481-.203.321-.305.766-.305 1.335v4.345h-1.972v-7.591h1.972v1.138c.14-.42.38-.745.719-.976.339-.23.747-.345 1.226-.345.719 0 1.261.239 1.627.718.366.475.549 1.184.549 2.128zm5.781-4.819v2.156h2.596v1.525h-2.596v3.592c0 .339.082.583.244.732.167.144.443.217.827.217h1.525v1.525h-1.667c-1.139 0-1.909-.181-2.311-.543-.402-.366-.604-1.041-.604-2.026v-3.497h-1.938v-1.525h1.938v-2.156zm6.73 7.259h2.257v2.488h-2.257zm10.763-1.43c0-.678-.128-1.22-.386-1.626-.258-.412-.596-.617-1.017-.617-.415 0-.752.203-1.01.61-.253.406-.379.951-.379 1.633 0 .687.126 1.234.379 1.64.258.407.595.61 1.01.61.421 0 .759-.203 1.017-.61.258-.411.386-.958.386-1.64zm1.986 3.348c0 1.216-.275 2.092-.827 2.63-.546.542-1.437.813-2.67.813-.416 0-.827-.031-1.234-.095-.406-.058-.82-.151-1.24-.277v-1.824c.375.208.757.362 1.145.461.389.1.789.149 1.2.149.56 0 .974-.133 1.24-.399.267-.263.4-.674.4-1.234v-.82c-.194.361-.452.63-.772.806-.321.177-.712.265-1.173.265-.867 0-1.556-.339-2.067-1.017s-.766-1.597-.766-2.758c0-1.202.255-2.156.766-2.861.511-.704 1.195-1.057 2.054-1.057.433 0 .82.102 1.159.305.338.204.605.49.799.861v-.969h1.986zm8.404.197c-.461.19-.93.332-1.409.427s-.985.142-1.519.142c-1.269 0-2.241-.339-2.914-1.016-.669-.683-1.003-1.663-1.003-2.942 0-1.238.323-2.216.969-2.935.646-.718 1.527-1.077 2.643-1.077 1.126 0 1.998.334 2.617 1.003.623.664.935 1.602.935 2.813v.806h-5.144c.004.596.18 1.042.528 1.335.348.294.868.441 1.559.441.457 0 .906-.066 1.349-.197s.906-.339 1.389-.623zm-1.68-4.27c-.01-.524-.145-.919-.407-1.186-.258-.271-.64-.407-1.146-.407-.456 0-.82.14-1.091.42-.271.276-.431.669-.481 1.18zm7.252-5.104v2.156h2.595v1.525h-2.595v3.592c0 .339.081.583.244.732.167.144.442.217.826.217h1.525v1.525h-1.667c-1.139 0-1.909-.181-2.311-.543-.402-.366-.603-1.041-.603-2.026v-3.497h-1.939v-1.525h1.939v-2.156zm11.128 9.747h-6.303v-10.119h6.303v1.762h-4.303v2.182h3.897v1.762h-3.897v2.65h4.303zm3.545-3.165v-5.856h-2.013v-1.525h3.999v7.381c0 .596.093 1.018.278 1.267.185.248.499.373.942.373h1.586v1.525h-2.142c-.944 0-1.622-.244-2.033-.732s-.617-1.299-.617-2.433zm13.21 2.792c-.461.19-.931.332-1.41.427s-.985.142-1.518.142c-1.27 0-2.241-.339-2.915-1.016-.668-.683-1.003-1.663-1.003-2.942 0-1.238.323-2.216.969-2.935.647-.718 1.528-1.077 2.644-1.077 1.125 0 1.997.334 2.616 1.003.623.664.935 1.602.935 2.813v.806h-5.144c.004.596.181 1.042.529 1.335.348.294.867.441 1.558.441.457 0 .906-.066 1.349-.197s.906-.339 1.39-.623zm-1.681-4.27c-.009-.524-.145-.919-.407-1.186-.257-.271-.639-.407-1.145-.407-.457 0-.82.14-1.092.42-.271.276-.431.669-.481 1.18zm7.252-2.189c.149-.321.339-.558.569-.712.231-.153.513-.23.847-.23.655 0 1.107.226 1.356.678.253.451.379 1.391.379 2.819v4.277h-1.626v-4.873c0-.565-.043-.943-.129-1.132-.086-.19-.242-.285-.468-.285s-.384.097-.474.291c-.09.195-.136.57-.136 1.126v4.873h-1.606v-4.873c0-.556-.045-.931-.136-1.126-.09-.194-.248-.291-.474-.291s-.382.095-.468.285c-.085.189-.128.567-.128 1.132v4.873h-1.627v-7.591h1.444v.786c.113-.298.293-.533.542-.705.248-.176.526-.264.833-.264.308 0 .588.092.841.278.253.18.407.402.461.664zm11.156 6.459c-.461.19-.931.332-1.41.427s-.985.142-1.518.142c-1.27 0-2.241-.339-2.915-1.016-.668-.683-1.003-1.663-1.003-2.942 0-1.238.323-2.216.97-2.935.646-.718 1.527-1.077 2.643-1.077 1.125 0 1.997.334 2.616 1.003.623.664.935 1.602.935 2.813v.806h-5.144c.005.596.181 1.042.529 1.335.348.294.867.441 1.559.441.456 0 .906-.066 1.348-.197.443-.131.906-.339 1.39-.623zm-1.681-4.27c-.009-.524-.145-.919-.407-1.186-.257-.271-.639-.407-1.145-.407-.457 0-.82.14-1.091.42-.271.276-.432.669-.482 1.18zm9.834-.285v4.928h-1.972v-4.623c0-.551-.079-.944-.237-1.179-.154-.239-.407-.359-.759-.359-.357 0-.64.16-.848.481-.203.321-.305.766-.305 1.335v4.345h-1.972v-7.591h1.972v1.138c.14-.42.38-.745.719-.976.339-.23.748-.345 1.227-.345.718 0 1.26.239 1.626.718.366.475.549 1.184.549 2.128zm5.781-4.819v2.156h2.596v1.525h-2.596v3.592c0 .339.082.583.244.732.168.144.443.217.827.217h1.525v1.525h-1.667c-1.139 0-1.909-.181-2.311-.543-.402-.366-.603-1.041-.603-2.026v-3.497h-1.939v-1.525h1.939v-2.156zm6.466 5.151v2.996h1.329c.637 0 1.082-.108 1.335-.325.257-.217.386-.594.386-1.132 0-.547-.133-.94-.4-1.179-.266-.24-.707-.36-1.321-.36zm0-3.944v2.352h1.329c.506 0 .865-.091 1.077-.271.217-.181.326-.479.326-.895s-.111-.716-.332-.901c-.217-.19-.574-.285-1.071-.285zm-1.931-1.593h3.26c1.125 0 1.97.215 2.535.644.569.425.854 1.062.854 1.911 0 .651-.168 1.159-.502 1.525s-.825.579-1.471.637c.773.077 1.353.337 1.742.78.393.443.59 1.062.59 1.857 0 .976-.294 1.683-.881 2.121-.588.439-1.543.658-2.867.658h-3.26zm12.335 10.953c-.267.714-.587 1.233-.963 1.559-.37.329-.822.494-1.355.494h-1.64v-1.511h.806c.407 0 .705-.07.895-.21.19-.136.382-.454.576-.956l.149-.406-2.887-7.381h2.087l1.735 4.927 1.661-4.927h2.087zm4.71-9.177v-1.762h6.026v1.762h-2.013v6.594h2.013v1.763h-6.026v-1.763h2.013v-6.594zm12.559 1.843v-4.032h1.979v10.546h-1.979v-1.125c-.212.438-.488.768-.827.989-.334.222-.729.332-1.186.332-.867 0-1.54-.348-2.019-1.044-.479-.695-.719-1.676-.719-2.941 0-1.283.242-2.268.725-2.955.488-.687 1.182-1.03 2.081-1.03.407 0 .77.106 1.091.318.326.208.61.522.854.942zm-2.765 2.739c0 .732.122 1.305.366 1.721s.581.624 1.01.624.768-.208 1.016-.624c.249-.416.373-.989.373-1.721s-.124-1.306-.373-1.722c-.248-.416-.587-.624-1.016-.624s-.766.208-1.01.624-.366.99-.366 1.722zm12.03-6.758c-.596 1.08-1.039 2.126-1.328 3.138s-.434 2.025-.434 3.037c0 1.003.145 2.015.434 3.036.289 1.017.732 2.067 1.328 3.152h-1.545c-.719-1.044-1.252-2.072-1.6-3.084-.348-1.017-.521-2.052-.521-3.104 0-1.049.173-2.081.521-3.098.353-1.021.886-2.047 1.6-3.077zm7.137.414v3.761h-1.735v-3.761zm9.089 6.344c0-.732-.122-1.306-.366-1.722s-.581-.624-1.01-.624-.768.208-1.017.624c-.248.416-.372.99-.372 1.722s.124 1.305.372 1.721c.249.416.588.624 1.017.624s.766-.208 1.01-.624.366-.989.366-1.721zm-2.765-2.739c.244-.42.526-.734.847-.942.325-.212.691-.318 1.098-.318.899 0 1.59.343 2.074 1.03.488.687.732 1.672.732 2.955 0 1.265-.24 2.246-.719 2.941-.479.696-1.152 1.044-2.02 1.044-.456 0-.853-.11-1.192-.332-.339-.221-.613-.551-.82-.989v1.125h-1.98v-10.546h1.98zm10.044-3.233v2.156h2.596v1.525h-2.596v3.592c0 .339.081.583.244.732.167.144.443.217.827.217h1.525v1.525h-1.668c-1.138 0-1.909-.181-2.311-.543-.402-.366-.603-1.041-.603-2.026v-3.497h-1.938v-1.525h1.938v-2.156zm10.946 4.819v4.928h-1.973v-4.623c0-.551-.079-.944-.237-1.179-.153-.239-.406-.359-.759-.359-.357 0-.639.16-.847.481-.203.321-.305.766-.305 1.335v4.345h-1.972v-7.591h1.972v1.138c.14-.42.38-.745.718-.976.339-.23.748-.345 1.227-.345.719 0 1.261.239 1.627.718.366.475.549 1.184.549 2.128zm6.14-5.191v3.761h-1.735v-3.761zm5.422-.414h1.546c.714 1.03 1.244 2.056 1.592 3.077.353 1.017.529 2.049.529 3.098 0 1.052-.174 2.087-.522 3.104-.348 1.012-.881 2.04-1.599 3.084h-1.546c.597-1.085 1.04-2.135 1.329-3.152.289-1.021.434-2.033.434-3.036 0-1.012-.145-2.025-.434-3.037s-.732-2.058-1.329-3.138zm-342.377 39.368v-5.856h-2.013v-1.525h3.999v7.381c0 .596.092 1.018.278 1.267.185.248.499.373.942.373h1.586v1.525h-2.142c-.944 0-1.622-.244-2.033-.732s-.617-1.299-.617-2.433zm13.21 2.792c-.461.19-.931.332-1.41.427s-.985.142-1.518.142c-1.27 0-2.241-.339-2.915-1.016-.668-.683-1.003-1.663-1.003-2.942 0-1.238.323-2.216.969-2.935.647-.718 1.528-1.077 2.644-1.077 1.125 0 1.997.334 2.616 1.003.623.664.935 1.602.935 2.813v.806h-5.144c.004.596.181 1.042.529 1.335.347.294.867.441 1.558.441.457 0 .906-.066 1.349-.197s.906-.339 1.39-.623zm-1.681-4.27c-.009-.524-.145-.919-.407-1.186-.257-.271-.639-.407-1.145-.407-.457 0-.82.14-1.092.42-.271.276-.431.669-.481 1.18zm7.252-5.104v2.156h2.596v1.525h-2.596v3.592c0 .339.081.583.244.732.167.144.443.217.827.217h1.525v1.525h-1.668c-1.138 0-1.909-.181-2.311-.543-.402-.366-.603-1.041-.603-2.026v-3.497h-1.938v-1.525h1.938v-2.156zm19.241 9.36c-.334.195-.693.339-1.077.434-.384.1-.798.149-1.241.149-1.17 0-2.085-.352-2.744-1.057-.66-.705-.99-1.681-.99-2.928 0-1.252.332-2.23.996-2.935.664-.709 1.582-1.064 2.752-1.064.407 0 .797.048 1.173.143.379.094.756.241 1.131.44v1.816c-.289-.248-.607-.438-.955-.569-.344-.135-.701-.203-1.071-.203-.646 0-1.143.205-1.491.617-.348.411-.522.996-.522 1.755s.174 1.342.522 1.749c.348.406.845.61 1.491.61.384 0 .743-.064 1.078-.19.334-.131.65-.328.948-.59zm5.348-5.774c-.475 0-.847.21-1.118.63-.272.416-.407.996-.407 1.742s.135 1.328.407 1.749c.271.415.643.623 1.118.623.479 0 .854-.208 1.125-.623.271-.421.407-1.003.407-1.749s-.136-1.326-.407-1.742c-.271-.42-.646-.63-1.125-.63zm-3.511 2.372c0-1.225.316-2.194.949-2.908.637-.718 1.491-1.077 2.562-1.077 1.075 0 1.929.359 2.562 1.077.637.714.955 1.683.955 2.908 0 1.224-.318 2.196-.955 2.914-.633.714-1.487 1.071-2.562 1.071-1.071 0-1.925-.357-2.562-1.071-.633-.718-.949-1.69-.949-2.914zm8.784 1.139v-4.941h1.986v4.636c0 .546.077.937.23 1.172.154.235.409.353.766.353s.635-.159.834-.475c.203-.316.305-.759.305-1.328v-4.358h1.985v7.591h-1.985v-1.125c-.14.42-.38.745-.719.976-.334.23-.739.345-1.213.345-.723 0-1.27-.239-1.64-.718-.366-.479-.549-1.189-.549-2.128zm14.538-2.278v4.928h-1.972v-4.623c0-.551-.08-.944-.238-1.179-.153-.239-.406-.359-.759-.359-.357 0-.639.16-.847.481-.203.321-.305.766-.305 1.335v4.345h-1.972v-7.591h1.972v1.138c.14-.42.38-.745.718-.976.339-.23.748-.345 1.227-.345.719 0 1.261.239 1.627.718.366.475.549 1.184.549 2.128zm5.781-4.819v2.156h2.596v1.525h-2.596v3.592c0 .339.081.583.244.732.167.144.443.217.827.217h1.525v1.525h-1.667c-1.139 0-1.909-.181-2.312-.543-.402-.366-.603-1.041-.603-2.026v-3.497h-1.938v-1.525h1.938v-2.156zm12.647 6.141h7.164v1.606h-7.164zm0-3.084h7.164v1.593h-7.164zm16.964 1.64c0-1.753.278-3.065.834-3.937.556-.877 1.392-1.315 2.508-1.315 1.12 0 1.959.436 2.514 1.308.556.872.834 2.187.834 3.944 0 1.753-.278 3.066-.834 3.938-.555.872-1.394 1.308-2.514 1.308-1.116 0-1.952-.436-2.508-1.308-.556-.876-.834-2.189-.834-3.938zm2.332 2.705c.212.564.549.847 1.01.847.465 0 .804-.283 1.016-.847.213-.565.319-1.467.319-2.705 0-.47-.016-.89-.047-1.26l-2.366 3.768c.023.072.045.138.068.197zm1.01-6.263c-.461 0-.798.282-1.01.847s-.319 1.469-.319 2.711c0 .384.009.735.028 1.051l2.331-3.721c-.004-.014-.009-.027-.014-.041-.212-.565-.551-.847-1.016-.847zm-99.529 32.353v.664h2.331v1.525h-2.331v6.066h-1.986v-6.066h-1.844v-1.525h1.844v-.529c0-.913.19-1.545.569-1.898.38-.352 1.085-.528 2.115-.528h1.633v1.525h-1.552c-.298 0-.501.054-.61.162-.104.109-.16.31-.169.604zm4.439 5.605v-4.941h1.986v4.636c0 .546.077.937.23 1.172.154.235.409.353.766.353s.635-.159.834-.475c.203-.316.305-.759.305-1.328v-4.358h1.986v7.591h-1.986v-1.125c-.14.42-.38.745-.719.976-.334.23-.738.345-1.213.345-.723 0-1.269-.239-1.64-.718-.366-.479-.549-1.189-.549-2.128zm14.538-2.278v4.928h-1.972v-4.623c0-.551-.079-.944-.237-1.179-.154-.239-.407-.359-.76-.359-.357 0-.639.16-.847.481-.203.321-.305.766-.305 1.335v4.345h-1.972v-7.591h1.972v1.138c.14-.42.38-.745.719-.976.339-.23.747-.345 1.226-.345.719 0 1.261.239 1.627.718.366.475.549 1.184.549 2.128zm8.296 4.541c-.335.195-.694.339-1.078.434-.384.1-.797.149-1.24.149-1.17 0-2.085-.352-2.745-1.057s-.99-1.681-.99-2.928c0-1.252.333-2.23.997-2.935.664-.709 1.581-1.064 2.751-1.064.407 0 .798.048 1.173.143.379.094.757.241 1.132.44v1.816c-.289-.248-.608-.438-.956-.569-.343-.135-.7-.203-1.071-.203-.646 0-1.143.205-1.491.617-.348.411-.522.996-.522 1.755s.174 1.342.522 1.749c.348.406.845.61 1.491.61.384 0 .744-.064 1.078-.19.334-.131.651-.328.949-.59zm5.849-9.36v2.156h2.596v1.525h-2.596v3.592c0 .339.081.583.244.732.167.144.443.217.827.217h1.525v1.525h-1.668c-1.138 0-1.909-.181-2.311-.543-.402-.366-.603-1.041-.603-2.026v-3.497h-1.938v-1.525h1.938v-2.156zm5.185 2.156h3.931v6.066h2.467v1.525h-6.927v-1.525h2.474v-4.541h-1.945zm1.945-3.694h1.986v2.318h-1.986zm9.095 5.124c-.474 0-.847.21-1.118.63-.271.416-.406.996-.406 1.742s.135 1.328.406 1.749c.271.415.644.623 1.118.623.479 0 .854-.208 1.126-.623.271-.421.406-1.003.406-1.749s-.135-1.326-.406-1.742c-.272-.42-.647-.63-1.126-.63zm-3.51 2.372c0-1.225.316-2.194.949-2.908.637-.718 1.491-1.077 2.561-1.077 1.076 0 1.93.359 2.562 1.077.637.714.956 1.683.956 2.908 0 1.224-.319 2.196-.956 2.914-.632.714-1.486 1.071-2.562 1.071-1.07 0-1.924-.357-2.561-1.071-.633-.718-.949-1.69-.949-2.914zm14.958-1.139v4.928h-1.972v-4.623c0-.551-.08-.944-.238-1.179-.153-.239-.406-.359-.759-.359-.357 0-.639.16-.847.481-.203.321-.305.766-.305 1.335v4.345h-1.972v-7.591h1.972v1.138c.14-.42.38-.745.718-.976.339-.23.748-.345 1.227-.345.719 0 1.261.239 1.627.718.366.475.549 1.184.549 2.128zm17.269-.569c-.217-.199-.472-.348-.766-.447-.289-.1-.607-.149-.955-.149-.421 0-.789.074-1.105.223-.312.145-.554.357-.725.637-.109.172-.186.38-.231.624-.04.244-.061.614-.061 1.111v3.498h-1.986v-7.591h1.986v1.179c.195-.434.493-.768.895-1.003.402-.24.872-.359 1.41-.359.271 0 .535.034.793.101.262.064.51.159.745.285zm8.032 5.124c-.461.19-.931.332-1.41.427s-.985.142-1.518.142c-1.27 0-2.241-.339-2.915-1.016-.668-.683-1.003-1.663-1.003-2.942 0-1.238.323-2.216.969-2.935.647-.718 1.528-1.077 2.644-1.077 1.125 0 1.997.334 2.616 1.003.623.664.935 1.602.935 2.813v.806h-5.144c.004.596.181 1.042.529 1.335.348.294.867.441 1.558.441.457 0 .906-.066 1.349-.197s.906-.339 1.39-.623zm-1.681-4.27c-.009-.524-.145-.919-.407-1.186-.257-.271-.639-.407-1.145-.407-.457 0-.82.14-1.091.42-.272.276-.432.669-.482 1.18zm9.834-.285v4.928h-1.972v-4.623c0-.551-.079-.944-.237-1.179-.154-.239-.407-.359-.76-.359-.356 0-.639.16-.847.481-.203.321-.305.766-.305 1.335v4.345h-1.972v-7.591h1.972v1.138c.14-.42.38-.745.719-.976.339-.23.748-.345 1.226-.345.719 0 1.261.239 1.627.718.366.475.549 1.184.549 2.128zm6.466-1.586v-4.032h1.979v10.546h-1.979v-1.125c-.212.438-.488.768-.827.989-.334.222-.73.332-1.186.332-.868 0-1.541-.348-2.02-1.044-.479-.695-.718-1.676-.718-2.941 0-1.283.242-2.268.725-2.955.488-.687 1.182-1.03 2.081-1.03.406 0 .77.106 1.091.318.325.208.61.522.854.942zm-2.765 2.739c0 .732.122 1.305.366 1.721s.58.624 1.01.624c.429 0 .768-.208 1.016-.624.249-.416.373-.989.373-1.721s-.124-1.306-.373-1.722c-.248-.416-.587-.624-1.016-.624-.43 0-.766.208-1.01.624s-.366.99-.366 1.722zm13.236 3.402c-.461.19-.93.332-1.409.427s-.985.142-1.519.142c-1.269 0-2.241-.339-2.914-1.016-.669-.683-1.003-1.663-1.003-2.942 0-1.238.323-2.216.969-2.935.646-.718 1.527-1.077 2.643-1.077 1.125 0 1.998.334 2.617 1.003.623.664.935 1.602.935 2.813v.806h-5.144c.004.596.18 1.042.528 1.335.348.294.868.441 1.559.441.457 0 .906-.066 1.349-.197s.906-.339 1.389-.623zm-1.681-4.27c-.009-.524-.144-.919-.406-1.186-.258-.271-.64-.407-1.146-.407-.456 0-.82.14-1.091.42-.271.276-.431.669-.481 1.18zm10.377-.854c-.217-.199-.472-.348-.766-.447-.289-.1-.608-.149-.956-.149-.42 0-.788.074-1.104.223-.312.145-.554.357-.725.637-.109.172-.186.38-.231.624-.041.244-.061.614-.061 1.111v3.498h-1.986v-7.591h1.986v1.179c.194-.434.493-.768.895-1.003.402-.24.872-.359 1.409-.359.272 0 .536.034.793.101.262.064.511.159.746.285zm6.825-5.036c-.596 1.08-1.039 2.126-1.328 3.138-.29 1.012-.434 2.025-.434 3.037 0 1.003.144 2.015.434 3.036.289 1.017.732 2.067 1.328 3.152h-1.545c-.719-1.044-1.252-2.072-1.6-3.084-.348-1.017-.522-2.052-.522-3.104 0-1.049.174-2.081.522-3.098.353-1.021.886-2.047 1.6-3.077zm4.195 0h1.546c.714 1.03 1.244 2.056 1.592 3.077.353 1.017.529 2.049.529 3.098 0 1.052-.174 2.087-.522 3.104-.348 1.012-.881 2.04-1.599 3.084h-1.546c.597-1.085 1.04-2.135 1.329-3.152.289-1.021.434-2.033.434-3.036 0-1.012-.145-2.025-.434-3.037s-.732-2.058-1.329-3.138zm21.77 11.502v1.294h-1.017c-1.125 0-1.879-.167-2.263-.501-.38-.335-.57-1.001-.57-2v-1.457c0-.682-.122-1.152-.366-1.409-.239-.263-.675-.394-1.308-.394h-.42v-1.294h.42c.633 0 1.069-.129 1.308-.386.244-.258.366-.73.366-1.417v-1.457c0-.999.19-1.663.57-1.993.384-.334 1.138-.501 2.263-.501h1.017v1.287h-.834c-.47 0-.784.095-.942.285s-.237.608-.237 1.254v1.416c0 .746-.111 1.27-.332 1.573s-.617.497-1.186.583c.569.095.965.296 1.186.603s.332.831.332 1.572v1.39c0 .65.079 1.071.237 1.26.158.195.472.292.942.292zm-135.193 11.256c0-.732-.122-1.306-.366-1.722s-.58-.624-1.01-.624c-.429 0-.768.208-1.016.624-.249.416-.373.99-.373 1.722s.124 1.305.373 1.721c.248.416.587.624 1.016.624.43 0 .766-.208 1.01-.624s.366-.989.366-1.721zm-2.765-2.739c.244-.42.526-.734.847-.942.325-.212.691-.318 1.098-.318.899 0 1.591.343 2.074 1.03.488.687.732 1.672.732 2.955 0 1.265-.239 2.246-.718 2.941-.479.696-1.153 1.044-2.02 1.044-.456 0-.854-.11-1.193-.332-.339-.221-.612-.551-.82-.989v1.125h-1.979v-10.546h1.979zm10.044-3.233v2.156h2.596v1.525h-2.596v3.592c0 .339.082.583.244.732.167.144.443.217.827.217h1.525v1.525h-1.667c-1.139 0-1.909-.181-2.311-.543-.402-.366-.604-1.041-.604-2.026v-3.497h-1.938v-1.525h1.938v-2.156zm10.946 4.819v4.928h-1.972v-4.623c0-.551-.079-.944-.237-1.179-.154-.239-.407-.359-.759-.359-.357 0-.64.16-.848.481-.203.321-.305.766-.305 1.335v4.345h-1.972v-7.591h1.972v1.138c.14-.42.38-.745.719-.976.339-.23.748-.345 1.227-.345.718 0 1.26.239 1.626.718.366.475.549 1.184.549 2.128zm4.148 2.44h2.257v2.488h-2.257zm6.818-5.103h3.931v6.066h2.467v1.525h-6.926v-1.525h2.473v-4.541h-1.945zm1.945-3.694h1.986v2.318h-1.986zm12.18 6.357v4.928h-1.972v-4.623c0-.551-.08-.944-.238-1.179-.153-.239-.406-.359-.759-.359-.357 0-.639.16-.847.481-.203.321-.305.766-.305 1.335v4.345h-1.972v-7.591h1.972v1.138c.14-.42.38-.745.718-.976.339-.23.748-.345 1.227-.345.719 0 1.261.239 1.627.718.366.475.549 1.184.549 2.128zm8.363 0v4.928h-1.972v-4.623c0-.551-.079-.944-.237-1.179-.154-.239-.407-.359-.759-.359-.357 0-.64.16-.847.481-.204.321-.305.766-.305 1.335v4.345h-1.973v-7.591h1.973v1.138c.14-.42.379-.745.718-.976.339-.23.748-.345 1.227-.345.718 0 1.26.239 1.626.718.366.475.549 1.184.549 2.128zm8.574 4.555c-.461.19-.931.332-1.41.427s-.985.142-1.518.142c-1.27 0-2.241-.339-2.914-1.016-.669-.683-1.003-1.663-1.003-2.942 0-1.238.323-2.216.969-2.935.646-.718 1.527-1.077 2.643-1.077 1.125 0 1.997.334 2.616 1.003.624.664.936 1.602.936 2.813v.806h-5.145c.005.596.181 1.042.529 1.335.348.294.868.441 1.559.441.456 0 .906-.066 1.349-.197.442-.131.906-.339 1.389-.623zm-1.681-4.27c-.009-.524-.144-.919-.406-1.186-.258-.271-.64-.407-1.146-.407-.456 0-.82.14-1.091.42-.271.276-.432.669-.481 1.18zm10.377-.854c-.217-.199-.472-.348-.766-.447-.289-.1-.608-.149-.956-.149-.42 0-.788.074-1.105.223-.311.145-.553.357-.725.637-.108.172-.185.38-.23.624-.041.244-.061.614-.061 1.111v3.498h-1.986v-7.591h1.986v1.179c.194-.434.492-.768.894-1.003.403-.24.873-.359 1.41-.359.271 0 .536.034.793.101.262.064.511.159.746.285zm5.74 5.497h-1.999v-8.371h-2.569v-1.748h7.137v1.748h-2.569zm10.655-.373c-.461.19-.931.332-1.41.427s-.985.142-1.518.142c-1.27 0-2.241-.339-2.915-1.016-.668-.683-1.003-1.663-1.003-2.942 0-1.238.323-2.216.97-2.935.646-.718 1.527-1.077 2.643-1.077 1.125 0 1.997.334 2.616 1.003.624.664.935 1.602.935 2.813v.806h-5.144c.005.596.181 1.042.529 1.335.348.294.867.441 1.559.441.456 0 .906-.066 1.348-.197.443-.131.906-.339 1.39-.623zm-1.681-4.27c-.009-.524-.145-.919-.407-1.186-.257-.271-.639-.407-1.145-.407-.457 0-.82.14-1.091.42-.271.276-.432.669-.482 1.18zm10.336-2.948-2.555 3.633 2.778 3.958h-2.318l-1.491-2.556-1.484 2.556h-2.318l2.806-3.958-2.582-3.633h2.318l1.26 2.263 1.268-2.263zm5.279-2.156v2.156h2.596v1.525h-2.596v3.592c0 .339.082.583.244.732.168.144.443.217.827.217h1.525v1.525h-1.667c-1.139 0-1.909-.181-2.311-.543-.402-.366-.603-1.041-.603-2.026v-3.497h-1.939v-1.525h1.939v-2.156zm12.647 6.141h7.164v1.606h-7.164zm0-3.084h7.164v1.593h-7.164zm19.391-4.412 1.918 2.548h-1.335l-2.494-2.548zm12.43 10.81c-.316.163-.648.285-.996.366-.348.082-.714.122-1.098.122-1.365 0-2.406-.449-3.124-1.349-.719-.899-1.078-2.198-1.078-3.897 0-1.703.359-3.004 1.078-3.904.718-.899 1.759-1.348 3.124-1.348.384 0 .752.04 1.105.122.352.081.682.203.989.366v2.223c-.343-.317-.677-.547-1.003-.692-.321-.149-.653-.223-.996-.223-.732 0-1.286.291-1.661.874-.37.578-.555 1.439-.555 2.582 0 1.139.185 2 .555 2.583.375.578.929.867 1.661.867.343 0 .675-.072.996-.217.326-.149.66-.382 1.003-.698zm5.212-5.869c-.474 0-.847.21-1.118.63-.271.416-.407.996-.407 1.742s.136 1.328.407 1.749c.271.415.644.623 1.118.623.479 0 .854-.208 1.125-.623.271-.421.407-1.003.407-1.749s-.136-1.326-.407-1.742c-.271-.42-.646-.63-1.125-.63zm-3.51 2.372c0-1.225.316-2.194.948-2.908.637-.718 1.491-1.077 2.562-1.077 1.076 0 1.93.359 2.562 1.077.637.714.956 1.683.956 2.908 0 1.224-.319 2.196-.956 2.914-.632.714-1.486 1.071-2.562 1.071-1.071 0-1.925-.357-2.562-1.071-.632-.718-.948-1.69-.948-2.914zm8.783 1.139v-4.941h1.986v4.636c0 .546.077.937.231 1.172.153.235.408.353.765.353s.635-.159.834-.475c.203-.316.305-.759.305-1.328v-4.358h1.986v7.591h-1.986v-1.125c-.14.42-.379.745-.718.976-.335.23-.739.345-1.214.345-.722 0-1.269-.239-1.64-.718-.366-.479-.549-1.189-.549-2.128zm14.538-2.278v4.928h-1.972v-4.623c0-.551-.079-.944-.237-1.179-.154-.239-.407-.359-.759-.359-.357 0-.64.16-.848.481-.203.321-.305.766-.305 1.335v4.345h-1.972v-7.591h1.972v1.138c.141-.42.38-.745.719-.976.339-.23.748-.345 1.227-.345.718 0 1.26.239 1.626.718.366.475.549 1.184.549 2.128zm5.782-4.819v2.156h2.595v1.525h-2.595v3.592c0 .339.081.583.244.732.167.144.442.217.826.217h1.525v1.525h-1.667c-1.139 0-1.909-.181-2.311-.543-.402-.366-.603-1.041-.603-2.026v-3.497h-1.939v-1.525h1.939v-2.156zm6.73 2.542h2.257v2.474h-2.257zm0 4.717h2.257v2.488h-2.257zm18.387-1.091v2.047c.285-.041.506-.149.665-.325.158-.181.237-.409.237-.685 0-.28-.079-.508-.237-.684-.154-.181-.375-.299-.665-.353zm-.955-1.959v-1.918c-.28.036-.493.131-.637.285-.14.149-.211.355-.211.617 0 .257.071.472.211.644.144.171.357.296.637.372zm.955 7.578h-.955l-.007-2.04c-.393-.014-.804-.073-1.234-.177-.429-.103-.876-.253-1.342-.447v-1.776c.466.276.915.488 1.349.637.438.15.85.226 1.234.231v-2.23c-.89-.176-1.552-.479-1.986-.908-.434-.434-.651-1.005-.651-1.715 0-.754.231-1.355.692-1.803.46-.447 1.109-.698 1.945-.752v-1.606h.955l.007 1.606c.321.018.653.059.996.122.348.063.703.151 1.064.264v1.735c-.28-.18-.591-.325-.935-.433-.343-.109-.72-.177-1.132-.204v2.081c.89.14 1.561.445 2.013.915.457.465.685 1.087.685 1.864 0 .741-.246 1.349-.739 1.823-.488.474-1.139.732-1.952.773zm10.797-1.071v1.294h-1.017c-1.125 0-1.879-.167-2.263-.501-.38-.335-.57-1.001-.57-2v-1.457c0-.682-.122-1.152-.366-1.409-.239-.263-.675-.394-1.308-.394h-.42v-1.294h.42c.633 0 1.069-.129 1.308-.386.244-.258.366-.73.366-1.417v-1.457c0-.999.19-1.663.57-1.993.384-.334 1.138-.501 2.263-.501h1.017v1.287h-.834c-.47 0-.784.095-.942.285s-.237.608-.237 1.254v1.416c0 .746-.111 1.27-.332 1.573s-.617.497-1.186.583c.569.095.965.296 1.186.603s.332.831.332 1.572v1.39c0 .65.079 1.071.237 1.26.158.195.472.292.942.292zm8.418-1.356c-.335.195-.694.339-1.078.434-.384.1-.797.149-1.24.149-1.17 0-2.085-.352-2.745-1.057s-.99-1.681-.99-2.928c0-1.252.333-2.23.997-2.935.664-.709 1.581-1.064 2.751-1.064.407 0 .798.048 1.173.143.38.094.757.241 1.132.44v1.816c-.289-.248-.608-.438-.956-.569-.343-.135-.7-.203-1.071-.203-.646 0-1.143.205-1.491.617-.348.411-.522.996-.522 1.755s.174 1.342.522 1.749c.348.406.845.61 1.491.61.384 0 .744-.064 1.078-.19.334-.131.651-.328.949-.59zm5.347-5.774c-.474 0-.847.21-1.118.63-.271.416-.407.996-.407 1.742s.136 1.328.407 1.749c.271.415.644.623 1.118.623.479 0 .854-.208 1.125-.623.272-.421.407-1.003.407-1.749s-.135-1.326-.407-1.742c-.271-.42-.646-.63-1.125-.63zm-3.51 2.372c0-1.225.316-2.194.948-2.908.638-.718 1.491-1.077 2.562-1.077 1.076 0 1.93.359 2.562 1.077.637.714.956 1.683.956 2.908 0 1.224-.319 2.196-.956 2.914-.632.714-1.486 1.071-2.562 1.071-1.071 0-1.924-.357-2.562-1.071-.632-.718-.948-1.69-.948-2.914zm8.783 1.139v-4.941h1.986v4.636c0 .546.077.937.231 1.172.153.235.409.353.765.353.357 0 .635-.159.834-.475.203-.316.305-.759.305-1.328v-4.358h1.986v7.591h-1.986v-1.125c-.14.42-.379.745-.718.976-.335.23-.739.345-1.214.345-.722 0-1.269-.239-1.64-.718-.366-.479-.549-1.189-.549-2.128zm14.538-2.278v4.928h-1.972v-4.623c0-.551-.079-.944-.237-1.179-.154-.239-.407-.359-.759-.359-.357 0-.64.16-.847.481-.204.321-.305.766-.305 1.335v4.345h-1.973v-7.591h1.973v1.138c.14-.42.379-.745.718-.976.339-.23.748-.345 1.227-.345.718 0 1.26.239 1.626.718.366.475.549 1.184.549 2.128zm5.782-4.819v2.156h2.595v1.525h-2.595v3.592c0 .339.081.583.244.732.167.144.442.217.826.217h1.525v1.525h-1.667c-1.139 0-1.909-.181-2.311-.543-.402-.366-.603-1.041-.603-2.026v-3.497h-1.939v-1.525h1.939v-2.156zm4.907 10.716h.82c.47 0 .786-.097.949-.292.162-.194.244-.614.244-1.26v-1.39c0-.741.11-1.265.332-1.572.221-.307.614-.508 1.179-.603-.569-.086-.965-.28-1.186-.583-.217-.303-.325-.827-.325-1.573v-1.416c0-.637-.082-1.053-.244-1.247-.159-.194-.475-.292-.949-.292h-.82v-1.287h1.016c1.121 0 1.869.167 2.244.501.379.33.569.994.569 1.993v1.457c0 .682.122 1.154.366 1.417.248.257.691.386 1.328.386h.421v1.294h-.421c-.637 0-1.08.131-1.328.394-.244.262-.366.731-.366 1.409v1.457c0 .999-.19 1.665-.569 2-.375.334-1.123.501-2.244.501h-1.016zm10.403-12.071 1.918 2.548h-1.335l-2.494-2.548zm-286.401 28.071h.82c.47 0 .786-.097.949-.292.163-.194.244-.614.244-1.26v-1.39c0-.741.111-1.265.332-1.572.222-.307.615-.508 1.179-.603-.569-.086-.964-.28-1.186-.583-.217-.303-.325-.827-.325-1.573v-1.416c0-.637-.081-1.053-.244-1.247-.158-.194-.474-.292-.949-.292h-.82v-1.287h1.017c1.12 0 1.868.167 2.243.501.38.33.569.994.569 1.993v1.457c0 .682.122 1.154.366 1.417.249.257.692.386 1.329.386h.42v1.294h-.42c-.637 0-1.08.131-1.329.394-.244.262-.366.731-.366 1.409v1.457c0 .999-.189 1.665-.569 2-.375.334-1.123.501-2.243.501h-1.017zm4.541 27.256c0-.732-.122-1.306-.366-1.722s-.581-.624-1.01-.624-.768.208-1.016.624c-.249.416-.373.99-.373 1.722s.124 1.305.373 1.721c.248.416.587.624 1.016.624s.766-.208 1.01-.624.366-.989.366-1.721zm-2.765-2.739c.244-.42.526-.734.847-.942.325-.212.691-.318 1.098-.318.899 0 1.59.343 2.074 1.03.488.687.732 1.672.732 2.955 0 1.265-.24 2.246-.719 2.941-.478.696-1.152 1.044-2.019 1.044-.457 0-.854-.11-1.193-.332-.339-.221-.612-.551-.82-.989v1.125h-1.979v-10.546h1.979zm10.044-3.233v2.156h2.596v1.525h-2.596v3.592c0 .339.082.583.244.732.167.144.443.217.827.217h1.525v1.525h-1.667c-1.139 0-1.909-.181-2.311-.543-.403-.366-.604-1.041-.604-2.026v-3.497h-1.938v-1.525h1.938v-2.156zm10.946 4.819v4.928h-1.972v-4.623c0-.551-.079-.944-.237-1.179-.154-.239-.407-.359-.76-.359-.357 0-.639.16-.847.481-.203.321-.305.766-.305 1.335v4.345h-1.972v-7.591h1.972v1.138c.14-.42.38-.745.719-.976.339-.23.747-.345 1.226-.345.719 0 1.261.239 1.627.718.366.475.549 1.184.549 2.128zm4.148 2.44h2.257v2.488h-2.257zm10.065-1.077c-.741 0-1.259.095-1.552.284-.294.19-.441.515-.441.976 0 .344.102.617.305.82.203.204.479.305.827.305.524 0 .931-.196 1.22-.589.289-.398.434-.951.434-1.661v-.135zm2.765-.766v4.331h-1.972v-.848c-.24.335-.547.592-.922.773s-.789.271-1.24.271c-.863 0-1.537-.228-2.02-.684-.479-.457-.719-1.094-.719-1.912 0-.885.287-1.538.861-1.958.574-.425 1.462-.637 2.664-.637h1.376v-.333c0-.32-.118-.562-.353-.725-.23-.167-.571-.251-1.023-.251-.475 0-.936.061-1.383.183-.443.118-.906.308-1.389.57v-1.695c.438-.18.883-.314 1.335-.399.452-.086.931-.129 1.437-.129 1.233 0 2.099.251 2.596.752.501.502.752 1.399.752 2.691zm6.215-2.183v-4.032h1.979v10.546h-1.979v-1.125c-.212.438-.488.768-.827.989-.334.222-.73.332-1.186.332-.868 0-1.541-.348-2.02-1.044-.479-.695-.718-1.676-.718-2.941 0-1.283.242-2.268.725-2.955.488-.687 1.182-1.03 2.081-1.03.406 0 .77.106 1.091.318.325.208.61.522.854.942zm-2.765 2.739c0 .732.122 1.305.366 1.721s.58.624 1.01.624c.429 0 .768-.208 1.016-.624.249-.416.373-.989.373-1.721s-.124-1.306-.373-1.722c-.248-.416-.587-.624-1.016-.624-.43 0-.766.208-1.01.624s-.366.99-.366 1.722zm11.129-2.739v-4.032h1.979v10.546h-1.979v-1.125c-.213.438-.488.768-.827.989-.335.222-.73.332-1.186.332-.868 0-1.541-.348-2.02-1.044-.479-.695-.719-1.676-.719-2.941 0-1.283.242-2.268.726-2.955.488-.687 1.181-1.03 2.08-1.03.407 0 .771.106 1.092.318.325.208.61.522.854.942zm-2.766 2.739c0 .732.122 1.305.366 1.721s.581.624 1.01.624.768-.208 1.017-.624c.248-.416.373-.989.373-1.721s-.125-1.306-.373-1.722c-.249-.416-.588-.624-1.017-.624s-.766.208-1.01.624-.366.99-.366 1.722zm13.21 3.775h-6.303v-10.119h6.303v1.762h-4.304v2.182h3.897v1.762h-3.897v2.65h4.304zm8.736-7.591-2.413 7.591h-2.446l-2.413-7.591h2.013l1.62 5.923 1.626-5.923zm8.018 7.218c-.461.19-.931.332-1.41.427s-.985.142-1.518.142c-1.27 0-2.241-.339-2.914-1.016-.669-.683-1.003-1.663-1.003-2.942 0-1.238.323-2.216.969-2.935.646-.718 1.527-1.077 2.643-1.077 1.125 0 1.997.334 2.616 1.003.624.664.936 1.602.936 2.813v.806h-5.145c.005.596.181 1.042.529 1.335.348.294.868.441 1.559.441.456 0 .906-.066 1.349-.197.442-.131.906-.339 1.389-.623zm-1.681-4.27c-.009-.524-.144-.919-.406-1.186-.258-.271-.64-.407-1.146-.407-.456 0-.82.14-1.091.42-.271.276-.432.669-.481 1.18zm9.835-.285v4.928h-1.973v-4.623c0-.551-.079-.944-.237-1.179-.154-.239-.407-.359-.759-.359-.357 0-.639.16-.847.481-.204.321-.305.766-.305 1.335v4.345h-1.973v-7.591h1.973v1.138c.14-.42.379-.745.718-.976.339-.23.748-.345 1.227-.345.718 0 1.261.239 1.627.718.366.475.549 1.184.549 2.128zm5.781-4.819v2.156h2.596v1.525h-2.596v3.592c0 .339.081.583.244.732.167.144.443.217.827.217h1.525v1.525h-1.668c-1.138 0-1.909-.181-2.311-.543-.402-.366-.603-1.041-.603-2.026v-3.497h-1.938v-1.525h1.938v-2.156zm5.212 9.747v-10.119h1.999v8.356h4.277v1.763zm8.336-7.591h3.931v6.066h2.467v1.525h-6.926v-1.525h2.473v-4.541h-1.945zm1.945-3.694h1.986v2.318h-1.986zm11.638 3.931v1.735c-.366-.235-.748-.411-1.146-.529-.393-.122-.788-.183-1.186-.183-.443 0-.777.066-1.003.197-.226.126-.339.316-.339.569 0 .362.484.655 1.45.881l.075.021.569.135c.723.172 1.252.45 1.586.834.339.379.509.895.509 1.545 0 .782-.258 1.369-.773 1.762-.511.389-1.281.583-2.311.583-.457 0-.924-.04-1.403-.122-.479-.077-.965-.194-1.457-.352v-1.735c.438.248.883.438 1.335.569.456.131.897.197 1.322.197.465 0 .817-.068 1.057-.204.239-.135.359-.332.359-.589 0-.253-.086-.448-.258-.583-.167-.136-.569-.28-1.206-.434l-.549-.122c-.759-.172-1.313-.441-1.66-.807-.348-.366-.522-.856-.522-1.47 0-.732.264-1.302.793-1.708.528-.407 1.272-.61 2.23-.61.429 0 .856.036 1.28.108.43.068.845.172 1.248.312zm6.323-2.393v2.156h2.596v1.525h-2.596v3.592c0 .339.081.583.244.732.167.144.443.217.827.217h1.525v1.525h-1.667c-1.139 0-1.909-.181-2.312-.543-.402-.366-.603-1.041-.603-2.026v-3.497h-1.938v-1.525h1.938v-2.156zm11.156 9.374c-.461.19-.931.332-1.41.427s-.985.142-1.518.142c-1.27 0-2.241-.339-2.914-1.016-.669-.683-1.003-1.663-1.003-2.942 0-1.238.323-2.216.969-2.935.646-.718 1.527-1.077 2.643-1.077 1.125 0 1.997.334 2.616 1.003.624.664.936 1.602.936 2.813v.806h-5.145c.005.596.181 1.042.529 1.335.348.294.868.441 1.559.441.456 0 .906-.066 1.349-.197.442-.131.906-.339 1.389-.623zm-1.681-4.27c-.009-.524-.144-.919-.407-1.186-.257-.271-.639-.407-1.145-.407-.456 0-.82.14-1.091.42-.271.276-.432.669-.481 1.18zm9.834-.285v4.928h-1.972v-4.623c0-.551-.079-.944-.237-1.179-.154-.239-.407-.359-.759-.359-.357 0-.64.16-.847.481-.204.321-.305.766-.305 1.335v4.345h-1.973v-7.591h1.973v1.138c.14-.42.379-.745.718-.976.339-.23.748-.345 1.227-.345.718 0 1.26.239 1.626.718.366.475.549 1.184.549 2.128zm8.574 4.555c-.461.19-.931.332-1.41.427s-.985.142-1.518.142c-1.269 0-2.241-.339-2.914-1.016-.669-.683-1.003-1.663-1.003-2.942 0-1.238.323-2.216.969-2.935.646-.718 1.527-1.077 2.643-1.077 1.125 0 1.997.334 2.616 1.003.624.664.936 1.602.936 2.813v.806h-5.145c.005.596.181 1.042.529 1.335.348.294.868.441 1.559.441.456 0 .906-.066 1.349-.197s.906-.339 1.389-.623zm-1.681-4.27c-.009-.524-.144-.919-.406-1.186-.258-.271-.64-.407-1.146-.407-.456 0-.82.14-1.091.42-.271.276-.432.669-.481 1.18zm10.377-.854c-.217-.199-.472-.348-.766-.447-.289-.1-.608-.149-.956-.149-.42 0-.788.074-1.104.223-.312.145-.554.357-.726.637-.108.172-.185.38-.23.624-.041.244-.061.614-.061 1.111v3.498h-1.986v-7.591h1.986v1.179c.194-.434.492-.768.895-1.003.402-.24.872-.359 1.409-.359.271 0 .536.034.793.101.262.064.511.159.746.285zm6.825-5.036c-.597 1.08-1.039 2.126-1.329 3.138-.289 1.012-.433 2.025-.433 3.037 0 1.003.144 2.015.433 3.036.29 1.017.732 2.067 1.329 3.152h-1.545c-.719-1.044-1.252-2.072-1.6-3.084-.348-1.017-.522-2.052-.522-3.104 0-1.049.174-2.081.522-3.098.352-1.021.886-2.047 1.6-3.077zm7.137.414v3.761h-1.735v-3.761zm10.518 9.732c-.334.195-.693.339-1.077.434-.384.1-.798.149-1.24.149-1.171 0-2.086-.352-2.745-1.057-.66-.705-.99-1.681-.99-2.928 0-1.252.332-2.23.996-2.935.665-.709 1.582-1.064 2.752-1.064.407 0 .798.048 1.173.143.379.094.756.241 1.131.44v1.816c-.289-.248-.607-.438-.955-.569-.344-.135-.701-.203-1.071-.203-.646 0-1.143.205-1.491.617-.348.411-.522.996-.522 1.755s.174 1.342.522 1.749c.348.406.845.61 1.491.61.384 0 .743-.064 1.078-.19.334-.131.65-.328.948-.59zm3.796-2.778v-5.856h-2.013v-1.525h3.999v7.381c0 .596.092 1.018.278 1.267.185.248.499.373.942.373h1.586v1.525h-2.142c-.944 0-1.622-.244-2.033-.732s-.617-1.299-.617-2.433zm7.238-4.426h3.931v6.066h2.467v1.525h-6.926v-1.525h2.474v-4.541h-1.946zm1.946-3.694h1.985v2.318h-1.985zm12.111 10.898c-.334.195-.693.339-1.077.434-.385.1-.798.149-1.241.149-1.17 0-2.085-.352-2.745-1.057-.659-.705-.989-1.681-.989-2.928 0-1.252.332-2.23.996-2.935.664-.709 1.581-1.064 2.752-1.064.406 0 .797.048 1.172.143.38.094.757.241 1.132.44v1.816c-.289-.248-.608-.438-.955-.569-.344-.135-.701-.203-1.071-.203-.646 0-1.144.205-1.491.617-.348.411-.522.996-.522 1.755s.174 1.342.522 1.749c.347.406.845.61 1.491.61.384 0 .743-.064 1.077-.19.335-.131.651-.328.949-.59zm2.352-10.159h1.986v5.537l2.386-2.582h2.406l-2.874 2.833 3.036 4.758h-2.196l-2.08-3.552-.678.651v2.901h-1.986zm12.22.427v3.761h-1.735v-3.761zm6.452 7.631h2.122v1.837l-1.329 2.596h-1.464l.671-2.596zm19.865-8.045c-.596 1.08-1.039 2.126-1.328 3.138s-.434 2.025-.434 3.037c0 1.003.145 2.015.434 3.036.289 1.017.732 2.067 1.328 3.152h-1.545c-.718-1.044-1.251-2.072-1.599-3.084-.348-1.017-.522-2.052-.522-3.104 0-1.049.174-2.081.522-3.098.352-1.021.885-2.047 1.599-3.077zm4.196 0h1.545c.714 1.03 1.245 2.056 1.593 3.077.352 1.017.528 2.049.528 3.098 0 1.052-.174 2.087-.521 3.104-.348 1.012-.882 2.04-1.6 3.084h-1.545c.596-1.085 1.039-2.135 1.328-3.152.289-1.021.434-2.033.434-3.036 0-1.012-.145-2.025-.434-3.037s-.732-2.058-1.328-3.138zm15.229 6.927h7.164v1.606h-7.164zm0-3.084h7.164v1.593h-7.164zm8.364.414v-1.695l7.164 2.82v1.599l-7.164 2.813v-1.688l5.388-1.918zm23.267 7.245v1.294h-1.017c-1.125 0-1.879-.167-2.263-.501-.38-.335-.57-1.001-.57-2v-1.457c0-.682-.122-1.152-.366-1.409-.239-.263-.675-.394-1.308-.394h-.42v-1.294h.42c.633 0 1.069-.129 1.308-.386.244-.258.366-.73.366-1.417v-1.457c0-.999.19-1.663.57-1.993.384-.334 1.138-.501 2.263-.501h1.017v1.287h-.834c-.469 0-.783.095-.942.285-.158.19-.237.608-.237 1.254v1.416c0 .746-.111 1.27-.332 1.573s-.617.497-1.186.583c.569.095.965.296 1.186.603s.332.831.332 1.572v1.39c0 .65.079 1.071.237 1.26.159.195.473.292.942.292zm-285.405 20.912h1.498l-5.327 11.406h-1.498zm8.364 0h1.498l-5.328 11.406h-1.497zm17.96 9.827c-.316.163-.648.285-.996.366-.348.082-.714.122-1.098.122-1.364 0-2.406-.449-3.124-1.349-.719-.899-1.078-2.198-1.078-3.897 0-1.703.359-3.004 1.078-3.904.718-.899 1.76-1.348 3.124-1.348.384 0 .753.04 1.105.122.352.081.682.203.989.366v2.223c-.343-.317-.677-.547-1.003-.692-.32-.149-.653-.223-.996-.223-.732 0-1.285.291-1.66.874-.371.578-.556 1.439-.556 2.582 0 1.139.185 2 .556 2.583.375.578.928.867 1.66.867.343 0 .676-.072.996-.217.326-.149.66-.382 1.003-.698zm5.212-5.869c-.474 0-.847.21-1.118.63-.271.416-.406.996-.406 1.742s.135 1.328.406 1.749c.271.415.644.623 1.118.623.479 0 .854-.208 1.126-.623.271-.421.406-1.003.406-1.749s-.135-1.326-.406-1.742c-.272-.42-.647-.63-1.126-.63zm-3.51 2.372c0-1.225.316-2.194.949-2.908.637-.718 1.491-1.077 2.561-1.077 1.076 0 1.93.359 2.562 1.077.637.714.956 1.683.956 2.908 0 1.224-.319 2.196-.956 2.914-.632.714-1.486 1.071-2.562 1.071-1.07 0-1.924-.357-2.561-1.071-.633-.718-.949-1.69-.949-2.914zm8.783 1.139v-4.941h1.986v4.636c0 .546.077.937.231 1.172.153.235.409.353.766.353s.634-.159.833-.475c.204-.316.305-.759.305-1.328v-4.358h1.986v7.591h-1.986v-1.125c-.14.42-.379.745-.718.976-.335.23-.739.345-1.213.345-.723 0-1.27-.239-1.641-.718-.366-.479-.549-1.189-.549-2.128zm14.538-2.278v4.928h-1.972v-4.623c0-.551-.079-.944-.237-1.179-.154-.239-.407-.359-.759-.359-.357 0-.64.16-.847.481-.204.321-.305.766-.305 1.335v4.345h-1.973v-7.591h1.973v1.138c.14-.42.379-.745.718-.976.339-.23.748-.345 1.227-.345.718 0 1.26.239 1.626.718.366.475.549 1.184.549 2.128zm5.782-4.819v2.156h2.596v1.525h-2.596v3.592c0 .339.081.583.244.732.167.144.442.217.827.217h1.525v1.525h-1.668c-1.138 0-1.909-.181-2.311-.543-.402-.366-.603-1.041-.603-2.026v-3.497h-1.939v-1.525h1.939v-2.156zm17.059 1.492v.664h2.331v1.525h-2.331v6.066h-1.986v-6.066h-1.843v-1.525h1.843v-.529c0-.913.19-1.545.569-1.898.38-.352 1.085-.528 2.115-.528h1.633v1.525h-1.552c-.298 0-.501.054-.61.162-.104.109-.16.31-.169.604zm11.156 2.758c-.217-.199-.472-.348-.766-.447-.289-.1-.608-.149-.956-.149-.42 0-.788.074-1.104.223-.312.145-.554.357-.726.637-.108.172-.185.38-.23.624-.041.244-.061.614-.061 1.111v3.498h-1.986v-7.591h1.986v1.179c.194-.434.492-.768.895-1.003.402-.24.872-.359 1.409-.359.271 0 .536.034.793.101.262.064.511.159.746.285zm4.737-.664c-.474 0-.847.21-1.118.63-.271.416-.407.996-.407 1.742s.136 1.328.407 1.749c.271.415.644.623 1.118.623.479 0 .854-.208 1.125-.623.272-.421.407-1.003.407-1.749s-.135-1.326-.407-1.742c-.271-.42-.646-.63-1.125-.63zm-3.51 2.372c0-1.225.316-2.194.948-2.908.638-.718 1.492-1.077 2.562-1.077 1.076 0 1.93.359 2.562 1.077.637.714.956 1.683.956 2.908 0 1.224-.319 2.196-.956 2.914-.632.714-1.486 1.071-2.562 1.071-1.07 0-1.924-.357-2.562-1.071-.632-.718-.948-1.69-.948-2.914zm12.375-3.043c.15-.321.339-.558.57-.712.23-.153.513-.23.847-.23.655 0 1.107.226 1.356.678.253.451.379 1.391.379 2.819v4.277h-1.627v-4.873c0-.565-.042-.943-.128-1.132-.086-.19-.242-.285-.468-.285s-.384.097-.474.291c-.091.195-.136.57-.136 1.126v4.873h-1.606v-4.873c0-.556-.045-.931-.136-1.126-.09-.194-.248-.291-.474-.291s-.382.095-.468.285c-.086.189-.129.567-.129 1.132v4.873h-1.626v-7.591h1.443v.786c.113-.298.294-.533.543-.705.248-.176.526-.264.833-.264s.588.092.841.278c.253.18.406.402.46.664zm13.325 5.069h2.237v-6.567l-2.081.515v-1.803l2.094-.501h1.932v8.356h2.237v1.763h-6.419zm20.13-7.984v2.156h2.596v1.525h-2.596v3.592c0 .339.081.583.244.732.167.144.443.217.827.217h1.525v1.525h-1.668c-1.138 0-1.909-.181-2.311-.543-.402-.366-.603-1.041-.603-2.026v-3.497h-1.938v-1.525h1.938v-2.156zm7.862 3.586c-.475 0-.847.21-1.119.63-.271.416-.406.996-.406 1.742s.135 1.328.406 1.749c.272.415.644.623 1.119.623.479 0 .854-.208 1.125-.623.271-.421.406-1.003.406-1.749s-.135-1.326-.406-1.742c-.271-.42-.646-.63-1.125-.63zm-3.511 2.372c0-1.225.316-2.194.949-2.908.637-.718 1.491-1.077 2.562-1.077 1.075 0 1.929.359 2.562 1.077.637.714.955 1.683.955 2.908 0 1.224-.318 2.196-.955 2.914-.633.714-1.487 1.071-2.562 1.071-1.071 0-1.925-.357-2.562-1.071-.633-.718-.949-1.69-.949-2.914zm17.337 2.026h2.237v-6.567l-2.081.515v-1.803l2.094-.501h1.932v8.356h2.236v1.763h-6.418zm7.923-3.287c0-1.753.278-3.065.834-3.937.555-.877 1.391-1.315 2.507-1.315 1.121 0 1.959.436 2.515 1.308s.834 2.187.834 3.944c0 1.753-.278 3.066-.834 3.938s-1.394 1.308-2.515 1.308c-1.116 0-1.952-.436-2.507-1.308-.556-.876-.834-2.189-.834-3.938zm2.332 2.705c.212.564.549.847 1.009.847.466 0 .805-.283 1.017-.847.212-.565.319-1.467.319-2.705 0-.47-.016-.89-.048-1.26l-2.365 3.768c.022.072.045.138.068.197zm1.009-6.263c-.46 0-.797.282-1.009.847-.213.565-.319 1.469-.319 2.711 0 .384.009.735.027 1.051l2.332-3.721c-.005-.014-.009-.027-.014-.041-.212-.565-.551-.847-1.017-.847zm7.232 6.12h2.257v2.488h-2.257zm-177.18 10.897h3.931v6.066h2.467v1.525h-6.927v-1.525h2.474v-4.541h-1.945zm1.945-3.694h1.986v2.318h-1.986zm9.929 3.03v.664h2.332v1.525h-2.332v6.066h-1.985v-6.066h-1.844v-1.525h1.844v-.529c0-.913.189-1.545.569-1.898.379-.352 1.084-.528 2.115-.528h1.633v1.525h-1.552c-.298 0-.502.054-.61.162-.104.109-.161.31-.17.604zm17.981-2.278c-.596 1.08-1.039 2.126-1.328 3.138s-.434 2.025-.434 3.037c0 1.003.145 2.015.434 3.036.289 1.017.732 2.067 1.328 3.152h-1.545c-.718-1.044-1.251-2.072-1.599-3.084-.348-1.017-.522-2.052-.522-3.104 0-1.049.174-2.081.522-3.098.352-1.021.885-2.047 1.599-3.077zm9.292 10.146c-.334.195-.693.339-1.077.434-.384.1-.798.149-1.24.149-1.171 0-2.086-.352-2.745-1.057-.66-.705-.99-1.681-.99-2.928 0-1.252.332-2.23.996-2.935.665-.709 1.582-1.064 2.752-1.064.407 0 .798.048 1.173.143.379.094.756.241 1.131.44v1.816c-.289-.248-.607-.438-.955-.569-.344-.135-.7-.203-1.071-.203-.646 0-1.143.205-1.491.617-.348.411-.522.996-.522 1.755s.174 1.342.522 1.749c.348.406.845.61 1.491.61.384 0 .743-.064 1.078-.19.334-.131.65-.328.948-.59zm5.348-5.774c-.474 0-.847.21-1.118.63-.271.416-.407.996-.407 1.742s.136 1.328.407 1.749c.271.415.644.623 1.118.623.479 0 .854-.208 1.125-.623.271-.421.407-1.003.407-1.749s-.136-1.326-.407-1.742c-.271-.42-.646-.63-1.125-.63zm-3.511 2.372c0-1.225.317-2.194.949-2.908.637-.718 1.491-1.077 2.562-1.077 1.075 0 1.929.359 2.562 1.077.637.714.956 1.683.956 2.908 0 1.224-.319 2.196-.956 2.914-.633.714-1.487 1.071-2.562 1.071-1.071 0-1.925-.357-2.562-1.071-.632-.718-.949-1.69-.949-2.914zm8.784 1.139v-4.941h1.986v4.636c0 .546.077.937.23 1.172.154.235.409.353.766.353s.635-.159.834-.475c.203-.316.305-.759.305-1.328v-4.358h1.986v7.591h-1.986v-1.125c-.14.42-.38.745-.719.976-.334.23-.738.345-1.213.345-.723 0-1.27-.239-1.64-.718-.366-.479-.549-1.189-.549-2.128zm14.538-2.278v4.928h-1.972v-4.623c0-.551-.079-.944-.238-1.179-.153-.239-.406-.359-.759-.359-.357 0-.639.16-.847.481-.203.321-.305.766-.305 1.335v4.345h-1.972v-7.591h1.972v1.138c.14-.42.38-.745.719-.976.338-.23.747-.345 1.226-.345.719 0 1.261.239 1.627.718.366.475.549 1.184.549 2.128zm5.781-4.819v2.156h2.596v1.525h-2.596v3.592c0 .339.082.583.244.732.167.144.443.217.827.217h1.525v1.525h-1.667c-1.139 0-1.909-.181-2.311-.543-.403-.366-.604-1.041-.604-2.026v-3.497h-1.938v-1.525h1.938v-2.156zm19.811 3.471-5.388 1.931 5.388 1.918v1.688l-7.164-2.813v-1.599l7.164-2.82zm10.241 4.513h2.237v-6.567l-2.081.515v-1.803l2.094-.501h1.932v8.356h2.237v1.763h-6.419zm7.923-3.287c0-1.753.278-3.065.834-3.937.556-.877 1.391-1.315 2.508-1.315 1.12 0 1.958.436 2.514 1.308s.834 2.187.834 3.944c0 1.753-.278 3.066-.834 3.938s-1.394 1.308-2.514 1.308c-1.117 0-1.952-.436-2.508-1.308-.556-.876-.834-2.189-.834-3.938zm2.332 2.705c.212.564.549.847 1.01.847.465 0 .804-.283 1.016-.847.213-.565.319-1.467.319-2.705 0-.47-.016-.89-.048-1.26l-2.365 3.768c.022.072.045.138.068.197zm1.01-6.263c-.461 0-.798.282-1.01.847-.213.565-.319 1.469-.319 2.711 0 .384.009.735.027 1.051l2.332-3.721c-.005-.014-.009-.027-.014-.041-.212-.565-.551-.847-1.016-.847zm6.282-1.925h1.546c.714 1.03 1.244 2.056 1.592 3.077.353 1.017.529 2.049.529 3.098 0 1.052-.174 2.087-.522 3.104-.348 1.012-.881 2.04-1.599 3.084h-1.546c.597-1.085 1.04-2.135 1.329-3.152.289-1.021.434-2.033.434-3.036 0-1.012-.145-2.025-.434-3.037s-.732-2.058-1.329-3.138zm21.77 11.502v1.294h-1.017c-1.125 0-1.879-.167-2.263-.501-.38-.335-.57-1.001-.57-2v-1.457c0-.682-.122-1.152-.366-1.409-.239-.263-.675-.394-1.308-.394h-.42v-1.294h.42c.633 0 1.069-.129 1.308-.386.244-.258.366-.73.366-1.417v-1.457c0-.999.19-1.663.57-1.993.384-.334 1.138-.501 2.263-.501h1.017v1.287h-.834c-.47 0-.784.095-.942.285s-.237.608-.237 1.254v1.416c0 .746-.111 1.27-.332 1.573s-.617.497-1.186.583c.569.095.965.296 1.186.603s.332.831.332 1.572v1.39c0 .65.079 1.071.237 1.26.158.195.472.292.942.292zm-117.036 14.644c-.334.195-.693.339-1.077.434-.384.1-.798.149-1.241.149-1.17 0-2.085-.352-2.744-1.057-.66-.705-.99-1.681-.99-2.928 0-1.252.332-2.23.996-2.935.664-.709 1.582-1.064 2.752-1.064.407 0 .797.048 1.173.143.379.094.756.241 1.131.44v1.816c-.289-.248-.607-.438-.955-.569-.344-.135-.701-.203-1.071-.203-.646 0-1.143.205-1.491.617-.348.411-.522.996-.522 1.755s.174 1.342.522 1.749c.348.406.845.61 1.491.61.384 0 .743-.064 1.078-.19.334-.131.65-.328.948-.59zm5.348-5.774c-.475 0-.847.21-1.118.63-.272.416-.407.996-.407 1.742s.135 1.328.407 1.749c.271.415.643.623 1.118.623.479 0 .854-.208 1.125-.623.271-.421.407-1.003.407-1.749s-.136-1.326-.407-1.742c-.271-.42-.646-.63-1.125-.63zm-3.511 2.372c0-1.225.316-2.194.949-2.908.637-.718 1.491-1.077 2.562-1.077 1.075 0 1.929.359 2.562 1.077.637.714.955 1.683.955 2.908 0 1.224-.318 2.196-.955 2.914-.633.714-1.487 1.071-2.562 1.071-1.071 0-1.925-.357-2.562-1.071-.633-.718-.949-1.69-.949-2.914zm8.784 1.139v-4.941h1.986v4.636c0 .546.077.937.23 1.172.154.235.409.353.766.353s.635-.159.834-.475c.203-.316.305-.759.305-1.328v-4.358h1.985v7.591h-1.985v-1.125c-.14.42-.38.745-.719.976-.334.23-.739.345-1.213.345-.723 0-1.27-.239-1.64-.718-.366-.479-.549-1.189-.549-2.128zm14.538-2.278v4.928h-1.972v-4.623c0-.551-.08-.944-.238-1.179-.153-.239-.406-.359-.759-.359-.357 0-.639.16-.847.481-.203.321-.305.766-.305 1.335v4.345h-1.972v-7.591h1.972v1.138c.14-.42.38-.745.718-.976.339-.23.748-.345 1.227-.345.719 0 1.261.239 1.627.718.366.475.549 1.184.549 2.128zm5.781-4.819v2.156h2.596v1.525h-2.596v3.592c0 .339.081.583.244.732.167.144.443.217.827.217h1.525v1.525h-1.667c-1.139 0-1.909-.181-2.312-.543-.402-.366-.603-1.041-.603-2.026v-3.497h-1.938v-1.525h1.938v-2.156zm17.032 1.668v2.914h2.915v1.613h-2.915v2.928h-1.606v-2.928h-2.928v-1.613h2.928v-2.914zm3.979 4.473h7.164v1.606h-7.164zm0-3.084h7.164v1.593h-7.164zm17.405 4.927h2.236v-6.567l-2.081.515v-1.803l2.095-.501h1.931v8.356h2.237v1.763h-6.418zm-68.746 12.266c-.217-.199-.472-.348-.766-.447-.289-.1-.607-.149-.955-.149-.42 0-.789.074-1.105.223-.312.145-.553.357-.725.637-.109.172-.185.38-.231.624-.04.244-.061.614-.061 1.111v3.498h-1.985v-7.591h1.985v1.179c.195-.434.493-.768.895-1.003.402-.24.872-.359 1.41-.359.271 0 .535.034.793.101.262.064.51.159.745.285zm8.032 5.124c-.461.19-.931.332-1.41.427s-.985.142-1.518.142c-1.27 0-2.241-.339-2.914-1.016-.669-.683-1.004-1.663-1.004-2.942 0-1.238.324-2.216.97-2.935.646-.718 1.527-1.077 2.643-1.077 1.125 0 1.997.334 2.616 1.003.624.664.935 1.602.935 2.813v.806h-5.144c.005.596.181 1.042.529 1.335.348.294.867.441 1.559.441.456 0 .906-.066 1.348-.197.443-.131.906-.339 1.39-.623zm-1.681-4.27c-.009-.524-.145-.919-.407-1.186-.257-.271-.639-.407-1.145-.407-.456 0-.82.14-1.091.42-.271.276-.432.669-.482 1.18zm9.834-.285v4.928h-1.972v-4.623c0-.551-.079-.944-.237-1.179-.154-.239-.407-.359-.759-.359-.357 0-.64.16-.848.481-.203.321-.305.766-.305 1.335v4.345h-1.972v-7.591h1.972v1.138c.141-.42.38-.745.719-.976.339-.23.748-.345 1.227-.345.718 0 1.26.239 1.626.718.366.475.549 1.184.549 2.128zm6.466-1.586v-4.032h1.979v10.546h-1.979v-1.125c-.212.438-.488.768-.827.989-.334.222-.729.332-1.186.332-.867 0-1.541-.348-2.02-1.044-.479-.695-.718-1.676-.718-2.941 0-1.283.242-2.268.725-2.955.488-.687 1.182-1.03 2.081-1.03.407 0 .77.106 1.091.318.325.208.61.522.854.942zm-2.765 2.739c0 .732.122 1.305.366 1.721s.58.624 1.01.624c.429 0 .768-.208 1.016-.624.249-.416.373-.989.373-1.721s-.124-1.306-.373-1.722c-.248-.416-.587-.624-1.016-.624-.43 0-.766.208-1.01.624s-.366.99-.366 1.722zm13.236 3.402c-.46.19-.93.332-1.409.427s-.985.142-1.518.142c-1.27 0-2.242-.339-2.915-1.016-.669-.683-1.003-1.663-1.003-2.942 0-1.238.323-2.216.969-2.935.646-.718 1.528-1.077 2.644-1.077 1.125 0 1.997.334 2.616 1.003.623.664.935 1.602.935 2.813v.806h-5.144c.004.596.181 1.042.528 1.335.348.294.868.441 1.559.441.457 0 .906-.066 1.349-.197s.906-.339 1.389-.623zm-1.68-4.27c-.009-.524-.145-.919-.407-1.186-.258-.271-.639-.407-1.145-.407-.457 0-.821.14-1.092.42-.271.276-.431.669-.481 1.18zm10.376-.854c-.217-.199-.472-.348-.766-.447-.289-.1-.607-.149-.955-.149-.421 0-.789.074-1.105.223-.312.145-.554.357-.725.637-.109.172-.186.38-.231.624-.04.244-.061.614-.061 1.111v3.498h-1.986v-7.591h1.986v1.179c.195-.434.493-.768.895-1.003.402-.24.872-.359 1.41-.359.271 0 .535.034.793.101.262.064.51.159.745.285zm6.825-5.036c-.596 1.08-1.039 2.126-1.328 3.138s-.434 2.025-.434 3.037c0 1.003.145 2.015.434 3.036.289 1.017.732 2.067 1.328 3.152h-1.545c-.719-1.044-1.252-2.072-1.6-3.084-.348-1.017-.521-2.052-.521-3.104 0-1.049.173-2.081.521-3.098.353-1.021.886-2.047 1.6-3.077zm4.196 0h1.545c.714 1.03 1.245 2.056 1.593 3.077.352 1.017.528 2.049.528 3.098 0 1.052-.174 2.087-.522 3.104-.348 1.012-.881 2.04-1.599 3.084h-1.545c.596-1.085 1.039-2.135 1.328-3.152.289-1.021.434-2.033.434-3.036 0-1.012-.145-2.025-.434-3.037s-.732-2.058-1.328-3.138zm-76.147 27.502h.82c.47 0 .786-.097.949-.292.163-.194.244-.614.244-1.26v-1.39c0-.741.111-1.265.332-1.572.222-.307.615-.508 1.18-.603-.57-.086-.965-.28-1.187-.583-.216-.303-.325-.827-.325-1.573v-1.416c0-.637-.081-1.053-.244-1.247-.158-.194-.474-.292-.949-.292h-.82v-1.287h1.017c1.12 0 1.868.167 2.243.501.38.33.57.994.57 1.993v1.457c0 .682.122 1.154.366 1.417.248.257.691.386 1.328.386h.42v1.294h-.42c-.637 0-1.08.131-1.328.394-.244.262-.366.731-.366 1.409v1.457c0 .999-.19 1.665-.57 2-.375.334-1.123.501-2.243.501h-1.017zm-16.727 16h.82c.47 0 .786-.097.949-.292.163-.194.244-.614.244-1.26v-1.39c0-.741.111-1.265.332-1.572.222-.307.615-.508 1.179-.603-.569-.086-.964-.28-1.186-.583-.217-.303-.325-.827-.325-1.573v-1.416c0-.637-.081-1.053-.244-1.247-.158-.194-.474-.292-.949-.292h-.82v-1.287h1.017c1.12 0 1.868.167 2.243.501.38.33.569.994.569 1.993v1.457c0 .682.122 1.154.366 1.417.249.257.692.386 1.329.386h.42v1.294h-.42c-.637 0-1.08.131-1.329.394-.244.262-.366.731-.366 1.409v1.457c0 .999-.189 1.665-.569 2-.375.334-1.123.501-2.243.501h-1.017zm9.238-11.502h1.545c.714 1.03 1.245 2.056 1.593 3.077.352 1.017.529 2.049.529 3.098 0 1.052-.174 2.087-.522 3.104-.348 1.012-.881 2.04-1.6 3.084h-1.545c.596-1.085 1.039-2.135 1.328-3.152.29-1.021.434-2.033.434-3.036 0-1.012-.144-2.025-.434-3.037-.289-1.012-.732-2.058-1.328-3.138z" fill="#b3b8bc"/></g><g mask="url(#b)" opacity=".4" stroke="#b3b8bc" stroke-width="3"><path d="m0 0h101.865v101.865h-101.865z" transform="matrix(1 0 0 -1 .522563 379.242)"/><path d="m0 0h101.865v101.865h-101.865z" transform="matrix(-.00000004 1 1 .00000004 63.4804 112.553)"/><path d="m0 0h101.865v101.865h-101.865z" transform="matrix(-1 -.00000009 -.00000009 1 330.168 175.511)"/><path d="m0 0h101.865v101.865h-101.865z" transform="matrix(.00000013 -1 -1 -.00000013 267.21 442.199)"/><path d="m.522563 277.376c0 56.259 45.606637 101.866 101.865437 101.866"/><path d="m165.346 112.553c-56.259 0-101.8656 45.607-101.8656 101.866"/><path d="m330.168 277.376c0-56.259-45.607-101.865-101.865-101.865"/><path d="m165.345 442.199c56.258 0 101.865-45.607 101.865-101.865"/><path d="m0 0h62.9575v62.9575h-62.9575z" transform="matrix(-.00000004 -1 -1 .00000004 165.345 379.242)"/><path d="m0 0h62.9575v62.9575h-62.9575z" transform="matrix(1 0 0 -1 63.4804 277.376)"/><path d="m0 0h62.9575v62.9575h-62.9575z" transform="matrix(-.00000004 1 1 .00000004 165.345 175.511)"/><path d="m0 0h62.9575v62.9575h-62.9575z" transform="matrix(-1 -.00000009 -.00000009 1 267.21 277.376)"/><path d="m102.388 379.242c34.77 0 62.957-28.188 62.957-62.958"/><path d="m63.4804 214.419c0 34.77 28.187 62.957 62.9576 62.957"/><path d="m228.303 175.511c-34.771 0-62.958 28.187-62.958 62.957"/><path d="m267.21 340.334c0-34.771-28.187-62.958-62.958-62.958"/><path d="m0 0h38.9078v38.9078h-38.9078z" transform="matrix(-1 .00000009 .00000009 1 165.345 277.376)"/><path d="m0 0h38.9078v38.9078h-38.9078z" transform="matrix(-.00000004 -1 -1 .00000004 165.345 277.376)"/><path d="m0 0h38.9078v38.9078h-38.9078z" transform="matrix(1 0 0 -1 165.345 277.376)"/><path d="m0 0h38.9078v38.9078h-38.9078z" transform="matrix(-.00000004 1 1 .00000004 165.345 277.376)"/><path d="m165.345 316.284c0-21.488-17.419-38.908-38.907-38.908"/><path d="m126.438 277.376c21.488 0 38.907-17.419 38.907-38.908"/><path d="m165.345 238.468c0 21.489 17.42 38.908 38.908 38.908"/><path d="m204.253 277.376c-21.488 0-38.908 17.42-38.908 38.908"/><path d="m0 0h24.0498v24.0498h-24.0498z" transform="matrix(-.00000004 1 1 .00000004 102.388 277.376)"/><path d="m0 0h24.0498v24.0498h-24.0498z" transform="matrix(-1 -.00000009 -.00000009 1 165.345 214.419)"/><path d="m0 0h24.0498v24.0498h-24.0498z" transform="matrix(.00000013 -1 -1 -.00000013 228.303 277.376)"/><path d="m0 0h24.0498v24.0498h-24.0498z" transform="matrix(1 .00000017 .00000017 -1 165.345 340.334)"/><path d="m126.438 277.376c-13.283 0-24.05 10.768-24.05 24.05"/><path d="m165.345 238.469c0-13.283-10.767-24.05-24.049-24.05"/><path d="m204.253 277.376c13.282 0 24.05-10.767 24.05-24.05"/><path d="m165.345 316.284c0 13.282 10.768 24.05 24.05 24.05"/><path d="m0 0h14.8643v14.8643h-14.8643z" transform="matrix(1 0 0 -1 102.388 316.29)"/><path d="m0 0h14.8643v14.8643h-14.8643z" transform="matrix(-.00000004 1 1 .00000004 126.431 214.419)"/><path d="m0 0h14.8643v14.8643h-14.8643z" transform="matrix(-1 -.00000009 -.00000009 1 228.303 238.462)"/><path d="m0 0h14.8643v14.8643h-14.8643z" transform="matrix(.00000013 -1 -1 -.00000013 204.259 340.334)"/><path d="m102.388 301.426c0 8.209 6.655 14.864 14.864 14.864"/><path d="m141.296 214.419c-8.21 0-14.865 6.655-14.865 14.864"/><path d="m228.303 253.327c0-8.21-6.655-14.865-14.864-14.865"/><path d="m189.395 340.334c8.209 0 14.864-6.655 14.864-14.865"/><path d="m0 0h9.1855v9.1855h-9.1855z" transform="matrix(-.00000004 -1 -1 .00000004 126.438 316.284)"/><path d="m0 0h9.1855v9.1855h-9.1855z" transform="matrix(1 0 0 -1 126.438 238.468)"/><path d="m0 0h9.1855v9.1855h-9.1855z" transform="matrix(-.00000004 1 1 .00000004 204.253 238.468)"/><path d="m0 0h9.1855v9.1855h-9.1855z" transform="matrix(-1 -.00000009 -.00000009 1 204.253 316.284)"/><path d="m117.252 316.284c5.073 0 9.186-4.112 9.186-9.185"/><path d="m126.438 229.283c0 5.073 4.112 9.185 9.185 9.185"/><path d="m213.438 238.468c-5.073 0-9.185 4.113-9.185 9.186"/><path d="m204.253 325.47c0-5.073-4.113-9.186-9.186-9.186"/><path d="m0 0h5.67877v5.67877h-5.67877z" transform="matrix(-1 .00000009 .00000009 1 126.438 301.42)"/><path d="m0 0h5.67877v5.67877h-5.67877z" transform="matrix(-.00000004 -1 -1 .00000004 141.302 238.468)"/><path d="m0 0h5.67877v5.67877h-5.67877z" transform="matrix(1 0 0 -1 204.253 253.333)"/><path d="m0 0h5.67877v5.67877h-5.67877z" transform="matrix(-.00000004 1 1 .00000004 189.389 316.284)"/><path d="m126.438 307.098c0-3.136-2.543-5.678-5.679-5.678"/><path d="m135.624 238.468c3.136 0 5.678-2.542 5.678-5.678"/><path d="m204.253 247.654c0 3.137 2.542 5.679 5.678 5.679"/><path d="m195.068 316.284c-3.137 0-5.679 2.542-5.679 5.679"/><path d="m120.759 301.426c-1.936 0-3.506 1.57-3.506 3.507"/><path d="m141.296 232.79c0-1.937-1.57-3.507-3.507-3.507"/><path d="m209.932 253.327c1.937 0 3.507-1.571 3.507-3.507"/><path d="m189.395 321.963c0 1.937 1.57 3.507 3.507 3.507"/><circle cx="165.345" cy="277.376" r="164.823"/></g><path clip-rule="evenodd" d="m263.909 404.153c38.675-29.9 63.579-76.751 63.579-129.418s-24.904-99.518-63.579-129.418c-38.675 29.9-63.579 76.751-63.579 129.418s24.904 99.518 63.579 129.418z" fill="#f0f9fe" fill-rule="evenodd"/><g stroke="#0074bc" stroke-width="18.1653"><circle cx="164" cy="274.735" r="154.405"/><circle cx="363.818" cy="274.735" r="154.405"/><path d="m217.144 228.066 96.522 96.522"/><path d="m235.256 190.462 80.491 80.492"/><path d="m206.753 270.953 90.826 90.827"/></g><path d="m369.321 266.586c-.66-.895-1.519-1.543-2.579-1.943-1.06-.424-2.096-.636-3.109-.636-1.296 0-2.473.235-3.533.706-1.06.472-1.979 1.119-2.756 1.944-.754.824-1.342 1.79-1.766 2.897-.401 1.107-.601 2.308-.601 3.603 0 1.366.2 2.615.601 3.745.4 1.131.965 2.108 1.695 2.933.754.801 1.649 1.425 2.685 1.872 1.037.448 2.203.671 3.498.671 1.343 0 2.532-.259 3.569-.777 1.036-.541 1.872-1.248 2.508-2.12l3.568 2.509c-1.107 1.39-2.461 2.473-4.063 3.25-1.601.754-3.474 1.131-5.617 1.131-1.955 0-3.757-.318-5.406-.954-1.625-.66-3.026-1.566-4.204-2.721-1.178-1.177-2.096-2.567-2.756-4.168-.659-1.626-.989-3.416-.989-5.371 0-2.002.342-3.803 1.025-5.405.706-1.625 1.66-3.003 2.861-4.134 1.225-1.13 2.662-2.002 4.311-2.614 1.648-.613 3.438-.919 5.37-.919.801 0 1.637.083 2.508.248.872.141 1.708.376 2.509.706.8.306 1.554.695 2.261 1.166.706.471 1.307 1.036 1.802 1.696zm4.931 6.571c0-2.002.33-3.803.989-5.405.683-1.625 1.614-3.003 2.791-4.134 1.201-1.13 2.615-2.002 4.24-2.614 1.649-.613 3.439-.919 5.37-.919 1.955 0 3.757.306 5.406.919 1.648.612 3.073 1.484 4.274 2.614 1.202 1.131 2.132 2.509 2.792 4.134.683 1.602 1.024 3.403 1.024 5.405 0 1.955-.341 3.745-1.024 5.371-.66 1.601-1.59 2.991-2.792 4.168-1.201 1.155-2.626 2.061-4.274 2.721-1.649.636-3.451.954-5.406.954-1.931 0-3.721-.318-5.37-.954-1.625-.66-3.039-1.566-4.24-2.721-1.177-1.177-2.108-2.567-2.791-4.168-.659-1.626-.989-3.416-.989-5.371zm4.84 0c0 1.343.2 2.579.601 3.71.424 1.107 1.013 2.073 1.766 2.897.778.824 1.684 1.472 2.721 1.943 1.06.448 2.225.671 3.497.671s2.438-.223 3.498-.671c1.06-.471 1.967-1.119 2.72-1.943.778-.824 1.367-1.79 1.767-2.897.424-1.131.636-2.367.636-3.71 0-1.295-.212-2.496-.636-3.603-.4-1.107-.978-2.073-1.731-2.897-.754-.825-1.661-1.472-2.721-1.944-1.06-.471-2.237-.706-3.533-.706-1.295 0-2.473.235-3.533.706-1.036.472-1.931 1.119-2.685 1.944-.753.824-1.342 1.79-1.766 2.897-.401 1.107-.601 2.308-.601 3.603zm26.343-12.436h8.868c1.625 0 3.262.212 4.911.636s3.133 1.131 4.452 2.12c1.319.966 2.39 2.249 3.215 3.851.824 1.578 1.236 3.545 1.236 5.9 0 2.19-.412 4.075-1.236 5.653-.825 1.578-1.896 2.873-3.215 3.886s-2.803 1.767-4.452 2.261c-1.649.471-3.286.707-4.911.707h-8.868zm8.162 21.128c1.154 0 2.308-.13 3.462-.389 1.154-.283 2.19-.742 3.109-1.378.942-.659 1.708-1.543 2.296-2.65.589-1.107.884-2.508.884-4.204 0-1.79-.295-3.25-.884-4.381-.588-1.13-1.354-2.014-2.296-2.65-.919-.636-1.955-1.071-3.109-1.307-1.154-.235-2.308-.353-3.462-.353h-3.71v17.312zm18.819-21.128h16.57v3.887h-12.119v6.359h11.483v3.745h-11.483v7.066h12.755v3.957h-17.206z" fill="#000"/><path d="m48.0717 261.118h8.8666c1.625 0 3.2617.212 4.9102.636s3.1322 1.131 4.451 2.12c1.3188.965 2.3903 2.249 3.2146 3.85.8242 1.578 1.2364 3.544 1.2364 5.899 0 2.191-.4122 4.075-1.2364 5.652-.8243 1.578-1.8958 2.874-3.2146 3.886-1.3188 1.013-2.8025 1.766-4.451 2.261-1.6485.471-3.2852.707-4.9102.707h-8.8666zm8.1601 21.125c1.154 0 2.3079-.13 3.4619-.389 1.154-.282 2.1902-.742 3.1086-1.377.942-.66 1.7074-1.543 2.2961-2.65.5888-1.107.8832-2.508.8832-4.204 0-1.789-.2944-3.249-.8832-4.38-.5887-1.13-1.3541-2.013-2.2961-2.649-.9184-.636-1.9546-1.072-3.1086-1.307-1.154-.236-2.3079-.354-3.4619-.354h-3.7091v17.31zm18.8167-21.125h16.5675v3.886h-12.1165v6.359h11.4807v3.744h-11.4807v7.065h12.7524v3.957h-17.2034zm34.3135 5.228c-.471-.612-1.143-1.118-2.014-1.519-.848-.423-1.707-.635-2.579-.635-.518 0-1.036.07-1.554.212-.518.117-.989.318-1.413.6-.424.259-.777.612-1.06 1.06-.259.424-.388.942-.388 1.554 0 .565.117 1.048.353 1.449.235.4.553.741.954 1.024.424.283.93.53 1.519.742.588.212 1.236.424 1.943.636.8.259 1.625.553 2.472.883.872.329 1.661.765 2.367 1.307.73.541 1.319 1.224 1.766 2.049.471.824.707 1.848.707 3.073 0 1.342-.247 2.52-.742 3.532-.494.99-1.154 1.814-1.978 2.473-.824.66-1.79 1.154-2.897 1.484s-2.272.494-3.497.494c-1.625 0-3.215-.294-4.7689-.883-1.5543-.612-2.826-1.507-3.8151-2.684l3.1793-2.968c.6123.848 1.4248 1.519 2.4377 2.014 1.036.494 2.049.742 3.038.742.518 0 1.048-.059 1.589-.177.542-.141 1.025-.365 1.449-.671.447-.306.8-.683 1.059-1.131.283-.471.424-1.048.424-1.731 0-.659-.153-1.201-.459-1.624-.306-.448-.718-.825-1.236-1.131-.518-.33-1.131-.612-1.837-.848-.707-.235-1.449-.482-2.226-.742-.753-.235-1.507-.518-2.2605-.847-.7536-.33-1.4366-.766-2.0489-1.307-.5887-.542-1.0715-1.201-1.4483-1.979-.3768-.8-.5652-1.789-.5652-2.967 0-1.272.2591-2.367.7772-3.285.5416-.919 1.2363-1.672 2.0841-2.261.8714-.612 1.8486-1.06 2.9316-1.342 1.107-.306 2.226-.459 3.356-.459 1.272 0 2.555.223 3.851.671 1.319.447 2.461 1.118 3.426 2.013zm7.532-5.228h4.451v25.011h-4.451zm31.871 23.704c-1.272.612-2.673 1.083-4.204 1.413-1.507.353-3.25.529-5.228.529-2.025 0-3.874-.318-5.546-.953-1.672-.66-3.109-1.566-4.31-2.72-1.201-1.178-2.143-2.567-2.826-4.169-.659-1.625-.989-3.415-.989-5.369 0-2.002.342-3.804 1.025-5.405.706-1.625 1.66-3.003 2.861-4.133 1.225-1.13 2.661-2.002 4.31-2.614 1.648-.612 3.438-.918 5.369-.918 2.002 0 3.827.294 5.475.883 1.673.565 3.015 1.318 4.028 2.26l-3.074 3.321c-.636-.706-1.531-1.307-2.684-1.802-1.131-.494-2.367-.741-3.71-.741-1.318 0-2.519.235-3.603.706-1.06.471-1.966 1.119-2.72 1.943-.753.824-1.342 1.79-1.766 2.897-.4 1.106-.601 2.308-.601 3.603 0 1.342.201 2.579.601 3.709.424 1.107 1.013 2.072 1.766 2.897.777.824 1.708 1.471 2.791 1.942 1.107.448 2.355.672 3.744.672 1.908 0 3.568-.295 4.981-.883v-6.359h-5.263v-3.674h9.573zm5.42-23.704h5.899l11.622 18.723h.071v-18.723h4.451v25.011h-5.652l-11.869-19.323h-.071v19.323h-4.451z" fill="#000"/></svg>