<svg fill="none" height="25" viewBox="0 0 24 25" width="24" xmlns="http://www.w3.org/2000/svg"><g fill="#fff"><path d="m5.5 11.1173v5.3664s3.90192 1.4177 6.5 1.4177c2.5981 0 6.5-1.4177 6.5-1.4177v-5.3664l-1.5.553v3.732c-.3337.1045-.733.2239-1.1702.343-1.2786.3485-2.7418.6561-3.8298.6561s-2.55124-.3076-3.8298-.6561c-.43716-.1191-.83649-.2385-1.1702-.343v-3.732z"/><path d="m2.00391 9.82837v4.45723c-.22418.1297-.375.3721-.375.6497 0 .2545.12675.4794.32058.615l-.82058 2.4714s.40157.2512 1.25.2512c.84842 0 1.25-.2512 1.25-.2512l-.82184-2.4706c.19453-.1355.32184-.3608.32184-.6158 0-.2776-.15083-.52-.375-.6497v-4.1807z"/><path clip-rule="evenodd" d="m12 5.07819-7.66369 2.82541 7.66369 2.8254 7.6637-2.8254zm0-1.5987-12 4.42411 12 4.4241 12-4.4241z" fill-rule="evenodd"/></g></svg>