<svg width="24" height="24" viewBox="0 0 24 24" fill="none" xmlns="http://www.w3.org/2000/svg"><path fill-rule="evenodd" clip-rule="evenodd" d="M12 2C6.2349 2 1.56519 6.58772 1.56519 12.2516C1.56519 16.7826 4.55662 20.6215 8.70107 21.9808C9.21992 22.0752 9.41209 21.7605 9.41209 21.4836C9.41209 21.2382 9.40568 20.5963 9.39928 19.7404C6.49753 20.3572 5.88258 18.3685 5.88258 18.3685C5.40857 17.1854 4.72316 16.8645 4.72316 16.8645C3.77513 16.2288 4.79363 16.2414 4.79363 16.2414C5.83775 16.3169 6.39504 17.2987 6.39504 17.2987C7.32385 18.8657 8.83558 18.4126 9.43131 18.1483C9.52739 17.4875 9.79643 17.0344 10.0911 16.7763C7.77865 16.5246 5.34451 15.6436 5.34451 11.7166C5.34451 10.5965 5.74807 9.68395 6.42066 8.96653C6.31176 8.70222 5.95305 7.66385 6.51674 6.25418C6.51674 6.25418 7.39431 5.97728 9.38647 7.30514C10.2192 7.07858 11.1096 6.96531 12 6.95901C12.8839 6.96531 13.7807 7.07858 14.6135 7.30514C16.6056 5.97728 17.4832 6.25418 17.4832 6.25418C18.0533 7.66385 17.6946 8.70851 17.5857 8.96653C18.2519 9.68395 18.6554 10.5965 18.6554 11.7166C18.6554 15.6562 16.2149 16.5183 13.8896 16.7763C14.2612 17.091 14.6007 17.7203 14.6007 18.6769C14.6007 20.0488 14.5878 21.1501 14.5878 21.4899C14.5878 21.7668 14.7736 22.0815 15.3053 21.9808C19.4497 20.6215 22.4348 16.7826 22.4348 12.2579C22.4348 6.58772 17.765 2 12 2Z" fill="currentColor"/></svg>