<svg width="24" height="24" viewBox="0 0 24 24" fill="none" xmlns="http://www.w3.org/2000/svg"><path d="M19.6671 3.00005H4.32928C3.5951 3.00005 3.00012 3.58174 3.00012 4.29693V19.7012C3.00012 20.4183 3.5951 21 4.32928 21H19.6671C20.4012 21 21 20.4183 21 19.7012V4.29693C21 3.58174 20.4012 3.00005 19.6671 3.00005ZM8.33774 18.3395H5.66798V9.74954H8.33774V18.3395ZM7.00476 8.57472C6.14853 8.57472 5.4563 7.88051 5.4563 7.0261C5.4563 6.17168 6.14853 5.47938 7.00476 5.47938C7.85909 5.47938 8.55132 6.17359 8.55132 7.0261C8.55132 7.88051 7.85718 8.57472 7.00476 8.57472ZM18.3379 18.3395H15.67V14.1608C15.67 13.1653 15.651 11.8837 14.2837 11.8837C12.8954 11.8837 12.6818 12.9689 12.6818 14.0884V18.3375H10.014V9.74954H12.5731V10.9225H12.6094C12.966 10.2473 13.8374 9.53594 15.1361 9.53594C17.8402 9.53594 18.3379 11.3153 18.3379 13.6287V18.3395Z" fill="currentColor"/></svg>