<svg fill="none" height="24" viewBox="0 0 24 24" width="24" xmlns="http://www.w3.org/2000/svg"><path d="m20.3841 8.69643-3.2237-2.04931-.5986-.32235.3223 4.35193 1.4506 1.0131 2.2335-1.2434z" fill="#e8f5fc"/><g fill="#0063a1"><path d="m7.96989 19.9993h13.44131v-6.2336h-2.8736v1c0 .8822-.1984 1.3299-.3971 1.5723-.1973.2407-.5079.4172-1.0225.5245-.5285.1102-1.1678.1266-1.9268.1193-.1392-.0014-.2831-.0035-.4303-.0058-.2744-.0041-.5607-.0085-.8497-.0079v-10.96419h1.1738v-1h-2.1738v12.99539h.0093c.3229-.0231.6551-.0307.9907-.0312.2701-.0005.5424.0036.8137.0076 2.1118.0315 4.1651.0622 4.6863-2.0432.0823-.3328.1264-.7189.1264-1.1668h.8736v4.2336h-11.44131v-.9993h2.20591v-12.6771c-.2515-.12573-.6084-.24006-1.0281-.32353-.0955-.01899-.19421-.03639-.2957-.05196-.75735-.11618-1.66758-.13063-2.52145.05192-1.17587.2514-2.24488.8764-2.66064 2.1238-.39892 1.19689.27781 2.40016 1.18729 2.87006.20503.10591.42188.17461.64091.19751.29117.0305.58618-.0199.86234-.171.26672-.146.51586-.38594.72697-.7378-.09132-.04445-.17203-.09164-.24288-.14082-.01412-.0098-.02785-.01967-.04119-.02963-.916-.68316-.01774-1.71032.72526-1.15308.23683.17762.36938.39429.41825.62967.06981.33623-.03111.71062-.24272 1.06389-.43062.71887-1.31961 1.35037-2.16099 1.39467-.35843.0188-.69515-.0171-1.00756-.0985-3.34056-.8709-3.90083-6.94877 1.51477-6.94877h9.06674v-.99996l-9.06672-.00004c-1.68986 0-3.00703.52403-3.88745 1.43863-.87291.9068-1.2137 2.09204-1.15735 3.2177.10919 2.18117 1.79394 4.53664 4.59013 4.38954 1.14536-.0603 2.2127-.8078 2.80583-1.6352.30503-.4255.55553-.96786.56688-1.56163.01232-.6446-.26322-1.25756-.83981-1.69-.92507-.69379-2.05717-.31338-2.50833.50262-.23119.41815-.2822.94109-.07205 1.43884.01359.03218.02806.0638.04338.09486-.11411-.01386-.25409-.06288-.40842-.17058-.48209-.33645-.76254-.99086-.56459-1.58478.29257-.87777 1.1177-1.3676 2.2929-1.52654.8449-.11427 1.68739-.02498 2.2643.11667v10.97054h-2.20591z"/><path d="m12.6595 4.71646h1.5v1.5h-1.5z"/><path d="m12.6595 16.7461h1.5v1.5h-1.5z"/><path d="m15.0851 4.34146h2.25v2.25h-2.25z"/><path clip-rule="evenodd" d="m16.7803 5.84635c-.0278.04955-.0742.11663-.1483.17554-.1006.08001-.2412.15424-.3888.19276l.2997 4.71225 1.7566 1.1835 2.6052-1.5041-.1465-2.11313zm.4877 4.66475-.2284-3.59138 2.9959 1.99344.0886 1.27784-1.794 1.0357z" fill-rule="evenodd"/><path d="m18.572 12.4947 2.5292-1.4603.2433.4216-2.5291 1.4602z"/><path d="m16.492 6.4529.4169-.2407 1.5924 2.75808-.4169.2407z"/><path d="m18.7768 8.95394c.1346.23312.0548.53121-.1784.6658-.2331.13459-.5312.05472-.6658-.1784s-.0547-.53121.1784-.6658c.2332-.13459.5312-.05472.6658.1784z"/></g></svg>