<svg enable-background="new 0 0 64 64" height="64" viewBox="0 0 64 64" width="64" xmlns="http://www.w3.org/2000/svg"><g fill="#0074bc"><path d="m29.16 1c.11.17.22.33.33.5-.11.07-.23.13-.34.2-.07-.2-.14-.39-.22-.58.07-.04.15-.08.23-.12z"/><path d="m32.51 2.48c.22-.07.44-.16.65-.26.14.24.3.47.49.68-.33.14-.63.34-.87.62-.02-.37-.12-.71-.27-1.04z"/><path d="m36.08 3.69c.33-.07.66-.18.96-.34.16.33.38.63.64.88-.51.17-.97.54-1.19 1.03-.33.67-.23 1.52.25 2.09.47.59 1.29.85 2.02.65.76-.19 1.36-.88 1.44-1.66.07-.5-.09-1-.37-1.41.39-.05.77-.19 1.12-.38.16.35.38.68.67.95-.52.17-.98.55-1.21 1.06-.32.67-.21 1.53.28 2.09.44.53 1.18.8 1.87.66.76-.13 1.41-.76 1.56-1.52.12-.55-.02-1.14-.35-1.59.36-.05.71-.17 1.03-.33.15.3.33.58.56.83-.49.2-.92.56-1.15 1.05-.34.68-.25 1.55.21 2.16.47.64 1.33.95 2.11.77.43-.09.8-.34 1.1-.64.05.82.54 1.6 1.29 1.96.74.38 1.67.3 2.35-.16.14.5.41.96.8 1.32-.64.18-1.19.68-1.38 1.32-.28.82.08 1.79.81 2.25.78.52 1.89.37 2.52-.31.03.77.45 1.51 1.09 1.94-.51.04-1.01.27-1.33.66-.48.56-.57 1.41-.22 2.05.32.63 1.02 1.03 1.73.98.52-.02 1.01-.28 1.34-.68-.02.77.33 1.54.93 2.01-.68.1-1.31.56-1.57 1.2-.33.77-.1 1.73.55 2.26.7.61 1.81.61 2.52.02.06.52.27 1.02.6 1.43-.74.27-1.33.92-1.49 1.69-.2.85.14 1.78.81 2.32-.71.07-1.37.51-1.67 1.16-.39.76-.23 1.75.37 2.35.63.68 1.72.82 2.53.36.07.32.19.63.35.92-.28.16-.54.35-.76.58-.19-.56-.62-1.05-1.18-1.26-.69-.28-1.54-.1-2.07.42-.56.53-.75 1.39-.47 2.1.25.69.93 1.21 1.66 1.26.48.05.96-.11 1.36-.38.05.38.18.74.36 1.07-.35.16-.66.39-.93.65-.17-.5-.52-.94-1-1.17-.7-.36-1.61-.24-2.19.29-.56.49-.79 1.32-.56 2.03.22.74.92 1.32 1.69 1.38.49.06.97-.11 1.37-.38.05.36.17.71.34 1.04-.31.14-.59.33-.84.56-.2-.49-.56-.92-1.04-1.14-.68-.34-1.54-.26-2.14.21-.6.44-.92 1.24-.8 1.98.07.49.34.92.7 1.25-.85.04-1.66.56-2.01 1.34-.35.73-.24 1.63.21 2.3-.52.14-1 .43-1.36.83-.17-.64-.65-1.19-1.28-1.4-.82-.29-1.81.05-2.26.79-.53.78-.36 1.92.36 2.53-.83.01-1.64.46-2.06 1.18-.01-.52-.21-1.04-.6-1.39-.53-.49-1.35-.61-1.99-.29-.63.29-1.06.98-1.03 1.68.01.61.35 1.19.87 1.51-.86-.12-1.76.26-2.27.97-.06-.56-.34-1.1-.81-1.43-.6-.44-1.45-.48-2.09-.11-.68.37-1.08 1.18-.96 1.95.04.37.22.72.45 1.01-.56.05-1.08.28-1.51.63-.27-.79-.97-1.41-1.8-1.53-.83-.15-1.71.23-2.21.91-.03-.57-.29-1.13-.74-1.49-.58-.49-1.45-.61-2.15-.28-.65.29-1.12.95-1.17 1.67-.05.47.09.93.34 1.32-.36.07-.7.19-1.02.37-.17-.35-.4-.66-.69-.92.51-.15.97-.49 1.21-.98.33-.62.28-1.42-.14-1.99-.42-.61-1.21-.92-1.93-.77-.78.14-1.43.82-1.53 1.61-.08.53.08 1.07.41 1.49-.42.05-.82.18-1.18.39-.17-.38-.41-.73-.73-1.01.51-.15.97-.5 1.21-.98.33-.62.27-1.42-.14-1.99-.42-.61-1.21-.92-1.93-.77-.75.14-1.38.76-1.51 1.51-.12.55.05 1.14.39 1.58-.4.04-.79.17-1.14.36-.15-.34-.36-.66-.62-.92.49-.2.92-.56 1.15-1.04.32-.64.25-1.45-.17-2.04-.41-.6-1.16-.94-1.88-.85-.56.05-1.07.36-1.41.8.02-.84-.46-1.66-1.21-2.04-.75-.41-1.71-.32-2.4.18-.13-.57-.45-1.06-.87-1.45.54-.13 1.03-.47 1.29-.97.33-.6.3-1.37-.07-1.94-.38-.61-1.13-.97-1.84-.87-.5.05-.96.33-1.28.71.03-.9-.49-1.78-1.29-2.19.51.04 1.04-.13 1.41-.49.5-.47.68-1.25.43-1.9-.25-.7-.97-1.18-1.7-1.16-.61.01-1.19.36-1.5.88.16-.92-.3-1.88-1.07-2.38.54-.03 1.07-.25 1.42-.66.5-.55.62-1.41.29-2.08-.31-.66-1.03-1.11-1.76-1.08-.46 0-.9.2-1.25.5-.04-.58-.27-1.14-.65-1.59.78-.25 1.41-.93 1.55-1.75.17-.86-.22-1.77-.93-2.27.72-.02 1.42-.42 1.75-1.06.42-.74.29-1.73-.3-2.35-.65-.73-1.82-.84-2.62-.29-.07-.36-.19-.71-.37-1.03.35-.17.66-.4.92-.69.18.62.66 1.15 1.28 1.34.75.25 1.63-.03 2.1-.66.45-.57.52-1.41.18-2.05-.32-.64-1.03-1.06-1.75-1.03-.43 0-.83.17-1.17.42-.05-.42-.18-.82-.39-1.18.38-.17.72-.41 1-.72.15.49.46.93.91 1.17.65.38 1.53.32 2.12-.14.59-.44.88-1.24.7-1.95-.15-.68-.7-1.25-1.37-1.42-.59-.17-1.23-.02-1.71.35-.06-.38-.17-.75-.35-1.09.33-.15.64-.35.9-.6.24.63.79 1.14 1.46 1.29.84.21 1.78-.2 2.21-.95.52-.85.29-2.04-.5-2.64.89.01 1.75-.54 2.1-1.36.33-.73.22-1.62-.25-2.27.55-.13 1.04-.44 1.41-.86.15.67.66 1.24 1.31 1.44.82.28 1.8-.09 2.24-.83.5-.78.32-1.9-.39-2.49.84 0 1.65-.46 2.07-1.18 0 .53.22 1.07.63 1.41.55.49 1.41.59 2.06.22.64-.34 1.03-1.1.93-1.82-.06-.51-.35-.96-.75-1.26.83.07 1.66-.31 2.15-.98.06.52.3 1.02.72 1.35.59.49 1.47.58 2.14.21.67-.35 1.1-1.11 1.03-1.86-.02-.42-.21-.81-.47-1.13.55-.05 1.07-.27 1.49-.62.27.78.96 1.39 1.77 1.53.83.16 1.72-.19 2.24-.86.06.69.46 1.35 1.08 1.67.75.43 1.77.3 2.39-.3.7-.63.82-1.81.27-2.62zm-7.32 2.34c-.53.16-.94.64-1.02 1.19-.17.86.56 1.73 1.43 1.74.87.06 1.65-.77 1.54-1.64-.05-.92-1.08-1.61-1.95-1.29zm3.98 1.63c-.53.17-.87.76-.74 1.3.11.58.74 1 1.32.86.59-.11 1.01-.75.86-1.33-.1-.64-.83-1.06-1.44-.83zm-9.05 1.39c-.52.18-.84.8-.67 1.33.15.57.8.92 1.36.74.56-.15.92-.8.74-1.35-.16-.59-.86-.95-1.43-.72zm12.91.1c-.39.17-.61.64-.5 1.05.11.48.64.8 1.11.66.51-.11.83-.71.64-1.19-.17-.49-.79-.75-1.25-.52zm3.9 1.28c-.26.13-.45.39-.49.68-.1.53.36 1.07.91 1.05.57.02 1.04-.58.89-1.12-.12-.56-.81-.88-1.31-.61zm3.97 1c-.54.15-.9.75-.78 1.3.1.58.71 1 1.29.89.61-.09 1.06-.73.92-1.33-.11-.63-.82-1.06-1.43-.86zm-25.92.26c-.51.18-.82.79-.65 1.31.14.52.72.87 1.24.74.6-.11 1-.78.81-1.36-.16-.57-.85-.92-1.4-.69zm29.62.64c-.65.22-1.09.91-1.01 1.58.06.83.88 1.5 1.7 1.38.86-.08 1.52-.98 1.32-1.83-.16-.87-1.18-1.45-2.01-1.13zm-18.38 1.59c.47.51 1.01.93 1.48 1.43-7.36 7.36-14.71 14.73-22.08 22.07.1.51.26 1 .4 1.49-.18.19-.41.34-.48.61-.23.58.2 1.3.83 1.36.16.03.39-.06.44.16 3.76-3.77 7.53-7.53 11.29-11.3.08.25.05.51.08.77.19 2 .96 3.94 2.22 5.49 1.3 1.61 3.08 2.84 5.08 3.41.13.05.33.06.37.23.73 2.06 2.14 3.88 3.96 5.1 2.13 1.45 4.82 2.05 7.36 1.62 2.57-.39 4.95-1.83 6.52-3.89-1-.57-1.95-1.23-2.96-1.79-.28.43-.7.74-1.1 1.05-1.72 1.31-4.08 1.68-6.13 1.04-1.59-.48-2.97-1.58-3.83-2.99 2.14-.27 4.19-1.22 5.76-2.7 1.95-1.78 3.12-4.35 3.27-6.98 1.29.67 2.41 1.76 3.01 3.1-.6.13-1.19.32-1.79.45 1.56 1.36 3.13 2.72 4.72 4.05.7-1.94 1.44-3.87 2.13-5.82-.57.13-1.14.3-1.71.43-1.18-2.95-3.82-5.24-6.89-6.05-.86-2.55-2.77-4.73-5.19-5.91-1.36-.69-2.88-1-4.39-1.08.5-.49.98-1 1.49-1.48l.07-.01c.39.35.74.76 1.14 1.11.37-2.04.72-4.09 1.12-6.13-2.07.44-4.14.75-6.19 1.16zm-16.38-.03c-.71.17-1.22.93-1.08 1.65.1.78.91 1.36 1.68 1.21.77-.11 1.36-.91 1.21-1.68-.11-.82-1.01-1.41-1.81-1.18zm37.56 3.94c-.55.15-.92.76-.79 1.32.1.58.71 1 1.29.9.62-.08 1.08-.74.93-1.35-.1-.64-.82-1.07-1.43-.87zm-38.83.37c-.51.18-.81.78-.64 1.3.15.55.79.89 1.33.71.55-.15.89-.78.71-1.32-.17-.58-.85-.92-1.4-.69zm-1.08 4.05c-.59.11-.86.92-.45 1.36.38.5 1.26.33 1.44-.27.23-.58-.38-1.26-.99-1.09zm42.52.73c-.55.15-.91.75-.78 1.31.1.58.71 1.01 1.3.9.61-.08 1.07-.74.93-1.34-.11-.64-.83-1.08-1.45-.87zm-43.87 3.18c-.57.17-.76.99-.32 1.39.42.46 1.28.23 1.41-.38.2-.61-.49-1.25-1.09-1.01zm46.32 1.61c-.75.24-1.2 1.12-.96 1.88.21.76 1.06 1.26 1.82 1.05.83-.17 1.37-1.11 1.11-1.92-.22-.81-1.18-1.31-1.97-1.01zm-47.68 2.09c-.35.13-.62.46-.67.84-.1.59.4 1.18.99 1.19.63.05 1.2-.57 1.09-1.2-.07-.64-.81-1.09-1.41-.83zm46.59 2.15c-.55.15-.91.76-.79 1.31.1.58.71 1.01 1.29.9.62-.08 1.07-.73.94-1.34-.1-.64-.82-1.08-1.44-.87zm-47.87 1.32c-.72.18-1.2.98-1.02 1.7.15.76.97 1.29 1.72 1.1.76-.15 1.28-.97 1.1-1.72-.15-.78-1.04-1.32-1.8-1.08zm46.52 2.84c-.26.13-.45.4-.49.69-.09.53.37 1.06.9 1.04.57.02 1.03-.57.89-1.12-.1-.57-.8-.89-1.3-.61zm-1.19 3.86c-.62.22-.76 1.15-.22 1.54.5.44 1.38.1 1.46-.56.13-.67-.62-1.27-1.24-.98zm-1.24 3.65c-.54.15-.89.75-.76 1.29.11.59.75 1 1.33.86.6-.12 1.01-.8.83-1.39-.17-.58-.83-.95-1.4-.76zm-38.85.42c-.45.17-.73.68-.63 1.15.09.55.69.95 1.23.82.56-.11.94-.72.78-1.27-.13-.58-.83-.94-1.38-.7zm37.48 3.09c-.74.2-1.23 1.01-1.05 1.75.14.77.97 1.33 1.74 1.16.8-.13 1.38-.99 1.19-1.79-.14-.82-1.07-1.38-1.88-1.12zm-34.76 1.6c-.75.13-1.29.93-1.13 1.68.12.75.9 1.3 1.64 1.16.78-.1 1.37-.92 1.2-1.7-.13-.76-.96-1.31-1.71-1.14zm29.61 1.46c-.53.21-.81.88-.58 1.4.21.54.89.83 1.42.59.53-.21.81-.88.58-1.4-.2-.55-.88-.83-1.42-.59zm-25.82.25c-.48.18-.77.74-.63 1.23.12.53.7.88 1.23.75.56-.11.95-.73.78-1.28-.13-.58-.83-.94-1.38-.7zm3.97 1.46c-.58.22-.69 1.1-.17 1.45.48.4 1.3.05 1.34-.58.1-.62-.61-1.14-1.17-.87zm16.79.89c-.41.13-.72.53-.73.96-.05.59.48 1.14 1.07 1.13.63.02 1.16-.6 1.06-1.21-.06-.65-.79-1.11-1.4-.88zm-12.91.36c-.6.22-.7 1.13-.17 1.48.49.4 1.31.03 1.35-.6.1-.62-.61-1.15-1.18-.88zm3.9 1.03c-.35.11-.63.41-.72.76-.18.61.31 1.29.94 1.33.64.08 1.25-.52 1.17-1.17-.04-.65-.77-1.14-1.39-.92zm3.7.9c-.67.23-1.1.98-.95 1.66.12.7.81 1.25 1.53 1.19.86-.02 1.56-.91 1.37-1.75-.14-.85-1.14-1.42-1.95-1.1z"/><path d="m23.58 3.81c.24-.09.47-.2.69-.32.17.3.38.57.63.8-.4.11-.77.32-1.04.64-.01-.39-.11-.77-.28-1.12z"/><path d="m18.43 6.43c.3-.11.6-.25.86-.44.22.41.54.76.93 1-.6-.01-1.18.29-1.53.77.04-.46-.05-.92-.26-1.33z"/><path d="m47.79 7.47c.27-.06.53-.14.78-.26.11.2.23.39.36.58-.31.16-.58.38-.8.64-.05-.33-.16-.66-.34-.96z"/><path d="m13.46 8.98c.24-.1.47-.23.68-.37.19.34.44.65.75.88-.42.05-.83.22-1.15.49-.03-.34-.13-.68-.28-1z"/><path d="m51.99 8.8c.18-.07.35-.13.53-.2.03.05.09.15.11.2-.17.1-.34.21-.5.33-.05-.11-.09-.22-.14-.33z"/><path d="m8.6 11.47c.08-.05.16-.1.25-.15.12.19.24.37.37.55-.13.05-.27.11-.4.16-.08-.18-.15-.37-.22-.56z"/><path d="m54.1 13.79c.32-.05.63-.14.93-.27.1.21.21.41.33.61-.32.17-.6.4-.83.68-.06-.38-.21-.72-.43-1.02z"/><path d="m7.23 15.4c.21-.1.41-.23.6-.37.19.33.43.64.74.86-.38.03-.75.15-1.08.35-.06-.29-.16-.56-.26-.84z"/><path d="m56.33 18.73c.43.01.85-.08 1.23-.27.11.28.25.55.41.8-.37.2-.7.48-.94.82-.04-.52-.3-1.01-.7-1.35z"/><path d="m26.99 24.83c1.06-1.09 2.47-1.85 3.98-2.05 1.89-.28 3.9.25 5.36 1.49.61.48 1.11 1.09 1.53 1.74-1.4.2-2.78.63-3.99 1.37-2.93 1.71-4.91 4.94-5.04 8.33-1.36-.71-2.48-1.86-3.11-3.26-.75-1.62-.82-3.53-.22-5.21.34-.9.85-1.72 1.49-2.41z"/><path d="m59.15 23.9c.36-.02.71-.12 1.04-.27.08.21.18.42.29.62-.28.16-.55.36-.77.6-.11-.37-.3-.69-.56-.95z"/><path d="m62.33 29.16c.19-.06.37-.13.55-.21.03.05.09.16.12.21-.17.09-.33.2-.49.31-.06-.11-.12-.21-.18-.31z"/><path d="m33.94 31.67c1.22-1.4 3.03-2.25 4.89-2.33.1 1.66-.48 3.33-1.54 4.61-1.22 1.51-3.11 2.44-5.04 2.5-.1-1.74.55-3.48 1.69-4.78z"/><path d="m2.22 30.78c.26-.15.49-.32.71-.52.15.37.39.7.7.95-.39 0-.78.09-1.13.27-.08-.25-.17-.48-.28-.7z"/><path d="m60.52 32.8c.35-.02.68-.12.99-.27.06.17.13.34.2.52-.23.14-.46.29-.66.47-.14-.27-.31-.52-.53-.72z"/><path d="m1 34.81c.18-.13.35-.26.53-.38.08.13.15.26.23.38-.22.07-.45.15-.67.22l-.05-.24c0 .01-.03.04-.04.05z"/><path d="m3.45 39.66c.33-.18.62-.41.86-.69.11.48.38.91.78 1.19-.44-.02-.88.07-1.27.27-.1-.26-.22-.52-.37-.77z"/><path d="m5.97 44.67c.45-.24.84-.6 1.06-1.06-.05.68.28 1.37.87 1.72-.51-.07-1.02.03-1.48.24-.09-.32-.25-.62-.45-.9z"/><path d="m55.5 48.07c.36-.04.71-.16 1.01-.34.06.27.15.54.26.79-.21.11-.41.23-.6.37-.17-.31-.39-.6-.67-.82z"/><path d="m8.59 49.81c.36-.19.68-.46.92-.8.03.45.21.89.5 1.23-.36.03-.7.13-1.03.28-.1-.25-.24-.48-.39-.71z"/><path d="m54.82 52.07c.12-.05.24-.1.36-.15.07.18.14.36.21.54-.06.03-.17.1-.23.13-.1-.17-.22-.35-.34-.52z"/><path d="m49.11 54.46c.41-.05.79-.21 1.11-.46.04.33.13.66.28.97-.23.1-.45.23-.66.37-.18-.35-.43-.65-.73-.88z"/><path d="m11.33 55.14c.2-.12.38-.25.56-.39.06.14.11.27.17.41-.2.07-.39.14-.59.22-.03-.05-.1-.18-.14-.24z"/><path d="m15.02 56.13c.35-.18.65-.43.88-.75.02.4.14.78.35 1.12-.29.05-.57.14-.84.26-.11-.22-.24-.43-.39-.63z"/><path d="m45.29 56.16c-.04.48.06.96.28 1.39-.31.11-.61.26-.88.44-.23-.44-.58-.81-1.02-1.05.64.03 1.26-.27 1.62-.78z"/><path d="m39.13 59.68c.38-.12.74-.33 1.01-.63.01.39.1.77.27 1.12-.24.09-.47.2-.69.32-.14-.31-.41-.54-.59-.81z"/><path d="m30.31 61.07c.35-.14.68-.37.92-.67.01.38.1.75.27 1.1-.23.07-.46.17-.67.27-.15-.26-.32-.49-.52-.7z"/><path d="m34.49 62.48c.11-.08.23-.15.35-.22.06.21.14.41.22.61-.06.02-.18.09-.24.13-.09-.19-.2-.36-.33-.52z"/></g></svg>