<svg fill="none" height="24" viewBox="0 0 24 24" width="24" xmlns="http://www.w3.org/2000/svg"><path d="m18.5 12.5h2v3h-2z" fill="#e8f5fc"/><path d="m3.5 8.5h6v2h-6z" fill="#e8f5fc"/><g clip-rule="evenodd" fill="#0063a1" fill-rule="evenodd"><path d="m11.333 19.9096c-.2379-.0841-.5806-.194-1.0169-.3045-.92999-.2356-2.28265-.4736-3.95124-.4736s-3.02126.238-3.95122.4736c-.46485.1178-.82345.2348-1.0623.3207-.1194.043-.20878.0782-.26645.1018-.02883.0118-.04972.0206-.06246.0262l-.01297.0056-.00118.0006-.9365027.4267v-16.01843l.3736297-.18099s0 0 .288514.59557l-.288514-.59557.001472-.00071.002475-.0012.007933-.00379.027592-.01302c.023527-.011.057229-.02657.100474-.04605.086466-.03894.211223-.09357.369202-.15862.315665-.12998.765605-.30226 1.309035-.47439 1.08066-.34229 2.56012-.69335 4.10127-.69335 1.54114 0 3.0206.35106 4.10124.69335.5435.17213.9934.34441 1.3091.47439.0828.0341.1564.06534.2203.09295.0638-.02761.1375-.05885.2203-.09295.3157-.12998.7656-.30226 1.309-.47439 1.0807-.34229 2.5601-.69335 4.1013-.69335 1.5411 0 3.0206.35106 4.1013.69335.5434.17213.9933.34441 1.309.47439.158.06505.2827.11968.3692.15862.0432.01948.0769.03505.1005.04605l.0276.01302.0079.00379.0025.0012.3751.1817v16.01843l-.9359-.4264-.0009-.0005-.0139-.006c-.0127-.0056-.0336-.0144-.0625-.0262-.0576-.0236-.147-.0588-.2664-.1018-.2388-.0859-.5974-.2029-1.0623-.3207-.93-.2356-2.2826-.4736-3.9512-.4736s-3.0213.238-3.9512.4736c-.4363.1105-.779.2204-1.017.3045l-.6624.2752zm-9.93636-1.3949v-13.19987l.06236-.02587c.28761-.11843.70238-.27736 1.20464-.43644 1.01071-.32014 2.34658-.63151 3.70122-.63151 1.35463 0 2.6905.31137 3.70124.63151.5022.15908.917.31801 1.2046.43644l.0623.02584v13.1999c-.2007-.0621-.4319-.1281-.6916-.1939-1.0196-.2583-2.48227-.5142-4.27654-.5142-1.79428 0-3.25695.2559-4.27658.5142-.25974.0658-.49089.1318-.69164.1939zm11.26126 0c.2008-.0621.4319-.1281.6916-.1939 1.0196-.2583 2.4823-.5142 4.2766-.5142s3.2569.2559 4.2766.5142c.2597.0658.4909.1318.6916.1939v-13.19987l-.0624-.02587c-.2876-.11843-.7023-.27736-1.2046-.43644-1.0107-.32014-2.3466-.63151-3.7012-.63151-1.3547 0-2.6905.31137-3.7012.63151-.5023.15908-.9171.31801-1.2047.43644l-.0623.02584z"/><path d="m9.02897 8.96305h-5.07625v1.07625h5.07625zm-6.03813-.96188v3.00003h7v-3.00003z"/><path d="m9.99084 13.0012h-7v-1h7z"/><path d="m16.9908 13.0602h-3v-1.059h3z"/><path d="m20.9908 11.0012h-7v-1h7z"/><path d="m20.9908 9.00117h-7v-1h7z"/><path d="m16.9908 15.0602h-3v-1.059h3z"/><path d="m9.99084 15.0012h-7v-1h7z"/><path d="m4.99084 7.00117h-2v-1h2z"/><path d="m20.9908 7.00117h-2v-1h2z"/><path d="m19.9908 13.0012h-1v2h1zm-2-1v4h3v-4z"/></g></svg>