<svg width="24" height="24" viewBox="0 0 24 24" fill="currentColor" xmlns="http://www.w3.org/2000/svg"><path d="M14.3229 16.8284H17.837V15.7877H13.4956C13.8006 16.1091 14.0777 16.4573 14.3229 16.8284Z"/><path d="M11.869 10.2843C11.869 12.4178 10.1394 14.1474 8.00583 14.1474C5.87228 14.1474 4.1427 12.4178 4.1427 10.2843C4.1427 8.15073 5.87228 6.42114 8.00583 6.42114C10.1394 6.42114 11.869 8.15073 11.869 10.2843Z"/><path d="M6.00934 15.3293C3.675 16.1518 2.00165 18.376 2 20.9913H14.0115C14.0098 18.3761 12.3365 16.1518 10.0022 15.3293C9.38435 15.574 8.71079 15.7085 8.00582 15.7085C7.30083 15.7085 6.62725 15.574 6.00934 15.3293Z"/><path d="M12.2147 13.7062H17.8371V12.6655H12.8809C12.6983 13.0385 12.4743 13.3874 12.2147 13.7062Z"/><path fill-rule="evenodd" clip-rule="evenodd" d="M7.99997 5.10099H15.4433V9.62816H19.9185L19.9185 18.916H15.2815C15.4706 19.577 15.572 20.2759 15.5725 20.9975H21.9999V7.1802L17.8197 3L7.99997 3V5.10099ZM19.9185 8.04237L17.0044 5.12828V8.06707H19.9185V8.04237Z"/></svg>