<svg fill="none" height="24" viewBox="0 0 24 24" width="24" xmlns="http://www.w3.org/2000/svg"><path d="m2.68225 3.44102h13.733v3.78842h-13.733z" fill="#e8f5fc"/><path d="m2.68225 16.7704h13.733v3.78842h-13.733z" fill="#e8f5fc"/><g clip-rule="evenodd" fill="#0063a1" fill-rule="evenodd"><path d="m15.7498 3.98071h-12.50346v2.76799h12.50346zm-13.75346-1.25v5.26799h15.00346v-5.26799z"/><path d="m8.39368 9.34123h1.47323v.99997h-.47323v.9584h-1zm2.44642 0h1.9465v.99997h-1.9465zm2.9198 0h1.9464v.99997h-1.9464zm2.9197 0h1.9464v.99997h-1.9464zm2.9197 0h1.9464v.99997h-1.9464zm2.9197 0h1.4732v1.95837h-1v-.9584h-.4732zm1.4732 3.41677v1.9584h-1.4732v-1h.4732v-.9584zm-15.59852 0h1v.9584h.47323v1h-1.47323zm4.39292 1.9584h-1.9465v-1h1.9465zm2.9197 0h-1.9464v-1h1.9464zm2.9197 0h-1.9464v-1h1.9464z"/><path d="m15.7498 17.3094h-12.50346v2.7104h12.50346zm-13.75346-1.25v5.2104h15.00346v-5.2104z"/><path d="m21.1285 16.2162h2.698l-4.8564-3.7384.8094 6.0749zm-1.0474.8141.7587-1.3141h1.5175l-2.7314-2.1026z"/></g></svg>