<svg fill="none" height="24" viewBox="0 0 24 24" width="24" xmlns="http://www.w3.org/2000/svg"><path clip-rule="evenodd" d="m5.54167 2.00004h12.91663c1.9584 0 3.5417 1.58333 3.5417 3.54167v12.41669c0 1.9583-1.5833 3.5416-3.5417 3.5416h-12.91663c-1.95834 0-3.54167-1.5833-3.54167-3.5416v-12.41669c0-1.95834 1.58333-3.54167 3.54167-3.54167zm6.15003 11.94996h-3.10004l-.63334 1.9584c-.01666.075-.08333.125-.15833.1166h-1.56667c-.09166 0-.11666-.05-.09166-.15l2.68333-7.72496c.00729-.0243.01458-.0493.02207-.075.01821-.06249.03765-.12915.06126-.2.03334-.175.05-.35834.05-.54167-.00833-.04167.025-.08333.06667-.09167h.025 2.13331c.0667 0 .1.025.1084.06667l3.0416 8.58333c.025.0917 0 .1333-.0833.1333h-1.7417c-.0583.0084-.1166-.0333-.1333-.0916zm-2.61671-1.6916h2.11671c-.05-.175-.1167-.3834-.1917-.6-.075-.225-.15-.4667-.225-.7167-.0417-.1292-.0813-.2562-.1208-.3833-.0396-.1271-.0792-.2542-.1209-.3834-.0833-.2583-.1583-.49997-.225-.74163-.0295-.10326-.0574-.20326-.0843-.29999-.034-.12185-.0665-.23852-.099-.35001h-.0167c-.075.35833-.16664.71667-.28331 1.075-.04761.15233-.09522.30713-.14329.46343-.07814.254-.15749.5119-.24004.7699-.11667.425-.24167.8167-.36667 1.1667zm6.33331-3.88336c.2.19167.4667.3.7417.29167.2833.01666.5666-.09167.7583-.29167.2-.20833.3-.48333.2917-.76667.0083-.275-.0917-.54167-.275-.74167-.1834-.19166-.4334-.29166-.7584-.29166-.275 0-.5416.1-.7416.29166-.2.19167-.3084.45834-.3.74167-.0084.28334.0916.55834.2833.76667zm-.1917 1.10833v6.41663c0 .0834.0417.1334.125.1334h1.6334c.075 0 .1083-.0417.1083-.1334v-6.41663c0-.075-.0333-.11666-.1083-.11666h-1.65c-.075 0-.1084.03333-.1084.11666z" fill="#38454d" fill-rule="evenodd"/></svg>