<svg fill="none" height="24" viewBox="0 0 24 24" width="24" xmlns="http://www.w3.org/2000/svg"><path clip-rule="evenodd" d="m5.54167 2h12.91663c1.9584 0 3.5417 1.58333 3.5417 3.54167v12.41663c0 1.9584-1.5833 3.5417-3.5417 3.5417h-12.91663c-1.95834 0-3.54167-1.5833-3.54167-3.5417v-12.41663c0-1.95834 1.58333-3.54167 3.54167-3.54167zm3.72496 5.10001v8.54999c0 .0917-.04167.1333-.11667.1333h-1.63333c-.075 0-.10834-.0416-.10834-.1333v-8.54999c0-.07501.04167-.10834.11667-.10834h1.625c.05-.00833.1.025.10833.08334.00834.00833.00834.01666.00834.025zm3.00827 8.44169c.5583.2583 1.175.3833 1.7917.375.4333 0 .8666-.0417 1.2833-.1167.4667-.0833.925-.2167 1.3583-.4.0584-.025.0834-.075.0834-.1333-.0013-.0219-.0026-.0443-.0039-.0673-.0072-.126-.0154-.2681-.0295-.4161-.0007-.0168-.0015-.0334-.0022-.0499-.0075-.1638-.0144-.3138-.0144-.4501v-7.93329-.01667c-.0084-.03333-.0417-.06667-.0834-.05833h-1.6916c-.0584 0-.0834.03333-.0834.09166v2.63334c-.0462-.00386-.0889-.00593-.1289-.00787-.0464-.00225-.0891-.00432-.1294-.0088-.075-.00833-.1333-.00833-.175-.00833-.825 0-1.525.15833-2.1083.48333-.55.3-1.0084.74996-1.325 1.29166-.3084.5333-.4667 1.1417-.4584 1.7583 0 .7584.15 1.3917.4584 1.9.3.4917.7333.8917 1.2583 1.1334zm2.6083-4.9584v3.6667c-.0916.0333-.1916.05-.3.0417-.1083.0083-.225.0166-.35.0166-.2333 0-.4666-.0333-.6916-.1083-.2167-.0667-.4084-.1833-.5667-.3333-.1667-.1667-.2917-.3667-.375-.5917-.1-.275-.15-.5667-.1417-.8583 0-.4334.0917-.7917.275-1.0584.1834-.2666.425-.475.7084-.6166.2916-.15.6166-.2167.9416-.2167.0917 0 .1834.0083.275.0167.075.0083.15.025.225.0416z" fill="#38454d" fill-rule="evenodd"/></svg>