<svg fill="none" height="24" viewBox="0 0 24 24" width="24" xmlns="http://www.w3.org/2000/svg"><path clip-rule="evenodd" d="m5.54167 2h12.91663c1.9584 0 3.5417 1.58333 3.5417 3.54167v12.41663c0 1.9584-1.5833 3.5417-3.5417 3.5417h-12.91663c-1.95834 0-3.54167-1.5833-3.54167-3.5417v-12.41663c0-1.95834 1.58333-3.54167 3.54167-3.54167zm.95838 13.675v-8.575c0-.05833.025-.09166.08334-.09166h.00002c.14166 0 .27499 0 .46664-.00834.103-.00429.20821-.00637.31676-.00852h.00001.00001c.10223-.00202.20744-.0041.31656-.00814.11638-.00432.23721-.0064.36251-.00855.11694-.00202.23777-.0041.36249-.00812.25833-.00833.50833-.00833.75833-.00833.68333 0 1.24998.08333 1.71668.25833.4167.14167.8.375 1.1167.68333.2666.26667.475.59167.6083.95.125.35.1917.70834.1917 1.08334 0 .71666-.1667 1.30836-.5 1.77496-.3334.4667-.8.8167-1.3417 1.0167-.5667.2083-1.19168.2833-1.87501.2833-.2 0-.33334 0-.41667-.0083s-.2-.0083-.35833-.0083v2.675c.00833.0583-.03334.1083-.09167.1166h-.03333-1.58334c-.06666 0-.1-.0333-.1-.1083zm1.81667-7.05833v2.80003l.025.0018h.00003c.10717.0077.20716.0148.29997.0148h.44167c.325 0 .65-.05.95831-.15.2667-.075.5-.2333.6834-.4416.175-.2084.2583-.4917.2583-.85836.0083-.25834-.0583-.51667-.1917-.74167-.1416-.21667-.3416-.38333-.5833-.475-.30835-.125-.64168-.175-.98335-.16667-.21666 0-.40833 0-.56666.00834-.16667-.00834-.28334 0-.34167.00833zm8.88328 2.00833c.2833.0583.55.15.8.2833.0333.0167.075.0167.15 0 .025-.0166.0417-.05.0417-.0833v-1.35832c0-.03334-.0084-.06667-.0167-.1-.0167-.03334-.05-.06667-.0833-.075-.225-.09167-.4667-.15834-.7167-.19167-.3417-.05-.6917-.075-1.0333-.075-.5917 0-1.0834.09167-1.475.29167-.3584.16666-.6667.43333-.875.76662-.1834.3084-.2834.65-.2834 1.0084-.0083.2916.0584.5833.1917.85.1583.2833.375.525.6333.7083.3667.25.7584.45 1.1834.6.4083.1583.6833.2833.8166.3917.1334.1083.2.2166.2.3333 0 .15-.0916.2917-.225.35-.15.075-.375.1167-.6916.1167-.3334 0-.6667-.0417-.9834-.125-.3666-.0834-.7083-.2167-1.0333-.4084-.025-.0166-.05-.025-.075-.0083s-.0333.05-.0333.075v1.45c-.0084.0667.0333.125.0916.1583.2667.125.5584.2167.85.2667.375.075.75.1083 1.1334.1083.6 0 1.1-.0916 1.5083-.2666.375-.15.7-.4084.9333-.7417.2167-.325.3334-.7167.325-1.1083.0084-.3-.0583-.5917-.1916-.8584-.1584-.2833-.3834-.5166-.6584-.6916-.4-.25-.8333-.4584-1.2833-.6084-.2-.0833-.4-.175-.5917-.275-.1083-.0583-.2083-.1333-.2833-.225-.05-.0666-.0833-.1416-.0833-.2166s.025-.1584.0666-.225c.0584-.0834.15-.1417.2584-.1667.1583-.0417.3333-.0667.5-.0583.3166 0 .625.0416.9333.1083z" fill="#38454d" fill-rule="evenodd"/></svg>