<svg fill="none" height="24" viewBox="0 0 24 24" width="24" xmlns="http://www.w3.org/2000/svg"><path clip-rule="evenodd" d="m22 12c0-5.52727-4.4727-10-10-10-5.52727 0-10 4.47273-10 10 0 5.5273 4.47273 10 10 10 5.5273 0 10-4.4727 10-10zm-6.3636 6.9818c.7636-.6182 1.3091-1.4545 1.6727-2.5818l2.8364-8.72727h-2.4364l-1.8545 7.23637-1.7455-7.23637h-2.5091l3.0182 9.67277s-.2909.3272-.4364.4363c-.4.2909-1.0182.4727-1.8545.5818l.2545 1.6728c1.2728-.1091 2.2909-.4364 3.0546-1.0546zm-5.5273-11.3818c-.43636-.18181-.98182-.25454-1.56364-.25454-.83636 0-1.56363.21818-2.18181.54545-.61819.4-1.12728.94546-1.45455 1.67273-.32727.69086-.50909 1.52726-.50909 2.43636 0 .9455.18182 1.7455.50909 2.4364s.83636 1.2363 1.45455 1.6c.65454.3636 1.38181.5454 2.25454.5454 1.09091 0 2.03641-.3273 2.87271-1.0182l-1.0182-1.4545c-.3636.2182-.65451.3636-.90905.4727-.25455.1091-.54546.1455-.83637.1455-.61818 0-1.05454-.1818-1.38182-.6182-.32727-.4-.47272-1.0909-.47272-2.0727 0-1.9273.61818-2.87276 1.85454-2.87276.29091 0 .61818.03636.87273.14545.25455.1091.54549.25455.83639.47273l1.0182-1.38182c-.4364-.36363-.8728-.61818-1.3455-.8z" fill="#38454d" fill-rule="evenodd"/></svg>