<svg fill="none" height="24" viewBox="0 0 24 24" width="24" xmlns="http://www.w3.org/2000/svg"><g fill="#38454d"><path d="m15.7258 20.4722c2.7223 0 4.9505-2.1951 5.0719-4.9404-.0033.0628-.0075.1251-.0125.1873.0112-.1397.0181-.2803.0181-.423 0-1.258-.4429-2.412-1.1783-3.3103.7354-.8978 1.1783-2.05202 1.1783-3.30985 0-2.85396-2.2776-5.17607-5.0777-5.17607h-5.98062c1.46072.90906 2.67032 2.19812 3.49452 3.73179h2.4861c.7812 0 1.4169.64762 1.4169 1.44428 0 .79648-.6357 1.44405-1.4169 1.44405l-1.4666-.0001c.1154.6096.1774 1.2372.1774 1.88 0 .633-.0609 1.2518-.1723 1.8519h1.4617c.7812 0 1.4169.648 1.4169 1.4443 0 .7967-.6357 1.4443-1.4169 1.4443h-2.47c-.1851.3473-.393.6803-.6167 1.0018-.7608 1.0925-1.73 2.0242-2.85121 2.73z"/><path d="m3.19629 3.49988h1.47691c4.59859 0 8.34 3.81314 8.34 8.50002 0 1.741-.5172 3.3609-1.4018 4.7102-1.4968 2.2828-4.04787 3.7898-6.9382 3.7898h-1.47691v-3.7314h1.47691c1.87755 0 3.49955-1.134 4.2439-2.7645.27813-.6096.4345-1.2888.4345-2.0041 0-2.62939-2.09886-4.76823-4.6784-4.76823h-1.47691z"/></g></svg>