<svg fill="none" height="24" viewBox="0 0 24 24" width="24" xmlns="http://www.w3.org/2000/svg"><path d="m15.4645 4.68579c-1.5484-1.54718-3.0252-3.02221-3.4648-4.68579-.4395 1.66358-1.917 3.13861-3.46476 4.68579-2.32138 2.32016-4.95376 4.95012-4.95376 8.89381 0 4.6434 3.7764 8.4204 8.41852 8.4204 4.6428 0 8.4192-3.777 8.4192-8.4204 0-3.94369-2.6318-6.57365-4.9544-8.89381zm-8.30517 10.85571c-.51593-.0176-2.42141-3.3011 1.1131-6.7974l2.33897 2.5548s.1437.1352-.0158.2983c-.5583.5723-2.93671 2.9579-3.23257 3.7824-.06123.1704-.15035.1637-.2037.1619zm4.84097 4.3281c-1.5993 0-2.89548-1.2962-2.89548-2.8955 0-.733.29161-1.3865.72145-1.9128.52203-.6384 2.17343-2.4341 2.17343-2.4341s1.626 1.8218 2.1692 2.4281c.4735.5262.7324 1.2107.7263 1.9188 0 1.5987-1.2962 2.8955-2.8949 2.8955zm5.5419-4.6955c-.0625.1364-.2037.3644-.3953.371-.3407.0122-.3771-.1618-.6287-.5347-.5529-.8178-5.3757-5.85828-6.2779-6.83315-.79355-.85725-.1115-1.4617.2044-1.77877.3965-.39771 1.555-1.55506 1.555-1.55506s3.4533 3.27623 4.8919 5.51518c1.4387 2.2389.9428 4.1759.6506 4.8155z" fill="#38454d"/></svg>