<svg fill="none" height="24" viewBox="0 0 24 24" width="24" xmlns="http://www.w3.org/2000/svg"><g fill="#38454d"><path d="m8.49984 22c1.83996 0 3.33336-1.4933 3.33336-3.3333v-3.3334h-3.33336c-1.84 0-3.33334 1.4934-3.33334 3.3334s1.49334 3.3333 3.33334 3.3333z"/><path d="m5.1665 12c0-1.84 1.49334-3.33334 3.33334-3.33334h3.33336v6.66664h-3.33336c-1.84 0-3.33334-1.4933-3.33334-3.3333z"/><path d="m5.1665 5.33333c0-1.84 1.49334-3.33333 3.33334-3.33333h3.33336v6.66667h-3.33336c-1.84 0-3.33334-1.49334-3.33334-3.33334z"/><path d="m11.8331 2h3.3334c1.84 0 3.3333 1.49333 3.3333 3.33333s-1.4933 3.33334-3.3333 3.33334h-3.3334z"/><path d="m18.4998 12c0 1.84-1.4933 3.3333-3.3333 3.3333s-3.3334-1.4933-3.3334-3.3333 1.4934-3.33334 3.3334-3.33334 3.3333 1.49334 3.3333 3.33334z"/></g></svg>