<svg fill="none" height="24" viewBox="0 0 24 24" width="24" xmlns="http://www.w3.org/2000/svg"><path d="m22.5851 11.0242-9.6056-9.56382c-.5528-.550893-1.45-.550893-2.0035 0l-1.99458 1.98607 2.53018 2.51941c.5881-.19781 1.2623-.06514 1.731.40163.471.46966.6033 1.14674.3998 1.73417l2.4385 2.42804c.5899-.2023 1.2706-.0713 1.7418.3986.6585.6554.6585 1.7178 0 2.3737-.6587.6559-1.7257.6559-2.3846 0-.4954-.4937-.6178-1.2181-.367-1.8257l-2.2741-2.26443-.0002 5.95893c.1605.0793.3121.1848.4458.3175.6585.6554.6585 1.7178 0 2.3742-.6587.6557-1.7261.6557-2.3839 0-.6585-.6564-.6585-1.7188 0-2.3742.1627-.1618.351-.2841.5518-.3663v-6.01445c-.2008-.08172-.3889-.20334-.5518-.3663-.499-.49609-.6189-1.22509-.3633-1.83512l-2.49401-2.48384-6.58626 6.55761c-.553505.5514-.553505 1.4448 0 1.9957l9.60557 9.564c.553.5509 1.45.5509 2.0037 0l9.5607-9.5195c.5532-.5512.5532-1.445 0-1.9959z" fill="#38454d"/></svg>