<svg fill="none" height="24" viewBox="0 0 24 24" width="24" xmlns="http://www.w3.org/2000/svg"><path clip-rule="evenodd" d="m12 2c-5.7651 0-10.43481 4.58772-10.43481 10.2516 0 4.531 2.99143 8.3699 7.13588 9.7292.51885.0944.71102-.2203.71102-.4972 0-.2454-.00641-.8873-.01281-1.7432-2.90175.6168-3.5167-1.3719-3.5167-1.3719-.47401-1.1831-1.15942-1.504-1.15942-1.504-.94803-.6357.07047-.6231.07047-.6231 1.04412.0755 1.60141 1.0573 1.60141 1.0573.92881 1.567 2.44054 1.1139 3.03627.8496.09608-.6608.36512-1.1139.65979-1.372-2.31245-.2517-4.74659-1.1327-4.74659-5.0597 0-1.1201.40356-2.03265 1.07615-2.75007-.1089-.26431-.46761-1.30268.09608-2.71235 0 0 .87757-.2769 2.86973 1.05096.83273-.22656 1.72313-.33983 2.61353-.34613.8839.0063 1.7807.11957 2.6135.34613 1.9921-1.32786 2.8697-1.05096 2.8697-1.05096.5701 1.40967.2114 2.45433.1025 2.71235.6662.71742 1.0697 1.62997 1.0697 2.75007 0 3.9396-2.4405 4.8017-4.7658 5.0597.3716.3147.7111.944.7111 1.9006 0 1.3719-.0129 2.4732-.0129 2.813 0 .2769.1858.5916.7175.4909 4.1444-1.3593 7.1295-5.1982 7.1295-9.7229 0-5.67018-4.6698-10.2579-10.4348-10.2579z" fill="#38454d" fill-rule="evenodd"/></svg>