<svg fill="none" height="24" viewBox="0 0 24 24" width="24" xmlns="http://www.w3.org/2000/svg"><g fill="#38454d"><path d="m14.6898 22.3367.2111-3.5172.5828-.9949s-1.3265.5427-3.5473.5427c-2.22082 0-3.52722-.5326-3.52722-.5326l.65318 1.0853.23107 3.4167c0 .3663 1.20797.6632 2.69827.6632 1.4901 0 2.6981-.2969 2.6981-.6632z"/><path clip-rule="evenodd" d="m14.467 4.16084-.443 1.75119c1.7266.10879 2.9293.3525 2.9293.63564 0 .38455-2.2176.69628-4.9532.69628-2.73566 0-4.95335-.31173-4.95335-.69628 0-.3845 2.21769-.69628 4.95335-.69628.4002 0 .7891.00673 1.1619.01934l.5144-2.09222 2.5975-2.75007.6466.55078zm-1.0789 2.75461c.2822-.00121.3782-.02272.3782-.02272l.005-.00067c.0834-.01128.207-.02799.2076-.12706.0001-.05943-.0499-.09377-.1072-.11155l-.0425.06659c.0351.0084.0553.01906.0553.03037-.0002.03742-.2672.05562-.4882.05835-.2209.0028-.5097-.02318-.5095-.06115 0-.00809.0106-.01567.0292-.02209l-.0427-.06705c-.0452.01843-.0807.04788-.0809.09786-.0002.02625.0116.06503.0331.08455.0798.07274.2803.07573.5626.07457z" fill-rule="evenodd"/><path d="m16.9157 1.58431c.0617-.07125-.0319-.25351-.2091-.40702-.1772-.15344-.3709-.220105-.4327-.14885-.0617.07125.0319.25351.2092.40695.1771.15347.3709.22021.4326.14892z"/><path d="m14.5719 13.7457c-.0582-.5595 1.2236-1.3697.8947-1.3957-.7082.0405-1.0607.8299-1.417 1.6568-.1305.303-.5773 1.5951-.8703 1.436-.293-.159.3798-1.2215.5683-1.8525-.2175.1595-1.0154.7794-1.2211.1989-.3306.2808-1.037.4329-.9573-.3047-.1759.3116-.5706.7465-1.0444.5658-.62225-.2373.3605-2.2194.6049-2.1194s-.0493.5515-.1263.7268c-.1692.3859-.3646.871-.234.9703.2237.1701.8323-.6436.8459-.6615.1138-.1504.4382-1.1344.6996-1.0214s-.6521 1.4122-.3105 1.67c.0689.052.3507-.0321.5221-.2176.1109-.12.0728-.3857.4426-1.2675.3697-.8818.6993-1.9799.9529-1.8963.2535.0837.0445.6473-.0464.8574-.4269.9861-1.1652 2.6152-.817 2.4919.3481-.1233.5294-.1305.8703-.5295.3409-.3989.3252-1.056.5524-1.042.2273.014.1892.2246.1341.3851.2236-.2559 1.06-.7949 1.262-.2611.2392.632-1.1967 1.5449-.8387 1.4983.349-.0454.9146-.4036 1.156-.7292l.6646-5.97513s-.6687.55346-4.9235.55346c-4.25479 0-4.85438-.54194-4.85438-.54194l.56583 5.45381c.30034-.8536 1.01353-2.58014 2.13772-2.52219.51133.02637 1.19403 1.01109.60923 1.04439-.2475.0141-.2726-.4915-.56571-.5657-.2115-.0536-.50597.1183-.69627.3046-.37953.3715-1.1958 1.8369-1.08794 2.5676.13741.9314 1.28536-.3237 1.4796-.6963.13679-.2625.2292-1.0403.52832-.9587.2993.0816-.026.8842-.24292 1.5939-.24363.7968-.37171 1.6373-.67706 1.5406-.3054-.0966.19205-1.1252.17405-1.3055-.28704.2648-.81584.9353-1.49236.6035l.3514 3.3868s.93396.7379 3.74739.7379c2.8135 0 3.782-.7264 3.782-.7264l.4364-3.9227c-.357.3476-1.4869.9649-1.5592.2691z"/></g></svg>