<svg fill="none" height="24" viewBox="0 0 24 24" width="24" xmlns="http://www.w3.org/2000/svg"><path clip-rule="evenodd" d="m4.63636 19.9688-1.63636-17.9688h18l-1.6364 17.9688-7.3836 2.0312zm7.34364-9.8438h-2.9534l-.19956-2.26562h3.15296.0399 5.4279l.0399-.46875.1198-1.13281.0399-.58594h-5.6275-.0399-5.62746l.03991.58594.55876 6.09378h5.02879.0399 2.7539l-.2794 2.8515-2.5144.6641-2.51438-.6641-.15964-1.7578h-1.19734-1.0377l.27938 3.4766 4.62968 1.25h.0399v-.0108l4.5898-1.2392.0399-.3906.5189-5.8204.0798-.5859h-.6386-4.5898z" fill="#38454d" fill-rule="evenodd"/></svg>