<svg fill="none" height="24" viewBox="0 0 24 24" width="24" xmlns="http://www.w3.org/2000/svg"><path clip-rule="evenodd" d="m3 3h18v18h-18zm4.73283 15.0421h.00003c.39873.8457 1.18421 1.5464 2.53734 1.5464 1.4983 0 2.5253-.7974 2.5253-2.5494v-5.7754h-1.6916v5.7515c0 .8457-.3504 1.0631-.9062 1.0631-.5799 0-.82164-.3986-1.08739-.8698l-1.37745.8336-.00006-.0001zm7.35867-.9787-1.3773.7974c.4953.9788 1.5103 1.7279 3.0811 1.7279 1.6069 0 2.8031-.8337 2.8031-2.3562 0-1.4136-.8096-2.0418-2.2474-2.6581l-.4229-.1812c-.7249-.3142-1.039-.5196-1.039-1.0271 0-.4108.3141-.7249.8095-.7249.4833 0 .7974.2054 1.0874.7249l1.317-.8458c-.5557-.9787-1.329-1.3533-2.4044-1.3533-1.5104 0-2.477.9667-2.477 2.2354 0 1.3774.8096 2.0299 2.03 2.5493l.4228.1814c.7733.3382 1.2324.5436 1.2324 1.1236 0 .4833-.4469.8337-1.1478.8337-.8337 0-1.3049-.4349-1.6675-1.027z" fill="#38454d" fill-rule="evenodd"/></svg>