<svg fill="none" height="24" viewBox="0 0 24 24" width="24" xmlns="http://www.w3.org/2000/svg"><path d="m12 2c-5.52313 0-10 4.47687-10 10 0 5.5231 4.47687 10 10 10 5.5231 0 10-4.4769 10-10-.0071-5.52028-4.4797-9.99288-10-10zm0 1.26975c3.6427 0 6.9025 2.2605 8.1794 5.6726-.6449-.38292-1.9203-.50392-3.5588-.36726-.1793.01423-.3871.14235.0086.17224.4697.03416 1.1701.18648 1.3665.58648.3815.77869-1.0719 1.28109-1.5658 1.53449-.0157-.0626-.0327-.1252-.0513-.1893-.6391-2.4427-3.1359-3.90462-5.5786-3.26548-2.4427.63915-3.90463 3.13598-3.26548 5.57868.0242.0911.04982.1808.07971.2704.01851.0627.03844.1239.05979.1865-.54519.0513-2.03986.4128-2.13523-.4484-.05125-.4427.45409-.9495.83132-1.2327.31743-.2378.07402-.2335-.08541-.1424-1.47331.7659-2.48826 1.5659-2.81281 2.2406-1.03203-4.7089 1.95017-9.36229 6.65911-10.39431.6135-.13381 1.2398-.20214 1.869-.20214zm0 17.46045c-3.66975 0-6.94804-2.2932-8.20498-5.7409.80284.5011 2.65053.5694 4.97366.2192 1.78652 1.7837 4.68182 1.7822 6.46552-.0042.6178-.6192 1.0462-1.4022 1.2327-2.2577 2.1224-.9523 3.6299-1.9929 4.0541-2.847 1.0491 4.7075-1.9146 9.3737-6.6221 10.4228-.6235.1395-1.2598.2093-1.8989.2093z" fill="#38454d"/></svg>