<svg fill="none" height="24" viewBox="0 0 24 24" width="24" xmlns="http://www.w3.org/2000/svg"><path d="m19.6671 3.00005h-15.33782c-.73418 0-1.32916.58169-1.32916 1.29688v15.40427c0 .7171.59498 1.2988 1.32916 1.2988h15.33782c.7341 0 1.3329-.5817 1.3329-1.2988v-15.40427c0-.71519-.5988-1.29688-1.3329-1.29688zm-11.32936 15.33945h-2.66976v-8.58996h2.66976zm-1.33298-9.76478c-.85623 0-1.54846-.69421-1.54846-1.54862 0-.85442.69223-1.54672 1.54846-1.54672.85433 0 1.54656.69421 1.54656 1.54672 0 .85441-.69414 1.54862-1.54656 1.54862zm11.33314 9.76478h-2.6679v-4.1787c0-.9955-.019-2.2771-1.3863-2.2771-1.3883 0-1.6019 1.0852-1.6019 2.2047v4.2491h-2.6678v-8.58796h2.5591v1.17296h.0363c.3566-.6752 1.228-1.38656 2.5267-1.38656 2.7041 0 3.2018 1.77936 3.2018 4.09276z" fill="#38454d"/></svg>