<svg fill="none" height="24" viewBox="0 0 24 24" width="24" xmlns="http://www.w3.org/2000/svg"><path d="m11.9999 22.5c-.2905 0-.5616-.0772-.8133-.2122l-2.57543-1.5241c-.38729-.2123-.19365-.2894-.07746-.328.52284-.1736.61966-.2122 1.16186-.5209.05809-.0386.13555-.0193.19364.0193l1.97519 1.1768c.0774.0386.1742.0386.2323 0l7.7264-4.4566c.0774-.0385.1162-.1157.1162-.2122v-8.89387c0-.09646-.0388-.17363-.1162-.21222l-7.7264-4.4373c-.0774-.03858-.1742-.03858-.2323 0l-7.72638 4.4373c-.07746.03859-.11618.13505-.11618.21222v8.89387c0 .0772.03872.1737.11618.2122l2.11071 1.2155c1.14249.5788 1.85897-.0965 1.85897-.7717v-8.77816c0-.11576.09682-.23152.23237-.23152h.98758c.11618 0 .23237.09647.23237.23152v8.77816c0 1.5241-.83267 2.4115-2.28499 2.4115-.44538 0-.79393 0-1.78151-.4823l-2.03325-1.1575c-.50347-.2894-.8133-.8296-.8133-1.4084v-8.89388c0-.57877.30983-1.11897.8133-1.40836l7.72633-4.45659c.4841-.27009 1.1425-.27009 1.6266 0l7.7264 4.45659c.5034.28939.8133.82959.8133 1.40836v8.89388c0 .5788-.3099 1.119-.8133 1.4084l-7.7264 4.4566c-.2517.1157-.5422.1736-.8133.1736zm2.3818-6.1158c-3.3887 0-4.0858-1.5434-4.0858-2.8553 0-.1157.0968-.2315.2323-.2315h1.007c.1162 0 .213.0772.213.193.1549 1.0225.6003 1.5241 2.6529 1.5241 1.6266 0 2.3237-.3666 2.3237-1.2348 0-.5016-.1936-.8681-2.7304-1.1189-2.1107-.2122-3.4274-.6753-3.4274-2.3537 0-1.56273 1.3167-2.48877 3.5243-2.48877 2.4786 0 3.6985.84887 3.8534 2.70097 0 .0579-.0193.1157-.058.1736-.0388.0386-.0969.0772-.155.0772h-1.0069c-.0968 0-.1936-.0772-.213-.1736-.2324-1.06113-.8327-1.4084-2.4205-1.4084-1.7816 0-1.9946.61737-1.9946 1.0804 0 .5595.2518.7331 2.6529 1.0418 2.3818.3087 3.505.7524 3.505 2.4116-.0194 1.6977-1.4136 2.6623-3.8729 2.6623z" fill="#38454d"/></svg>