<svg fill="none" height="24" viewBox="0 0 24 24" width="24" xmlns="http://www.w3.org/2000/svg"><path d="m13.4641 19.9999h8.9218c.2834 0 .5618-.0738.8072-.2144.2453-.1405.449-.3424.5909-.5856.1416-.2432.216-.5192.216-.8s-.0749-.5568-.2168-.7997l-5.9917-10.28547c-.1416-.2432-.3453-.44506-.5906-.58559-.2454-.14027-.5238-.2144-.8069-.2144-.2832 0-.5616.07386-.807.2144-.2453.14053-.449.34239-.5906.58559l-1.532 2.6317-2.9957-5.14661c-.1419-.24319-.3456-.44506-.59094-.58559-.24533-.14027-.52373-.2144-.80719-.2144-.28347 0-.56186.07387-.8072.2144-.24533.14026-.44932.3424-.59092.58559l-7.455652 12.80008c-.1418655.2432-.216798.5192-.216798.8s.0743992.5568.215998.8c.141598.2432.345329.4454.59066.5856.245332.1406.523732.2144.807192.2144h5.6002c2.21891 0 3.85515-.9658 4.98125-2.8506l2.7336-4.6922 1.4643-2.5112 4.3943 7.5426h-5.8586l-1.465 2.5112zm-6.34098-2.5136-3.90822-.0008 5.8586-10.05637 2.9232 5.02817-1.9573 3.3608c-.74777 1.2229-1.59736 1.6682-2.91628 1.6682z" fill="#38454d"/></svg>