<svg fill="none" height="24" viewBox="0 0 24 24" width="24" xmlns="http://www.w3.org/2000/svg" xmlns:xlink="http://www.w3.org/1999/xlink"><clipPath id="a"><path d="m0 5.93103h24v12.1379h-24z"/></clipPath><g clip-path="url(#a)" fill="#38454d"><path d="m18 10.1379h-.9824l-.5357 2.7496h.8722c.5781 0 1.009-.1086 1.2918-.3259.2832-.2172.4738-.5805.5732-1.089.0948-.4882.0515-.833-.1297-1.0336-.1815-.2006-.5447-.3011-1.0894-.3011z"/><path d="m6.80713 10.1379h-.98239l-.53568 2.7496h.87218c.57814 0 1.00903-.1086 1.29178-.3259.2832-.2172.4738-.5805.57317-1.089.09485-.4882.05149-.833-.12963-1.0336-.18157-.2006-.54471-.3011-1.08943-.3011z"/><path d="m12 5.93103c-6.62737 0-12 2.71715-12 6.06897 0 3.3518 5.37263 6.069 12 6.069 6.6274 0 12-2.7172 12-6.069 0-3.35182-5.3726-6.06897-12-6.06897zm-3.39205 7.25127c-.28636.2673-.60434.458-.95438.5716-.35005.1136-.79585.1704-1.33785.1704h-1.22855l-.34011 1.7466h-1.43405l1.27958-6.56971h2.75746c.82971 0 1.43495.21726 1.81526.65179.38031.43452.49503 1.04122.34327 1.82012-.06233.321-.16802.614-.31707.8799-.14905.266-.34327.5089-.58356.7293zm4.18605.742.566-2.907c.0646-.3308.0406-.5562-.0709-.6765-.112-.1204-.3501-.1803-.7137-.1803h-1.1373l-.733 3.7638h-1.42281l1.27961-6.56979h1.4227l-.3401 1.74668h1.2674c.7977 0 1.3478.13883 1.6504.4165.3027.27766.3934.72751.2724 1.34951l-.5953 3.0571zm7.9079-2.3512c-.0623.321-.168.614-.3171.8799-.149.266-.3432.5089-.5835.7293-.2864.2673-.6044.458-.9544.5716-.3501.1136-.7959.1704-1.3379.1704h-1.2285l-.3401 1.7466h-1.4341l1.2796-6.56971h2.7575c.8297 0 1.4349.21726 1.8152.65179.3803.43452.4951 1.04122.3433 1.82012z"/></g></svg>