<svg fill="none" height="24" viewBox="0 0 24 24" width="24" xmlns="http://www.w3.org/2000/svg"><path d="m20.6659 13.3368c-.8373.0043-1.565.2044-2.1743.5002-.2236-.4393-.4472-.8307-.4866-1.1178-.0439-.3349-.0965-.5393-.0439-.9394.0526-.4002.2894-.9699.285-1.0134s-.0526-.2479-.5348-.2523c-.4822-.0043-.8987.0914-.9469.2175s-.1403.4132-.2017.7089c-.0832.435-.9644 1.9876-1.4685 2.8009-.1622-.3175-.3025-.5958-.3332-.8176-.0438-.3349-.0964-.5393-.0438-.9395.0526-.4001.2893-.9698.2849-1.0133-.0043-.0435-.0526-.2479-.5348-.2523-.4822-.0043-.8986.0914-.9468.2175-.0483.1261-.1009.4219-.2017.7089-.1008.2871-1.2713 2.8792-1.5781 3.549-.1578.3436-.2937.6176-.3902.8046 0 0-.0044.0131-.0175.0348-.0833.1609-.1315.2479-.1315.2479v.0044c-.0658.1174-.1359.2261-.171.2261-.0263 0-.0745-.3131.0088-.7394.1753-.9003.5918-2.3007.5874-2.3486 0-.026.0789-.2696-.2718-.3957-.3419-.1262-.4647.0826-.4953.0826-.0307 0-.0526.0739-.0526.0739s.3813-1.5744-.7277-1.5744c-.69266 0-1.64831.7524-2.12175 1.4309-.29809.1609-.93372.5045-1.6132.8742-.25863.1435-.52604.2871-.77591.4219-.01753-.0174-.03507-.0392-.0526-.0565-1.34141-1.4223-3.82259-2.4269-3.71738-4.3362.03946-.69593.28056-2.52261 4.76508-4.74073 3.69106-1.80494 6.62816-1.30478 7.13666-.19572.7277 1.58313-1.5738 4.52325-5.38757 4.94945-1.45538.1609-2.21815-.3958-2.41103-.60455-.20165-.21746-.23233-.23051-.30686-.18702-.12274.06524-.04383.26096 0 .37407.11398.2957.58303.8176 1.37648 1.0742.70139.2262 2.40665.3523 4.47138-.4392 2.3102-.88729 4.1163-3.35331 3.5859-5.4192-.5305-2.09634-4.0374-2.78787-7.35589-1.61792-1.97266.69588-4.1119 1.79189-5.65058 3.21844-1.827998 1.69621-2.1173219 3.17058-1.9989622 3.78818.4252182 2.192 3.4718822 3.6186 4.6905522 4.6755-.06137.0348-.11836.0652-.16658.0913-.60933.3001-2.93269 1.5048-3.51134 2.7792-.657553 1.4439.10521 2.479.60933 2.6182 1.56498.4306 3.1738-.3436 4.03739-1.6223.86358-1.2786.75837-2.9401.35946-3.7012-.00438-.0087-.00877-.0174-.01754-.0261.15782-.0913.32001-.187.47783-.2783.31124-.1827.6181-.3523.88112-.4915-.14905.4045-.25864.8873-.31124 1.5831-.06576.8177.27179 1.8789.71454 2.2964.19726.1827.4296.1871.57865.1871.51727 0 .74961-.4263 1.00825-.9308.31562-.6176.60056-1.3352.60056-1.3352s-.35508 1.9398.60935 1.9398c.3507 0 .7058-.4524.8636-.6829v.0044s.0087-.0131.0263-.0435c.035-.0565.057-.0913.057-.0913v-.0087c.1402-.2436.4559-.796.9249-1.7136.605-1.183 1.188-2.6618 1.188-2.6618s.0526.361.2323.9612c.1052.3523.3244.7394.4998 1.1134-.1403.1957-.228.3045-.228.3045s0 0 .0044.0043c-.114.1479-.2367.3088-.3726.4654-.4778.5654-1.0477 1.2134-1.1266 1.4004-.0921.2218-.0702.3828.1052.5132.1271.0957.3551.1088.5874.0957.4296-.0304.7321-.1348.8811-.2.2324-.0827.5042-.2088.7584-.3958.4691-.3436.754-.8351.7277-1.4831-.0131-.3567-.1315-.7133-.2762-1.0482.0439-.0609.0833-.1218.1272-.1826.7408-1.0743 1.3151-2.253 1.3151-2.253s.0526.361.2323.9612c.0877.3045.2674.635.4252.9569-.697.561-1.1266 1.2134-1.28 1.6396-.2762.7916-.0614 1.1482.3463 1.2309.1841.0391.4471-.0479.64-.1305.2455-.0783.5348-.2131.811-.4132.4691-.3436.9206-.822.8943-1.47-.0132-.2958-.0921-.5872-.2017-.8699.5918-.2435 1.3546-.3784 2.3278-.2653 2.0866.2436 2.4987 1.5353 2.4198 2.0789-.0789.5437-.5173.8395-.662.9308-.1446.0913-.1929.1218-.1797.187.0175.0957.0877.0913.2104.0739.171-.0304 1.0959-.4392 1.1354-1.4396.0657-1.2786-1.1617-2.6747-3.3316-2.6617zm-16.09694 5.3844c-.69263.748-1.65704 1.0307-2.07349.7915-.44714-.2566-.27179-1.3613.57865-2.1528.51727-.4828 1.1836-.9308 1.62635-1.2048.10082-.0609.24987-.1479.4296-.2566.03069-.0174.04822-.0261.04822-.0261.03507-.0217.07014-.0435.10521-.0652.31124 1.1308.01315 2.1268-.71454 2.914zm5.04124-3.4011c-.2411.5828-.74522 2.0745-1.05208 1.9919-.26302-.0696-.42522-1.2004-.05261-2.3181.1885-.5611.58742-1.2309.81975-1.4918.377-.4176.79344-.5567.89424-.3871.1272.2218-.46025 1.8397-.6093 2.2051zm4.1601 1.9745c-.1008.0522-.1972.087-.2411.0609-.0307-.0174.0439-.087.0439-.087s.5216-.5567.7277-.8089c.1183-.1479.2586-.3219.4076-.5176v.0565c0 .6655-.6487 1.1134-.9381 1.2961zm3.2089-.7263c-.0745-.0522-.0614-.2262.1885-.7698.0964-.2131.3244-.5698.7145-.9134.0439.1392.0746.274.0702.4002-.0044.8394-.6094 1.1525-.9732 1.283z" fill="#38454d"/></svg>