<svg fill="none" height="24" viewBox="0 0 24 24" width="24" xmlns="http://www.w3.org/2000/svg"><path d="m12 4.64503c-3.2 0-5.2 1.63441-6 4.90323 1.2-1.63441 2.6-2.24731 4.2-1.83871.9129.23313 1.5654.90964 2.2876 1.65852 1.1765 1.21993 2.5382 2.63183 5.5124 2.63183 3.2 0 5.2-1.6344 6-4.90325-1.2 1.63441-2.6 2.24731-4.2 1.83871-.9129-.23313-1.5654-.90964-2.2876-1.65852-1.1765-1.2199-2.5382-2.63181-5.5124-2.63181zm-6 7.35487c-3.2 0-5.2 1.6344-6 4.9032 1.2-1.6344 2.6-2.2473 4.2-1.8387.91289.2331 1.56538.9096 2.2876 1.6585 1.17653 1.2199 2.53822 2.6318 5.5124 2.6318 3.2 0 5.2-1.6344 6-4.9032-1.2 1.6344-2.6 2.2473-4.2 1.8387-.9129-.2331-1.5654-.9096-2.2876-1.6585-1.1765-1.2199-2.53822-2.6318-5.5124-2.6318z" fill="#38454d"/></svg>