<svg fill="none" height="24" viewBox="0 0 24 24" width="24" xmlns="http://www.w3.org/2000/svg"><g fill="#38454d"><path d="m6.66424 20.6599c-.19503-2.1872-.59808-5.5705-1.16582-7.9469-.00289-.013-.00578-.0289-.00867-.0405 0-.0361-.01589-.0737-.02745-.1098 0 .0101 0 .0231.00145.0332 0-.013-.00145-.0202-.00145-.0202.0809 1.2077.16469 3.9872.18636 6.2784v.0404c0 .0607 0 .1228.00145.1835 0 .0737 0 .1488.00144.221v.1055.2802.0362.312c-.31782-.7469-.76565-1.4114-1.36517-1.8188.03611.0448.07223.091.10834.1372h-.00289c.13147.1691.2557.3482.36983.5447.00433.0057.00722.013.01156.0202l.039.0693c.46517.848.75554 2.0384.70787 4.2444l-.42039-1.1182.17047 1.3883h.35104l-.08378-.221.51862.0216s0-.0086 0-.013l.10546.0044c.013.1127.026.1806.03033.1834.00867.0087.10113.0058.22103-.0057.09968-.0073.19791-.0188.2947-.0376 0 0 0-.0014 0-.0029.1618-.0289.2976-.0693.28749-.1156-.30049-1.1802-.19358-3.0987 1.21926-3.1594-.75265-.1069-1.24093.1243-1.55442.5071zm-.7411 1.1167c-.11268 0-.20369-.0911-.20369-.2023s.09101-.2022.20369-.2022.20369.091.20369.2022-.09101.2023-.20369.2023zm.51573 0c-.11268 0-.20369-.0911-.20369-.2023s.09101-.2022.20369-.2022.2037.091.2037.2022-.09102.2023-.2037.2023z"/><path d="m7.5411 23.4104.17046-1.0733-.40016 1.0733z"/><path d="m8.09588 23.1287.0939-.3944-.29037.3944z"/><path d="m4.75737 23.2819h.16035l-.45361-.4955z"/><path d="m17.3517 22.0034.2384-.9853-.7267.9853z"/><path d="m15.9705 22.7069.4218-2.6769-.9968 2.6769z"/><path d="m9.02187 22.3891h.40595l-1.12826-1.2381z"/><path d="m18.4482.634418c-.1373-.041894-.2789-.066453-.4219-.079454.0044 0 .0073-.001445.0116-.001445-.0029 0-.0058 0-.0087 0 .0145-.010112.0231-.020225.0202-.028892-.0158-.047673-.3886-.034672-.8552.11557-.0072.002889-.0159.004334-.0231.007223-.39.128572-.8408.35393-1.2034.72376-.0635.06356-.1878.22392-.4391.54751-.328.42472-.6545.84656-.9607 1.31895-.3149.49262-.5909 1.00691-.8278 1.54142-.455 1.04591-.7888 2.13805-.9953 3.25764-.0333.15313-.0549.27592-.0723.36404-.0072.03467-.013.07079-.0187.10546-.0087.03756-.0174.07512-.0246.11268 0 0-.0275.12857-.0578.27304-.2817 1.47788-.4854 2.97158-.6125 4.47108-.0578.5894-.1055 1.1789-.1445 1.7697-.0144.1633-.0274.3265-.0404.4897-.7975-2.3966-2.06585-4.6401-3.92219-5.89693 1.87801 2.31573 3.24029 5.14723 3.08569 12.51483l-1.03865-2.778.42185 3.4743h.8769l-.2138-.5706 1.3001.0563c0-.0072 0-.0173 0-.0245l.2601.0115c.0346.2817.0664.4493.0765.458.0246.0202.2629.013.5663-.0159.1546-.0116.3077-.0304.4609-.0549.5085-.0737 1.0098-.1893.9794-.3294-.7512-2.9543-.4796-7.7476 3.0438-7.8978-2.2247-.3149-3.5263.5519-4.2732 1.8304.0073-2.2566.1344-3.9713.2615-4.9349.0636-.4955.234-1.57465.4609-2.73757.1675-.87111.2643-1.23516.3394-1.50531.0752-.27159.1994-.65441.4435-1.42584.0882-.29326.1705-.53452.276-.84078.1213-.35538.1849-.54462.2759-.77721.0361-.09245.1878-.45939.4637-1.04591.182-.41605.3944-.8191.6371-1.20482.3453-.49551.7006-1.004016 1.2222-1.122475.9332-.210916 1.8765.947675 1.9314.884115.0549-.06357-.4189-.794549-1.264-1.054582zm-6.5038 17.994282c-.2831 0-.5128-.2282-.5128-.5085s.2297-.5085.5128-.5085c.2832 0 .5129.2282.5129.5085s-.2297.5085-.5129.5085zm1.7986-.5085c0 .2817-.2297.5085-.5128.5085-.2832 0-.5129-.2282-.5129-.5085s.2297-.5085.5129-.5085c.2831 0 .5128.2282.5128.5085z"/></g></svg>