<svg fill="none" height="24" viewBox="0 0 24 24" width="24" xmlns="http://www.w3.org/2000/svg"><path d="m21.3961 4.96085-3.688.676.612-2.13c.16-.558.048-1.16601-.302-1.63001-.348-.462-.902-.74-1.48-.74-.12 0-.242.012-.36.036l-6.95206 1.37c-.83001.16401-1.44401.86801-1.49401 1.71201l-.094 1.61-5.03601-.906c-.42601-.076-.74801.382-.53401.76l9.58199 16.88605c.196.346.696.344.89-.004l9.3941-16.88605c.21-.378-.112-.834-.538-.756zm-12.06806-.612c.006-.116.092-.214.206-.236l6.95206-1.37c.018-.004.034-.004.05-.004.164 0 .292.16.244.328l-.83 2.894-.47 1.63801c-.006.022-.01.044-.01.066v.02c0 .014 0 .028.004.042 0 .008.004.016.008.022.004.012.008.024.014.034.004.008.008.014.012.022.006.01.012.02.02.028.006.006.012.012.018.018.008.008.016.016.026.022.006.006.014.01.022.014.01.006.02.012.032.016.008.004.016.006.024.01.012.004.024.006.036.008.008 0 .018.002.026.004h.01c.016 0 .032 0 .05-.004l1.992-.386c.022-.004.044-.004.064-.004.01 0 .02.002.03.004.012.002.026.006.038.01.01.004.018.008.026.012.012.006.022.012.032.018.008.006.016.012.022.018.01.008.018.018.026.026.006.008.012.014.018.022.008.01.014.022.018.032.004.008.008.016.012.026.004.012.008.026.01.038 0 .008.004.018.006.026v.046.024c-.004.024-.012.046-.022.07l-5.6661 11.36404-.102.16c-.018.026-.038.046-.06.064-.006.004-.012.008-.018.012-.02.012-.04.022-.06.03-.004 0-.006.004-.01.004-.024.006-.05.008-.074.006-.006 0-.012 0-.016 0-.022-.002-.044-.008-.064-.016-.004 0-.006 0-.01-.004-.022-.01-.044-.022-.062-.038-.004-.004-.008-.008-.014-.012-.018-.016-.032-.034-.046-.054 0 0-.002-.004-.004-.006-.012-.022-.02-.046-.026-.072 0-.006-.002-.012-.002-.02-.004-.028-.004-.056.002-.088l.914-4.446c.004-.022.006-.044.004-.066 0-.008-.002-.014-.002-.02 0-.014-.004-.028-.008-.04-.002-.008-.006-.014-.008-.022-.004-.012-.01-.022-.016-.034-.004-.006-.008-.014-.014-.02-.008-.01-.016-.02-.024-.028-.006-.006-.01-.012-.016-.016-.01-.008-.02-.016-.032-.022-.006-.004-.012-.008-.018-.012-.014-.008-.03-.012-.046-.018-.004 0-.008-.004-.012-.004-.018-.004-.038-.008-.058-.008 0 0 0 0-.002 0-.024 0-.048.004-.072.01l-1.196.366c-.024.008-.048.01-.072.01-.02 0-.042 0-.06-.006-.004 0-.008-.002-.01-.004-.016-.004-.032-.01-.046-.018-.006-.004-.012-.008-.018-.012-.01-.006-.022-.014-.032-.022-.006-.006-.012-.01-.016-.016-.008-.008-.016-.018-.024-.028-.004-.006-.01-.012-.014-.02-.006-.01-.012-.022-.016-.034-.002-.008-.006-.014-.008-.022-.004-.014-.006-.028-.008-.042 0-.006-.002-.014-.002-.02 0-.022 0-.044.004-.066l.576-2.83c.004-.022.006-.044.004-.064 0-.006-.002-.014-.002-.02 0-.014-.004-.028-.008-.04-.002-.008-.006-.014-.008-.022-.004-.012-.01-.022-.016-.032-.004-.008-.008-.014-.014-.02-.006-.01-.014-.018-.022-.028-.006-.006-.012-.012-.018-.016-.008-.008-.018-.014-.028-.022-.006-.004-.014-.008-.02-.012-.01-.006-.022-.01-.032-.014-.008-.002-.014-.006-.022-.008-.012-.004-.026-.004-.038-.006-.008 0-.014-.002-.022-.002 0 0-.002 0-.004 0-.02 0-.038.002-.058.006l-1.93596.448c-.02.004-.04001.006-.06001.006-.004 0-.01 0-.014 0-.014 0-.028-.002-.042-.006-.006 0-.01199-.004-.02-.006-.01199-.004-.022-.008-.032-.012-.00599-.004-.012-.008-.02-.01-.01-.006-.018-.012-.028-.018-.006-.004-.012-.01-.016-.014-.008-.008-.016-.016-.022-.024-.004-.006-.01-.012-.014-.018-.006-.01-.012-.02-.018-.03-.004-.006-.006-.012-.01-.02-.004-.012-.008-.024-.012-.036 0-.006-.004-.012-.004-.018-.004-.018-.004-.038-.004-.058l.32201-5.46005.106-1.8z" fill="#38454d"/></svg>