<svg fill="none" height="24" viewBox="0 0 24 24" width="24" xmlns="http://www.w3.org/2000/svg"><g fill="#38454d"><path d="m21.8076 3.72408-4.3465-2.094c-.5031-.24238-1.1044-.14014-1.4993.25493l-14.22911 12.98109c-.38273.3491-.38229.952.00094 1.3006l1.16229 1.0572c.31331.2851.78517.306 1.1225.05l17.13518-13.00658c.5749-.43635 1.4005-.02611 1.4005.69587v-.0505c0-.50678-.2901-.96876-.7465-1.18861z"/><path d="m21.8076 20.2737-4.3465 2.094c-.5031.2423-1.1044.1401-1.4993-.2549l-14.22911-12.98111c-.38273-.34915-.38229-.95206.00094-1.30065l1.16229-1.05723c.31331-.28499.78517-.30597 1.1225-.04991l17.13518 13.0065c.5749.4364 1.4005.0262 1.4005-.6959v.0506c0 .5067-.2901.9687-.7465 1.1886z"/><path d="m17.4474 22.3699c-.5032.2421-1.1045.1398-1.4994-.2553.4865.4868 1.3185.142 1.3185-.5465v-19.13508c0-.68847-.832-1.03326-1.3185-.54644.3949-.3951.9962-.49749 1.4994-.25532l4.3458 2.09112c.4567.21973.7471.68188.7471 1.18888v14.17874c0 .507-.2904.9691-.7471 1.1888z"/></g></svg>